G75*
G70*
%OFA0B0*%
%FSLAX24Y24*%
%IPPOS*%
%LPD*%
%AMOC8*
5,1,8,0,0,1.08239X$1,22.5*
%
%ADD10R,0.0600X0.0600*%
%ADD11OC8,0.0600*%
%ADD12R,0.0120X0.0390*%
%ADD13R,0.0512X0.0591*%
%ADD14R,0.0591X0.0512*%
%ADD15R,0.0138X0.0591*%
%ADD16R,0.0591X0.0138*%
%ADD17R,0.0394X0.0394*%
%ADD18R,0.0354X0.0276*%
%ADD19R,0.0591X0.0591*%
%ADD20R,0.0512X0.0787*%
%ADD21R,0.0787X0.0512*%
%ADD22R,0.0350X0.0310*%
%ADD23R,0.0551X0.0394*%
%ADD24R,0.2126X0.2441*%
%ADD25R,0.0394X0.0630*%
%ADD26R,0.0710X0.0630*%
%ADD27R,0.0310X0.0350*%
%ADD28R,0.0315X0.0630*%
%ADD29R,0.0630X0.0315*%
%ADD30C,0.0594*%
%ADD31R,0.0866X0.0236*%
%ADD32R,0.0394X0.1260*%
%ADD33R,0.0472X0.0217*%
%ADD34R,0.0260X0.0800*%
%ADD35R,0.0787X0.0787*%
%ADD36R,0.0472X0.0709*%
%ADD37R,0.0236X0.0610*%
%ADD38C,0.1000*%
%ADD39C,0.2362*%
%ADD40C,0.0476*%
%ADD41R,0.0630X0.0710*%
%ADD42R,0.0551X0.1181*%
%ADD43C,0.0600*%
%ADD44R,0.0177X0.0394*%
%ADD45R,0.1120X0.0650*%
%ADD46R,0.0394X0.0177*%
%ADD47R,0.0755X0.1100*%
%ADD48C,0.0560*%
%ADD49R,0.0591X0.0394*%
%ADD50R,0.0787X0.0394*%
%ADD51C,0.0866*%
%ADD52C,0.2150*%
%ADD53R,0.1110X0.0315*%
%ADD54R,0.0354X0.0236*%
%ADD55C,0.0120*%
%ADD56C,0.0100*%
%ADD57C,0.0240*%
%ADD58C,0.0500*%
%ADD59C,0.0320*%
%ADD60C,0.0650*%
%ADD61C,0.0436*%
%ADD62C,0.0357*%
%ADD63C,0.0160*%
%ADD64C,0.0396*%
%ADD65C,0.0591*%
%ADD66C,0.0768*%
%ADD67C,0.0400*%
%ADD68C,0.0310*%
%ADD69C,0.1000*%
D10*
X037680Y003274D03*
D11*
X036680Y003274D03*
X035680Y003274D03*
X035680Y002274D03*
X036680Y002274D03*
X037680Y002274D03*
D12*
X037564Y014625D03*
X037820Y014625D03*
X038076Y014625D03*
X037308Y014625D03*
X037052Y014625D03*
X036796Y014625D03*
X036540Y014625D03*
X036284Y014625D03*
X036284Y016922D03*
X036540Y016922D03*
X036796Y016922D03*
X037052Y016922D03*
X037308Y016922D03*
X037564Y016922D03*
X037820Y016922D03*
X038076Y016922D03*
X044284Y016922D03*
X044540Y016922D03*
X044796Y016922D03*
X045052Y016922D03*
X045308Y016922D03*
X045564Y016922D03*
X045820Y016922D03*
X046076Y016922D03*
X046076Y014625D03*
X045820Y014625D03*
X045564Y014625D03*
X045308Y014625D03*
X045052Y014625D03*
X044796Y014625D03*
X044540Y014625D03*
X044284Y014625D03*
X030076Y014625D03*
X029820Y014625D03*
X029564Y014625D03*
X029308Y014625D03*
X029052Y014625D03*
X028796Y014625D03*
X028540Y014625D03*
X028284Y014625D03*
X028284Y016922D03*
X028540Y016922D03*
X028796Y016922D03*
X029052Y016922D03*
X029308Y016922D03*
X029564Y016922D03*
X029820Y016922D03*
X030076Y016922D03*
X022076Y016922D03*
X021820Y016922D03*
X021564Y016922D03*
X021308Y016922D03*
X021052Y016922D03*
X020796Y016922D03*
X020540Y016922D03*
X020284Y016922D03*
X020284Y014625D03*
X020540Y014625D03*
X020796Y014625D03*
X021052Y014625D03*
X021308Y014625D03*
X021564Y014625D03*
X021820Y014625D03*
X022076Y014625D03*
D13*
X022354Y013874D03*
X021606Y013874D03*
X020754Y013874D03*
X020006Y013874D03*
X020806Y018024D03*
X021554Y018024D03*
X023306Y021774D03*
X024054Y021774D03*
X028806Y018024D03*
X029554Y018024D03*
X031306Y021774D03*
X032054Y021774D03*
X036806Y018024D03*
X037554Y018024D03*
X039306Y021774D03*
X040054Y021774D03*
X044806Y018024D03*
X045554Y018024D03*
X047306Y021774D03*
X048054Y021774D03*
X046554Y013774D03*
X045806Y013774D03*
X044554Y013774D03*
X043806Y013774D03*
X041554Y011774D03*
X040806Y011774D03*
X038554Y013774D03*
X037806Y013774D03*
X036554Y013774D03*
X035806Y013774D03*
X036806Y010774D03*
X037554Y010774D03*
X031554Y010024D03*
X030806Y010024D03*
X030806Y009024D03*
X031554Y009024D03*
X031554Y008024D03*
X030806Y008024D03*
X030806Y007024D03*
X031554Y007024D03*
X030554Y013774D03*
X029806Y013774D03*
X028554Y013774D03*
X027806Y013774D03*
X015554Y018774D03*
X014806Y018774D03*
X014806Y019774D03*
X015554Y019774D03*
X015554Y020774D03*
X014806Y020774D03*
X008554Y020774D03*
X007806Y020774D03*
X007806Y019774D03*
X008554Y019774D03*
X008554Y021774D03*
X007806Y021774D03*
X007806Y025774D03*
X008554Y025774D03*
X009806Y027774D03*
X010554Y027774D03*
X010554Y028774D03*
X009806Y028774D03*
X005554Y028774D03*
X004806Y028774D03*
X004806Y027774D03*
X005554Y027774D03*
X014806Y032774D03*
X015554Y032774D03*
X016806Y032774D03*
X017554Y032774D03*
X012554Y036774D03*
X011806Y036774D03*
X011806Y037774D03*
X012554Y037774D03*
X010554Y006774D03*
X009806Y006774D03*
X041806Y002774D03*
X042554Y002774D03*
D14*
X039180Y003148D03*
X039180Y002400D03*
X033680Y004400D03*
X033680Y005148D03*
X033680Y006150D03*
X033680Y006898D03*
X033680Y008150D03*
X033680Y008898D03*
X033680Y010150D03*
X033680Y010898D03*
X035180Y015400D03*
X035180Y016148D03*
X031180Y016148D03*
X031180Y015400D03*
X027180Y015400D03*
X027180Y016148D03*
X023180Y016148D03*
X023180Y015400D03*
X019180Y015400D03*
X019180Y016148D03*
X013680Y019650D03*
X013680Y020398D03*
X018180Y027400D03*
X018180Y028148D03*
X018180Y030400D03*
X018180Y031148D03*
X014180Y031148D03*
X014180Y030400D03*
X012180Y030400D03*
X012180Y031148D03*
X008180Y031148D03*
X008180Y030400D03*
X007180Y030400D03*
X007180Y031148D03*
X003180Y031148D03*
X003180Y030400D03*
X008180Y009148D03*
X008180Y008400D03*
X012180Y008400D03*
X012180Y009148D03*
X013680Y009148D03*
X013680Y008400D03*
X017930Y004648D03*
X017930Y003900D03*
X018930Y003900D03*
X018930Y004648D03*
X020180Y007650D03*
X020180Y008398D03*
X039180Y015400D03*
X039180Y016148D03*
X043180Y016148D03*
X043180Y015400D03*
X047180Y015400D03*
X047180Y016148D03*
D15*
X027542Y010673D03*
X027345Y010673D03*
X027149Y010673D03*
X026952Y010673D03*
X026755Y010673D03*
X026558Y010673D03*
X026361Y010673D03*
X026164Y010673D03*
X025967Y010673D03*
X025771Y010673D03*
X025574Y010673D03*
X025377Y010673D03*
X025180Y010673D03*
X024983Y010673D03*
X024786Y010673D03*
X024589Y010673D03*
X024393Y010673D03*
X024196Y010673D03*
X023999Y010673D03*
X023802Y010673D03*
X023605Y010673D03*
X023408Y010673D03*
X023211Y010673D03*
X023015Y010673D03*
X022818Y010673D03*
X022818Y004374D03*
X023015Y004374D03*
X023211Y004374D03*
X023408Y004374D03*
X023605Y004374D03*
X023802Y004374D03*
X023999Y004374D03*
X024196Y004374D03*
X024393Y004374D03*
X024589Y004374D03*
X024786Y004374D03*
X024983Y004374D03*
X025180Y004374D03*
X025377Y004374D03*
X025574Y004374D03*
X025771Y004374D03*
X025967Y004374D03*
X026164Y004374D03*
X026361Y004374D03*
X026558Y004374D03*
X026755Y004374D03*
X026952Y004374D03*
X027149Y004374D03*
X027345Y004374D03*
X027542Y004374D03*
D16*
X028330Y005161D03*
X028330Y005358D03*
X028330Y005555D03*
X028330Y005752D03*
X028330Y005949D03*
X028330Y006146D03*
X028330Y006343D03*
X028330Y006539D03*
X028330Y006736D03*
X028330Y006933D03*
X028330Y007130D03*
X028330Y007327D03*
X028330Y007524D03*
X028330Y007721D03*
X028330Y007917D03*
X028330Y008114D03*
X028330Y008311D03*
X028330Y008508D03*
X028330Y008705D03*
X028330Y008902D03*
X028330Y009099D03*
X028330Y009295D03*
X028330Y009492D03*
X028330Y009689D03*
X028330Y009886D03*
X022030Y009886D03*
X022030Y009689D03*
X022030Y009492D03*
X022030Y009295D03*
X022030Y009099D03*
X022030Y008902D03*
X022030Y008705D03*
X022030Y008508D03*
X022030Y008311D03*
X022030Y008114D03*
X022030Y007917D03*
X022030Y007721D03*
X022030Y007524D03*
X022030Y007327D03*
X022030Y007130D03*
X022030Y006933D03*
X022030Y006736D03*
X022030Y006539D03*
X022030Y006343D03*
X022030Y006146D03*
X022030Y005949D03*
X022030Y005752D03*
X022030Y005555D03*
X022030Y005358D03*
X022030Y005161D03*
D17*
X029930Y006880D03*
X029930Y007667D03*
X010574Y010774D03*
X009786Y010774D03*
D18*
X029930Y009030D03*
X029930Y008518D03*
D19*
X020180Y009335D03*
X020180Y010713D03*
X017930Y002963D03*
X017930Y001585D03*
X043491Y002774D03*
X044869Y002774D03*
D20*
X010180Y018774D03*
X010180Y024774D03*
D21*
X026930Y001524D03*
X032930Y001524D03*
D22*
X008580Y023384D03*
X008580Y024144D03*
X007780Y023764D03*
D23*
X007747Y018148D03*
X007747Y017400D03*
X008613Y017774D03*
D24*
X003180Y023789D03*
D25*
X002282Y026663D03*
X004078Y026663D03*
D26*
X018180Y021334D03*
X019180Y021334D03*
X019180Y020214D03*
X018180Y020214D03*
X026180Y020214D03*
X027180Y020214D03*
X027180Y021334D03*
X026180Y021334D03*
X034180Y021334D03*
X035180Y021334D03*
X035180Y020214D03*
X034180Y020214D03*
X042180Y020214D03*
X043180Y020214D03*
X043180Y021334D03*
X042180Y021334D03*
D27*
X041190Y023374D03*
X040810Y024174D03*
X041570Y024174D03*
X041810Y018174D03*
X042570Y018174D03*
X042190Y017374D03*
X034570Y018174D03*
X033810Y018174D03*
X034190Y017374D03*
X026570Y018174D03*
X025810Y018174D03*
X026190Y017374D03*
X025190Y023374D03*
X024810Y024174D03*
X025570Y024174D03*
X018570Y018174D03*
X017810Y018174D03*
X018190Y017374D03*
D28*
X041332Y010622D03*
X041804Y010622D03*
X042276Y010622D03*
X042749Y010622D03*
X043221Y010622D03*
X043694Y010622D03*
X044166Y010622D03*
X044639Y010622D03*
X045111Y010622D03*
X045584Y010622D03*
X046056Y010622D03*
X046528Y010622D03*
X046528Y005425D03*
X046056Y005425D03*
X045584Y005425D03*
X045111Y005425D03*
X044639Y005425D03*
X044166Y005425D03*
X043694Y005425D03*
X043221Y005425D03*
X042749Y005425D03*
X042276Y005425D03*
X041804Y005425D03*
X041332Y005425D03*
D29*
X040229Y006401D03*
X040229Y006803D03*
X040229Y007276D03*
X040229Y007748D03*
X040229Y008299D03*
X040229Y008772D03*
X040229Y009244D03*
X040229Y009647D03*
X047631Y007394D03*
X047631Y006764D03*
X047631Y006134D03*
D30*
X008977Y001774D02*
X008383Y001774D01*
X008383Y002774D02*
X008977Y002774D01*
X008977Y003774D02*
X008383Y003774D01*
X011133Y003774D02*
X011727Y003774D01*
X011727Y002774D02*
X011133Y002774D01*
X011133Y001774D02*
X011727Y001774D01*
X012680Y022727D02*
X012680Y023321D01*
X013680Y023321D02*
X013680Y022727D01*
X013680Y026477D02*
X013680Y027071D01*
X012680Y027071D02*
X012680Y026477D01*
D31*
X035300Y009774D03*
X035300Y009274D03*
X035300Y008774D03*
X035300Y008274D03*
X035300Y007774D03*
X035300Y007274D03*
X035300Y006774D03*
X035300Y006274D03*
X035290Y005774D03*
X035290Y005274D03*
X039070Y005274D03*
X039070Y005774D03*
X039070Y006274D03*
X039070Y006774D03*
X039070Y007274D03*
X039070Y007774D03*
X039070Y008274D03*
X039070Y008774D03*
X039070Y009274D03*
X039070Y009774D03*
D32*
X037400Y023774D03*
X034960Y023774D03*
X029400Y023774D03*
X026960Y023774D03*
X021400Y023774D03*
X018960Y023774D03*
X011400Y032774D03*
X008960Y032774D03*
X006400Y032774D03*
X003960Y032774D03*
X042960Y023774D03*
X045400Y023774D03*
D33*
X047168Y020148D03*
X047168Y019774D03*
X047168Y019400D03*
X046918Y018648D03*
X046918Y017900D03*
X047942Y017900D03*
X047942Y018274D03*
X047942Y018648D03*
X048192Y019400D03*
X048192Y020148D03*
X040192Y020148D03*
X040192Y019400D03*
X039942Y018648D03*
X039942Y018274D03*
X039942Y017900D03*
X038918Y017900D03*
X038918Y018648D03*
X039168Y019400D03*
X039168Y019774D03*
X039168Y020148D03*
X032192Y020148D03*
X032192Y019400D03*
X031942Y018648D03*
X031942Y018274D03*
X031942Y017900D03*
X030918Y017900D03*
X030918Y018648D03*
X031168Y019400D03*
X031168Y019774D03*
X031168Y020148D03*
X024192Y020148D03*
X024192Y019400D03*
X023942Y018648D03*
X023942Y018274D03*
X023942Y017900D03*
X022918Y017900D03*
X022918Y018648D03*
X023168Y019400D03*
X023168Y019774D03*
X023168Y020148D03*
D34*
X017680Y009984D03*
X017180Y009984D03*
X016680Y009984D03*
X016180Y009984D03*
X015680Y009984D03*
X015180Y009984D03*
X014680Y009984D03*
X014680Y007564D03*
X015180Y007564D03*
X015680Y007564D03*
X016180Y007564D03*
X016680Y007564D03*
X017180Y007564D03*
X017680Y007564D03*
D35*
X016967Y024524D03*
X015393Y024524D03*
X015393Y028524D03*
X016967Y028524D03*
X020393Y033774D03*
X021967Y033774D03*
D36*
X021910Y001648D03*
X018918Y001648D03*
D37*
X019430Y002524D03*
X019824Y002524D03*
X020217Y002524D03*
X020611Y002524D03*
X021005Y002524D03*
X021399Y002524D03*
D38*
X035180Y029829D03*
X034393Y031246D03*
X035967Y031246D03*
X044393Y031246D03*
X045967Y031246D03*
X045180Y029829D03*
X026204Y030774D03*
X024156Y030774D03*
D39*
X024180Y037774D03*
X021180Y037774D03*
X028180Y037774D03*
X031180Y037774D03*
X034180Y037774D03*
X038180Y037774D03*
X041180Y037774D03*
X044180Y037774D03*
D40*
X014180Y037660D03*
X014180Y037069D03*
X014180Y036478D03*
X014180Y035888D03*
X010180Y035888D03*
X010180Y036478D03*
X010180Y037069D03*
X010180Y037660D03*
D41*
X019620Y019024D03*
X020740Y019024D03*
X027620Y019024D03*
X028740Y019024D03*
X035620Y019024D03*
X036740Y019024D03*
X043620Y019024D03*
X044740Y019024D03*
D42*
X021180Y029829D03*
X021180Y031719D03*
X020180Y027719D03*
X020180Y025829D03*
X016180Y003719D03*
X016180Y001829D03*
D43*
X020765Y020055D03*
X021595Y020055D03*
X021180Y020774D03*
X020350Y020774D03*
X020765Y021493D03*
X021595Y021493D03*
X022010Y020774D03*
X028350Y020774D03*
X029180Y020774D03*
X028765Y021493D03*
X029595Y021493D03*
X030010Y020774D03*
X029595Y020055D03*
X028765Y020055D03*
X036350Y020774D03*
X036765Y021493D03*
X037595Y021493D03*
X037180Y020774D03*
X038010Y020774D03*
X037595Y020055D03*
X036765Y020055D03*
X044350Y020774D03*
X044765Y021493D03*
X045595Y021493D03*
X045180Y020774D03*
X046010Y020774D03*
X045595Y020055D03*
X044765Y020055D03*
D44*
X016820Y029967D03*
X016564Y029967D03*
X016308Y029967D03*
X016052Y029967D03*
X015796Y029967D03*
X015540Y029967D03*
X015540Y031581D03*
X015796Y031581D03*
X016052Y031581D03*
X016308Y031581D03*
X016564Y031581D03*
X016820Y031581D03*
D45*
X016180Y030774D03*
D46*
X010987Y030902D03*
X010987Y031158D03*
X010987Y030646D03*
X010987Y030390D03*
X009373Y030390D03*
X009373Y030646D03*
X009373Y030902D03*
X009373Y031158D03*
X005987Y031158D03*
X005987Y030902D03*
X005987Y030646D03*
X005987Y030390D03*
X004373Y030390D03*
X004373Y030646D03*
X004373Y030902D03*
X004373Y031158D03*
D47*
X015378Y026524D03*
X016983Y026524D03*
D48*
X014460Y003774D02*
X013900Y003774D01*
X013900Y002774D02*
X014460Y002774D01*
X014460Y001774D02*
X013900Y001774D01*
D49*
X010960Y008184D03*
X010960Y009364D03*
D50*
X010860Y008774D03*
D51*
X010105Y008774D02*
X009515Y008774D01*
D52*
X005180Y013999D02*
X005180Y016149D01*
X002380Y015849D02*
X002380Y013699D01*
X002380Y018699D02*
X002380Y020849D01*
X005180Y021149D02*
X005180Y018999D01*
X006105Y035574D02*
X008255Y035574D01*
X007955Y037774D02*
X005805Y037774D01*
X015805Y037774D02*
X017955Y037774D01*
X018255Y035574D02*
X016105Y035574D01*
D53*
X006180Y010152D03*
X006180Y009167D03*
X006180Y008380D03*
X006180Y007396D03*
D54*
X022727Y023400D03*
X022727Y023774D03*
X022727Y024148D03*
X023633Y024148D03*
X023633Y023774D03*
X023633Y023400D03*
X030727Y023400D03*
X030727Y023774D03*
X030727Y024148D03*
X031633Y024148D03*
X031633Y023774D03*
X031633Y023400D03*
X038727Y023400D03*
X038727Y023774D03*
X038727Y024148D03*
X039633Y024148D03*
X039633Y023774D03*
X039633Y023400D03*
X046727Y023400D03*
X046727Y023774D03*
X046727Y024148D03*
X047633Y024148D03*
X047633Y023774D03*
X047633Y023400D03*
D55*
X048804Y023400D01*
X049180Y023024D01*
X049180Y022274D01*
X048930Y022024D01*
X048930Y017774D01*
X047930Y016774D01*
X047930Y013024D01*
X047430Y012524D01*
X039930Y012524D01*
X038930Y011524D01*
X038180Y011524D01*
X039180Y012524D02*
X032930Y012524D01*
X032680Y012274D01*
X032680Y012774D02*
X030180Y010274D01*
X030180Y010024D01*
X029058Y008902D01*
X028330Y008902D01*
X027808Y008902D01*
X026036Y007130D01*
X022030Y007130D01*
X022030Y007327D02*
X025983Y007327D01*
X027755Y009099D01*
X028330Y009099D01*
X029005Y009099D01*
X029930Y010024D01*
X029930Y010274D01*
X032680Y013024D01*
X039180Y013024D01*
X041430Y015274D01*
X041430Y018024D01*
X041580Y018174D01*
X041810Y018174D01*
X041930Y017774D02*
X041680Y017524D01*
X041680Y015274D01*
X039180Y012774D01*
X032680Y012774D01*
X031930Y013274D02*
X033180Y014524D01*
X033180Y021774D01*
X033930Y022524D01*
X036150Y022524D01*
X037400Y023774D01*
X037362Y023763D02*
X036180Y023763D01*
X036180Y023881D02*
X037044Y023881D01*
X037044Y023812D02*
X037362Y023812D01*
X037362Y023735D01*
X037439Y023735D01*
X037439Y022984D01*
X037618Y022984D01*
X037659Y022995D01*
X037696Y023016D01*
X037725Y023046D01*
X037746Y023082D01*
X037757Y023123D01*
X037757Y023735D01*
X037439Y023735D01*
X037439Y023812D01*
X037757Y023812D01*
X037757Y024425D01*
X037746Y024465D01*
X037725Y024502D01*
X037696Y024532D01*
X037659Y024553D01*
X037618Y024564D01*
X037439Y024564D01*
X037439Y023812D01*
X037362Y023812D01*
X037362Y024564D01*
X037183Y024564D01*
X037142Y024553D01*
X037105Y024532D01*
X037076Y024502D01*
X037055Y024465D01*
X037044Y024425D01*
X037044Y023812D01*
X037044Y023735D02*
X037044Y023123D01*
X037055Y023082D01*
X037076Y023046D01*
X037105Y023016D01*
X037142Y022995D01*
X037183Y022984D01*
X037362Y022984D01*
X037362Y023735D01*
X037044Y023735D01*
X037044Y023644D02*
X036180Y023644D01*
X036180Y023526D02*
X037044Y023526D01*
X037044Y023407D02*
X036180Y023407D01*
X036180Y023289D02*
X037044Y023289D01*
X037044Y023170D02*
X036180Y023170D01*
X036180Y023052D02*
X037072Y023052D01*
X037362Y023052D02*
X037439Y023052D01*
X037439Y023170D02*
X037362Y023170D01*
X037362Y023289D02*
X037439Y023289D01*
X037439Y023407D02*
X037362Y023407D01*
X037362Y023526D02*
X037439Y023526D01*
X037439Y023644D02*
X037362Y023644D01*
X037439Y023763D02*
X038390Y023763D01*
X038390Y023774D02*
X038390Y023635D01*
X038401Y023594D01*
X038422Y023557D01*
X038440Y023539D01*
X038440Y023524D01*
X038430Y023524D01*
X037680Y022774D01*
X036180Y022774D01*
X036180Y024774D01*
X039680Y024774D01*
X040180Y024274D01*
X040180Y023774D01*
X039976Y023570D01*
X039945Y023570D01*
X039959Y023594D01*
X039970Y023635D01*
X039970Y023774D01*
X039970Y023913D01*
X039959Y023954D01*
X039955Y023961D01*
X039959Y023968D01*
X039970Y024009D01*
X039970Y024148D01*
X039970Y024287D01*
X039959Y024328D01*
X039938Y024364D01*
X039908Y024394D01*
X039872Y024415D01*
X039831Y024426D01*
X039633Y024426D01*
X039633Y024148D01*
X039970Y024148D01*
X039633Y024148D01*
X039633Y024148D01*
X039633Y024148D01*
X039633Y024426D01*
X039435Y024426D01*
X039394Y024415D01*
X039357Y024394D01*
X039328Y024364D01*
X039306Y024328D01*
X039296Y024287D01*
X039296Y024148D01*
X039633Y024148D01*
X039633Y024148D01*
X039633Y024052D01*
X039633Y023774D01*
X039633Y023774D01*
X039970Y023774D01*
X039633Y023774D01*
X039633Y023774D01*
X039633Y024148D01*
X039633Y024148D01*
X039296Y024148D01*
X039296Y024009D01*
X039306Y023968D01*
X039311Y023961D01*
X039306Y023954D01*
X039296Y023913D01*
X039296Y023774D01*
X039633Y023774D01*
X039633Y023774D01*
X039296Y023774D01*
X039296Y023635D01*
X039306Y023594D01*
X039328Y023557D01*
X039346Y023539D01*
X039346Y023524D01*
X039014Y023524D01*
X039014Y023539D01*
X039032Y023557D01*
X039054Y023594D01*
X039064Y023635D01*
X039064Y023774D01*
X039064Y023913D01*
X039054Y023954D01*
X039049Y023961D01*
X039054Y023968D01*
X039064Y024009D01*
X039064Y024148D01*
X039064Y024287D01*
X039054Y024328D01*
X039032Y024364D01*
X039003Y024394D01*
X038966Y024415D01*
X038925Y024426D01*
X038727Y024426D01*
X038529Y024426D01*
X038488Y024415D01*
X038452Y024394D01*
X038422Y024364D01*
X038401Y024328D01*
X038390Y024287D01*
X038390Y024148D01*
X038727Y024148D01*
X038727Y024426D01*
X038727Y024148D01*
X038727Y024148D01*
X038727Y024148D01*
X038390Y024148D01*
X038390Y024009D01*
X038401Y023968D01*
X038405Y023961D01*
X038401Y023954D01*
X038390Y023913D01*
X038390Y023774D01*
X038727Y023774D01*
X038727Y024052D01*
X038727Y024148D01*
X039064Y024148D01*
X038727Y024148D01*
X038727Y024148D01*
X038727Y024148D01*
X038727Y023774D01*
X038727Y023774D01*
X038727Y023774D01*
X038390Y023774D01*
X038390Y023881D02*
X037757Y023881D01*
X037757Y024000D02*
X038392Y024000D01*
X038390Y024118D02*
X037757Y024118D01*
X037757Y024237D02*
X038390Y024237D01*
X038417Y024355D02*
X037757Y024355D01*
X037742Y024474D02*
X039980Y024474D01*
X039943Y024355D02*
X040098Y024355D01*
X040180Y024237D02*
X039970Y024237D01*
X039970Y024118D02*
X040180Y024118D01*
X040180Y024000D02*
X039968Y024000D01*
X039970Y023881D02*
X040180Y023881D01*
X040169Y023763D02*
X039970Y023763D01*
X039970Y023644D02*
X040051Y023644D01*
X040056Y023400D02*
X040430Y023774D01*
X040430Y024524D01*
X040680Y024774D01*
X040930Y024774D01*
X041180Y024524D01*
X041180Y024024D01*
X041680Y023524D01*
X041680Y022774D01*
X040930Y022024D01*
X040930Y015274D01*
X039680Y014024D01*
X039180Y014024D01*
X039180Y013524D02*
X039430Y013524D01*
X041180Y015274D01*
X041180Y021774D01*
X041930Y022524D01*
X044150Y022524D01*
X045400Y023774D01*
X045362Y023763D02*
X044180Y023763D01*
X044180Y023881D02*
X045044Y023881D01*
X045044Y023812D02*
X045362Y023812D01*
X045362Y023735D01*
X045439Y023735D01*
X045439Y022984D01*
X045618Y022984D01*
X045659Y022995D01*
X045696Y023016D01*
X045725Y023046D01*
X045746Y023082D01*
X045757Y023123D01*
X045757Y023735D01*
X045439Y023735D01*
X045439Y023812D01*
X045757Y023812D01*
X045757Y024425D01*
X045746Y024465D01*
X045725Y024502D01*
X045696Y024532D01*
X045659Y024553D01*
X045618Y024564D01*
X045439Y024564D01*
X045439Y023812D01*
X045362Y023812D01*
X045362Y024564D01*
X045183Y024564D01*
X045142Y024553D01*
X045105Y024532D01*
X045076Y024502D01*
X045055Y024465D01*
X045044Y024425D01*
X045044Y023812D01*
X045044Y023735D02*
X045044Y023123D01*
X045055Y023082D01*
X045076Y023046D01*
X045105Y023016D01*
X045142Y022995D01*
X045183Y022984D01*
X045362Y022984D01*
X045362Y023735D01*
X045044Y023735D01*
X045044Y023644D02*
X044180Y023644D01*
X044180Y023526D02*
X045044Y023526D01*
X045044Y023407D02*
X044180Y023407D01*
X044180Y023289D02*
X045044Y023289D01*
X045044Y023170D02*
X044180Y023170D01*
X044180Y023052D02*
X045072Y023052D01*
X045362Y023052D02*
X045439Y023052D01*
X045439Y023170D02*
X045362Y023170D01*
X045362Y023289D02*
X045439Y023289D01*
X045439Y023407D02*
X045362Y023407D01*
X045362Y023526D02*
X045439Y023526D01*
X045439Y023644D02*
X045362Y023644D01*
X045439Y023763D02*
X046390Y023763D01*
X046390Y023774D02*
X046390Y023635D01*
X046401Y023594D01*
X046422Y023557D01*
X046440Y023539D01*
X046440Y023524D01*
X046430Y023524D01*
X045680Y022774D01*
X044180Y022774D01*
X044180Y024774D01*
X047680Y024774D01*
X048180Y024274D01*
X048180Y023774D01*
X047976Y023570D01*
X047945Y023570D01*
X047959Y023594D01*
X047970Y023635D01*
X047970Y023774D01*
X047970Y023913D01*
X047959Y023954D01*
X047955Y023961D01*
X047959Y023968D01*
X047970Y024009D01*
X047970Y024148D01*
X047970Y024287D01*
X047959Y024328D01*
X047938Y024364D01*
X047908Y024394D01*
X047872Y024415D01*
X047831Y024426D01*
X047633Y024426D01*
X047633Y024148D01*
X047970Y024148D01*
X047633Y024148D01*
X047633Y024148D01*
X047633Y024148D01*
X047633Y024426D01*
X047435Y024426D01*
X047394Y024415D01*
X047357Y024394D01*
X047328Y024364D01*
X047306Y024328D01*
X047296Y024287D01*
X047296Y024148D01*
X047633Y024148D01*
X047633Y024148D01*
X047633Y023870D01*
X047633Y023774D01*
X047633Y023774D01*
X047970Y023774D01*
X047633Y023774D01*
X047633Y023774D01*
X047633Y024148D01*
X047633Y024148D01*
X047296Y024148D01*
X047296Y024009D01*
X047306Y023968D01*
X047311Y023961D01*
X047306Y023954D01*
X047296Y023913D01*
X047296Y023774D01*
X047633Y023774D01*
X047633Y023774D01*
X047296Y023774D01*
X047296Y023635D01*
X047306Y023594D01*
X047328Y023557D01*
X047346Y023539D01*
X047346Y023524D01*
X047014Y023524D01*
X047014Y023539D01*
X047032Y023557D01*
X047054Y023594D01*
X047064Y023635D01*
X047064Y023774D01*
X047064Y023913D01*
X047054Y023954D01*
X047049Y023961D01*
X047054Y023968D01*
X047064Y024009D01*
X047064Y024148D01*
X047064Y024287D01*
X047054Y024328D01*
X047032Y024364D01*
X047003Y024394D01*
X046966Y024415D01*
X046925Y024426D01*
X046727Y024426D01*
X046529Y024426D01*
X046488Y024415D01*
X046452Y024394D01*
X046422Y024364D01*
X046401Y024328D01*
X046390Y024287D01*
X046390Y024148D01*
X046727Y024148D01*
X046727Y024426D01*
X046727Y024148D01*
X046727Y024148D01*
X046727Y024148D01*
X046390Y024148D01*
X046390Y024009D01*
X046401Y023968D01*
X046405Y023961D01*
X046401Y023954D01*
X046390Y023913D01*
X046390Y023774D01*
X046727Y023774D01*
X046727Y024052D01*
X046727Y024148D01*
X047064Y024148D01*
X046727Y024148D01*
X046727Y024148D01*
X046727Y024148D01*
X046727Y023774D01*
X046727Y023774D01*
X046727Y023774D01*
X046390Y023774D01*
X046390Y023881D02*
X045757Y023881D01*
X045757Y024000D02*
X046392Y024000D01*
X046390Y024118D02*
X045757Y024118D01*
X045757Y024237D02*
X046390Y024237D01*
X046417Y024355D02*
X045757Y024355D01*
X045742Y024474D02*
X047980Y024474D01*
X047943Y024355D02*
X048098Y024355D01*
X048180Y024237D02*
X047970Y024237D01*
X047970Y024118D02*
X048180Y024118D01*
X048180Y024000D02*
X047968Y024000D01*
X047970Y023881D02*
X048180Y023881D01*
X048169Y023763D02*
X047970Y023763D01*
X047970Y023644D02*
X048051Y023644D01*
X047804Y023400D02*
X047633Y023400D01*
X047346Y023526D02*
X047014Y023526D01*
X047064Y023644D02*
X047296Y023644D01*
X047296Y023763D02*
X047064Y023763D01*
X047064Y023774D02*
X046727Y023774D01*
X047064Y023774D01*
X047064Y023881D02*
X047296Y023881D01*
X047298Y024000D02*
X047062Y024000D01*
X047064Y024118D02*
X047296Y024118D01*
X047296Y024237D02*
X047064Y024237D01*
X047038Y024355D02*
X047322Y024355D01*
X047633Y024355D02*
X047633Y024355D01*
X047633Y024237D02*
X047633Y024237D01*
X047633Y024118D02*
X047633Y024118D01*
X047633Y024000D02*
X047633Y024000D01*
X047633Y023881D02*
X047633Y023881D01*
X047861Y024592D02*
X044180Y024592D01*
X044180Y024474D02*
X045059Y024474D01*
X045044Y024355D02*
X044180Y024355D01*
X044180Y024237D02*
X045044Y024237D01*
X045044Y024118D02*
X044180Y024118D01*
X044180Y024000D02*
X045044Y024000D01*
X045362Y024000D02*
X045439Y024000D01*
X045439Y024118D02*
X045362Y024118D01*
X045362Y024237D02*
X045439Y024237D01*
X045439Y024355D02*
X045362Y024355D01*
X045362Y024474D02*
X045439Y024474D01*
X045439Y023881D02*
X045362Y023881D01*
X045757Y023644D02*
X046390Y023644D01*
X046440Y023526D02*
X045757Y023526D01*
X045757Y023407D02*
X046314Y023407D01*
X046195Y023289D02*
X045757Y023289D01*
X045757Y023170D02*
X046077Y023170D01*
X045958Y023052D02*
X045729Y023052D01*
X045840Y022933D02*
X044180Y022933D01*
X044180Y022815D02*
X045721Y022815D01*
X046727Y023774D02*
X046727Y023774D01*
X046727Y023881D02*
X046727Y023881D01*
X046727Y024000D02*
X046727Y024000D01*
X046727Y024118D02*
X046727Y024118D01*
X046727Y024237D02*
X046727Y024237D01*
X046727Y024355D02*
X046727Y024355D01*
X047743Y024711D02*
X044180Y024711D01*
X041680Y024774D02*
X041570Y024664D01*
X041570Y024174D01*
X040810Y024174D02*
X040810Y023654D01*
X040054Y022898D01*
X040054Y021774D01*
X039168Y020888D01*
X039168Y020148D01*
X039168Y019774D02*
X038680Y019774D01*
X038430Y020024D01*
X037930Y019524D01*
X037930Y019274D01*
X038180Y019024D01*
X039180Y019024D01*
X039430Y018774D01*
X039430Y018524D01*
X039680Y018274D01*
X039942Y018274D01*
X039942Y018648D02*
X039190Y019400D01*
X039168Y019400D01*
X038554Y019400D01*
X038430Y019524D01*
X037595Y019359D02*
X038306Y018648D01*
X038918Y018648D01*
X038918Y018536D01*
X039430Y018024D01*
X039430Y017774D01*
X039180Y017524D01*
X037430Y017524D01*
X037052Y017146D01*
X037052Y016922D01*
X036796Y016922D02*
X036796Y016390D01*
X036554Y016148D01*
X035180Y016148D01*
X035180Y015400D02*
X036554Y015400D01*
X036796Y015158D01*
X036796Y014625D01*
X036540Y014625D02*
X036540Y014384D01*
X036430Y014274D01*
X036180Y014274D01*
X035806Y013900D01*
X035806Y013774D01*
X036554Y013774D02*
X037052Y014272D01*
X037052Y014625D01*
X037308Y014625D02*
X037308Y014272D01*
X037806Y013774D01*
X037680Y014274D02*
X038180Y014274D01*
X038554Y013900D01*
X038554Y013774D01*
X038076Y014625D02*
X040031Y014625D01*
X040680Y015274D01*
X040680Y022524D01*
X041180Y022774D02*
X041190Y022784D01*
X041190Y023374D01*
X040056Y023400D02*
X039633Y023400D01*
X039346Y023526D02*
X039014Y023526D01*
X039064Y023644D02*
X039296Y023644D01*
X039296Y023763D02*
X039064Y023763D01*
X039064Y023774D02*
X038727Y023774D01*
X039064Y023774D01*
X039064Y023881D02*
X039296Y023881D01*
X039298Y024000D02*
X039062Y024000D01*
X039064Y024118D02*
X039296Y024118D01*
X039296Y024237D02*
X039064Y024237D01*
X039038Y024355D02*
X039322Y024355D01*
X039633Y024355D02*
X039633Y024355D01*
X039633Y024237D02*
X039633Y024237D01*
X039633Y024118D02*
X039633Y024118D01*
X039633Y024000D02*
X039633Y024000D01*
X039633Y023881D02*
X039633Y023881D01*
X039861Y024592D02*
X036180Y024592D01*
X036180Y024474D02*
X037059Y024474D01*
X037044Y024355D02*
X036180Y024355D01*
X036180Y024237D02*
X037044Y024237D01*
X037044Y024118D02*
X036180Y024118D01*
X036180Y024000D02*
X037044Y024000D01*
X037362Y024000D02*
X037439Y024000D01*
X037439Y024118D02*
X037362Y024118D01*
X037362Y024237D02*
X037439Y024237D01*
X037439Y024355D02*
X037362Y024355D01*
X037362Y024474D02*
X037439Y024474D01*
X037439Y023881D02*
X037362Y023881D01*
X037757Y023644D02*
X038390Y023644D01*
X038440Y023526D02*
X037757Y023526D01*
X037757Y023407D02*
X038314Y023407D01*
X038195Y023289D02*
X037757Y023289D01*
X037757Y023170D02*
X038077Y023170D01*
X037958Y023052D02*
X037729Y023052D01*
X037840Y022933D02*
X036180Y022933D01*
X036180Y022815D02*
X037721Y022815D01*
X038727Y023774D02*
X038727Y023774D01*
X038727Y023881D02*
X038727Y023881D01*
X038727Y024000D02*
X038727Y024000D01*
X038727Y024118D02*
X038727Y024118D01*
X038727Y024237D02*
X038727Y024237D01*
X038727Y024355D02*
X038727Y024355D01*
X039743Y024711D02*
X036180Y024711D01*
X033180Y023024D02*
X033180Y022274D01*
X032930Y022024D01*
X032930Y014774D01*
X031430Y013274D01*
X031430Y012774D01*
X030554Y013774D02*
X030554Y013900D01*
X030180Y014274D01*
X029680Y014274D01*
X029564Y014390D01*
X029564Y014625D01*
X029820Y014625D02*
X029820Y014913D01*
X030306Y015400D01*
X031180Y015400D01*
X031531Y014625D02*
X030076Y014625D01*
X029308Y014625D02*
X029308Y014272D01*
X029806Y013774D01*
X029052Y014272D02*
X028554Y013774D01*
X028430Y014274D02*
X028180Y014274D01*
X027806Y013900D01*
X027806Y013774D01*
X028430Y014274D02*
X028540Y014384D01*
X028540Y014625D01*
X028284Y014625D02*
X027531Y014625D01*
X027180Y014274D01*
X027180Y013274D01*
X027930Y012524D01*
X028430Y012524D01*
X029180Y011774D01*
X029680Y011774D01*
X029180Y011524D02*
X028430Y012274D01*
X027930Y012274D01*
X025680Y014524D01*
X025680Y017524D01*
X025930Y017774D01*
X026430Y017774D01*
X026570Y017914D01*
X026570Y018174D01*
X025810Y018174D02*
X025810Y018154D01*
X025430Y017774D01*
X025430Y014524D01*
X027930Y012024D01*
X028430Y012024D01*
X028930Y011524D01*
X028930Y010024D01*
X028792Y009886D01*
X028330Y009886D01*
X027542Y009886D01*
X026180Y008524D01*
X023680Y008524D01*
X022908Y009295D01*
X022030Y009295D01*
X022030Y009099D02*
X022855Y009099D01*
X023680Y008274D01*
X026180Y008274D01*
X027595Y009689D01*
X028330Y009689D01*
X028845Y009689D01*
X029180Y010024D01*
X029180Y011524D01*
X028430Y011524D02*
X028180Y011524D01*
X025180Y014524D01*
X025180Y021774D01*
X025930Y022524D01*
X028150Y022524D01*
X029400Y023774D01*
X029362Y023763D02*
X028180Y023763D01*
X028180Y023881D02*
X029044Y023881D01*
X029044Y023812D02*
X029362Y023812D01*
X029362Y023735D01*
X029439Y023735D01*
X029439Y022984D01*
X029618Y022984D01*
X029659Y022995D01*
X029696Y023016D01*
X029725Y023046D01*
X029746Y023082D01*
X029757Y023123D01*
X029757Y023735D01*
X029439Y023735D01*
X029439Y023812D01*
X029757Y023812D01*
X029757Y024425D01*
X029746Y024465D01*
X029725Y024502D01*
X029696Y024532D01*
X029659Y024553D01*
X029618Y024564D01*
X029439Y024564D01*
X029439Y023812D01*
X029362Y023812D01*
X029362Y024564D01*
X029183Y024564D01*
X029142Y024553D01*
X029105Y024532D01*
X029076Y024502D01*
X029055Y024465D01*
X029044Y024425D01*
X029044Y023812D01*
X029044Y023735D02*
X029044Y023123D01*
X029055Y023082D01*
X029076Y023046D01*
X029105Y023016D01*
X029142Y022995D01*
X029183Y022984D01*
X029362Y022984D01*
X029362Y023735D01*
X029044Y023735D01*
X029044Y023644D02*
X028180Y023644D01*
X028180Y023526D02*
X029044Y023526D01*
X029044Y023407D02*
X028180Y023407D01*
X028180Y023289D02*
X029044Y023289D01*
X029044Y023170D02*
X028180Y023170D01*
X028180Y023052D02*
X029072Y023052D01*
X029362Y023052D02*
X029439Y023052D01*
X029439Y023170D02*
X029362Y023170D01*
X029362Y023289D02*
X029439Y023289D01*
X029439Y023407D02*
X029362Y023407D01*
X029362Y023526D02*
X029439Y023526D01*
X029439Y023644D02*
X029362Y023644D01*
X029439Y023763D02*
X030390Y023763D01*
X030390Y023774D02*
X030390Y023635D01*
X030401Y023594D01*
X030422Y023557D01*
X030440Y023539D01*
X030440Y023524D01*
X030430Y023524D01*
X029680Y022774D01*
X028180Y022774D01*
X028180Y024774D01*
X031680Y024774D01*
X032180Y024274D01*
X032180Y023774D01*
X031976Y023570D01*
X031945Y023570D01*
X031959Y023594D01*
X031970Y023635D01*
X031970Y023774D01*
X031970Y023913D01*
X031959Y023954D01*
X031955Y023961D01*
X031959Y023968D01*
X031970Y024009D01*
X031970Y024148D01*
X031970Y024287D01*
X031959Y024328D01*
X031938Y024364D01*
X031908Y024394D01*
X031872Y024415D01*
X031831Y024426D01*
X031633Y024426D01*
X031633Y024148D01*
X031970Y024148D01*
X031633Y024148D01*
X031633Y024148D01*
X031633Y024148D01*
X031633Y024426D01*
X031435Y024426D01*
X031394Y024415D01*
X031357Y024394D01*
X031328Y024364D01*
X031306Y024328D01*
X031296Y024287D01*
X031296Y024148D01*
X031633Y024148D01*
X031633Y024148D01*
X031633Y023870D01*
X031633Y023774D01*
X031633Y023774D01*
X031970Y023774D01*
X031633Y023774D01*
X031633Y023774D01*
X031633Y024148D01*
X031633Y024148D01*
X031296Y024148D01*
X031296Y024009D01*
X031306Y023968D01*
X031311Y023961D01*
X031306Y023954D01*
X031296Y023913D01*
X031296Y023774D01*
X031633Y023774D01*
X031633Y023774D01*
X031296Y023774D01*
X031296Y023635D01*
X031306Y023594D01*
X031328Y023557D01*
X031346Y023539D01*
X031346Y023524D01*
X031014Y023524D01*
X031014Y023539D01*
X031032Y023557D01*
X031054Y023594D01*
X031064Y023635D01*
X031064Y023774D01*
X031064Y023913D01*
X031054Y023954D01*
X031049Y023961D01*
X031054Y023968D01*
X031064Y024009D01*
X031064Y024148D01*
X031064Y024287D01*
X031054Y024328D01*
X031032Y024364D01*
X031003Y024394D01*
X030966Y024415D01*
X030925Y024426D01*
X030727Y024426D01*
X030529Y024426D01*
X030488Y024415D01*
X030452Y024394D01*
X030422Y024364D01*
X030401Y024328D01*
X030390Y024287D01*
X030390Y024148D01*
X030727Y024148D01*
X030727Y024426D01*
X030727Y024148D01*
X030727Y024148D01*
X030727Y024148D01*
X030390Y024148D01*
X030390Y024009D01*
X030401Y023968D01*
X030405Y023961D01*
X030401Y023954D01*
X030390Y023913D01*
X030390Y023774D01*
X030727Y023774D01*
X030727Y024052D01*
X030727Y024148D01*
X031064Y024148D01*
X030727Y024148D01*
X030727Y024148D01*
X030727Y024148D01*
X030727Y023774D01*
X030727Y023774D01*
X030727Y023774D01*
X030390Y023774D01*
X030390Y023881D02*
X029757Y023881D01*
X029757Y024000D02*
X030392Y024000D01*
X030390Y024118D02*
X029757Y024118D01*
X029757Y024237D02*
X030390Y024237D01*
X030417Y024355D02*
X029757Y024355D01*
X029742Y024474D02*
X031980Y024474D01*
X031943Y024355D02*
X032098Y024355D01*
X032180Y024237D02*
X031970Y024237D01*
X031970Y024118D02*
X032180Y024118D01*
X032180Y024000D02*
X031968Y024000D01*
X031970Y023881D02*
X032180Y023881D01*
X032169Y023763D02*
X031970Y023763D01*
X031970Y023644D02*
X032051Y023644D01*
X031804Y023400D02*
X031633Y023400D01*
X032804Y023400D01*
X033180Y023024D01*
X032680Y022524D02*
X032680Y015774D01*
X031531Y014625D01*
X030076Y015669D02*
X030076Y016922D01*
X032079Y016922D01*
X032430Y017274D01*
X032430Y019161D01*
X032192Y019400D01*
X032304Y019400D01*
X032192Y020148D02*
X032192Y020762D01*
X032180Y020774D01*
X032054Y021774D02*
X031168Y020888D01*
X031168Y020148D01*
X031168Y019774D02*
X030680Y019774D01*
X030430Y020024D01*
X029930Y019524D01*
X029930Y019274D01*
X030180Y019024D01*
X031180Y019024D01*
X031430Y018774D01*
X031430Y018524D01*
X031680Y018274D01*
X031942Y018274D01*
X031942Y018648D02*
X031190Y019400D01*
X031168Y019400D01*
X030554Y019400D01*
X030430Y019524D01*
X029595Y019359D02*
X030306Y018648D01*
X030918Y018648D01*
X030918Y018536D01*
X031430Y018024D01*
X031430Y017774D01*
X031180Y017524D01*
X029430Y017524D01*
X029052Y017146D01*
X029052Y016922D01*
X028796Y016922D02*
X028796Y016390D01*
X028554Y016148D01*
X027180Y016148D01*
X027180Y015400D02*
X028554Y015400D01*
X028796Y015158D01*
X028796Y014625D01*
X029052Y014625D02*
X029052Y014272D01*
X029430Y015274D02*
X029564Y015408D01*
X029564Y016922D01*
X029564Y017158D01*
X029680Y017274D01*
X031680Y017274D01*
X031942Y017536D01*
X031942Y017900D01*
X030918Y017900D02*
X030804Y017900D01*
X029430Y019274D01*
X028990Y019274D01*
X028740Y019024D01*
X028765Y019049D01*
X028765Y020055D01*
X029595Y020055D02*
X029595Y019359D01*
X029430Y018774D02*
X029180Y018524D01*
X028180Y018524D01*
X027680Y018024D01*
X027680Y017524D01*
X027683Y017524D01*
X028284Y016922D01*
X028281Y016922D01*
X028281Y016875D01*
X027930Y016524D01*
X028540Y016922D02*
X028540Y017663D01*
X028430Y017774D01*
X028180Y017774D01*
X028430Y017774D02*
X028556Y017774D01*
X028806Y018024D01*
X029554Y018024D02*
X028796Y017266D01*
X028796Y016922D01*
X030076Y015669D02*
X029930Y015524D01*
X033430Y014274D02*
X029430Y010274D01*
X029430Y010024D01*
X028899Y009492D01*
X028330Y009492D01*
X027649Y009492D01*
X026180Y008024D01*
X023430Y008024D01*
X023339Y008114D01*
X022030Y008114D01*
X022030Y007917D02*
X023286Y007917D01*
X023430Y007774D01*
X026180Y007774D01*
X027702Y009295D01*
X028330Y009295D01*
X028952Y009295D01*
X029680Y010024D01*
X029680Y010274D01*
X033680Y014274D01*
X033680Y017524D01*
X033930Y017774D01*
X034430Y017774D01*
X034570Y017914D01*
X034570Y018174D01*
X033810Y018174D02*
X033810Y018154D01*
X033430Y017774D01*
X033430Y014274D01*
X034180Y014024D02*
X034781Y014625D01*
X036284Y014625D01*
X037564Y014625D02*
X037564Y014390D01*
X037680Y014274D01*
X037820Y014625D02*
X037820Y014913D01*
X038306Y015400D01*
X039180Y015400D01*
X037930Y015524D02*
X037930Y016524D01*
X038076Y016669D01*
X038076Y016922D01*
X040079Y016922D01*
X040430Y017274D01*
X040430Y019161D01*
X040192Y019400D01*
X040192Y020148D02*
X040192Y020762D01*
X040180Y020774D01*
X039306Y021774D02*
X038306Y020774D01*
X038010Y020774D01*
X037595Y020055D02*
X037595Y019359D01*
X037430Y019274D02*
X036765Y019274D01*
X036765Y019049D01*
X036740Y019024D01*
X036765Y019274D02*
X036765Y020055D01*
X037430Y019274D02*
X038804Y017900D01*
X038918Y017900D01*
X039680Y017274D02*
X039942Y017536D01*
X039942Y017900D01*
X039680Y017274D02*
X037680Y017274D01*
X037564Y017158D01*
X037564Y016922D01*
X037564Y015658D01*
X037430Y015524D01*
X036180Y016774D02*
X035930Y016524D01*
X036180Y016774D02*
X036180Y017024D01*
X035680Y017524D01*
X035680Y018024D01*
X036180Y018524D01*
X037180Y018524D01*
X037430Y018774D01*
X037554Y018024D02*
X036796Y017266D01*
X036796Y016922D01*
X036540Y016922D02*
X036540Y017663D01*
X036430Y017774D01*
X036180Y017774D01*
X036430Y017774D02*
X036556Y017774D01*
X036806Y018024D01*
X036180Y017024D02*
X036281Y016922D01*
X036284Y016922D01*
X039180Y012524D02*
X041281Y014625D01*
X044284Y014625D01*
X044540Y014625D02*
X044540Y014384D01*
X044430Y014274D01*
X044180Y014274D01*
X043806Y013900D01*
X043806Y013774D01*
X044554Y013774D02*
X045052Y014272D01*
X045052Y014625D01*
X044796Y014625D02*
X044796Y015158D01*
X044554Y015400D01*
X043180Y015400D01*
X043180Y016148D02*
X044554Y016148D01*
X044796Y016390D01*
X044796Y016922D01*
X044796Y017266D01*
X045554Y018024D01*
X045180Y018524D02*
X045430Y018774D01*
X045180Y018524D02*
X044180Y018524D01*
X043680Y018024D01*
X043680Y017524D01*
X044180Y017024D01*
X044180Y016774D01*
X043930Y016524D01*
X044281Y016922D02*
X044180Y017024D01*
X044281Y016922D02*
X044284Y016922D01*
X044540Y016922D02*
X044540Y017663D01*
X044430Y017774D01*
X044556Y017774D01*
X044806Y018024D01*
X044430Y017774D02*
X044180Y017774D01*
X045052Y017146D02*
X045052Y016922D01*
X045052Y017146D02*
X045430Y017524D01*
X047180Y017524D01*
X047430Y017774D01*
X047430Y018024D01*
X046918Y018536D01*
X046918Y018648D01*
X046306Y018648D01*
X045595Y019359D01*
X045595Y020055D01*
X045930Y019524D02*
X046430Y020024D01*
X046680Y019774D01*
X047168Y019774D01*
X047168Y019421D02*
X047168Y019400D01*
X046556Y019400D01*
X046430Y019524D01*
X045930Y019524D02*
X045930Y019274D01*
X046180Y019024D01*
X047180Y019024D01*
X047430Y018774D01*
X047430Y018524D01*
X047680Y018274D01*
X047942Y018274D01*
X047942Y018648D02*
X047190Y019400D01*
X047168Y019400D01*
X047168Y020148D02*
X047168Y020888D01*
X048054Y021774D01*
X048054Y022150D01*
X047680Y022524D01*
X047306Y021774D02*
X046306Y020774D01*
X046010Y020774D01*
X044765Y020055D02*
X044765Y019049D01*
X044740Y019024D01*
X044990Y019274D01*
X045430Y019274D01*
X046804Y017900D01*
X046918Y017900D01*
X047680Y017274D02*
X045680Y017274D01*
X045564Y017158D01*
X045564Y016922D01*
X045564Y016658D01*
X045430Y016524D01*
X045430Y016274D01*
X045930Y016274D02*
X045930Y016524D01*
X046076Y016669D01*
X046076Y016922D01*
X047579Y016922D01*
X048430Y017774D01*
X048430Y019161D01*
X048192Y019400D01*
X048192Y020148D02*
X048180Y020160D01*
X048180Y020774D01*
X048680Y022524D02*
X048680Y017774D01*
X047680Y016774D01*
X047680Y015024D01*
X047281Y014625D01*
X046076Y014625D01*
X045820Y014625D02*
X045820Y014913D01*
X046306Y015400D01*
X047180Y015400D01*
X046180Y014274D02*
X045680Y014274D01*
X045564Y014390D01*
X045564Y014625D01*
X045308Y014625D02*
X045308Y014272D01*
X045806Y013774D01*
X046180Y014274D02*
X046554Y013900D01*
X046554Y013774D01*
X046680Y011274D02*
X044930Y011274D01*
X044639Y010982D01*
X044639Y010622D01*
X046680Y011274D02*
X047930Y010024D01*
X047930Y008024D01*
X048180Y007774D01*
X048180Y005774D01*
X047180Y004774D01*
X045930Y004774D01*
X045430Y004274D01*
X045430Y002274D01*
X044930Y001774D01*
X034180Y001774D01*
X033930Y002024D01*
X028930Y002024D01*
X028680Y001774D01*
X028180Y001774D01*
X028430Y002274D02*
X033930Y002274D01*
X035430Y003774D01*
X043180Y003774D01*
X044166Y004760D01*
X044166Y005425D01*
X045111Y005425D02*
X045111Y003016D01*
X044869Y002774D01*
X043491Y002774D02*
X042554Y002774D01*
X041806Y002774D02*
X041432Y002400D01*
X039180Y002400D01*
X037806Y002400D01*
X037680Y002274D01*
X038180Y002774D02*
X035680Y002774D01*
X035680Y003274D01*
X035430Y004024D02*
X033930Y002524D01*
X028930Y002524D01*
X028680Y002774D01*
X028930Y003274D02*
X029430Y002774D01*
X033930Y002774D01*
X035430Y004274D01*
X041680Y004274D01*
X042276Y004870D01*
X042276Y005425D01*
X041804Y005425D02*
X041804Y004898D01*
X041430Y004524D01*
X035430Y004524D01*
X033930Y003024D01*
X029930Y003024D01*
X029180Y003774D01*
X029430Y004274D02*
X030430Y003274D01*
X033930Y003274D01*
X035430Y004774D01*
X041180Y004774D01*
X041332Y004925D01*
X041332Y005425D01*
X042749Y005425D02*
X042749Y004843D01*
X041930Y004024D01*
X035430Y004024D01*
X034680Y004774D02*
X034306Y004400D01*
X033680Y004400D01*
X033306Y004774D01*
X027930Y004774D01*
X027530Y004624D01*
X027542Y004374D01*
X027345Y004374D02*
X027345Y004939D01*
X027680Y005274D01*
X027680Y005524D01*
X027345Y005858D01*
X027345Y006189D01*
X027680Y006524D01*
X026180Y006524D01*
X025430Y005774D01*
X024680Y005774D01*
X024430Y005524D01*
X024430Y005274D01*
X024180Y005024D01*
X023680Y005024D01*
X023408Y004752D01*
X023408Y004374D01*
X023211Y004374D02*
X023211Y004805D01*
X023930Y005524D01*
X023680Y005774D02*
X023473Y005774D01*
X022904Y006343D01*
X022030Y006343D01*
X021361Y006343D01*
X020680Y007024D01*
X020680Y007524D01*
X021180Y008024D01*
X021430Y008524D02*
X021611Y008705D01*
X022030Y008705D01*
X022030Y008902D02*
X021552Y008902D01*
X021430Y009024D01*
X021461Y009492D02*
X021180Y009774D01*
X021180Y010774D01*
X021430Y011024D01*
X021930Y011024D02*
X021930Y010399D01*
X021430Y009899D01*
X021430Y009774D01*
X021515Y009689D01*
X022030Y009689D01*
X022030Y009492D02*
X021461Y009492D01*
X022030Y009886D02*
X022568Y009886D01*
X023680Y008774D01*
X026180Y008774D01*
X027542Y010136D01*
X027542Y010673D01*
X027542Y011661D01*
X025830Y013374D01*
X019080Y013374D01*
X017680Y014774D01*
X017680Y017524D01*
X017930Y017774D01*
X018430Y017774D01*
X018570Y017914D01*
X018570Y018174D01*
X017810Y018174D02*
X017810Y018154D01*
X017430Y017774D01*
X017430Y014774D01*
X019080Y013124D01*
X025830Y013124D01*
X027345Y011608D01*
X027345Y010673D01*
X027345Y010189D01*
X026180Y009024D01*
X023680Y009024D01*
X022818Y009886D01*
X022818Y010673D01*
X023015Y010673D02*
X023015Y009939D01*
X023680Y009274D01*
X024180Y009274D01*
X024983Y010077D01*
X024983Y010673D01*
X025377Y010673D02*
X025377Y011327D01*
X025080Y011624D01*
X019080Y011624D01*
X017555Y013149D01*
X015805Y013149D01*
X011180Y017774D01*
X011180Y025274D01*
X009930Y026524D01*
X007680Y026524D01*
X006430Y027774D01*
X005554Y027774D01*
X005554Y028774D01*
X005430Y028898D01*
X005430Y030524D01*
X005552Y030646D01*
X005987Y030646D01*
X005987Y030390D02*
X006422Y030390D01*
X007180Y031148D01*
X007180Y030400D02*
X008180Y030400D01*
X009363Y030400D01*
X009373Y030390D01*
X009806Y029957D01*
X009806Y028774D01*
X009806Y027774D01*
X008930Y027774D01*
X010554Y027774D02*
X010554Y028774D01*
X010430Y028898D01*
X010430Y030524D01*
X010552Y030646D01*
X010987Y030646D01*
X010987Y030390D02*
X012170Y030390D01*
X012180Y030400D01*
X012180Y031148D02*
X011806Y031148D01*
X011430Y031524D01*
X010987Y031581D02*
X011430Y032024D01*
X012180Y032024D01*
X012680Y031524D01*
X012680Y028524D01*
X011680Y027524D01*
X011680Y017774D01*
X012055Y017399D01*
X012555Y017399D01*
X011430Y017774D02*
X015805Y013399D01*
X017555Y013399D01*
X019080Y011874D01*
X025080Y011874D01*
X025574Y011380D01*
X025574Y010673D01*
X025771Y010673D02*
X025771Y011433D01*
X025080Y012124D01*
X019080Y012124D01*
X013680Y017524D01*
X013680Y019650D01*
X013680Y020398D02*
X013680Y023024D01*
X014180Y023524D02*
X014180Y017274D01*
X019080Y012374D01*
X025080Y012374D01*
X025967Y011486D01*
X025967Y010673D01*
X026164Y010673D02*
X026164Y011564D01*
X025105Y012624D01*
X019080Y012624D01*
X014806Y016898D01*
X014806Y018774D01*
X014806Y019774D01*
X014806Y020774D01*
X015554Y020774D02*
X014430Y021898D01*
X014430Y029024D01*
X014680Y029274D01*
X015680Y029274D01*
X016052Y029646D01*
X016052Y029967D01*
X015796Y029967D02*
X015796Y029640D01*
X015680Y029524D01*
X014430Y029524D01*
X013680Y028774D01*
X013680Y026774D01*
X013680Y024024D01*
X014180Y023524D01*
X011430Y025274D02*
X011430Y017774D01*
X010930Y017774D02*
X010930Y018274D01*
X010930Y017774D02*
X018430Y010274D01*
X018430Y007524D01*
X023055Y002899D01*
X025055Y002899D01*
X025967Y003811D01*
X025967Y004374D01*
X025771Y004374D02*
X025771Y003864D01*
X025055Y003149D01*
X023055Y003149D01*
X018680Y007524D01*
X018680Y010274D01*
X016430Y012524D01*
X016430Y012774D01*
X016930Y012774D02*
X016930Y012274D01*
X018930Y010274D01*
X018930Y007524D01*
X023055Y003399D01*
X025055Y003399D01*
X025574Y003917D01*
X025574Y004374D01*
X025377Y004374D02*
X025377Y005721D01*
X025430Y005774D01*
X025930Y005774D02*
X025930Y005524D01*
X026361Y005093D01*
X026361Y004374D01*
X026361Y003705D01*
X025055Y002399D01*
X023055Y002399D01*
X017930Y007524D01*
X017930Y008774D01*
X017180Y009524D01*
X017180Y009984D01*
X017680Y009984D02*
X017680Y010274D01*
X017180Y010774D01*
X018180Y010274D02*
X011430Y017024D01*
X007430Y017024D01*
X007180Y017274D01*
X007180Y018524D01*
X007430Y018774D01*
X007930Y018774D01*
X008554Y019398D01*
X008554Y019774D01*
X008554Y020774D02*
X008554Y021774D01*
X007806Y021774D02*
X008930Y022898D01*
X008930Y023524D01*
X008680Y023774D01*
X008430Y023774D01*
X006180Y026024D01*
X003430Y026024D01*
X003180Y026274D01*
X004078Y026663D02*
X006916Y026663D01*
X007806Y025774D01*
X007430Y024274D02*
X007430Y024114D01*
X007780Y023764D01*
X010554Y026150D02*
X011430Y025274D01*
X010554Y026150D02*
X010554Y027774D01*
X011930Y027524D02*
X011930Y018774D01*
X016430Y014274D01*
X016430Y013774D01*
X016930Y013774D02*
X016930Y014024D01*
X012180Y018774D01*
X012180Y027524D01*
X013680Y029024D01*
X013680Y031524D01*
X014180Y032024D01*
X015680Y032024D01*
X015796Y031908D01*
X015796Y031581D01*
X015540Y031581D02*
X015107Y031148D01*
X014180Y031148D01*
X014585Y030978D02*
X015178Y030978D01*
X015474Y031274D01*
X016680Y031274D01*
X016695Y031259D01*
X016240Y031259D01*
X016240Y030834D01*
X016120Y030834D01*
X016120Y031259D01*
X015599Y031259D01*
X015558Y031248D01*
X015522Y031227D01*
X015492Y031197D01*
X015471Y031160D01*
X015460Y031120D01*
X015460Y030834D01*
X016120Y030834D01*
X016120Y030714D01*
X015460Y030714D01*
X015460Y030428D01*
X015471Y030387D01*
X015492Y030350D01*
X015522Y030321D01*
X015558Y030300D01*
X015599Y030289D01*
X016120Y030289D01*
X016120Y030714D01*
X016240Y030714D01*
X016240Y030834D01*
X016900Y030834D01*
X016900Y031054D01*
X017430Y030524D01*
X017725Y030524D01*
X017725Y030460D01*
X018120Y030460D01*
X018120Y030340D01*
X017725Y030340D01*
X017725Y030123D01*
X017736Y030082D01*
X017757Y030046D01*
X017786Y030016D01*
X017823Y029995D01*
X017864Y029984D01*
X018120Y029984D01*
X018120Y030340D01*
X018240Y030340D01*
X018240Y030460D01*
X018635Y030460D01*
X018635Y030524D01*
X020782Y030524D01*
X020776Y030518D01*
X020755Y030481D01*
X020744Y030440D01*
X020744Y029889D01*
X021120Y029889D01*
X021120Y029769D01*
X020744Y029769D01*
X020744Y029217D01*
X020755Y029177D01*
X020776Y029140D01*
X020806Y029110D01*
X020843Y029089D01*
X020883Y029078D01*
X021120Y029078D01*
X021120Y029769D01*
X021240Y029769D01*
X021240Y029889D01*
X021616Y029889D01*
X021616Y030440D01*
X021605Y030481D01*
X021584Y030518D01*
X021578Y030524D01*
X021930Y030524D01*
X022430Y030024D01*
X022430Y027774D01*
X021430Y026774D01*
X019930Y026774D01*
X018930Y027774D01*
X018930Y028524D01*
X018870Y028584D01*
X018870Y028602D01*
X017398Y030074D01*
X017380Y030074D01*
X017180Y030274D01*
X015430Y030274D01*
X015430Y030273D01*
X015406Y030273D01*
X015342Y030209D01*
X015342Y030185D01*
X015293Y030137D01*
X015217Y030137D01*
X015191Y030198D01*
X015105Y030285D01*
X014991Y030332D01*
X014869Y030332D01*
X014755Y030285D01*
X014669Y030198D01*
X014631Y030107D01*
X014635Y030123D01*
X014635Y030340D01*
X014240Y030340D01*
X014240Y030460D01*
X014635Y030460D01*
X014635Y030677D01*
X014624Y030717D01*
X014603Y030754D01*
X016120Y030754D01*
X016120Y030636D02*
X016240Y030636D01*
X016240Y030714D02*
X016240Y030289D01*
X016761Y030289D01*
X016802Y030300D01*
X016838Y030321D01*
X016868Y030350D01*
X016889Y030387D01*
X016900Y030428D01*
X016900Y030714D01*
X016240Y030714D01*
X016240Y030754D02*
X017199Y030754D01*
X017081Y030873D02*
X016900Y030873D01*
X016900Y030991D02*
X016962Y030991D01*
X017225Y031228D02*
X017725Y031228D01*
X017725Y031208D02*
X018120Y031208D01*
X018120Y031564D01*
X017864Y031564D01*
X017823Y031553D01*
X017786Y031532D01*
X017757Y031502D01*
X017736Y031465D01*
X017068Y031465D01*
X017068Y031385D02*
X017068Y031581D01*
X017068Y031799D01*
X017057Y031839D01*
X017036Y031876D01*
X017007Y031906D01*
X016970Y031927D01*
X016929Y031938D01*
X016820Y031938D01*
X016820Y031581D01*
X017068Y031581D01*
X016820Y031581D01*
X016820Y031581D01*
X016820Y031581D01*
X016820Y031938D01*
X016710Y031938D01*
X016692Y031933D01*
X016674Y031938D01*
X016564Y031938D01*
X016564Y031581D01*
X016564Y031581D01*
X016571Y031581D01*
X016820Y031581D01*
X016820Y031581D01*
X016564Y031581D01*
X016564Y031581D01*
X016564Y031938D01*
X016454Y031938D01*
X016436Y031933D01*
X016418Y031938D01*
X016308Y031938D01*
X016308Y031581D01*
X016308Y031581D01*
X016308Y031938D01*
X016222Y031938D01*
X016222Y031972D01*
X016180Y032014D01*
X016180Y032024D01*
X016430Y032274D01*
X017180Y032274D01*
X017275Y032368D01*
X017855Y032368D01*
X017920Y032433D01*
X017920Y033115D01*
X017855Y033179D01*
X017724Y033179D01*
X017724Y033524D01*
X018930Y033524D01*
X020180Y034774D01*
X021180Y034774D01*
X021180Y033524D01*
X022430Y032274D01*
X022430Y031274D01*
X021930Y030774D01*
X018583Y030774D01*
X018603Y030794D01*
X018624Y030830D01*
X018635Y030871D01*
X018635Y031088D01*
X018240Y031088D01*
X018240Y031208D01*
X018120Y031208D01*
X018120Y031088D01*
X017725Y031088D01*
X017725Y030871D01*
X017736Y030830D01*
X017757Y030794D01*
X017777Y030774D01*
X017680Y030774D01*
X017068Y031385D01*
X017107Y031347D02*
X017725Y031347D01*
X017725Y031425D02*
X017725Y031208D01*
X017725Y031425D02*
X017736Y031465D01*
X018120Y031465D02*
X018240Y031465D01*
X018240Y031564D02*
X018240Y031208D01*
X018635Y031208D01*
X018635Y031425D01*
X018624Y031465D01*
X020744Y031465D01*
X020744Y031347D02*
X018635Y031347D01*
X018635Y031228D02*
X020744Y031228D01*
X020744Y031110D02*
X018240Y031110D01*
X018240Y031228D02*
X018120Y031228D01*
X018120Y031110D02*
X017344Y031110D01*
X017462Y030991D02*
X017725Y030991D01*
X017725Y030873D02*
X017581Y030873D01*
X017318Y030636D02*
X016900Y030636D01*
X016900Y030517D02*
X017725Y030517D01*
X017725Y030280D02*
X015109Y030280D01*
X015206Y030162D02*
X015318Y030162D01*
X015468Y030399D02*
X014240Y030399D01*
X014635Y030517D02*
X015460Y030517D01*
X015460Y030636D02*
X014635Y030636D01*
X014603Y030754D02*
X014574Y030784D01*
X014541Y030802D01*
X014585Y030846D01*
X014585Y030978D01*
X014585Y030873D02*
X015460Y030873D01*
X015460Y030991D02*
X015191Y030991D01*
X015310Y031110D02*
X015460Y031110D01*
X015428Y031228D02*
X015524Y031228D01*
X016120Y031228D02*
X016240Y031228D01*
X016240Y031110D02*
X016120Y031110D01*
X016120Y030991D02*
X016240Y030991D01*
X016240Y030873D02*
X016120Y030873D01*
X016120Y030517D02*
X016240Y030517D01*
X016240Y030399D02*
X016120Y030399D01*
X015540Y029967D02*
X014987Y029967D01*
X014930Y030024D01*
X014654Y030162D02*
X014635Y030162D01*
X014635Y030280D02*
X014751Y030280D01*
X013430Y031524D02*
X013430Y029024D01*
X011930Y027524D01*
X010987Y031158D02*
X010987Y031581D01*
X009373Y031158D02*
X008960Y031571D01*
X008960Y032774D01*
X006400Y032774D02*
X006400Y032494D01*
X004808Y030902D01*
X004373Y030902D01*
X004373Y031158D02*
X003960Y031571D01*
X003960Y032774D01*
X004373Y030390D02*
X003190Y030390D01*
X003180Y030400D01*
X004373Y030390D02*
X004806Y029957D01*
X004806Y028774D01*
X004806Y027774D01*
X003930Y027774D01*
X013430Y031524D02*
X014180Y032274D01*
X015680Y032274D01*
X016052Y031902D01*
X016052Y031581D01*
X016308Y031584D02*
X016308Y031584D01*
X016308Y031581D02*
X016557Y031581D01*
X016564Y031581D01*
X016564Y031581D01*
X016308Y031581D01*
X016308Y031581D01*
X016308Y031702D02*
X016308Y031702D01*
X016308Y031821D02*
X016308Y031821D01*
X016222Y031939D02*
X020744Y031939D01*
X020744Y031821D02*
X017062Y031821D01*
X017068Y031702D02*
X021120Y031702D01*
X021120Y031659D02*
X020744Y031659D01*
X020744Y031107D01*
X020755Y031066D01*
X020776Y031030D01*
X020806Y031000D01*
X020843Y030979D01*
X020883Y030968D01*
X021120Y030968D01*
X021120Y031659D01*
X021120Y031779D01*
X021120Y032469D01*
X020883Y032469D01*
X020843Y032458D01*
X020806Y032437D01*
X020776Y032407D01*
X020755Y032371D01*
X020744Y032330D01*
X020744Y031779D01*
X021120Y031779D01*
X021240Y031779D01*
X021240Y032469D01*
X021477Y032469D01*
X021517Y032458D01*
X021554Y032437D01*
X021584Y032407D01*
X021605Y032371D01*
X021616Y032330D01*
X021616Y031779D01*
X021240Y031779D01*
X021240Y031659D01*
X021616Y031659D01*
X021616Y031107D01*
X021605Y031066D01*
X021584Y031030D01*
X021554Y031000D01*
X021517Y030979D01*
X021477Y030968D01*
X021240Y030968D01*
X021240Y031659D01*
X021120Y031659D01*
X021120Y031584D02*
X021240Y031584D01*
X021240Y031702D02*
X022430Y031702D01*
X022430Y031584D02*
X021616Y031584D01*
X021616Y031465D02*
X022430Y031465D01*
X022430Y031347D02*
X021616Y031347D01*
X021616Y031228D02*
X022385Y031228D01*
X022266Y031110D02*
X021616Y031110D01*
X021539Y030991D02*
X022148Y030991D01*
X022029Y030873D02*
X018635Y030873D01*
X018635Y030991D02*
X020821Y030991D01*
X021120Y030991D02*
X021240Y030991D01*
X021240Y031110D02*
X021120Y031110D01*
X021120Y031228D02*
X021240Y031228D01*
X021240Y031347D02*
X021120Y031347D01*
X021120Y031465D02*
X021240Y031465D01*
X021240Y031821D02*
X021120Y031821D01*
X021120Y031939D02*
X021240Y031939D01*
X021240Y032058D02*
X021120Y032058D01*
X021120Y032176D02*
X021240Y032176D01*
X021240Y032295D02*
X021120Y032295D01*
X021120Y032413D02*
X021240Y032413D01*
X021578Y032413D02*
X022290Y032413D01*
X022172Y032532D02*
X017920Y032532D01*
X017920Y032650D02*
X022053Y032650D01*
X021935Y032769D02*
X017920Y032769D01*
X017920Y032887D02*
X021816Y032887D01*
X021698Y033006D02*
X017920Y033006D01*
X017910Y033124D02*
X021579Y033124D01*
X021461Y033243D02*
X020869Y033243D01*
X020885Y033252D02*
X020914Y033282D01*
X020935Y033318D01*
X020946Y033359D01*
X020946Y033714D01*
X020453Y033714D01*
X020453Y033834D01*
X020946Y033834D01*
X020946Y034188D01*
X020935Y034229D01*
X020914Y034266D01*
X020885Y034295D01*
X020848Y034316D01*
X020807Y034327D01*
X020453Y034327D01*
X020453Y033834D01*
X020333Y033834D01*
X020333Y034327D01*
X019978Y034327D01*
X019937Y034316D01*
X019901Y034295D01*
X019871Y034266D01*
X019850Y034229D01*
X019839Y034188D01*
X019839Y033834D01*
X020333Y033834D01*
X020333Y033714D01*
X020453Y033714D01*
X020453Y033220D01*
X020807Y033220D01*
X020848Y033231D01*
X020885Y033252D01*
X020946Y033361D02*
X021342Y033361D01*
X021224Y033480D02*
X020946Y033480D01*
X020946Y033598D02*
X021180Y033598D01*
X021180Y033717D02*
X020453Y033717D01*
X020453Y033835D02*
X020333Y033835D01*
X020333Y033717D02*
X019123Y033717D01*
X019242Y033835D02*
X019839Y033835D01*
X019839Y033954D02*
X019360Y033954D01*
X019479Y034072D02*
X019839Y034072D01*
X019840Y034191D02*
X019597Y034191D01*
X019716Y034309D02*
X019925Y034309D01*
X019834Y034428D02*
X021180Y034428D01*
X021180Y034546D02*
X019953Y034546D01*
X020071Y034665D02*
X021180Y034665D01*
X021430Y034665D02*
X026680Y034665D01*
X026680Y034783D02*
X021430Y034783D01*
X021430Y034902D02*
X026680Y034902D01*
X026680Y035020D02*
X021430Y035020D01*
X021430Y035024D02*
X019930Y035024D01*
X019930Y040274D01*
X026680Y040274D01*
X026680Y031160D01*
X026549Y031291D01*
X026325Y031384D01*
X026082Y031384D01*
X025858Y031291D01*
X025686Y031119D01*
X025594Y030895D01*
X025594Y030652D01*
X025686Y030428D01*
X025858Y030257D01*
X026082Y030164D01*
X026325Y030164D01*
X026549Y030257D01*
X026680Y030387D01*
X026680Y028024D01*
X022680Y028024D01*
X022680Y032274D01*
X021430Y033524D01*
X021430Y035024D01*
X021430Y034546D02*
X026680Y034546D01*
X026680Y034428D02*
X021430Y034428D01*
X021430Y034309D02*
X026680Y034309D01*
X026680Y034191D02*
X021430Y034191D01*
X021430Y034072D02*
X026680Y034072D01*
X026680Y033954D02*
X021430Y033954D01*
X021430Y033835D02*
X026680Y033835D01*
X026680Y033717D02*
X021430Y033717D01*
X021430Y033598D02*
X026680Y033598D01*
X026680Y033480D02*
X021474Y033480D01*
X021592Y033361D02*
X026680Y033361D01*
X026680Y033243D02*
X021711Y033243D01*
X021829Y033124D02*
X026680Y033124D01*
X026680Y033006D02*
X021948Y033006D01*
X022066Y032887D02*
X026680Y032887D01*
X026680Y032769D02*
X022185Y032769D01*
X022303Y032650D02*
X026680Y032650D01*
X026680Y032532D02*
X022422Y032532D01*
X022540Y032413D02*
X026680Y032413D01*
X026680Y032295D02*
X022659Y032295D01*
X022680Y032176D02*
X026680Y032176D01*
X026680Y032058D02*
X022680Y032058D01*
X022680Y031939D02*
X026680Y031939D01*
X026680Y031821D02*
X022680Y031821D01*
X022680Y031702D02*
X026680Y031702D01*
X026680Y031584D02*
X022680Y031584D01*
X022680Y031465D02*
X026680Y031465D01*
X026680Y031347D02*
X026414Y031347D01*
X026612Y031228D02*
X026680Y031228D01*
X026930Y031228D02*
X032975Y031228D01*
X032857Y031347D02*
X026930Y031347D01*
X026930Y031465D02*
X032738Y031465D01*
X032680Y031524D02*
X033930Y030274D01*
X036680Y030274D01*
X036680Y028024D01*
X026930Y028024D01*
X026930Y040274D01*
X029680Y040274D01*
X029680Y036774D01*
X032680Y033774D01*
X032680Y031524D01*
X032680Y031584D02*
X026930Y031584D01*
X026930Y031702D02*
X032680Y031702D01*
X032680Y031821D02*
X026930Y031821D01*
X026930Y031939D02*
X032680Y031939D01*
X032680Y032058D02*
X026930Y032058D01*
X026930Y032176D02*
X032680Y032176D01*
X032680Y032295D02*
X026930Y032295D01*
X026930Y032413D02*
X032680Y032413D01*
X032680Y032532D02*
X026930Y032532D01*
X026930Y032650D02*
X032680Y032650D01*
X032680Y032769D02*
X026930Y032769D01*
X026930Y032887D02*
X032680Y032887D01*
X032680Y033006D02*
X026930Y033006D01*
X026930Y033124D02*
X032680Y033124D01*
X032680Y033243D02*
X026930Y033243D01*
X026930Y033361D02*
X032680Y033361D01*
X032680Y033480D02*
X026930Y033480D01*
X026930Y033598D02*
X032680Y033598D01*
X032680Y033717D02*
X026930Y033717D01*
X026930Y033835D02*
X032618Y033835D01*
X032500Y033954D02*
X026930Y033954D01*
X026930Y034072D02*
X032381Y034072D01*
X032263Y034191D02*
X026930Y034191D01*
X026930Y034309D02*
X032144Y034309D01*
X032026Y034428D02*
X026930Y034428D01*
X026930Y034546D02*
X031907Y034546D01*
X031789Y034665D02*
X026930Y034665D01*
X026930Y034783D02*
X031670Y034783D01*
X031552Y034902D02*
X026930Y034902D01*
X026930Y035020D02*
X031433Y035020D01*
X031315Y035139D02*
X026930Y035139D01*
X026930Y035257D02*
X031196Y035257D01*
X031078Y035376D02*
X026930Y035376D01*
X026930Y035494D02*
X030959Y035494D01*
X030841Y035613D02*
X026930Y035613D01*
X026930Y035731D02*
X030722Y035731D01*
X030604Y035850D02*
X026930Y035850D01*
X026930Y035968D02*
X030485Y035968D01*
X030367Y036087D02*
X026930Y036087D01*
X026930Y036205D02*
X030248Y036205D01*
X030130Y036324D02*
X026930Y036324D01*
X026930Y036442D02*
X030011Y036442D01*
X029893Y036561D02*
X026930Y036561D01*
X026930Y036679D02*
X029774Y036679D01*
X029680Y036798D02*
X026930Y036798D01*
X026930Y036916D02*
X029680Y036916D01*
X029680Y037035D02*
X026930Y037035D01*
X026930Y037153D02*
X029680Y037153D01*
X029680Y037272D02*
X026930Y037272D01*
X026930Y037390D02*
X029680Y037390D01*
X029680Y037509D02*
X026930Y037509D01*
X026930Y037627D02*
X029680Y037627D01*
X029680Y037746D02*
X026930Y037746D01*
X026930Y037864D02*
X029680Y037864D01*
X029680Y037983D02*
X026930Y037983D01*
X026930Y038101D02*
X029680Y038101D01*
X029680Y038220D02*
X026930Y038220D01*
X026930Y038338D02*
X029680Y038338D01*
X029680Y038457D02*
X026930Y038457D01*
X026930Y038575D02*
X029680Y038575D01*
X029680Y038694D02*
X026930Y038694D01*
X026930Y038812D02*
X029680Y038812D01*
X029680Y038931D02*
X026930Y038931D01*
X026930Y039049D02*
X029680Y039049D01*
X029680Y039168D02*
X026930Y039168D01*
X026930Y039286D02*
X029680Y039286D01*
X029680Y039405D02*
X026930Y039405D01*
X026930Y039523D02*
X029680Y039523D01*
X029680Y039642D02*
X026930Y039642D01*
X026930Y039760D02*
X029680Y039760D01*
X029680Y039879D02*
X026930Y039879D01*
X026930Y039997D02*
X029680Y039997D01*
X029680Y040116D02*
X026930Y040116D01*
X026930Y040234D02*
X029680Y040234D01*
X029930Y040234D02*
X032680Y040234D01*
X032680Y040274D02*
X032680Y037024D01*
X034930Y034774D01*
X034930Y030524D01*
X033930Y030524D01*
X032930Y031524D01*
X032930Y033774D01*
X029930Y036774D01*
X029930Y040274D01*
X032680Y040274D01*
X032680Y040116D02*
X029930Y040116D01*
X029930Y039997D02*
X032680Y039997D01*
X032680Y039879D02*
X029930Y039879D01*
X029930Y039760D02*
X032680Y039760D01*
X032680Y039642D02*
X029930Y039642D01*
X029930Y039523D02*
X032680Y039523D01*
X032680Y039405D02*
X029930Y039405D01*
X029930Y039286D02*
X032680Y039286D01*
X032680Y039168D02*
X029930Y039168D01*
X029930Y039049D02*
X032680Y039049D01*
X032680Y038931D02*
X029930Y038931D01*
X029930Y038812D02*
X032680Y038812D01*
X032680Y038694D02*
X029930Y038694D01*
X029930Y038575D02*
X032680Y038575D01*
X032680Y038457D02*
X029930Y038457D01*
X029930Y038338D02*
X032680Y038338D01*
X032680Y038220D02*
X029930Y038220D01*
X029930Y038101D02*
X032680Y038101D01*
X032680Y037983D02*
X029930Y037983D01*
X029930Y037864D02*
X032680Y037864D01*
X032680Y037746D02*
X029930Y037746D01*
X029930Y037627D02*
X032680Y037627D01*
X032680Y037509D02*
X029930Y037509D01*
X029930Y037390D02*
X032680Y037390D01*
X032680Y037272D02*
X029930Y037272D01*
X029930Y037153D02*
X032680Y037153D01*
X032680Y037035D02*
X029930Y037035D01*
X029930Y036916D02*
X032787Y036916D01*
X032906Y036798D02*
X029930Y036798D01*
X030024Y036679D02*
X033024Y036679D01*
X033143Y036561D02*
X030143Y036561D01*
X030261Y036442D02*
X033261Y036442D01*
X033380Y036324D02*
X030380Y036324D01*
X030498Y036205D02*
X033498Y036205D01*
X033617Y036087D02*
X030617Y036087D01*
X030735Y035968D02*
X033735Y035968D01*
X033854Y035850D02*
X030854Y035850D01*
X030972Y035731D02*
X033972Y035731D01*
X034091Y035613D02*
X031091Y035613D01*
X031209Y035494D02*
X034209Y035494D01*
X034328Y035376D02*
X031328Y035376D01*
X031446Y035257D02*
X034446Y035257D01*
X034565Y035139D02*
X031565Y035139D01*
X031683Y035020D02*
X034683Y035020D01*
X034802Y034902D02*
X031802Y034902D01*
X031920Y034783D02*
X034920Y034783D01*
X034930Y034665D02*
X032039Y034665D01*
X032157Y034546D02*
X034930Y034546D01*
X034930Y034428D02*
X032276Y034428D01*
X032394Y034309D02*
X034930Y034309D01*
X034930Y034191D02*
X032513Y034191D01*
X032631Y034072D02*
X034930Y034072D01*
X034930Y033954D02*
X032750Y033954D01*
X032868Y033835D02*
X034930Y033835D01*
X034930Y033717D02*
X032930Y033717D01*
X032930Y033598D02*
X034930Y033598D01*
X034930Y033480D02*
X032930Y033480D01*
X032930Y033361D02*
X034930Y033361D01*
X034930Y033243D02*
X032930Y033243D01*
X032930Y033124D02*
X034930Y033124D01*
X034930Y033006D02*
X032930Y033006D01*
X032930Y032887D02*
X034930Y032887D01*
X034930Y032769D02*
X032930Y032769D01*
X032930Y032650D02*
X034930Y032650D01*
X034930Y032532D02*
X032930Y032532D01*
X032930Y032413D02*
X034930Y032413D01*
X034930Y032295D02*
X032930Y032295D01*
X032930Y032176D02*
X034930Y032176D01*
X034930Y032058D02*
X032930Y032058D01*
X032930Y031939D02*
X034930Y031939D01*
X034930Y031821D02*
X032930Y031821D01*
X032930Y031702D02*
X034930Y031702D01*
X034930Y031584D02*
X032930Y031584D01*
X032988Y031465D02*
X034930Y031465D01*
X034930Y031347D02*
X033107Y031347D01*
X033225Y031228D02*
X034930Y031228D01*
X034930Y031110D02*
X033344Y031110D01*
X033462Y030991D02*
X034930Y030991D01*
X034930Y030873D02*
X033581Y030873D01*
X033699Y030754D02*
X034930Y030754D01*
X034930Y030636D02*
X033818Y030636D01*
X033686Y030517D02*
X026930Y030517D01*
X026930Y030399D02*
X033805Y030399D01*
X033923Y030280D02*
X026930Y030280D01*
X026930Y030162D02*
X036680Y030162D01*
X036680Y030043D02*
X026930Y030043D01*
X026930Y029925D02*
X036680Y029925D01*
X036680Y029806D02*
X026930Y029806D01*
X026930Y029688D02*
X036680Y029688D01*
X036680Y029569D02*
X026930Y029569D01*
X026930Y029451D02*
X036680Y029451D01*
X036680Y029332D02*
X026930Y029332D01*
X026930Y029214D02*
X036680Y029214D01*
X036680Y029095D02*
X026930Y029095D01*
X026930Y028977D02*
X036680Y028977D01*
X036680Y028858D02*
X026930Y028858D01*
X026930Y028740D02*
X036680Y028740D01*
X036680Y028621D02*
X026930Y028621D01*
X026930Y028503D02*
X036680Y028503D01*
X036680Y028384D02*
X026930Y028384D01*
X026930Y028266D02*
X036680Y028266D01*
X036680Y028147D02*
X026930Y028147D01*
X026930Y028029D02*
X036680Y028029D01*
X036930Y028029D02*
X046680Y028029D01*
X046680Y028024D02*
X036930Y028024D01*
X036930Y040274D01*
X039680Y040274D01*
X039680Y037024D01*
X042930Y033774D01*
X042930Y031274D01*
X043930Y030274D01*
X046680Y030274D01*
X046680Y028024D01*
X046680Y028147D02*
X036930Y028147D01*
X036930Y028266D02*
X046680Y028266D01*
X046680Y028384D02*
X036930Y028384D01*
X036930Y028503D02*
X046680Y028503D01*
X046680Y028621D02*
X036930Y028621D01*
X036930Y028740D02*
X046680Y028740D01*
X046680Y028858D02*
X036930Y028858D01*
X036930Y028977D02*
X046680Y028977D01*
X046680Y029095D02*
X036930Y029095D01*
X036930Y029214D02*
X046680Y029214D01*
X046680Y029332D02*
X036930Y029332D01*
X036930Y029451D02*
X046680Y029451D01*
X046680Y029569D02*
X036930Y029569D01*
X036930Y029688D02*
X046680Y029688D01*
X046680Y029806D02*
X036930Y029806D01*
X036930Y029925D02*
X046680Y029925D01*
X046680Y030043D02*
X036930Y030043D01*
X036930Y030162D02*
X046680Y030162D01*
X046680Y030524D02*
X045180Y030524D01*
X045180Y034774D01*
X042930Y037024D01*
X042930Y040274D01*
X046680Y040274D01*
X046680Y038962D01*
X046552Y038741D01*
X046470Y038433D01*
X046470Y038114D01*
X046552Y037807D01*
X046680Y037586D01*
X046680Y030524D01*
X046680Y030636D02*
X045180Y030636D01*
X045180Y030754D02*
X046680Y030754D01*
X046680Y030873D02*
X045180Y030873D01*
X045180Y030991D02*
X046680Y030991D01*
X046680Y031110D02*
X045180Y031110D01*
X045180Y031228D02*
X046680Y031228D01*
X046680Y031347D02*
X045180Y031347D01*
X045180Y031465D02*
X046680Y031465D01*
X046680Y031584D02*
X045180Y031584D01*
X045180Y031702D02*
X046680Y031702D01*
X046680Y031821D02*
X045180Y031821D01*
X045180Y031939D02*
X046680Y031939D01*
X046680Y032058D02*
X045180Y032058D01*
X045180Y032176D02*
X046680Y032176D01*
X046680Y032295D02*
X045180Y032295D01*
X045180Y032413D02*
X046680Y032413D01*
X046680Y032532D02*
X045180Y032532D01*
X045180Y032650D02*
X046680Y032650D01*
X046680Y032769D02*
X045180Y032769D01*
X045180Y032887D02*
X046680Y032887D01*
X046680Y033006D02*
X045180Y033006D01*
X045180Y033124D02*
X046680Y033124D01*
X046680Y033243D02*
X045180Y033243D01*
X045180Y033361D02*
X046680Y033361D01*
X046680Y033480D02*
X045180Y033480D01*
X045180Y033598D02*
X046680Y033598D01*
X046680Y033717D02*
X045180Y033717D01*
X045180Y033835D02*
X046680Y033835D01*
X046680Y033954D02*
X045180Y033954D01*
X045180Y034072D02*
X046680Y034072D01*
X046680Y034191D02*
X045180Y034191D01*
X045180Y034309D02*
X046680Y034309D01*
X046680Y034428D02*
X045180Y034428D01*
X045180Y034546D02*
X046680Y034546D01*
X046680Y034665D02*
X045180Y034665D01*
X045170Y034783D02*
X046680Y034783D01*
X046680Y034902D02*
X045052Y034902D01*
X044933Y035020D02*
X046680Y035020D01*
X046680Y035139D02*
X044815Y035139D01*
X044696Y035257D02*
X046680Y035257D01*
X046680Y035376D02*
X044578Y035376D01*
X044459Y035494D02*
X046680Y035494D01*
X046680Y035613D02*
X044341Y035613D01*
X044222Y035731D02*
X046680Y035731D01*
X046680Y035850D02*
X044104Y035850D01*
X043985Y035968D02*
X046680Y035968D01*
X046680Y036087D02*
X043867Y036087D01*
X043748Y036205D02*
X046680Y036205D01*
X046680Y036324D02*
X043630Y036324D01*
X043511Y036442D02*
X046680Y036442D01*
X046680Y036561D02*
X043393Y036561D01*
X043274Y036679D02*
X046680Y036679D01*
X046680Y036798D02*
X043156Y036798D01*
X043037Y036916D02*
X046680Y036916D01*
X046680Y037035D02*
X042930Y037035D01*
X042930Y037153D02*
X046680Y037153D01*
X046680Y037272D02*
X042930Y037272D01*
X042930Y037390D02*
X046680Y037390D01*
X046680Y037509D02*
X042930Y037509D01*
X042930Y037627D02*
X046656Y037627D01*
X046588Y037746D02*
X042930Y037746D01*
X042930Y037864D02*
X046537Y037864D01*
X046505Y037983D02*
X042930Y037983D01*
X042930Y038101D02*
X046474Y038101D01*
X046470Y038220D02*
X042930Y038220D01*
X042930Y038338D02*
X046470Y038338D01*
X046476Y038457D02*
X042930Y038457D01*
X042930Y038575D02*
X046508Y038575D01*
X046540Y038694D02*
X042930Y038694D01*
X042930Y038812D02*
X046594Y038812D01*
X046662Y038931D02*
X042930Y038931D01*
X042930Y039049D02*
X046680Y039049D01*
X046680Y039168D02*
X042930Y039168D01*
X042930Y039286D02*
X046680Y039286D01*
X046680Y039405D02*
X042930Y039405D01*
X042930Y039523D02*
X046680Y039523D01*
X046680Y039642D02*
X042930Y039642D01*
X042930Y039760D02*
X046680Y039760D01*
X046680Y039879D02*
X042930Y039879D01*
X042930Y039997D02*
X046680Y039997D01*
X046680Y040116D02*
X042930Y040116D01*
X042930Y040234D02*
X046680Y040234D01*
X042680Y040234D02*
X039930Y040234D01*
X039930Y040274D02*
X042680Y040274D01*
X042680Y037024D01*
X044930Y034774D01*
X044930Y030524D01*
X043930Y030524D01*
X043180Y031274D01*
X043180Y033774D01*
X039930Y037024D01*
X039930Y040274D01*
X039930Y040116D02*
X042680Y040116D01*
X042680Y039997D02*
X039930Y039997D01*
X039930Y039879D02*
X042680Y039879D01*
X042680Y039760D02*
X039930Y039760D01*
X039930Y039642D02*
X042680Y039642D01*
X042680Y039523D02*
X039930Y039523D01*
X039930Y039405D02*
X042680Y039405D01*
X042680Y039286D02*
X039930Y039286D01*
X039930Y039168D02*
X042680Y039168D01*
X042680Y039049D02*
X039930Y039049D01*
X039930Y038931D02*
X042680Y038931D01*
X042680Y038812D02*
X039930Y038812D01*
X039930Y038694D02*
X042680Y038694D01*
X042680Y038575D02*
X039930Y038575D01*
X039930Y038457D02*
X042680Y038457D01*
X042680Y038338D02*
X039930Y038338D01*
X039930Y038220D02*
X042680Y038220D01*
X042680Y038101D02*
X039930Y038101D01*
X039930Y037983D02*
X042680Y037983D01*
X042680Y037864D02*
X039930Y037864D01*
X039930Y037746D02*
X042680Y037746D01*
X042680Y037627D02*
X039930Y037627D01*
X039930Y037509D02*
X042680Y037509D01*
X042680Y037390D02*
X039930Y037390D01*
X039930Y037272D02*
X042680Y037272D01*
X042680Y037153D02*
X039930Y037153D01*
X039930Y037035D02*
X042680Y037035D01*
X042787Y036916D02*
X040037Y036916D01*
X040156Y036798D02*
X042906Y036798D01*
X043024Y036679D02*
X040274Y036679D01*
X040393Y036561D02*
X043143Y036561D01*
X043261Y036442D02*
X040511Y036442D01*
X040630Y036324D02*
X043380Y036324D01*
X043498Y036205D02*
X040748Y036205D01*
X040867Y036087D02*
X043617Y036087D01*
X043735Y035968D02*
X040985Y035968D01*
X041104Y035850D02*
X043854Y035850D01*
X043972Y035731D02*
X041222Y035731D01*
X041341Y035613D02*
X044091Y035613D01*
X044209Y035494D02*
X041459Y035494D01*
X041578Y035376D02*
X044328Y035376D01*
X044446Y035257D02*
X041696Y035257D01*
X041815Y035139D02*
X044565Y035139D01*
X044683Y035020D02*
X041933Y035020D01*
X042052Y034902D02*
X044802Y034902D01*
X044920Y034783D02*
X042170Y034783D01*
X042289Y034665D02*
X044930Y034665D01*
X044930Y034546D02*
X042407Y034546D01*
X042526Y034428D02*
X044930Y034428D01*
X044930Y034309D02*
X042644Y034309D01*
X042763Y034191D02*
X044930Y034191D01*
X044930Y034072D02*
X042881Y034072D01*
X043000Y033954D02*
X044930Y033954D01*
X044930Y033835D02*
X043118Y033835D01*
X043180Y033717D02*
X044930Y033717D01*
X044930Y033598D02*
X043180Y033598D01*
X043180Y033480D02*
X044930Y033480D01*
X044930Y033361D02*
X043180Y033361D01*
X043180Y033243D02*
X044930Y033243D01*
X044930Y033124D02*
X043180Y033124D01*
X043180Y033006D02*
X044930Y033006D01*
X044930Y032887D02*
X043180Y032887D01*
X043180Y032769D02*
X044930Y032769D01*
X044930Y032650D02*
X043180Y032650D01*
X043180Y032532D02*
X044930Y032532D01*
X044930Y032413D02*
X043180Y032413D01*
X043180Y032295D02*
X044930Y032295D01*
X044930Y032176D02*
X043180Y032176D01*
X043180Y032058D02*
X044930Y032058D01*
X044930Y031939D02*
X043180Y031939D01*
X043180Y031821D02*
X044930Y031821D01*
X044930Y031702D02*
X043180Y031702D01*
X043180Y031584D02*
X044930Y031584D01*
X044930Y031465D02*
X043180Y031465D01*
X043180Y031347D02*
X044930Y031347D01*
X044930Y031228D02*
X043225Y031228D01*
X043344Y031110D02*
X044930Y031110D01*
X044930Y030991D02*
X043462Y030991D01*
X043581Y030873D02*
X044930Y030873D01*
X044930Y030754D02*
X043699Y030754D01*
X043818Y030636D02*
X044930Y030636D01*
X043923Y030280D02*
X036930Y030280D01*
X036930Y030399D02*
X043805Y030399D01*
X043686Y030517D02*
X036930Y030517D01*
X036930Y030636D02*
X043568Y030636D01*
X043449Y030754D02*
X036930Y030754D01*
X036930Y030873D02*
X043331Y030873D01*
X043212Y030991D02*
X036930Y030991D01*
X036930Y031110D02*
X043094Y031110D01*
X042975Y031228D02*
X036930Y031228D01*
X036930Y031347D02*
X042930Y031347D01*
X042930Y031465D02*
X036930Y031465D01*
X036930Y031584D02*
X042930Y031584D01*
X042930Y031702D02*
X036930Y031702D01*
X036930Y031821D02*
X042930Y031821D01*
X042930Y031939D02*
X036930Y031939D01*
X036930Y032058D02*
X042930Y032058D01*
X042930Y032176D02*
X036930Y032176D01*
X036930Y032295D02*
X042930Y032295D01*
X042930Y032413D02*
X036930Y032413D01*
X036930Y032532D02*
X042930Y032532D01*
X042930Y032650D02*
X036930Y032650D01*
X036930Y032769D02*
X042930Y032769D01*
X042930Y032887D02*
X036930Y032887D01*
X036930Y033006D02*
X042930Y033006D01*
X042930Y033124D02*
X036930Y033124D01*
X036930Y033243D02*
X042930Y033243D01*
X042930Y033361D02*
X036930Y033361D01*
X036930Y033480D02*
X042930Y033480D01*
X042930Y033598D02*
X036930Y033598D01*
X036930Y033717D02*
X042930Y033717D01*
X042868Y033835D02*
X036930Y033835D01*
X036930Y033954D02*
X042750Y033954D01*
X042631Y034072D02*
X036930Y034072D01*
X036930Y034191D02*
X042513Y034191D01*
X042394Y034309D02*
X036930Y034309D01*
X036930Y034428D02*
X042276Y034428D01*
X042157Y034546D02*
X036930Y034546D01*
X036930Y034665D02*
X042039Y034665D01*
X041920Y034783D02*
X036930Y034783D01*
X036930Y034902D02*
X041802Y034902D01*
X041683Y035020D02*
X036930Y035020D01*
X036930Y035139D02*
X041565Y035139D01*
X041446Y035257D02*
X036930Y035257D01*
X036930Y035376D02*
X041328Y035376D01*
X041209Y035494D02*
X036930Y035494D01*
X036930Y035613D02*
X041091Y035613D01*
X040972Y035731D02*
X036930Y035731D01*
X036930Y035850D02*
X040854Y035850D01*
X040735Y035968D02*
X036930Y035968D01*
X036930Y036087D02*
X040617Y036087D01*
X040498Y036205D02*
X036930Y036205D01*
X036930Y036324D02*
X040380Y036324D01*
X040261Y036442D02*
X036930Y036442D01*
X036930Y036561D02*
X040143Y036561D01*
X040024Y036679D02*
X036930Y036679D01*
X036930Y036798D02*
X039906Y036798D01*
X039787Y036916D02*
X036930Y036916D01*
X036930Y037035D02*
X039680Y037035D01*
X039680Y037153D02*
X036930Y037153D01*
X036930Y037272D02*
X039680Y037272D01*
X039680Y037390D02*
X036930Y037390D01*
X036930Y037509D02*
X039680Y037509D01*
X039680Y037627D02*
X036930Y037627D01*
X036930Y037746D02*
X039680Y037746D01*
X039680Y037864D02*
X036930Y037864D01*
X036930Y037983D02*
X039680Y037983D01*
X039680Y038101D02*
X036930Y038101D01*
X036930Y038220D02*
X039680Y038220D01*
X039680Y038338D02*
X036930Y038338D01*
X036930Y038457D02*
X039680Y038457D01*
X039680Y038575D02*
X036930Y038575D01*
X036930Y038694D02*
X039680Y038694D01*
X039680Y038812D02*
X036930Y038812D01*
X036930Y038931D02*
X039680Y038931D01*
X039680Y039049D02*
X036930Y039049D01*
X036930Y039168D02*
X039680Y039168D01*
X039680Y039286D02*
X036930Y039286D01*
X036930Y039405D02*
X039680Y039405D01*
X039680Y039523D02*
X036930Y039523D01*
X036930Y039642D02*
X039680Y039642D01*
X039680Y039760D02*
X036930Y039760D01*
X036930Y039879D02*
X039680Y039879D01*
X039680Y039997D02*
X036930Y039997D01*
X036930Y040116D02*
X039680Y040116D01*
X039680Y040234D02*
X036930Y040234D01*
X036680Y040234D02*
X032930Y040234D01*
X032930Y040274D02*
X036680Y040274D01*
X036680Y030524D01*
X035180Y030524D01*
X035180Y034774D01*
X032930Y037024D01*
X032930Y040274D01*
X032930Y040116D02*
X036680Y040116D01*
X036680Y039997D02*
X032930Y039997D01*
X032930Y039879D02*
X036680Y039879D01*
X036680Y039760D02*
X032930Y039760D01*
X032930Y039642D02*
X036680Y039642D01*
X036680Y039523D02*
X032930Y039523D01*
X032930Y039405D02*
X036680Y039405D01*
X036680Y039286D02*
X032930Y039286D01*
X032930Y039168D02*
X036680Y039168D01*
X036680Y039049D02*
X032930Y039049D01*
X032930Y038931D02*
X036680Y038931D01*
X036680Y038812D02*
X032930Y038812D01*
X032930Y038694D02*
X036680Y038694D01*
X036680Y038575D02*
X032930Y038575D01*
X032930Y038457D02*
X036680Y038457D01*
X036680Y038338D02*
X032930Y038338D01*
X032930Y038220D02*
X036680Y038220D01*
X036680Y038101D02*
X032930Y038101D01*
X032930Y037983D02*
X036680Y037983D01*
X036680Y037864D02*
X032930Y037864D01*
X032930Y037746D02*
X036680Y037746D01*
X036680Y037627D02*
X032930Y037627D01*
X032930Y037509D02*
X036680Y037509D01*
X036680Y037390D02*
X032930Y037390D01*
X032930Y037272D02*
X036680Y037272D01*
X036680Y037153D02*
X032930Y037153D01*
X032930Y037035D02*
X036680Y037035D01*
X036680Y036916D02*
X033037Y036916D01*
X033156Y036798D02*
X036680Y036798D01*
X036680Y036679D02*
X033274Y036679D01*
X033393Y036561D02*
X036680Y036561D01*
X036680Y036442D02*
X033511Y036442D01*
X033630Y036324D02*
X036680Y036324D01*
X036680Y036205D02*
X033748Y036205D01*
X033867Y036087D02*
X036680Y036087D01*
X036680Y035968D02*
X033985Y035968D01*
X034104Y035850D02*
X036680Y035850D01*
X036680Y035731D02*
X034222Y035731D01*
X034341Y035613D02*
X036680Y035613D01*
X036680Y035494D02*
X034459Y035494D01*
X034578Y035376D02*
X036680Y035376D01*
X036680Y035257D02*
X034696Y035257D01*
X034815Y035139D02*
X036680Y035139D01*
X036680Y035020D02*
X034933Y035020D01*
X035052Y034902D02*
X036680Y034902D01*
X036680Y034783D02*
X035170Y034783D01*
X035180Y034665D02*
X036680Y034665D01*
X036680Y034546D02*
X035180Y034546D01*
X035180Y034428D02*
X036680Y034428D01*
X036680Y034309D02*
X035180Y034309D01*
X035180Y034191D02*
X036680Y034191D01*
X036680Y034072D02*
X035180Y034072D01*
X035180Y033954D02*
X036680Y033954D01*
X036680Y033835D02*
X035180Y033835D01*
X035180Y033717D02*
X036680Y033717D01*
X036680Y033598D02*
X035180Y033598D01*
X035180Y033480D02*
X036680Y033480D01*
X036680Y033361D02*
X035180Y033361D01*
X035180Y033243D02*
X036680Y033243D01*
X036680Y033124D02*
X035180Y033124D01*
X035180Y033006D02*
X036680Y033006D01*
X036680Y032887D02*
X035180Y032887D01*
X035180Y032769D02*
X036680Y032769D01*
X036680Y032650D02*
X035180Y032650D01*
X035180Y032532D02*
X036680Y032532D01*
X036680Y032413D02*
X035180Y032413D01*
X035180Y032295D02*
X036680Y032295D01*
X036680Y032176D02*
X035180Y032176D01*
X035180Y032058D02*
X036680Y032058D01*
X036680Y031939D02*
X035180Y031939D01*
X035180Y031821D02*
X036680Y031821D01*
X036680Y031702D02*
X035180Y031702D01*
X035180Y031584D02*
X036680Y031584D01*
X036680Y031465D02*
X035180Y031465D01*
X035180Y031347D02*
X036680Y031347D01*
X036680Y031228D02*
X035180Y031228D01*
X035180Y031110D02*
X036680Y031110D01*
X036680Y030991D02*
X035180Y030991D01*
X035180Y030873D02*
X036680Y030873D01*
X036680Y030754D02*
X035180Y030754D01*
X035180Y030636D02*
X036680Y030636D01*
X033568Y030636D02*
X026930Y030636D01*
X026930Y030754D02*
X033449Y030754D01*
X033331Y030873D02*
X026930Y030873D01*
X026930Y030991D02*
X033212Y030991D01*
X033094Y031110D02*
X026930Y031110D01*
X026680Y030280D02*
X026573Y030280D01*
X026680Y030162D02*
X022680Y030162D01*
X022680Y030280D02*
X025834Y030280D01*
X025716Y030399D02*
X022680Y030399D01*
X022680Y030517D02*
X025650Y030517D01*
X025600Y030636D02*
X022680Y030636D01*
X022680Y030754D02*
X025594Y030754D01*
X025594Y030873D02*
X022680Y030873D01*
X022680Y030991D02*
X025633Y030991D01*
X025683Y031110D02*
X022680Y031110D01*
X022680Y031228D02*
X025796Y031228D01*
X025993Y031347D02*
X022680Y031347D01*
X022430Y031821D02*
X021616Y031821D01*
X021616Y031939D02*
X022430Y031939D01*
X022430Y032058D02*
X021616Y032058D01*
X021616Y032176D02*
X022430Y032176D01*
X022409Y032295D02*
X021616Y032295D01*
X020782Y032413D02*
X017900Y032413D01*
X017554Y032774D02*
X017554Y035200D01*
X017180Y035574D01*
X019005Y033598D02*
X019839Y033598D01*
X019839Y033714D02*
X019839Y033359D01*
X019850Y033318D01*
X019871Y033282D01*
X019901Y033252D01*
X019937Y033231D01*
X019978Y033220D01*
X020333Y033220D01*
X020333Y033714D01*
X019839Y033714D01*
X019839Y033480D02*
X017724Y033480D01*
X017724Y033361D02*
X019839Y033361D01*
X019917Y033243D02*
X017724Y033243D01*
X016806Y032774D02*
X015554Y032774D01*
X015554Y033398D01*
X015680Y033524D01*
X016333Y032176D02*
X020744Y032176D01*
X020744Y032058D02*
X016214Y032058D01*
X016564Y031821D02*
X016564Y031821D01*
X016564Y031702D02*
X016564Y031702D01*
X016564Y031584D02*
X016564Y031584D01*
X016820Y031584D02*
X016820Y031584D01*
X016820Y031702D02*
X016820Y031702D01*
X016820Y031821D02*
X016820Y031821D01*
X017068Y031584D02*
X020744Y031584D01*
X020744Y032295D02*
X017201Y032295D01*
X018240Y031564D02*
X018496Y031564D01*
X018537Y031553D01*
X018574Y031532D01*
X018603Y031502D01*
X018624Y031465D01*
X018240Y031347D02*
X018120Y031347D01*
X018120Y030399D02*
X016892Y030399D01*
X017292Y030162D02*
X017725Y030162D01*
X017759Y030043D02*
X017429Y030043D01*
X017548Y029925D02*
X020744Y029925D01*
X020744Y030043D02*
X018601Y030043D01*
X018603Y030046D02*
X018624Y030082D01*
X018635Y030123D01*
X018635Y030340D01*
X018240Y030340D01*
X018240Y029984D01*
X018496Y029984D01*
X018537Y029995D01*
X018574Y030016D01*
X018603Y030046D01*
X018635Y030162D02*
X020744Y030162D01*
X020744Y030280D02*
X018635Y030280D01*
X018635Y030517D02*
X020776Y030517D01*
X020744Y030399D02*
X018240Y030399D01*
X018240Y030280D02*
X018120Y030280D01*
X018120Y030162D02*
X018240Y030162D01*
X018240Y030043D02*
X018120Y030043D01*
X017785Y029688D02*
X020744Y029688D01*
X020744Y029569D02*
X017903Y029569D01*
X018022Y029451D02*
X020744Y029451D01*
X020744Y029332D02*
X018140Y029332D01*
X018259Y029214D02*
X020745Y029214D01*
X020832Y029095D02*
X018377Y029095D01*
X018496Y028977D02*
X022430Y028977D01*
X022430Y029095D02*
X021528Y029095D01*
X021517Y029089D02*
X021554Y029110D01*
X021584Y029140D01*
X021605Y029177D01*
X021616Y029217D01*
X021616Y029769D01*
X021240Y029769D01*
X021240Y029078D01*
X021477Y029078D01*
X021517Y029089D01*
X021615Y029214D02*
X022430Y029214D01*
X022430Y029332D02*
X021616Y029332D01*
X021616Y029451D02*
X022430Y029451D01*
X022430Y029569D02*
X021616Y029569D01*
X021616Y029688D02*
X022430Y029688D01*
X022430Y029806D02*
X021240Y029806D01*
X021240Y029688D02*
X021120Y029688D01*
X021120Y029806D02*
X017666Y029806D01*
X018614Y028858D02*
X022430Y028858D01*
X022430Y028740D02*
X018733Y028740D01*
X018851Y028621D02*
X022430Y028621D01*
X022430Y028503D02*
X018930Y028503D01*
X018930Y028384D02*
X019763Y028384D01*
X019755Y028371D02*
X019744Y028330D01*
X019744Y027779D01*
X020120Y027779D01*
X020120Y028469D01*
X019883Y028469D01*
X019843Y028458D01*
X019806Y028437D01*
X019776Y028407D01*
X019755Y028371D01*
X019744Y028266D02*
X018930Y028266D01*
X018930Y028147D02*
X019744Y028147D01*
X019744Y028029D02*
X018930Y028029D01*
X018930Y027910D02*
X019744Y027910D01*
X019744Y027792D02*
X018930Y027792D01*
X019030Y027673D02*
X020120Y027673D01*
X020120Y027659D02*
X019744Y027659D01*
X019744Y027107D01*
X019755Y027066D01*
X019776Y027030D01*
X019806Y027000D01*
X019843Y026979D01*
X019883Y026968D01*
X020120Y026968D01*
X020120Y027659D01*
X020120Y027779D01*
X020240Y027779D01*
X020240Y028469D01*
X020477Y028469D01*
X020517Y028458D01*
X020554Y028437D01*
X020584Y028407D01*
X020605Y028371D01*
X020616Y028330D01*
X020616Y027779D01*
X020240Y027779D01*
X020240Y027659D01*
X020616Y027659D01*
X020616Y027107D01*
X020605Y027066D01*
X020584Y027030D01*
X020554Y027000D01*
X020517Y026979D01*
X020477Y026968D01*
X020240Y026968D01*
X020240Y027659D01*
X020120Y027659D01*
X020120Y027555D02*
X020240Y027555D01*
X020240Y027673D02*
X022330Y027673D01*
X022430Y027792D02*
X020616Y027792D01*
X020616Y027910D02*
X022430Y027910D01*
X022430Y028029D02*
X020616Y028029D01*
X020616Y028147D02*
X022430Y028147D01*
X022430Y028266D02*
X020616Y028266D01*
X020597Y028384D02*
X022430Y028384D01*
X022680Y028384D02*
X026680Y028384D01*
X026680Y028266D02*
X022680Y028266D01*
X022680Y028147D02*
X026680Y028147D01*
X026680Y028029D02*
X022680Y028029D01*
X022680Y028503D02*
X026680Y028503D01*
X026680Y028621D02*
X022680Y028621D01*
X022680Y028740D02*
X026680Y028740D01*
X026680Y028858D02*
X022680Y028858D01*
X022680Y028977D02*
X026680Y028977D01*
X026680Y029095D02*
X022680Y029095D01*
X022680Y029214D02*
X026680Y029214D01*
X026680Y029332D02*
X022680Y029332D01*
X022680Y029451D02*
X026680Y029451D01*
X026680Y029569D02*
X022680Y029569D01*
X022680Y029688D02*
X026680Y029688D01*
X026680Y029806D02*
X022680Y029806D01*
X022680Y029925D02*
X026680Y029925D01*
X026680Y030043D02*
X022680Y030043D01*
X022410Y030043D02*
X021616Y030043D01*
X021616Y029925D02*
X022430Y029925D01*
X022292Y030162D02*
X021616Y030162D01*
X021616Y030280D02*
X022173Y030280D01*
X022055Y030399D02*
X021616Y030399D01*
X021584Y030517D02*
X021936Y030517D01*
X021240Y029569D02*
X021120Y029569D01*
X021120Y029451D02*
X021240Y029451D01*
X021240Y029332D02*
X021120Y029332D01*
X021120Y029214D02*
X021240Y029214D01*
X021240Y029095D02*
X021120Y029095D01*
X020240Y028384D02*
X020120Y028384D01*
X020120Y028266D02*
X020240Y028266D01*
X020240Y028147D02*
X020120Y028147D01*
X020120Y028029D02*
X020240Y028029D01*
X020240Y027910D02*
X020120Y027910D01*
X020120Y027792D02*
X020240Y027792D01*
X020240Y027436D02*
X020120Y027436D01*
X020120Y027318D02*
X020240Y027318D01*
X020240Y027199D02*
X020120Y027199D01*
X020120Y027081D02*
X020240Y027081D01*
X020609Y027081D02*
X021737Y027081D01*
X021856Y027199D02*
X020616Y027199D01*
X020616Y027318D02*
X021974Y027318D01*
X022093Y027436D02*
X020616Y027436D01*
X020616Y027555D02*
X022211Y027555D01*
X021619Y026962D02*
X019741Y026962D01*
X019751Y027081D02*
X019623Y027081D01*
X019504Y027199D02*
X019744Y027199D01*
X019744Y027318D02*
X019386Y027318D01*
X019267Y027436D02*
X019744Y027436D01*
X019744Y027555D02*
X019149Y027555D01*
X019860Y026844D02*
X021500Y026844D01*
X020180Y024774D02*
X023680Y024774D01*
X024180Y024274D01*
X024180Y023774D01*
X023976Y023570D01*
X023945Y023570D01*
X023959Y023594D01*
X023970Y023635D01*
X023970Y023774D01*
X023970Y023913D01*
X023959Y023954D01*
X023955Y023961D01*
X023959Y023968D01*
X023970Y024009D01*
X023970Y024148D01*
X023970Y024287D01*
X023959Y024328D01*
X023938Y024364D01*
X023908Y024394D01*
X023872Y024415D01*
X023831Y024426D01*
X023633Y024426D01*
X023633Y024148D01*
X023970Y024148D01*
X023633Y024148D01*
X023633Y024148D01*
X023633Y024148D01*
X023633Y024426D01*
X023435Y024426D01*
X023394Y024415D01*
X023357Y024394D01*
X023328Y024364D01*
X023306Y024328D01*
X023296Y024287D01*
X023296Y024148D01*
X023633Y024148D01*
X023633Y024148D01*
X023633Y023870D01*
X023633Y023774D01*
X023633Y023774D01*
X023970Y023774D01*
X023633Y023774D01*
X023633Y023774D01*
X023633Y024148D01*
X023633Y024148D01*
X023296Y024148D01*
X023296Y024009D01*
X023306Y023968D01*
X023311Y023961D01*
X023306Y023954D01*
X023296Y023913D01*
X023296Y023774D01*
X023633Y023774D01*
X023633Y023774D01*
X023296Y023774D01*
X023296Y023635D01*
X023306Y023594D01*
X023328Y023557D01*
X023346Y023539D01*
X023346Y023524D01*
X023014Y023524D01*
X023014Y023539D01*
X023032Y023557D01*
X023054Y023594D01*
X023064Y023635D01*
X023064Y023774D01*
X023064Y023913D01*
X023054Y023954D01*
X023049Y023961D01*
X023054Y023968D01*
X023064Y024009D01*
X023064Y024148D01*
X023064Y024287D01*
X023054Y024328D01*
X023032Y024364D01*
X023003Y024394D01*
X022966Y024415D01*
X022925Y024426D01*
X022727Y024426D01*
X022529Y024426D01*
X022488Y024415D01*
X022452Y024394D01*
X022422Y024364D01*
X022401Y024328D01*
X022390Y024287D01*
X022390Y024148D01*
X022727Y024148D01*
X022727Y024426D01*
X022727Y024148D01*
X022727Y024148D01*
X022727Y024148D01*
X022390Y024148D01*
X022390Y024009D01*
X022401Y023968D01*
X022405Y023961D01*
X022401Y023954D01*
X022390Y023913D01*
X022390Y023774D01*
X022727Y023774D01*
X022727Y023870D01*
X022727Y024148D01*
X023064Y024148D01*
X022727Y024148D01*
X022727Y024148D01*
X022727Y024148D01*
X022727Y023774D01*
X022727Y023774D01*
X022727Y023774D01*
X022390Y023774D01*
X022390Y023635D01*
X022401Y023594D01*
X022422Y023557D01*
X022440Y023539D01*
X022440Y023524D01*
X022430Y023524D01*
X021680Y022774D01*
X020180Y022774D01*
X020180Y024774D01*
X020180Y024711D02*
X023743Y024711D01*
X023861Y024592D02*
X020180Y024592D01*
X020180Y024474D02*
X021059Y024474D01*
X021055Y024465D02*
X021044Y024425D01*
X021044Y023812D01*
X021362Y023812D01*
X021362Y023735D01*
X021439Y023735D01*
X021439Y022984D01*
X021618Y022984D01*
X021659Y022995D01*
X021696Y023016D01*
X021725Y023046D01*
X021746Y023082D01*
X021757Y023123D01*
X021757Y023735D01*
X021439Y023735D01*
X021439Y023812D01*
X021757Y023812D01*
X021757Y024425D01*
X021746Y024465D01*
X021725Y024502D01*
X021696Y024532D01*
X021659Y024553D01*
X021618Y024564D01*
X021439Y024564D01*
X021439Y023812D01*
X021362Y023812D01*
X021362Y024564D01*
X021183Y024564D01*
X021142Y024553D01*
X021105Y024532D01*
X021076Y024502D01*
X021055Y024465D01*
X021044Y024355D02*
X020180Y024355D01*
X020180Y024237D02*
X021044Y024237D01*
X021044Y024118D02*
X020180Y024118D01*
X020180Y024000D02*
X021044Y024000D01*
X021044Y023881D02*
X020180Y023881D01*
X020180Y023763D02*
X021362Y023763D01*
X021362Y023735D02*
X021044Y023735D01*
X021044Y023123D01*
X021055Y023082D01*
X021076Y023046D01*
X021105Y023016D01*
X021142Y022995D01*
X021183Y022984D01*
X021362Y022984D01*
X021362Y023735D01*
X021400Y023774D02*
X020150Y022524D01*
X017930Y022524D01*
X017180Y021774D01*
X017180Y014774D01*
X019080Y012874D01*
X025830Y012874D01*
X026555Y012149D01*
X026555Y011524D01*
X026930Y011274D02*
X027149Y011055D01*
X027149Y010673D01*
X026952Y010673D02*
X026952Y010045D01*
X026680Y009774D01*
X026430Y009774D01*
X027914Y008508D02*
X027430Y008024D01*
X027914Y008508D02*
X028330Y008508D01*
X028330Y008705D02*
X029105Y008705D01*
X029430Y009030D01*
X029930Y009030D01*
X030180Y009024D02*
X030180Y009524D01*
X029430Y008524D02*
X028824Y007917D01*
X028330Y007917D01*
X028330Y007721D02*
X029127Y007721D01*
X029430Y008024D01*
X030806Y007024D02*
X030322Y006539D01*
X028330Y006539D01*
X027696Y006539D01*
X027680Y006524D01*
X027717Y006736D02*
X027430Y007024D01*
X027717Y006736D02*
X028330Y006736D01*
X028330Y006343D02*
X031749Y006343D01*
X032180Y006774D01*
X032180Y009398D01*
X033680Y010898D01*
X034056Y010898D01*
X034430Y010524D01*
X034430Y009774D01*
X034930Y009274D01*
X035300Y009274D01*
X035300Y008774D02*
X034930Y008774D01*
X033680Y010024D01*
X033680Y010150D01*
X032430Y008900D01*
X032430Y006524D01*
X032052Y006146D01*
X028330Y006146D01*
X028330Y005949D02*
X032355Y005949D01*
X032680Y006274D01*
X032680Y007898D01*
X033680Y008898D01*
X034306Y008898D01*
X034930Y008274D01*
X035300Y008274D01*
X035300Y007774D02*
X034680Y007774D01*
X034304Y008150D01*
X033680Y008150D01*
X032930Y007400D01*
X032930Y006024D01*
X032658Y005752D01*
X028330Y005752D01*
X028330Y005555D02*
X032711Y005555D01*
X033180Y006024D01*
X033180Y006524D01*
X033554Y006898D01*
X033680Y006898D01*
X034304Y006898D01*
X034680Y007274D01*
X035300Y007274D01*
X035300Y006774D02*
X034680Y006774D01*
X034056Y006150D01*
X033680Y006150D01*
X032889Y005358D01*
X028330Y005358D01*
X028330Y005161D02*
X033416Y005161D01*
X033680Y005148D01*
X034304Y005148D01*
X034430Y005274D01*
X034430Y005774D01*
X034930Y006274D01*
X035300Y006274D01*
X035290Y005774D02*
X034930Y005774D01*
X034680Y005524D01*
X034680Y004774D01*
X036680Y007274D02*
X038180Y005774D01*
X039070Y005774D01*
X039070Y006274D02*
X038180Y006274D01*
X037430Y007024D01*
X037430Y007774D02*
X038430Y006774D01*
X039070Y006774D01*
X039070Y007274D02*
X038430Y007274D01*
X037430Y008274D01*
X036680Y008274D01*
X036680Y007774D02*
X036680Y007274D01*
X037680Y008524D02*
X038430Y007774D01*
X039070Y007774D01*
X039070Y008274D02*
X038430Y008274D01*
X037680Y009024D01*
X036930Y009024D01*
X036430Y009524D01*
X037180Y009524D02*
X037680Y009524D01*
X038430Y008774D01*
X039070Y008774D01*
X039070Y009274D02*
X038430Y009274D01*
X038180Y009524D01*
X039070Y009774D02*
X039430Y009774D01*
X039680Y009524D01*
X047180Y007274D02*
X047180Y006274D01*
X047320Y006134D01*
X047631Y006134D01*
X047180Y007274D02*
X047300Y007394D01*
X047631Y007394D01*
X039180Y003148D02*
X038554Y003148D01*
X038180Y002774D01*
X027930Y011274D02*
X027930Y011524D01*
X024930Y014524D01*
X024930Y022024D01*
X025680Y022774D01*
X025680Y023524D01*
X025180Y024024D01*
X025180Y024524D01*
X024930Y024774D01*
X024680Y024774D01*
X024430Y024524D01*
X024430Y023774D01*
X024056Y023400D01*
X023633Y023400D01*
X023346Y023526D02*
X023014Y023526D01*
X023064Y023644D02*
X023296Y023644D01*
X023296Y023763D02*
X023064Y023763D01*
X023064Y023774D02*
X022727Y023774D01*
X023064Y023774D01*
X023064Y023881D02*
X023296Y023881D01*
X023298Y024000D02*
X023062Y024000D01*
X023064Y024118D02*
X023296Y024118D01*
X023296Y024237D02*
X023064Y024237D01*
X023038Y024355D02*
X023322Y024355D01*
X023633Y024355D02*
X023633Y024355D01*
X023633Y024237D02*
X023633Y024237D01*
X023633Y024118D02*
X023633Y024118D01*
X023633Y024000D02*
X023633Y024000D01*
X023633Y023881D02*
X023633Y023881D01*
X023970Y023881D02*
X024180Y023881D01*
X024180Y024000D02*
X023968Y024000D01*
X023970Y024118D02*
X024180Y024118D01*
X024180Y024237D02*
X023970Y024237D01*
X023943Y024355D02*
X024098Y024355D01*
X023980Y024474D02*
X021742Y024474D01*
X021757Y024355D02*
X022417Y024355D01*
X022390Y024237D02*
X021757Y024237D01*
X021757Y024118D02*
X022390Y024118D01*
X022392Y024000D02*
X021757Y024000D01*
X021757Y023881D02*
X022390Y023881D01*
X022390Y023763D02*
X021439Y023763D01*
X021439Y023881D02*
X021362Y023881D01*
X021362Y024000D02*
X021439Y024000D01*
X021439Y024118D02*
X021362Y024118D01*
X021362Y024237D02*
X021439Y024237D01*
X021439Y024355D02*
X021362Y024355D01*
X021362Y024474D02*
X021439Y024474D01*
X021439Y023644D02*
X021362Y023644D01*
X021362Y023526D02*
X021439Y023526D01*
X021439Y023407D02*
X021362Y023407D01*
X021362Y023289D02*
X021439Y023289D01*
X021439Y023170D02*
X021362Y023170D01*
X021362Y023052D02*
X021439Y023052D01*
X021729Y023052D02*
X021958Y023052D01*
X022077Y023170D02*
X021757Y023170D01*
X021757Y023289D02*
X022195Y023289D01*
X022314Y023407D02*
X021757Y023407D01*
X021757Y023526D02*
X022440Y023526D01*
X022390Y023644D02*
X021757Y023644D01*
X022727Y023774D02*
X022727Y023774D01*
X022727Y023881D02*
X022727Y023881D01*
X022727Y024000D02*
X022727Y024000D01*
X022727Y024118D02*
X022727Y024118D01*
X022727Y024237D02*
X022727Y024237D01*
X022727Y024355D02*
X022727Y024355D01*
X023970Y023763D02*
X024169Y023763D01*
X024051Y023644D02*
X023970Y023644D01*
X024054Y022898D02*
X024810Y023654D01*
X024810Y024174D01*
X025570Y024174D02*
X025570Y024664D01*
X025680Y024774D01*
X025190Y023374D02*
X025190Y022784D01*
X025180Y022774D01*
X024680Y022524D02*
X024680Y015274D01*
X024031Y014625D01*
X022076Y014625D01*
X021820Y014625D02*
X021820Y014913D01*
X022306Y015400D01*
X023180Y015400D01*
X021930Y015524D02*
X021930Y016524D01*
X022076Y016669D01*
X022076Y016922D01*
X024079Y016922D01*
X024430Y017274D01*
X024430Y019161D01*
X024192Y019400D01*
X024192Y020148D02*
X024180Y020160D01*
X024180Y020774D01*
X024054Y021774D02*
X023168Y020888D01*
X023168Y020148D01*
X023168Y019774D02*
X022680Y019774D01*
X022430Y020024D01*
X021930Y019524D01*
X021930Y019274D01*
X022180Y019024D01*
X023180Y019024D01*
X023430Y018774D01*
X023430Y018524D01*
X023680Y018274D01*
X023942Y018274D01*
X023942Y018648D02*
X023190Y019400D01*
X023168Y019400D01*
X022554Y019400D01*
X022430Y019524D01*
X021595Y019359D02*
X022306Y018648D01*
X022918Y018648D01*
X022918Y018536D01*
X023430Y018024D01*
X023430Y017774D01*
X023180Y017524D01*
X021430Y017524D01*
X021052Y017146D01*
X021052Y016922D01*
X020796Y016922D02*
X020796Y017266D01*
X021554Y018024D01*
X021180Y018524D02*
X021430Y018774D01*
X021180Y018524D02*
X020180Y018524D01*
X019680Y018024D01*
X019680Y017524D01*
X020281Y016922D01*
X020284Y016922D01*
X020284Y016628D01*
X019930Y016274D01*
X019554Y015774D02*
X020430Y015774D01*
X020796Y016140D01*
X020796Y016922D01*
X020540Y016922D02*
X020540Y017663D01*
X020430Y017774D01*
X020180Y017774D01*
X020430Y017774D02*
X020556Y017774D01*
X020806Y018024D01*
X020740Y019024D02*
X020990Y019274D01*
X021430Y019274D01*
X022804Y017900D01*
X022918Y017900D01*
X023680Y017274D02*
X021680Y017274D01*
X021564Y017158D01*
X021564Y016922D01*
X021564Y016658D01*
X021430Y016524D01*
X021430Y015274D01*
X020796Y015158D02*
X020796Y014625D01*
X020284Y014625D02*
X019031Y014625D01*
X018930Y014524D01*
X019180Y015400D02*
X020554Y015400D01*
X020796Y015158D01*
X019554Y015774D02*
X019180Y016148D01*
X020740Y019024D02*
X020765Y019049D01*
X020765Y020055D01*
X021595Y020055D02*
X021595Y019359D01*
X022010Y020774D02*
X022306Y020774D01*
X023306Y021774D01*
X024054Y021774D02*
X024054Y022898D01*
X021840Y022933D02*
X020180Y022933D01*
X020180Y022815D02*
X021721Y022815D01*
X021072Y023052D02*
X020180Y023052D01*
X020180Y023170D02*
X021044Y023170D01*
X021044Y023289D02*
X020180Y023289D01*
X020180Y023407D02*
X021044Y023407D01*
X021044Y023526D02*
X020180Y023526D01*
X020180Y023644D02*
X021044Y023644D01*
X015554Y019774D02*
X015554Y018774D01*
X010180Y018774D02*
X009680Y019274D01*
X009430Y019274D01*
X010430Y011524D02*
X010930Y011524D01*
X011430Y011024D01*
X011430Y010524D01*
X010680Y009774D01*
X010680Y009671D01*
X010619Y009671D01*
X010555Y009606D01*
X010555Y009163D01*
X010492Y009226D01*
X010416Y009281D01*
X010333Y009323D01*
X010244Y009352D01*
X010152Y009367D01*
X009870Y009367D01*
X009870Y008834D01*
X009750Y008834D01*
X009750Y009367D01*
X009468Y009367D01*
X009376Y009352D01*
X009287Y009323D01*
X009204Y009281D01*
X009128Y009226D01*
X009062Y009160D01*
X009007Y009085D01*
X008965Y009001D01*
X008936Y008913D01*
X008924Y008834D01*
X009750Y008834D01*
X009750Y008714D01*
X008924Y008714D01*
X008936Y008635D01*
X008965Y008546D01*
X009007Y008463D01*
X009062Y008387D01*
X009128Y008321D01*
X009204Y008266D01*
X009287Y008224D01*
X009376Y008195D01*
X009468Y008181D01*
X009750Y008181D01*
X009750Y008714D01*
X009870Y008714D01*
X009870Y008834D01*
X010306Y008834D01*
X010306Y008812D01*
X010680Y008812D01*
X010680Y008735D01*
X010306Y008735D01*
X010306Y008714D01*
X009870Y008714D01*
X009870Y008181D01*
X010152Y008181D01*
X010244Y008195D01*
X010333Y008224D01*
X010416Y008266D01*
X010492Y008321D01*
X010555Y008384D01*
X010555Y007941D01*
X010600Y007896D01*
X010600Y007329D01*
X010450Y007179D01*
X010253Y007179D01*
X010209Y007135D01*
X010190Y007167D01*
X010160Y007197D01*
X010124Y007218D01*
X010083Y007229D01*
X009866Y007229D01*
X009866Y006834D01*
X009746Y006834D01*
X009746Y007229D01*
X009529Y007229D01*
X009488Y007218D01*
X009452Y007197D01*
X009422Y007167D01*
X009401Y007131D01*
X009390Y007090D01*
X009390Y006834D01*
X009746Y006834D01*
X009746Y006714D01*
X009390Y006714D01*
X009390Y006457D01*
X009401Y006417D01*
X009422Y006380D01*
X009452Y006350D01*
X009488Y006329D01*
X009529Y006318D01*
X009746Y006318D01*
X009746Y006714D01*
X009866Y006714D01*
X009866Y006318D01*
X010083Y006318D01*
X010124Y006329D01*
X010160Y006350D01*
X010190Y006380D01*
X010194Y006387D01*
X010194Y006297D01*
X010031Y006134D01*
X009329Y006134D01*
X008540Y006923D01*
X008540Y008053D01*
X008585Y008098D01*
X008585Y008701D01*
X008521Y008766D01*
X008180Y008766D01*
X008180Y008782D01*
X008521Y008782D01*
X008585Y008846D01*
X008585Y009247D01*
X009633Y010295D01*
X009829Y010467D01*
X010029Y010467D01*
X010093Y010531D01*
X010093Y010698D01*
X010180Y010774D01*
X010180Y011274D01*
X010430Y011524D01*
X010345Y011439D02*
X011015Y011439D01*
X011133Y011320D02*
X010227Y011320D01*
X010180Y011202D02*
X011252Y011202D01*
X011370Y011083D02*
X010884Y011083D01*
X010899Y011069D02*
X010869Y011099D01*
X010832Y011120D01*
X010792Y011131D01*
X010612Y011131D01*
X010612Y010812D01*
X010931Y010812D01*
X010931Y010992D01*
X010920Y011032D01*
X010899Y011069D01*
X010931Y010965D02*
X011430Y010965D01*
X011430Y010846D02*
X010931Y010846D01*
X010931Y010735D02*
X010612Y010735D01*
X010612Y010417D01*
X010792Y010417D01*
X010832Y010428D01*
X010869Y010449D01*
X010899Y010479D01*
X010920Y010515D01*
X010931Y010556D01*
X010931Y010735D01*
X010931Y010728D02*
X011430Y010728D01*
X011430Y010609D02*
X010931Y010609D01*
X010906Y010491D02*
X011397Y010491D01*
X011279Y010372D02*
X009721Y010372D01*
X009592Y010254D02*
X011160Y010254D01*
X011042Y010135D02*
X009473Y010135D01*
X009355Y010017D02*
X010923Y010017D01*
X010805Y009898D02*
X009236Y009898D01*
X009118Y009780D02*
X010686Y009780D01*
X010610Y009661D02*
X008999Y009661D01*
X008881Y009543D02*
X010555Y009543D01*
X010555Y009424D02*
X008762Y009424D01*
X008644Y009306D02*
X009252Y009306D01*
X009089Y009187D02*
X008585Y009187D01*
X008585Y009069D02*
X008999Y009069D01*
X008948Y008950D02*
X008585Y008950D01*
X008571Y008832D02*
X009750Y008832D01*
X009750Y008950D02*
X009870Y008950D01*
X009870Y008832D02*
X010306Y008832D01*
X010530Y009187D02*
X010555Y009187D01*
X010555Y009306D02*
X010367Y009306D01*
X009870Y009306D02*
X009750Y009306D01*
X009750Y009187D02*
X009870Y009187D01*
X009870Y009069D02*
X009750Y009069D01*
X009750Y008713D02*
X009870Y008713D01*
X009870Y008595D02*
X009750Y008595D01*
X009750Y008476D02*
X009870Y008476D01*
X009870Y008358D02*
X009750Y008358D01*
X009750Y008239D02*
X009870Y008239D01*
X010363Y008239D02*
X010555Y008239D01*
X010555Y008121D02*
X008585Y008121D01*
X008585Y008239D02*
X009257Y008239D01*
X009092Y008358D02*
X008585Y008358D01*
X008585Y008476D02*
X009001Y008476D01*
X008949Y008595D02*
X008585Y008595D01*
X008573Y008713D02*
X008924Y008713D01*
X008540Y008002D02*
X010555Y008002D01*
X010600Y007884D02*
X008540Y007884D01*
X008540Y007765D02*
X010600Y007765D01*
X010600Y007647D02*
X008540Y007647D01*
X008540Y007528D02*
X010600Y007528D01*
X010600Y007410D02*
X008540Y007410D01*
X008540Y007291D02*
X010562Y007291D01*
X010246Y007173D02*
X010184Y007173D01*
X009866Y007173D02*
X009746Y007173D01*
X009746Y007054D02*
X009866Y007054D01*
X009866Y006936D02*
X009746Y006936D01*
X009746Y006817D02*
X008646Y006817D01*
X008540Y006936D02*
X009390Y006936D01*
X009390Y007054D02*
X008540Y007054D01*
X008540Y007173D02*
X009428Y007173D01*
X009390Y006699D02*
X008764Y006699D01*
X008883Y006580D02*
X009390Y006580D01*
X009390Y006462D02*
X009001Y006462D01*
X009120Y006343D02*
X009464Y006343D01*
X009238Y006225D02*
X010122Y006225D01*
X010148Y006343D02*
X010194Y006343D01*
X009866Y006343D02*
X009746Y006343D01*
X009746Y006462D02*
X009866Y006462D01*
X009866Y006580D02*
X009746Y006580D01*
X009746Y006699D02*
X009866Y006699D01*
X011430Y005524D02*
X009680Y003774D01*
X008680Y003774D01*
X011430Y003774D02*
X012680Y005024D01*
X016680Y005024D01*
X017180Y005524D01*
X016680Y005524D02*
X011430Y005524D01*
X010555Y008358D02*
X010528Y008358D01*
X010535Y010417D02*
X010535Y010735D01*
X010612Y010735D01*
X010612Y010812D01*
X010535Y010812D01*
X010535Y010735D01*
X010217Y010735D01*
X010217Y010556D01*
X010228Y010515D01*
X010249Y010479D01*
X010279Y010449D01*
X010315Y010428D01*
X010356Y010417D01*
X010535Y010417D01*
X010535Y010491D02*
X010612Y010491D01*
X010612Y010609D02*
X010535Y010609D01*
X010535Y010728D02*
X010612Y010728D01*
X010535Y010812D02*
X010217Y010812D01*
X010217Y010992D01*
X010228Y011032D01*
X010249Y011069D01*
X010279Y011099D01*
X010315Y011120D01*
X010356Y011131D01*
X010535Y011131D01*
X010535Y010812D01*
X010535Y010846D02*
X010612Y010846D01*
X010612Y010965D02*
X010535Y010965D01*
X010535Y011083D02*
X010612Y011083D01*
X010263Y011083D02*
X010180Y011083D01*
X010180Y010965D02*
X010217Y010965D01*
X010217Y010846D02*
X010180Y010846D01*
X010217Y010728D02*
X010127Y010728D01*
X010093Y010609D02*
X010217Y010609D01*
X010242Y010491D02*
X010053Y010491D01*
X006180Y009167D02*
X006180Y008380D01*
X013680Y009148D02*
X014304Y009148D01*
X014680Y009524D01*
X014680Y009984D01*
X015180Y008524D02*
X014680Y008024D01*
X014680Y007564D01*
X014680Y007149D01*
X015430Y006399D01*
X018305Y006399D01*
X023055Y001649D01*
X025055Y001649D01*
X026952Y003545D01*
X026952Y004374D01*
X026755Y004374D02*
X026755Y005349D01*
X026930Y005524D01*
X026930Y006024D01*
X026430Y006024D02*
X026180Y006024D01*
X025930Y005774D01*
X026430Y005524D02*
X026558Y005396D01*
X026558Y004374D01*
X026558Y003652D01*
X025055Y002149D01*
X023055Y002149D01*
X018305Y006899D01*
X016930Y006899D01*
X016680Y007149D01*
X016680Y007564D01*
X016180Y007564D02*
X016180Y008524D01*
X015680Y008524D02*
X015180Y008024D01*
X015180Y007564D01*
X015680Y007564D02*
X015680Y007149D01*
X016180Y006649D01*
X018305Y006649D01*
X023055Y001899D01*
X025055Y001899D01*
X026755Y003599D01*
X026755Y004374D01*
X026164Y004374D02*
X026164Y003758D01*
X025055Y002649D01*
X023055Y002649D01*
X018180Y007524D01*
X018180Y010274D01*
X019555Y011149D02*
X019930Y010774D01*
X020180Y010774D01*
X020180Y010713D01*
X020180Y009335D02*
X020180Y008398D01*
X021680Y007524D02*
X022030Y007524D01*
X022030Y006933D02*
X024021Y006933D01*
X024430Y006524D01*
X024430Y006274D01*
X024180Y006024D02*
X024430Y005774D01*
X024680Y005774D01*
X024180Y006024D02*
X023930Y006024D01*
X023680Y005774D01*
X023430Y006274D02*
X023164Y006539D01*
X022030Y006539D01*
X022030Y006736D02*
X023717Y006736D01*
X023930Y006524D01*
X022930Y005774D02*
X022515Y005358D01*
X022030Y005358D01*
X022030Y005161D02*
X022818Y005161D01*
X022930Y005274D01*
X022430Y004524D02*
X022580Y004374D01*
X022818Y004374D01*
X023015Y004374D02*
X023015Y003939D01*
X023180Y003774D01*
X023605Y003849D02*
X023605Y004374D01*
X023605Y003849D02*
X023680Y003774D01*
X023930Y003774D01*
X021399Y002524D02*
X021399Y001992D01*
X021180Y001774D01*
X021005Y002099D02*
X021005Y002524D01*
X021005Y002099D02*
X020680Y001774D01*
X020430Y001774D01*
X019430Y002524D02*
X018619Y002524D01*
X017930Y001585D01*
X017930Y002963D02*
X017930Y003900D01*
X017930Y004648D02*
X018182Y004648D01*
X018930Y003900D01*
X018930Y004648D02*
X018930Y005024D01*
X018680Y005274D01*
X020930Y006274D02*
X021052Y006146D01*
X022030Y006146D01*
X022030Y005949D02*
X021355Y005949D01*
X021180Y005774D01*
X017180Y007564D02*
X017180Y008274D01*
X016930Y008524D01*
X016680Y008524D01*
X023802Y010152D02*
X024180Y009774D01*
X023802Y010152D02*
X023802Y010673D01*
X023680Y017274D02*
X023942Y017536D01*
X023942Y017900D01*
X028180Y022815D02*
X029721Y022815D01*
X029840Y022933D02*
X028180Y022933D01*
X028180Y024000D02*
X029044Y024000D01*
X029044Y024118D02*
X028180Y024118D01*
X028180Y024237D02*
X029044Y024237D01*
X029044Y024355D02*
X028180Y024355D01*
X028180Y024474D02*
X029059Y024474D01*
X029362Y024474D02*
X029439Y024474D01*
X029439Y024355D02*
X029362Y024355D01*
X029362Y024237D02*
X029439Y024237D01*
X029439Y024118D02*
X029362Y024118D01*
X029362Y024000D02*
X029439Y024000D01*
X029439Y023881D02*
X029362Y023881D01*
X029757Y023644D02*
X030390Y023644D01*
X030440Y023526D02*
X029757Y023526D01*
X029757Y023407D02*
X030314Y023407D01*
X030195Y023289D02*
X029757Y023289D01*
X029757Y023170D02*
X030077Y023170D01*
X029958Y023052D02*
X029729Y023052D01*
X030727Y023774D02*
X030727Y023774D01*
X031064Y023774D01*
X030727Y023774D01*
X030727Y023881D02*
X030727Y023881D01*
X030727Y024000D02*
X030727Y024000D01*
X030727Y024118D02*
X030727Y024118D01*
X030727Y024237D02*
X030727Y024237D01*
X030727Y024355D02*
X030727Y024355D01*
X031038Y024355D02*
X031322Y024355D01*
X031296Y024237D02*
X031064Y024237D01*
X031064Y024118D02*
X031296Y024118D01*
X031298Y024000D02*
X031062Y024000D01*
X031064Y023881D02*
X031296Y023881D01*
X031296Y023763D02*
X031064Y023763D01*
X031064Y023644D02*
X031296Y023644D01*
X031346Y023526D02*
X031014Y023526D01*
X031633Y023881D02*
X031633Y023881D01*
X031633Y024000D02*
X031633Y024000D01*
X031633Y024118D02*
X031633Y024118D01*
X031633Y024237D02*
X031633Y024237D01*
X031633Y024355D02*
X031633Y024355D01*
X031861Y024592D02*
X028180Y024592D01*
X028180Y024711D02*
X031743Y024711D01*
X031680Y022524D02*
X032054Y022150D01*
X032054Y021774D01*
X031306Y021774D02*
X030306Y020774D01*
X030010Y020774D01*
X041930Y017774D02*
X042430Y017774D01*
X042570Y017914D01*
X042570Y018174D01*
X047680Y017274D02*
X047942Y017536D01*
X047942Y017900D01*
X026930Y001524D02*
X026180Y001524D01*
X020453Y033243D02*
X020333Y033243D01*
X020333Y033361D02*
X020453Y033361D01*
X020453Y033480D02*
X020333Y033480D01*
X020333Y033598D02*
X020453Y033598D01*
X020453Y033954D02*
X020333Y033954D01*
X020333Y034072D02*
X020453Y034072D01*
X020453Y034191D02*
X020333Y034191D01*
X020333Y034309D02*
X020453Y034309D01*
X020861Y034309D02*
X021180Y034309D01*
X021180Y034191D02*
X020946Y034191D01*
X020946Y034072D02*
X021180Y034072D01*
X021180Y033954D02*
X020946Y033954D01*
X020946Y033835D02*
X021180Y033835D01*
X019930Y035139D02*
X026680Y035139D01*
X026680Y035257D02*
X019930Y035257D01*
X019930Y035376D02*
X026680Y035376D01*
X026680Y035494D02*
X019930Y035494D01*
X019930Y035613D02*
X026680Y035613D01*
X026680Y035731D02*
X019930Y035731D01*
X019930Y035850D02*
X026680Y035850D01*
X026680Y035968D02*
X019930Y035968D01*
X019930Y036087D02*
X026680Y036087D01*
X026680Y036205D02*
X019930Y036205D01*
X019930Y036324D02*
X026680Y036324D01*
X026680Y036442D02*
X019930Y036442D01*
X019930Y036561D02*
X023718Y036561D01*
X023682Y036571D02*
X024010Y036483D01*
X024350Y036483D01*
X024678Y036571D01*
X024973Y036741D01*
X025213Y036981D01*
X025383Y037275D01*
X025471Y037604D01*
X025471Y037944D01*
X025383Y038272D01*
X025213Y038566D01*
X024973Y038807D01*
X024678Y038977D01*
X024350Y039065D01*
X024010Y039065D01*
X023682Y038977D01*
X023387Y038807D01*
X023147Y038566D01*
X022977Y038272D01*
X022889Y037944D01*
X022889Y037604D01*
X022977Y037275D01*
X023147Y036981D01*
X023387Y036741D01*
X023682Y036571D01*
X023493Y036679D02*
X019930Y036679D01*
X019930Y036798D02*
X023330Y036798D01*
X023212Y036916D02*
X019930Y036916D01*
X019930Y037035D02*
X023116Y037035D01*
X023047Y037153D02*
X019930Y037153D01*
X019930Y037272D02*
X022979Y037272D01*
X022946Y037390D02*
X019930Y037390D01*
X019930Y037509D02*
X022914Y037509D01*
X022889Y037627D02*
X019930Y037627D01*
X019930Y037746D02*
X022889Y037746D01*
X022889Y037864D02*
X019930Y037864D01*
X019930Y037983D02*
X022899Y037983D01*
X022931Y038101D02*
X019930Y038101D01*
X019930Y038220D02*
X022963Y038220D01*
X023015Y038338D02*
X019930Y038338D01*
X019930Y038457D02*
X023084Y038457D01*
X023156Y038575D02*
X019930Y038575D01*
X019930Y038694D02*
X023274Y038694D01*
X023397Y038812D02*
X019930Y038812D01*
X019930Y038931D02*
X023602Y038931D01*
X023952Y039049D02*
X019930Y039049D01*
X019930Y039168D02*
X026680Y039168D01*
X026680Y039286D02*
X019930Y039286D01*
X019930Y039405D02*
X026680Y039405D01*
X026680Y039523D02*
X019930Y039523D01*
X019930Y039642D02*
X026680Y039642D01*
X026680Y039760D02*
X019930Y039760D01*
X019930Y039879D02*
X026680Y039879D01*
X026680Y039997D02*
X019930Y039997D01*
X019930Y040116D02*
X026680Y040116D01*
X026680Y040234D02*
X019930Y040234D01*
X024408Y039049D02*
X026680Y039049D01*
X026680Y038931D02*
X024758Y038931D01*
X024963Y038812D02*
X026680Y038812D01*
X026680Y038694D02*
X025086Y038694D01*
X025204Y038575D02*
X026680Y038575D01*
X026680Y038457D02*
X025276Y038457D01*
X025345Y038338D02*
X026680Y038338D01*
X026680Y038220D02*
X025397Y038220D01*
X025429Y038101D02*
X026680Y038101D01*
X026680Y037983D02*
X025461Y037983D01*
X025471Y037864D02*
X026680Y037864D01*
X026680Y037746D02*
X025471Y037746D01*
X025471Y037627D02*
X026680Y037627D01*
X026680Y037509D02*
X025446Y037509D01*
X025414Y037390D02*
X026680Y037390D01*
X026680Y037272D02*
X025381Y037272D01*
X025313Y037153D02*
X026680Y037153D01*
X026680Y037035D02*
X025244Y037035D01*
X025148Y036916D02*
X026680Y036916D01*
X026680Y036798D02*
X025030Y036798D01*
X024867Y036679D02*
X026680Y036679D01*
X026680Y036561D02*
X024642Y036561D01*
D56*
X019680Y036529D02*
X014530Y036529D01*
X014530Y036548D02*
X014477Y036677D01*
X014380Y036774D01*
X014477Y036871D01*
X014530Y036999D01*
X014530Y037139D01*
X014477Y037267D01*
X014378Y037366D01*
X014366Y037371D01*
X014371Y037373D01*
X014466Y037468D01*
X014518Y037592D01*
X014518Y037727D01*
X014466Y037851D01*
X014371Y037946D01*
X014247Y037997D01*
X014113Y037997D01*
X013989Y037946D01*
X013894Y037851D01*
X013842Y037727D01*
X013842Y037606D01*
X013477Y037972D01*
X013378Y038070D01*
X013250Y038124D01*
X012897Y038124D01*
X012851Y038169D01*
X012257Y038169D01*
X012198Y038110D01*
X012198Y037437D01*
X012257Y037378D01*
X012851Y037378D01*
X012897Y037424D01*
X013035Y037424D01*
X013630Y036828D01*
X012994Y036828D01*
X012910Y036913D01*
X012910Y037110D01*
X012851Y037169D01*
X012257Y037169D01*
X012198Y037110D01*
X012198Y036437D01*
X012257Y036378D01*
X012454Y036378D01*
X012651Y036182D01*
X012780Y036128D01*
X014250Y036128D01*
X014378Y036182D01*
X014477Y036280D01*
X014530Y036409D01*
X014530Y036548D01*
X014497Y036628D02*
X015542Y036628D01*
X015650Y036599D02*
X018110Y036599D01*
X018409Y036679D01*
X018676Y036833D01*
X018895Y037052D01*
X019050Y037320D01*
X019130Y037619D01*
X019130Y037928D01*
X019050Y038227D01*
X018895Y038495D01*
X018676Y038714D01*
X018409Y038869D01*
X018110Y038949D01*
X015650Y038949D01*
X015351Y038869D01*
X015084Y038714D01*
X014865Y038495D01*
X014710Y038227D01*
X014630Y037928D01*
X014630Y037619D01*
X014710Y037320D01*
X014865Y037052D01*
X015084Y036833D01*
X015351Y036679D01*
X015650Y036599D01*
X015269Y036726D02*
X014427Y036726D01*
X014431Y036825D02*
X015099Y036825D01*
X014994Y036923D02*
X014498Y036923D01*
X014530Y037022D02*
X014895Y037022D01*
X014825Y037120D02*
X014530Y037120D01*
X014497Y037219D02*
X014769Y037219D01*
X014712Y037317D02*
X014427Y037317D01*
X014414Y037416D02*
X014684Y037416D01*
X014658Y037514D02*
X014485Y037514D01*
X014518Y037613D02*
X014632Y037613D01*
X014630Y037711D02*
X014518Y037711D01*
X014483Y037810D02*
X014630Y037810D01*
X014630Y037908D02*
X014409Y037908D01*
X014651Y038007D02*
X013442Y038007D01*
X013540Y037908D02*
X013951Y037908D01*
X013877Y037810D02*
X013639Y037810D01*
X013737Y037711D02*
X013842Y037711D01*
X013836Y037613D02*
X013842Y037613D01*
X013338Y037120D02*
X012900Y037120D01*
X012910Y037022D02*
X013437Y037022D01*
X013535Y036923D02*
X012910Y036923D01*
X013240Y037219D02*
X011120Y037219D01*
X011219Y037317D02*
X013141Y037317D01*
X013043Y037416D02*
X012889Y037416D01*
X012219Y037416D02*
X012141Y037416D01*
X012162Y037437D02*
X012103Y037378D01*
X011509Y037378D01*
X011463Y037424D01*
X011325Y037424D01*
X010730Y036828D01*
X011366Y036828D01*
X011450Y036913D01*
X011450Y037110D01*
X011509Y037169D01*
X012103Y037169D01*
X012162Y037110D01*
X012162Y036437D01*
X012103Y036378D01*
X011906Y036378D01*
X011709Y036182D01*
X011580Y036128D01*
X010110Y036128D01*
X009982Y036182D01*
X009883Y036280D01*
X009830Y036409D01*
X009830Y036548D01*
X009883Y036677D01*
X009980Y036774D01*
X009883Y036871D01*
X009830Y036999D01*
X009830Y037139D01*
X009883Y037267D01*
X009982Y037366D01*
X009994Y037371D01*
X009989Y037373D01*
X009894Y037468D01*
X009842Y037592D01*
X009842Y037727D01*
X009894Y037851D01*
X009989Y037946D01*
X010113Y037997D01*
X010247Y037997D01*
X010371Y037946D01*
X010466Y037851D01*
X010518Y037727D01*
X010518Y037606D01*
X010883Y037972D01*
X010883Y037972D01*
X010982Y038070D01*
X011110Y038124D01*
X011463Y038124D01*
X011509Y038169D01*
X012103Y038169D01*
X012162Y038110D01*
X012162Y037437D01*
X012162Y037514D02*
X012198Y037514D01*
X012198Y037613D02*
X012162Y037613D01*
X012162Y037711D02*
X012198Y037711D01*
X012198Y037810D02*
X012162Y037810D01*
X012162Y037908D02*
X012198Y037908D01*
X012198Y038007D02*
X012162Y038007D01*
X012162Y038105D02*
X012198Y038105D01*
X011471Y037416D02*
X011317Y037416D01*
X011460Y037120D02*
X011022Y037120D01*
X010923Y037022D02*
X011450Y037022D01*
X011450Y036923D02*
X010825Y036923D01*
X010524Y037613D02*
X010518Y037613D01*
X010518Y037711D02*
X010623Y037711D01*
X010721Y037810D02*
X010483Y037810D01*
X010409Y037908D02*
X010820Y037908D01*
X010918Y038007D02*
X009109Y038007D01*
X009130Y037928D02*
X009050Y038227D01*
X008895Y038495D01*
X008676Y038714D01*
X008409Y038869D01*
X008110Y038949D01*
X005650Y038949D01*
X005351Y038869D01*
X005084Y038714D01*
X004865Y038495D01*
X004710Y038227D01*
X004630Y037928D01*
X004630Y037619D01*
X004710Y037320D01*
X004865Y037052D01*
X005084Y036833D01*
X005351Y036679D01*
X005650Y036599D01*
X008110Y036599D01*
X008409Y036679D01*
X008676Y036833D01*
X008895Y037052D01*
X009050Y037320D01*
X009130Y037619D01*
X009130Y037928D01*
X009130Y037908D02*
X009951Y037908D01*
X009877Y037810D02*
X009130Y037810D01*
X009130Y037711D02*
X009842Y037711D01*
X009842Y037613D02*
X009128Y037613D01*
X009102Y037514D02*
X009875Y037514D01*
X009946Y037416D02*
X009076Y037416D01*
X009048Y037317D02*
X009933Y037317D01*
X009863Y037219D02*
X008991Y037219D01*
X008935Y037120D02*
X009830Y037120D01*
X009830Y037022D02*
X008865Y037022D01*
X008766Y036923D02*
X009862Y036923D01*
X009929Y036825D02*
X008661Y036825D01*
X008491Y036726D02*
X009933Y036726D01*
X009863Y036628D02*
X008218Y036628D01*
X009830Y036529D02*
X000680Y036529D01*
X000680Y036431D02*
X009830Y036431D01*
X009862Y036332D02*
X000680Y036332D01*
X000680Y036234D02*
X009930Y036234D01*
X010094Y036135D02*
X000680Y036135D01*
X000680Y036037D02*
X019680Y036037D01*
X019680Y036135D02*
X014266Y036135D01*
X014430Y036234D02*
X019680Y036234D01*
X019680Y036332D02*
X014498Y036332D01*
X014530Y036431D02*
X019680Y036431D01*
X019680Y036628D02*
X018218Y036628D01*
X018491Y036726D02*
X019680Y036726D01*
X019680Y036825D02*
X018661Y036825D01*
X018766Y036923D02*
X019680Y036923D01*
X019680Y037022D02*
X018865Y037022D01*
X018935Y037120D02*
X019680Y037120D01*
X019680Y037219D02*
X018991Y037219D01*
X019048Y037317D02*
X019680Y037317D01*
X019680Y037416D02*
X019076Y037416D01*
X019102Y037514D02*
X019680Y037514D01*
X019680Y037613D02*
X019128Y037613D01*
X019130Y037711D02*
X019680Y037711D01*
X019680Y037810D02*
X019130Y037810D01*
X019130Y037908D02*
X019680Y037908D01*
X019680Y038007D02*
X019109Y038007D01*
X019083Y038105D02*
X019680Y038105D01*
X019680Y038204D02*
X019056Y038204D01*
X019007Y038302D02*
X019680Y038302D01*
X019680Y038401D02*
X018950Y038401D01*
X018891Y038499D02*
X019680Y038499D01*
X019680Y038598D02*
X018793Y038598D01*
X018694Y038696D02*
X019680Y038696D01*
X019680Y038795D02*
X018536Y038795D01*
X018316Y038893D02*
X019680Y038893D01*
X019680Y038992D02*
X003651Y038992D01*
X003640Y039011D02*
X003417Y039234D01*
X003143Y039392D01*
X002838Y039474D01*
X002522Y039474D01*
X002217Y039392D01*
X001943Y039234D01*
X001720Y039011D01*
X001562Y038737D01*
X001480Y038432D01*
X001480Y038116D01*
X001562Y037811D01*
X001720Y037537D01*
X001943Y037313D01*
X002217Y037155D01*
X002522Y037074D01*
X002838Y037074D01*
X003143Y037155D01*
X003417Y037313D01*
X003640Y037537D01*
X003798Y037811D01*
X003880Y038116D01*
X003880Y038432D01*
X003798Y038737D01*
X003640Y039011D01*
X003560Y039090D02*
X019680Y039090D01*
X019680Y039189D02*
X003462Y039189D01*
X003324Y039287D02*
X019680Y039287D01*
X019680Y039386D02*
X003154Y039386D01*
X003708Y038893D02*
X005444Y038893D01*
X005224Y038795D02*
X003765Y038795D01*
X003809Y038696D02*
X005066Y038696D01*
X004967Y038598D02*
X003835Y038598D01*
X003862Y038499D02*
X004869Y038499D01*
X004810Y038401D02*
X003880Y038401D01*
X003880Y038302D02*
X004753Y038302D01*
X004704Y038204D02*
X003880Y038204D01*
X003877Y038105D02*
X004677Y038105D01*
X004651Y038007D02*
X003851Y038007D01*
X003824Y037908D02*
X004630Y037908D01*
X004630Y037810D02*
X003798Y037810D01*
X003741Y037711D02*
X004630Y037711D01*
X004632Y037613D02*
X003684Y037613D01*
X003618Y037514D02*
X004658Y037514D01*
X004684Y037416D02*
X003519Y037416D01*
X003421Y037317D02*
X004712Y037317D01*
X004769Y037219D02*
X003253Y037219D01*
X003012Y037120D02*
X004825Y037120D01*
X004895Y037022D02*
X000680Y037022D01*
X000680Y037120D02*
X002348Y037120D01*
X002107Y037219D02*
X000680Y037219D01*
X000680Y037317D02*
X001939Y037317D01*
X001841Y037416D02*
X000680Y037416D01*
X000680Y037514D02*
X001742Y037514D01*
X001676Y037613D02*
X000680Y037613D01*
X000680Y037711D02*
X001619Y037711D01*
X001562Y037810D02*
X000680Y037810D01*
X000680Y037908D02*
X001536Y037908D01*
X001509Y038007D02*
X000680Y038007D01*
X000680Y038105D02*
X001483Y038105D01*
X001480Y038204D02*
X000680Y038204D01*
X000680Y038302D02*
X001480Y038302D01*
X001480Y038401D02*
X000680Y038401D01*
X000680Y038499D02*
X001498Y038499D01*
X001525Y038598D02*
X000680Y038598D01*
X000680Y038696D02*
X001551Y038696D01*
X001595Y038795D02*
X000680Y038795D01*
X000680Y038893D02*
X001652Y038893D01*
X001709Y038992D02*
X000680Y038992D01*
X000680Y039090D02*
X001800Y039090D01*
X001898Y039189D02*
X000680Y039189D01*
X000680Y039287D02*
X002036Y039287D01*
X002206Y039386D02*
X000680Y039386D01*
X000680Y039484D02*
X019680Y039484D01*
X019680Y039583D02*
X000680Y039583D01*
X000680Y039681D02*
X019680Y039681D01*
X019680Y039780D02*
X000680Y039780D01*
X000680Y039878D02*
X019680Y039878D01*
X019680Y039977D02*
X000680Y039977D01*
X000680Y040075D02*
X019680Y040075D01*
X019680Y040174D02*
X000680Y040174D01*
X000680Y040272D02*
X019680Y040272D01*
X019680Y040274D02*
X019680Y034524D01*
X018930Y033774D01*
X015852Y033774D01*
X015849Y033776D01*
X015739Y033822D01*
X015621Y033822D01*
X015511Y033776D01*
X015508Y033774D01*
X011180Y033774D01*
X010930Y033524D01*
X010930Y033152D01*
X010892Y033114D01*
X010800Y032893D01*
X010800Y032654D01*
X010892Y032434D01*
X010930Y032396D01*
X010930Y032278D01*
X010175Y031524D01*
X008059Y031524D01*
X007629Y031954D01*
X006605Y031954D01*
X006500Y031848D01*
X006175Y031524D01*
X005930Y031524D01*
X005430Y032024D01*
X005430Y034024D01*
X004680Y034774D01*
X000680Y034774D01*
X000680Y040274D01*
X019680Y040274D01*
X015444Y038893D02*
X008316Y038893D01*
X008536Y038795D02*
X015224Y038795D01*
X015066Y038696D02*
X008694Y038696D01*
X008793Y038598D02*
X014967Y038598D01*
X014869Y038499D02*
X008891Y038499D01*
X008950Y038401D02*
X014810Y038401D01*
X014753Y038302D02*
X009007Y038302D01*
X009056Y038204D02*
X014704Y038204D01*
X014677Y038105D02*
X013294Y038105D01*
X012208Y037120D02*
X012152Y037120D01*
X012162Y037022D02*
X012198Y037022D01*
X012198Y036923D02*
X012162Y036923D01*
X012162Y036825D02*
X012198Y036825D01*
X012198Y036726D02*
X012162Y036726D01*
X012162Y036628D02*
X012198Y036628D01*
X012198Y036529D02*
X012162Y036529D01*
X012156Y036431D02*
X012204Y036431D01*
X012500Y036332D02*
X011860Y036332D01*
X011761Y036234D02*
X012599Y036234D01*
X012763Y036135D02*
X011597Y036135D01*
X011066Y038105D02*
X009083Y038105D01*
X005542Y036628D02*
X000680Y036628D01*
X000680Y036726D02*
X005269Y036726D01*
X005099Y036825D02*
X000680Y036825D01*
X000680Y036923D02*
X004994Y036923D01*
X004697Y034756D02*
X019680Y034756D01*
X019680Y034658D02*
X004796Y034658D01*
X004894Y034559D02*
X019680Y034559D01*
X019617Y034461D02*
X004993Y034461D01*
X005091Y034362D02*
X019519Y034362D01*
X019420Y034264D02*
X005190Y034264D01*
X005288Y034165D02*
X019322Y034165D01*
X019223Y034067D02*
X005387Y034067D01*
X005430Y033968D02*
X019125Y033968D01*
X019026Y033870D02*
X005430Y033870D01*
X005430Y033771D02*
X011178Y033771D01*
X011079Y033673D02*
X005430Y033673D01*
X005430Y033574D02*
X010981Y033574D01*
X010930Y033476D02*
X005430Y033476D01*
X005430Y033377D02*
X010930Y033377D01*
X010930Y033279D02*
X005430Y033279D01*
X005430Y033180D02*
X010930Y033180D01*
X010879Y033082D02*
X005430Y033082D01*
X005430Y032983D02*
X010838Y032983D01*
X010800Y032885D02*
X005430Y032885D01*
X005430Y032786D02*
X010800Y032786D01*
X010800Y032688D02*
X005430Y032688D01*
X005430Y032589D02*
X010827Y032589D01*
X010868Y032491D02*
X005430Y032491D01*
X005430Y032392D02*
X010930Y032392D01*
X010930Y032294D02*
X005430Y032294D01*
X005430Y032195D02*
X010847Y032195D01*
X010749Y032097D02*
X005430Y032097D01*
X005455Y031998D02*
X010650Y031998D01*
X010552Y031900D02*
X007682Y031900D01*
X007781Y031801D02*
X010453Y031801D01*
X010355Y031703D02*
X007879Y031703D01*
X007978Y031604D02*
X010256Y031604D01*
X006552Y031900D02*
X005554Y031900D01*
X005652Y031801D02*
X006453Y031801D01*
X006355Y031703D02*
X005751Y031703D01*
X005849Y031604D02*
X006256Y031604D01*
X005180Y032274D02*
X004430Y031524D01*
X004430Y031090D01*
X004135Y031090D01*
X004076Y031032D01*
X004076Y030826D01*
X003757Y030826D01*
X003575Y031007D01*
X003575Y031445D01*
X003517Y031504D01*
X002843Y031504D01*
X002785Y031445D01*
X002785Y030850D01*
X002843Y030792D01*
X003281Y030792D01*
X003318Y030756D01*
X002843Y030756D01*
X002785Y030697D01*
X002785Y030102D01*
X002843Y030044D01*
X003517Y030044D01*
X003575Y030102D01*
X003575Y030230D01*
X004106Y030230D01*
X004135Y030201D01*
X004335Y030201D01*
X004430Y030106D01*
X004430Y027934D01*
X004208Y027934D01*
X004199Y027954D01*
X004110Y028043D01*
X003993Y028091D01*
X003867Y028091D01*
X003750Y028043D01*
X003661Y027954D01*
X003612Y027837D01*
X003612Y027710D01*
X003661Y027594D01*
X003750Y027504D01*
X003867Y027456D01*
X003993Y027456D01*
X004110Y027504D01*
X004199Y027594D01*
X004208Y027614D01*
X004430Y027614D01*
X004430Y027024D01*
X004374Y026968D01*
X004374Y027020D01*
X004316Y027078D01*
X003839Y027078D01*
X003781Y027020D01*
X003781Y026374D01*
X003680Y026274D01*
X000680Y026274D01*
X000680Y034524D01*
X004430Y034524D01*
X005180Y033774D01*
X005180Y032274D01*
X005180Y032294D02*
X000680Y032294D01*
X000680Y032392D02*
X005180Y032392D01*
X005180Y032491D02*
X000680Y032491D01*
X000680Y032589D02*
X005180Y032589D01*
X005180Y032688D02*
X000680Y032688D01*
X000680Y032786D02*
X005180Y032786D01*
X005180Y032885D02*
X000680Y032885D01*
X000680Y032983D02*
X005180Y032983D01*
X005180Y033082D02*
X000680Y033082D01*
X000680Y033180D02*
X005180Y033180D01*
X005180Y033279D02*
X000680Y033279D01*
X000680Y033377D02*
X005180Y033377D01*
X005180Y033476D02*
X000680Y033476D01*
X000680Y033574D02*
X005180Y033574D01*
X005180Y033673D02*
X000680Y033673D01*
X000680Y033771D02*
X005180Y033771D01*
X005084Y033870D02*
X000680Y033870D01*
X000680Y033968D02*
X004985Y033968D01*
X004887Y034067D02*
X000680Y034067D01*
X000680Y034165D02*
X004788Y034165D01*
X004690Y034264D02*
X000680Y034264D01*
X000680Y034362D02*
X004591Y034362D01*
X004493Y034461D02*
X000680Y034461D01*
X000680Y034855D02*
X019680Y034855D01*
X019680Y034953D02*
X000680Y034953D01*
X000680Y035052D02*
X019680Y035052D01*
X019680Y035150D02*
X000680Y035150D01*
X000680Y035249D02*
X019680Y035249D01*
X019680Y035347D02*
X000680Y035347D01*
X000680Y035446D02*
X019680Y035446D01*
X019680Y035544D02*
X000680Y035544D01*
X000680Y035643D02*
X019680Y035643D01*
X019680Y035741D02*
X000680Y035741D01*
X000680Y035840D02*
X019680Y035840D01*
X019680Y035938D02*
X000680Y035938D01*
X000680Y032195D02*
X005102Y032195D01*
X005003Y032097D02*
X000680Y032097D01*
X000680Y031998D02*
X004905Y031998D01*
X004806Y031900D02*
X000680Y031900D01*
X000680Y031801D02*
X004708Y031801D01*
X004609Y031703D02*
X000680Y031703D01*
X000680Y031604D02*
X004511Y031604D01*
X004430Y031506D02*
X000680Y031506D01*
X000680Y031407D02*
X002785Y031407D01*
X002785Y031309D02*
X000680Y031309D01*
X000680Y031210D02*
X002785Y031210D01*
X002785Y031112D02*
X000680Y031112D01*
X000680Y031013D02*
X002785Y031013D01*
X002785Y030915D02*
X000680Y030915D01*
X000680Y030816D02*
X002819Y030816D01*
X002805Y030718D02*
X000680Y030718D01*
X000680Y030619D02*
X002785Y030619D01*
X002785Y030521D02*
X000680Y030521D01*
X000680Y030422D02*
X002785Y030422D01*
X002785Y030324D02*
X000680Y030324D01*
X000680Y030225D02*
X002785Y030225D01*
X002785Y030127D02*
X000680Y030127D01*
X000680Y030028D02*
X004430Y030028D01*
X004430Y029930D02*
X000680Y029930D01*
X000680Y029831D02*
X004430Y029831D01*
X004430Y029733D02*
X000680Y029733D01*
X000680Y029634D02*
X004430Y029634D01*
X004430Y029536D02*
X000680Y029536D01*
X000680Y029437D02*
X004430Y029437D01*
X004430Y029339D02*
X000680Y029339D01*
X000680Y029240D02*
X004430Y029240D01*
X004430Y029142D02*
X000680Y029142D01*
X000680Y029043D02*
X004430Y029043D01*
X004430Y028945D02*
X000680Y028945D01*
X000680Y028846D02*
X004430Y028846D01*
X004430Y028748D02*
X000680Y028748D01*
X000680Y028649D02*
X004430Y028649D01*
X004430Y028551D02*
X000680Y028551D01*
X000680Y028452D02*
X004430Y028452D01*
X004430Y028354D02*
X000680Y028354D01*
X000680Y028255D02*
X004430Y028255D01*
X004430Y028157D02*
X000680Y028157D01*
X000680Y028058D02*
X003787Y028058D01*
X003667Y027960D02*
X000680Y027960D01*
X000680Y027861D02*
X003622Y027861D01*
X003612Y027763D02*
X000680Y027763D01*
X000680Y027664D02*
X003631Y027664D01*
X003689Y027566D02*
X000680Y027566D01*
X000680Y027467D02*
X003839Y027467D01*
X004021Y027467D02*
X004430Y027467D01*
X004430Y027369D02*
X000680Y027369D01*
X000680Y027270D02*
X004430Y027270D01*
X004430Y027172D02*
X000680Y027172D01*
X000680Y027073D02*
X003834Y027073D01*
X003781Y026975D02*
X000680Y026975D01*
X000680Y026876D02*
X003781Y026876D01*
X003781Y026778D02*
X000680Y026778D01*
X000680Y026679D02*
X003781Y026679D01*
X003781Y026581D02*
X000680Y026581D01*
X000680Y026482D02*
X003781Y026482D01*
X003781Y026384D02*
X000680Y026384D01*
X000680Y026285D02*
X003692Y026285D01*
X004374Y026975D02*
X004381Y026975D01*
X004430Y027073D02*
X004321Y027073D01*
X004430Y027566D02*
X004171Y027566D01*
X004193Y027960D02*
X004430Y027960D01*
X004430Y028058D02*
X004073Y028058D01*
X004410Y030127D02*
X003575Y030127D01*
X003575Y030225D02*
X004111Y030225D01*
X004076Y030915D02*
X003667Y030915D01*
X003575Y031013D02*
X004076Y031013D01*
X004430Y031112D02*
X003575Y031112D01*
X003575Y031210D02*
X004430Y031210D01*
X004430Y031309D02*
X003575Y031309D01*
X003575Y031407D02*
X004430Y031407D01*
X005180Y025774D02*
X000680Y025774D01*
X000680Y012024D01*
X003180Y012024D01*
X004180Y013024D01*
X004180Y013381D01*
X004085Y013545D01*
X004005Y013844D01*
X004005Y016303D01*
X004085Y016602D01*
X004180Y016767D01*
X004180Y018381D01*
X004085Y018545D01*
X004005Y018844D01*
X004005Y021303D01*
X004085Y021602D01*
X004240Y021870D01*
X004459Y022089D01*
X004726Y022244D01*
X005025Y022324D01*
X005335Y022324D01*
X005634Y022244D01*
X005901Y022089D01*
X006120Y021870D01*
X006177Y021771D01*
X006180Y021774D01*
X006180Y025024D01*
X005180Y025774D01*
X005286Y025694D02*
X000680Y025694D01*
X000680Y025596D02*
X005417Y025596D01*
X005549Y025497D02*
X000680Y025497D01*
X000680Y025399D02*
X005680Y025399D01*
X005811Y025300D02*
X000680Y025300D01*
X000680Y025202D02*
X005943Y025202D01*
X006074Y025103D02*
X000680Y025103D01*
X000680Y025005D02*
X006180Y025005D01*
X006180Y024906D02*
X000680Y024906D01*
X000680Y024808D02*
X006180Y024808D01*
X006180Y024709D02*
X000680Y024709D01*
X000680Y024611D02*
X006180Y024611D01*
X006180Y024512D02*
X000680Y024512D01*
X000680Y024414D02*
X006180Y024414D01*
X006180Y024315D02*
X000680Y024315D01*
X000680Y024217D02*
X006180Y024217D01*
X006180Y024118D02*
X000680Y024118D01*
X000680Y024020D02*
X006180Y024020D01*
X006180Y023921D02*
X000680Y023921D01*
X000680Y023823D02*
X006180Y023823D01*
X006180Y023724D02*
X000680Y023724D01*
X000680Y023626D02*
X006180Y023626D01*
X006180Y023527D02*
X000680Y023527D01*
X000680Y023429D02*
X006180Y023429D01*
X006180Y023330D02*
X000680Y023330D01*
X000680Y023232D02*
X006180Y023232D01*
X006180Y023133D02*
X000680Y023133D01*
X000680Y023035D02*
X006180Y023035D01*
X006180Y022936D02*
X000680Y022936D01*
X000680Y022838D02*
X006180Y022838D01*
X006180Y022739D02*
X000680Y022739D01*
X000680Y022641D02*
X006180Y022641D01*
X006180Y022542D02*
X000680Y022542D01*
X000680Y022444D02*
X006180Y022444D01*
X006180Y022345D02*
X000680Y022345D01*
X000680Y022247D02*
X004738Y022247D01*
X004561Y022148D02*
X000680Y022148D01*
X000680Y022050D02*
X004419Y022050D01*
X004321Y021951D02*
X000680Y021951D01*
X000680Y021853D02*
X004230Y021853D01*
X004173Y021754D02*
X000680Y021754D01*
X000680Y021656D02*
X004116Y021656D01*
X004073Y021557D02*
X000680Y021557D01*
X000680Y021459D02*
X004047Y021459D01*
X004020Y021360D02*
X000680Y021360D01*
X000680Y021262D02*
X004005Y021262D01*
X004005Y021163D02*
X000680Y021163D01*
X000680Y021065D02*
X004005Y021065D01*
X004005Y020966D02*
X000680Y020966D01*
X000680Y020868D02*
X004005Y020868D01*
X004005Y020769D02*
X000680Y020769D01*
X000680Y020671D02*
X004005Y020671D01*
X004005Y020572D02*
X000680Y020572D01*
X000680Y020474D02*
X004005Y020474D01*
X004005Y020375D02*
X000680Y020375D01*
X000680Y020277D02*
X004005Y020277D01*
X004005Y020178D02*
X000680Y020178D01*
X000680Y020080D02*
X004005Y020080D01*
X004005Y019981D02*
X000680Y019981D01*
X000680Y019883D02*
X004005Y019883D01*
X004005Y019784D02*
X000680Y019784D01*
X000680Y019686D02*
X004005Y019686D01*
X004005Y019587D02*
X000680Y019587D01*
X000680Y019489D02*
X004005Y019489D01*
X004005Y019390D02*
X000680Y019390D01*
X000680Y019292D02*
X004005Y019292D01*
X004005Y019193D02*
X000680Y019193D01*
X000680Y019095D02*
X004005Y019095D01*
X004005Y018996D02*
X000680Y018996D01*
X000680Y018898D02*
X004005Y018898D01*
X004017Y018799D02*
X000680Y018799D01*
X000680Y018701D02*
X004043Y018701D01*
X004070Y018602D02*
X000680Y018602D01*
X000680Y018504D02*
X004109Y018504D01*
X004166Y018405D02*
X000680Y018405D01*
X000680Y018307D02*
X004180Y018307D01*
X004180Y018208D02*
X000680Y018208D01*
X000680Y018110D02*
X004180Y018110D01*
X004180Y018011D02*
X000680Y018011D01*
X000680Y017913D02*
X004180Y017913D01*
X004180Y017814D02*
X000680Y017814D01*
X000680Y017716D02*
X004180Y017716D01*
X004180Y017617D02*
X000680Y017617D01*
X000680Y017519D02*
X004180Y017519D01*
X004180Y017420D02*
X000680Y017420D01*
X000680Y017322D02*
X004180Y017322D01*
X004180Y017223D02*
X000680Y017223D01*
X000680Y017125D02*
X004180Y017125D01*
X004180Y017026D02*
X000680Y017026D01*
X000680Y016928D02*
X004180Y016928D01*
X004180Y016829D02*
X000680Y016829D01*
X000680Y016731D02*
X004159Y016731D01*
X004102Y016632D02*
X000680Y016632D01*
X000680Y016534D02*
X004067Y016534D01*
X004040Y016435D02*
X000680Y016435D01*
X000680Y016337D02*
X004014Y016337D01*
X004005Y016238D02*
X000680Y016238D01*
X000680Y016140D02*
X004005Y016140D01*
X004005Y016041D02*
X000680Y016041D01*
X000680Y015943D02*
X004005Y015943D01*
X004005Y015844D02*
X000680Y015844D01*
X000680Y015746D02*
X004005Y015746D01*
X004005Y015647D02*
X000680Y015647D01*
X000680Y015549D02*
X004005Y015549D01*
X004005Y015450D02*
X000680Y015450D01*
X000680Y015352D02*
X004005Y015352D01*
X004005Y015253D02*
X000680Y015253D01*
X000680Y015155D02*
X004005Y015155D01*
X004005Y015056D02*
X000680Y015056D01*
X000680Y014958D02*
X004005Y014958D01*
X004005Y014859D02*
X000680Y014859D01*
X000680Y014761D02*
X004005Y014761D01*
X004005Y014662D02*
X000680Y014662D01*
X000680Y014564D02*
X004005Y014564D01*
X004005Y014465D02*
X000680Y014465D01*
X000680Y014367D02*
X004005Y014367D01*
X004005Y014268D02*
X000680Y014268D01*
X000680Y014170D02*
X004005Y014170D01*
X004005Y014071D02*
X000680Y014071D01*
X000680Y013973D02*
X004005Y013973D01*
X004005Y013874D02*
X000680Y013874D01*
X000680Y013776D02*
X004023Y013776D01*
X004050Y013677D02*
X000680Y013677D01*
X000680Y013579D02*
X004076Y013579D01*
X004123Y013480D02*
X000680Y013480D01*
X000680Y013382D02*
X004179Y013382D01*
X004180Y013283D02*
X000680Y013283D01*
X000680Y013185D02*
X004180Y013185D01*
X004180Y013086D02*
X000680Y013086D01*
X000680Y012988D02*
X004144Y012988D01*
X004046Y012889D02*
X000680Y012889D01*
X000680Y012791D02*
X003947Y012791D01*
X003849Y012692D02*
X000680Y012692D01*
X000680Y012594D02*
X003750Y012594D01*
X003652Y012495D02*
X000680Y012495D01*
X000680Y012397D02*
X003553Y012397D01*
X003455Y012298D02*
X000680Y012298D01*
X000680Y012200D02*
X003356Y012200D01*
X003258Y012101D02*
X000680Y012101D01*
X007747Y018148D02*
X008373Y018774D01*
X010180Y018774D01*
X010930Y018274D02*
X010430Y017774D01*
X008613Y017774D01*
X010930Y018274D02*
X010930Y025274D01*
X010430Y025774D01*
X008554Y025774D01*
X007806Y025774D02*
X007806Y024918D01*
X008580Y024144D01*
X008580Y024124D01*
X009180Y023524D01*
X009180Y022400D01*
X008554Y021774D01*
X007806Y021774D02*
X007806Y020774D01*
X007180Y020400D02*
X007806Y019774D01*
X007180Y020400D02*
X007180Y022274D01*
X008290Y023384D01*
X008580Y023384D01*
X008580Y024144D02*
X009210Y024774D01*
X010180Y024774D01*
X006180Y022247D02*
X005622Y022247D01*
X005799Y022148D02*
X006180Y022148D01*
X006180Y022050D02*
X005941Y022050D01*
X006039Y021951D02*
X006180Y021951D01*
X006180Y021853D02*
X006130Y021853D01*
X015554Y018774D02*
X016180Y018774D01*
X016430Y019024D01*
X019930Y020024D02*
X021180Y020774D01*
X019930Y021524D01*
X021180Y020774D02*
X022430Y020024D01*
X021180Y020774D02*
X022430Y021524D01*
X021680Y022774D02*
X020680Y022774D01*
X020680Y024524D01*
X022180Y024524D01*
X022180Y023274D01*
X021680Y022774D01*
X021744Y022838D02*
X020680Y022838D01*
X020680Y022936D02*
X021843Y022936D01*
X021941Y023035D02*
X020680Y023035D01*
X020680Y023133D02*
X022040Y023133D01*
X022138Y023232D02*
X020680Y023232D01*
X020680Y023330D02*
X022180Y023330D01*
X022180Y023429D02*
X020680Y023429D01*
X020680Y023527D02*
X022180Y023527D01*
X022180Y023626D02*
X020680Y023626D01*
X020680Y023724D02*
X022180Y023724D01*
X022180Y023823D02*
X020680Y023823D01*
X020680Y023921D02*
X022180Y023921D01*
X022180Y024020D02*
X020680Y024020D01*
X020680Y024118D02*
X022180Y024118D01*
X022180Y024217D02*
X020680Y024217D01*
X020680Y024315D02*
X022180Y024315D01*
X022180Y024414D02*
X020680Y024414D01*
X020680Y024512D02*
X022180Y024512D01*
X019680Y024512D02*
X018430Y024512D01*
X018430Y024414D02*
X019680Y024414D01*
X019680Y024315D02*
X018430Y024315D01*
X018430Y024217D02*
X019680Y024217D01*
X019680Y024118D02*
X018430Y024118D01*
X018430Y024020D02*
X019680Y024020D01*
X019680Y023921D02*
X018430Y023921D01*
X018430Y023823D02*
X019680Y023823D01*
X019680Y023724D02*
X018430Y023724D01*
X018430Y023626D02*
X019680Y023626D01*
X019680Y023527D02*
X018430Y023527D01*
X018430Y023429D02*
X019680Y023429D01*
X019680Y023330D02*
X018430Y023330D01*
X018430Y023232D02*
X019680Y023232D01*
X019680Y023133D02*
X018430Y023133D01*
X018430Y023035D02*
X019680Y023035D01*
X019680Y022936D02*
X018430Y022936D01*
X018430Y022838D02*
X019680Y022838D01*
X019680Y022774D02*
X019680Y024774D01*
X018430Y024774D01*
X018430Y022774D01*
X019680Y022774D01*
X019680Y024611D02*
X018430Y024611D01*
X018430Y024709D02*
X019680Y024709D01*
X026430Y024709D02*
X027430Y024709D01*
X027430Y024774D02*
X027430Y022774D01*
X026680Y022774D01*
X026430Y023024D01*
X026430Y024774D01*
X027430Y024774D01*
X027430Y024611D02*
X026430Y024611D01*
X026430Y024512D02*
X027430Y024512D01*
X027430Y024414D02*
X026430Y024414D01*
X026430Y024315D02*
X027430Y024315D01*
X027430Y024217D02*
X026430Y024217D01*
X026430Y024118D02*
X027430Y024118D01*
X027430Y024020D02*
X026430Y024020D01*
X026430Y023921D02*
X027430Y023921D01*
X027430Y023823D02*
X026430Y023823D01*
X026430Y023724D02*
X027430Y023724D01*
X027430Y023626D02*
X026430Y023626D01*
X026430Y023527D02*
X027430Y023527D01*
X027430Y023429D02*
X026430Y023429D01*
X026430Y023330D02*
X027430Y023330D01*
X027430Y023232D02*
X026430Y023232D01*
X026430Y023133D02*
X027430Y023133D01*
X027430Y023035D02*
X026430Y023035D01*
X026517Y022936D02*
X027430Y022936D01*
X027430Y022838D02*
X026616Y022838D01*
X027930Y021524D02*
X029180Y020774D01*
X027930Y020024D01*
X029180Y020774D02*
X030430Y020024D01*
X029180Y020774D02*
X030430Y021524D01*
X029680Y022774D02*
X030180Y023274D01*
X030180Y024774D01*
X028680Y024774D01*
X028680Y022774D01*
X029680Y022774D01*
X029744Y022838D02*
X028680Y022838D01*
X028680Y022936D02*
X029843Y022936D01*
X029941Y023035D02*
X028680Y023035D01*
X028680Y023133D02*
X030040Y023133D01*
X030138Y023232D02*
X028680Y023232D01*
X028680Y023330D02*
X030180Y023330D01*
X030180Y023429D02*
X028680Y023429D01*
X028680Y023527D02*
X030180Y023527D01*
X030180Y023626D02*
X028680Y023626D01*
X028680Y023724D02*
X030180Y023724D01*
X030180Y023823D02*
X028680Y023823D01*
X028680Y023921D02*
X030180Y023921D01*
X030180Y024020D02*
X028680Y024020D01*
X028680Y024118D02*
X030180Y024118D01*
X030180Y024217D02*
X028680Y024217D01*
X028680Y024315D02*
X030180Y024315D01*
X030180Y024414D02*
X028680Y024414D01*
X028680Y024512D02*
X030180Y024512D01*
X030180Y024611D02*
X028680Y024611D01*
X028680Y024709D02*
X030180Y024709D01*
X034180Y024709D02*
X035430Y024709D01*
X035430Y024774D02*
X035430Y022774D01*
X034680Y022774D01*
X034180Y023274D01*
X034180Y024774D01*
X035430Y024774D01*
X035430Y024611D02*
X034180Y024611D01*
X034180Y024512D02*
X035430Y024512D01*
X035430Y024414D02*
X034180Y024414D01*
X034180Y024315D02*
X035430Y024315D01*
X035430Y024217D02*
X034180Y024217D01*
X034180Y024118D02*
X035430Y024118D01*
X035430Y024020D02*
X034180Y024020D01*
X034180Y023921D02*
X035430Y023921D01*
X035430Y023823D02*
X034180Y023823D01*
X034180Y023724D02*
X035430Y023724D01*
X035430Y023626D02*
X034180Y023626D01*
X034180Y023527D02*
X035430Y023527D01*
X035430Y023429D02*
X034180Y023429D01*
X034180Y023330D02*
X035430Y023330D01*
X035430Y023232D02*
X034222Y023232D01*
X034320Y023133D02*
X035430Y023133D01*
X035430Y023035D02*
X034419Y023035D01*
X034517Y022936D02*
X035430Y022936D01*
X035430Y022838D02*
X034616Y022838D01*
X035930Y021524D02*
X037180Y020774D01*
X035930Y020024D01*
X037180Y020774D02*
X038430Y021524D01*
X037680Y022774D02*
X036930Y022774D01*
X036930Y024774D01*
X038180Y024774D01*
X038180Y023274D01*
X037680Y022774D01*
X037744Y022838D02*
X036930Y022838D01*
X036930Y022936D02*
X037843Y022936D01*
X037941Y023035D02*
X036930Y023035D01*
X036930Y023133D02*
X038040Y023133D01*
X038138Y023232D02*
X036930Y023232D01*
X036930Y023330D02*
X038180Y023330D01*
X038180Y023429D02*
X036930Y023429D01*
X036930Y023527D02*
X038180Y023527D01*
X038180Y023626D02*
X036930Y023626D01*
X036930Y023724D02*
X038180Y023724D01*
X038180Y023823D02*
X036930Y023823D01*
X036930Y023921D02*
X038180Y023921D01*
X038180Y024020D02*
X036930Y024020D01*
X036930Y024118D02*
X038180Y024118D01*
X038180Y024217D02*
X036930Y024217D01*
X036930Y024315D02*
X038180Y024315D01*
X038180Y024414D02*
X036930Y024414D01*
X036930Y024512D02*
X038180Y024512D01*
X038180Y024611D02*
X036930Y024611D01*
X036930Y024709D02*
X038180Y024709D01*
X042430Y024709D02*
X043430Y024709D01*
X043430Y024611D02*
X042430Y024611D01*
X042430Y024512D02*
X043430Y024512D01*
X043430Y024414D02*
X042430Y024414D01*
X042430Y024315D02*
X043430Y024315D01*
X043430Y024217D02*
X042430Y024217D01*
X042430Y024118D02*
X043430Y024118D01*
X043430Y024020D02*
X042430Y024020D01*
X042430Y023921D02*
X043430Y023921D01*
X043430Y023823D02*
X042430Y023823D01*
X042430Y023724D02*
X043430Y023724D01*
X043430Y023626D02*
X042430Y023626D01*
X042430Y023527D02*
X043430Y023527D01*
X043430Y023429D02*
X042430Y023429D01*
X042430Y023330D02*
X043430Y023330D01*
X043430Y023232D02*
X042430Y023232D01*
X042430Y023133D02*
X043430Y023133D01*
X043430Y023035D02*
X042430Y023035D01*
X042430Y023024D02*
X042680Y022774D01*
X043430Y022774D01*
X043430Y025024D01*
X042430Y025024D01*
X042430Y023024D01*
X042517Y022936D02*
X043430Y022936D01*
X043430Y022838D02*
X042616Y022838D01*
X043930Y021524D02*
X045180Y020774D01*
X043930Y020024D01*
X045180Y020774D02*
X046430Y020024D01*
X045180Y020774D02*
X046430Y021524D01*
X045680Y022774D02*
X044680Y022774D01*
X044680Y024774D01*
X046180Y024774D01*
X046180Y023274D01*
X045680Y022774D01*
X045744Y022838D02*
X044680Y022838D01*
X044680Y022936D02*
X045843Y022936D01*
X045941Y023035D02*
X044680Y023035D01*
X044680Y023133D02*
X046040Y023133D01*
X046138Y023232D02*
X044680Y023232D01*
X044680Y023330D02*
X046180Y023330D01*
X046180Y023429D02*
X044680Y023429D01*
X044680Y023527D02*
X046180Y023527D01*
X046180Y023626D02*
X044680Y023626D01*
X044680Y023724D02*
X046180Y023724D01*
X046180Y023823D02*
X044680Y023823D01*
X044680Y023921D02*
X046180Y023921D01*
X046180Y024020D02*
X044680Y024020D01*
X044680Y024118D02*
X046180Y024118D01*
X046180Y024217D02*
X044680Y024217D01*
X044680Y024315D02*
X046180Y024315D01*
X046180Y024414D02*
X044680Y024414D01*
X044680Y024512D02*
X046180Y024512D01*
X046180Y024611D02*
X044680Y024611D01*
X044680Y024709D02*
X046180Y024709D01*
X043430Y024808D02*
X042430Y024808D01*
X042430Y024906D02*
X043430Y024906D01*
X043430Y025005D02*
X042430Y025005D01*
X038430Y020024D02*
X037180Y020774D01*
X025180Y010673D02*
X025180Y009774D01*
X024930Y009524D01*
X024393Y010673D02*
X024393Y010986D01*
X024680Y011274D01*
X024196Y011258D02*
X024196Y010673D01*
X024196Y011258D02*
X024180Y011274D01*
X023680Y011274D02*
X023605Y011199D01*
X023605Y010673D01*
X023408Y010673D02*
X023408Y011045D01*
X023180Y011274D01*
X023015Y011014D02*
X022630Y011399D01*
X021305Y011399D01*
X020930Y011024D01*
X020930Y008274D01*
X021180Y008024D01*
X021430Y008024D01*
X021717Y008311D01*
X022030Y008311D01*
X022030Y008508D02*
X022914Y008508D01*
X022930Y008524D01*
X022030Y007721D02*
X021377Y007721D01*
X021180Y007524D01*
X021430Y007274D02*
X021430Y007024D01*
X021430Y007274D02*
X021680Y007524D01*
X023680Y009774D02*
X023211Y010242D01*
X023211Y010673D01*
X023015Y010673D02*
X023015Y011014D01*
X022354Y013874D02*
X022354Y014100D01*
X022180Y014274D01*
X021680Y014274D01*
X021564Y014390D01*
X021564Y014625D01*
X021308Y014625D02*
X021308Y014172D01*
X021606Y013874D01*
X021052Y014172D02*
X020754Y013874D01*
X021052Y014172D02*
X021052Y014625D01*
X020540Y014625D02*
X020540Y014434D01*
X020380Y014274D01*
X020280Y014274D01*
X020006Y014000D01*
X020006Y013874D01*
X024930Y005274D02*
X025180Y005024D01*
X025180Y004374D01*
X027149Y004374D02*
X027149Y005242D01*
X027180Y005274D01*
D57*
X029430Y007024D02*
X029536Y006880D01*
X029930Y006880D01*
X029936Y009024D02*
X029930Y009030D01*
X029936Y009024D02*
X030180Y009024D01*
X030806Y009024D01*
X037554Y010774D02*
X038680Y010774D01*
X040180Y012274D01*
X047680Y012274D01*
X048180Y012774D01*
X048180Y016524D01*
X049180Y017524D01*
X049180Y021774D01*
X049430Y022024D01*
X049430Y024524D01*
X046727Y023400D02*
X046727Y022625D01*
X045595Y021493D01*
X044765Y021493D02*
X044711Y021493D01*
X044180Y022024D01*
X042430Y022024D01*
X042180Y021774D01*
X042180Y021334D01*
X043180Y021334D02*
X043740Y020774D01*
X044350Y020774D01*
X043180Y020214D02*
X043180Y019774D01*
X042570Y019164D01*
X042570Y018174D01*
X043180Y018584D02*
X043180Y017274D01*
X042190Y017374D02*
X042190Y016534D01*
X042180Y015774D01*
X042556Y016148D01*
X043180Y016148D01*
X041810Y018174D02*
X041810Y019844D01*
X042180Y020214D01*
X043620Y019024D02*
X043180Y018584D01*
X046430Y016274D02*
X046556Y016148D01*
X047180Y016148D01*
X042180Y011774D02*
X041554Y011774D01*
X041804Y011524D01*
X041804Y010622D01*
X039930Y015774D02*
X039556Y016148D01*
X039180Y016148D01*
X035620Y019024D02*
X035180Y018584D01*
X035180Y017274D01*
X034190Y017374D02*
X034190Y016534D01*
X034180Y015774D01*
X034556Y016148D01*
X035180Y016148D01*
X034570Y018174D02*
X034570Y019164D01*
X035180Y019774D01*
X035180Y020214D01*
X035740Y020774D02*
X035180Y021334D01*
X034430Y022024D02*
X036234Y022024D01*
X036765Y021493D01*
X037595Y021493D02*
X038727Y022625D01*
X038727Y023400D01*
X036350Y020774D02*
X035740Y020774D01*
X034180Y021334D02*
X034180Y021774D01*
X034430Y022024D01*
X034180Y020214D02*
X033810Y019844D01*
X033810Y018174D01*
X031556Y016148D02*
X031180Y016148D01*
X031556Y016148D02*
X031930Y015774D01*
X027620Y019024D02*
X027180Y018584D01*
X027180Y017274D01*
X026190Y017374D02*
X026190Y016534D01*
X026180Y015274D01*
X027056Y016148D01*
X027180Y016148D01*
X026570Y018174D02*
X026570Y019164D01*
X027180Y019774D01*
X027180Y020214D01*
X027740Y020774D02*
X027180Y021334D01*
X026430Y022024D02*
X028234Y022024D01*
X028765Y021493D01*
X029595Y021493D02*
X030727Y022625D01*
X030727Y023400D01*
X028350Y020774D02*
X027740Y020774D01*
X026180Y021334D02*
X026180Y021774D01*
X026430Y022024D01*
X026180Y020214D02*
X025810Y019844D01*
X025810Y018174D01*
X023556Y016148D02*
X024180Y015524D01*
X023556Y016148D02*
X023180Y016148D01*
X019620Y019024D02*
X019180Y018584D01*
X019180Y017274D01*
X018190Y017374D02*
X018190Y016534D01*
X018180Y016274D01*
X018306Y016148D01*
X019180Y016148D01*
X018570Y018174D02*
X018570Y019164D01*
X019180Y019774D01*
X019180Y020214D01*
X019740Y020774D02*
X019180Y021334D01*
X018430Y022024D02*
X020234Y022024D01*
X020765Y021493D01*
X021595Y021493D02*
X022727Y022625D01*
X022727Y023400D01*
X020350Y020774D02*
X019740Y020774D01*
X018430Y022024D02*
X018180Y021774D01*
X018180Y021334D01*
X018180Y020214D02*
X017810Y019844D01*
X017810Y018174D01*
X009786Y010774D02*
X008180Y009167D01*
X008180Y009148D01*
X007176Y010152D01*
X006180Y010152D01*
X008180Y008400D02*
X007176Y007396D01*
X006180Y007396D01*
X011964Y008184D02*
X012180Y008400D01*
X013680Y008400D01*
X013680Y009148D02*
X012180Y009148D01*
X011964Y009364D01*
X013430Y003774D02*
X014180Y003774D01*
X013430Y003774D02*
X012930Y003274D01*
X010930Y003274D01*
X010430Y002774D01*
X008680Y002774D01*
X011430Y002774D02*
X012430Y002774D01*
X013430Y001774D01*
X014180Y001774D01*
X018930Y003900D02*
X019304Y003900D01*
X020217Y002986D01*
X020217Y002524D01*
X020611Y002524D02*
X020611Y003343D01*
X019306Y004648D01*
X018930Y004648D01*
D58*
X016930Y002774D02*
X016180Y002024D01*
X016180Y001829D01*
X015235Y002774D02*
X016180Y003719D01*
X015235Y002774D02*
X014180Y002774D01*
X010554Y006148D02*
X010180Y005774D01*
X009180Y005774D01*
X008180Y006774D01*
X008180Y008400D01*
X010554Y006774D02*
X010554Y006148D01*
X010554Y006774D02*
X010960Y007180D01*
X010960Y008184D01*
X011680Y007900D02*
X011680Y007524D01*
X011680Y007900D02*
X012180Y008400D01*
X030806Y008024D02*
X030806Y007024D01*
X031554Y007024D02*
X031554Y008024D01*
X031554Y009024D01*
X031554Y010024D01*
X031804Y010274D01*
X032430Y010274D01*
X030806Y010024D02*
X030806Y009024D01*
X017304Y026524D02*
X016983Y026524D01*
X017304Y026524D02*
X018180Y027400D01*
X018180Y028148D02*
X017804Y028524D01*
X016967Y028524D01*
X014180Y036478D02*
X012849Y036478D01*
X012554Y036774D01*
X011806Y036774D02*
X011511Y036478D01*
X010180Y036478D01*
X010180Y037069D02*
X010475Y037069D01*
X011180Y037774D01*
X011806Y037774D01*
X012554Y037774D02*
X013180Y037774D01*
X013885Y037069D01*
X014180Y037069D01*
D59*
X042180Y011774D02*
X047805Y011774D01*
X049430Y013399D01*
X049430Y016274D01*
X029930Y008518D02*
X029930Y007667D01*
X011964Y008184D02*
X010960Y008184D01*
X010960Y009364D02*
X011964Y009364D01*
X011680Y009648D01*
X011680Y010024D01*
D60*
X011680Y010024D03*
X010180Y010024D03*
X011680Y007524D03*
X008930Y007274D03*
X016930Y002774D03*
X018930Y029274D03*
X019680Y029274D03*
X019680Y030024D03*
X018930Y030024D03*
D61*
X011430Y031524D03*
X008930Y027774D03*
X007430Y024274D03*
X003930Y027774D03*
X009430Y019274D03*
X016430Y019024D03*
X019180Y017274D03*
X018180Y016274D03*
X024180Y015524D03*
X026180Y015274D03*
X027180Y017274D03*
X031930Y015774D03*
X034180Y015774D03*
X035180Y017274D03*
X039930Y015774D03*
X042180Y015774D03*
X043180Y017274D03*
X046430Y016274D03*
D62*
X046430Y020024D03*
X046430Y021524D03*
X043930Y021524D03*
X043930Y020024D03*
X041180Y022774D03*
X038430Y021524D03*
X038430Y020024D03*
X035930Y020024D03*
X035930Y021524D03*
X030430Y021524D03*
X030430Y020024D03*
X027930Y020024D03*
X027930Y021524D03*
X025180Y022774D03*
X022430Y021524D03*
X022430Y020024D03*
X019930Y020024D03*
X019930Y021524D03*
X023180Y011274D03*
X023680Y011274D03*
X024180Y011274D03*
X024680Y011274D03*
X024930Y009524D03*
X023680Y009774D03*
X022930Y008524D03*
X021430Y008524D03*
X021430Y009024D03*
X021180Y007524D03*
X021430Y007024D03*
X020930Y006274D03*
X021180Y005774D03*
X022930Y005774D03*
X023430Y006274D03*
X023930Y005524D03*
X022930Y005274D03*
X024930Y005274D03*
X027180Y005274D03*
X027430Y007024D03*
X027430Y008024D03*
X026930Y011274D03*
X021930Y011024D03*
X021430Y011024D03*
X019430Y007774D03*
X018680Y005274D03*
X014180Y007524D03*
X013930Y033274D03*
D63*
X014430Y032774D01*
X014806Y032774D01*
X016308Y029967D02*
X016308Y029439D01*
X015393Y028524D01*
X015473Y028511D02*
X016180Y028511D01*
X016180Y028353D02*
X015966Y028353D01*
X015966Y028444D02*
X015473Y028444D01*
X015473Y028604D01*
X015966Y028604D01*
X015966Y028941D01*
X015954Y028987D01*
X015937Y029017D01*
X016180Y028774D01*
X016180Y025774D01*
X015930Y025524D01*
X014930Y025524D01*
X014680Y025774D01*
X014680Y028774D01*
X014819Y028913D01*
X014819Y028604D01*
X015313Y028604D01*
X015313Y028444D01*
X015473Y028444D01*
X015473Y027950D01*
X015810Y027950D01*
X015856Y027962D01*
X015897Y027986D01*
X015930Y028019D01*
X015954Y028061D01*
X015966Y028106D01*
X015966Y028444D01*
X015966Y028670D02*
X016180Y028670D01*
X016125Y028828D02*
X015966Y028828D01*
X015954Y028987D02*
X015967Y028987D01*
X016564Y028927D02*
X016967Y028524D01*
X016564Y028927D02*
X016564Y029967D01*
X016820Y029967D02*
X016820Y029884D01*
X017320Y029884D01*
X018680Y028524D01*
X018680Y027524D01*
X018556Y027400D01*
X018180Y027400D01*
X017680Y027274D02*
X017430Y027524D01*
X016680Y027524D01*
X016430Y027274D01*
X016430Y027116D01*
X016437Y027143D01*
X016461Y027184D01*
X016494Y027218D01*
X016536Y027241D01*
X016581Y027254D01*
X016903Y027254D01*
X016903Y026604D01*
X017062Y026604D01*
X017062Y027254D01*
X017384Y027254D01*
X017429Y027241D01*
X017471Y027218D01*
X017504Y027184D01*
X017528Y027143D01*
X017540Y027097D01*
X017540Y026604D01*
X017063Y026604D01*
X017063Y026444D01*
X017540Y026444D01*
X017540Y025950D01*
X017528Y025904D01*
X017504Y025863D01*
X017471Y025830D01*
X017429Y025806D01*
X017384Y025794D01*
X017062Y025794D01*
X017062Y026444D01*
X016903Y026444D01*
X016903Y025794D01*
X016581Y025794D01*
X016536Y025806D01*
X016494Y025830D01*
X016461Y025863D01*
X016437Y025904D01*
X016430Y025931D01*
X016430Y025028D01*
X016463Y025061D01*
X016504Y025085D01*
X016550Y025097D01*
X016887Y025097D01*
X016887Y024604D01*
X017047Y024604D01*
X017047Y025097D01*
X017385Y025097D01*
X017431Y025085D01*
X017472Y025061D01*
X017505Y025028D01*
X017529Y024987D01*
X017541Y024941D01*
X017541Y024604D01*
X017047Y024604D01*
X017047Y024444D01*
X017047Y023950D01*
X017385Y023950D01*
X017431Y023962D01*
X017472Y023986D01*
X017505Y024019D01*
X017529Y024061D01*
X017541Y024106D01*
X017541Y024444D01*
X017047Y024444D01*
X016887Y024444D01*
X016887Y023950D01*
X016550Y023950D01*
X016504Y023962D01*
X016474Y023980D01*
X016680Y023774D01*
X017430Y023774D01*
X017680Y024024D01*
X017680Y027274D01*
X017680Y027243D02*
X017423Y027243D01*
X017540Y027085D02*
X017680Y027085D01*
X017680Y026926D02*
X017540Y026926D01*
X017540Y026768D02*
X017680Y026768D01*
X017680Y026609D02*
X017540Y026609D01*
X017680Y026451D02*
X017063Y026451D01*
X017062Y026609D02*
X016903Y026609D01*
X016903Y026768D02*
X017062Y026768D01*
X017062Y026926D02*
X016903Y026926D01*
X016903Y027085D02*
X017062Y027085D01*
X017062Y027243D02*
X016903Y027243D01*
X016542Y027243D02*
X016430Y027243D01*
X016558Y027402D02*
X017552Y027402D01*
X017540Y026292D02*
X017680Y026292D01*
X017680Y026134D02*
X017540Y026134D01*
X017540Y025975D02*
X017680Y025975D01*
X017680Y025817D02*
X017448Y025817D01*
X017680Y025658D02*
X016430Y025658D01*
X016430Y025500D02*
X017680Y025500D01*
X017680Y025341D02*
X016430Y025341D01*
X016430Y025183D02*
X017680Y025183D01*
X017680Y025024D02*
X017507Y025024D01*
X017541Y024866D02*
X017680Y024866D01*
X017680Y024707D02*
X017541Y024707D01*
X017680Y024549D02*
X017047Y024549D01*
X017047Y024707D02*
X016887Y024707D01*
X016887Y024866D02*
X017047Y024866D01*
X017047Y025024D02*
X016887Y025024D01*
X016180Y025024D02*
X016180Y022774D01*
X015930Y022524D01*
X014930Y022524D01*
X014680Y022774D01*
X014680Y025024D01*
X014930Y025274D01*
X015930Y025274D01*
X016180Y025024D01*
X016179Y025024D02*
X015932Y025024D01*
X015930Y025028D02*
X015897Y025061D01*
X015856Y025085D01*
X015810Y025097D01*
X015473Y025097D01*
X015473Y024604D01*
X015966Y024604D01*
X015966Y024941D01*
X015954Y024987D01*
X015930Y025028D01*
X015966Y024866D02*
X016180Y024866D01*
X016180Y024707D02*
X015966Y024707D01*
X015966Y024444D02*
X015473Y024444D01*
X015473Y024604D01*
X015313Y024604D01*
X015313Y025097D01*
X014975Y025097D01*
X014929Y025085D01*
X014888Y025061D01*
X014855Y025028D01*
X014831Y024987D01*
X014819Y024941D01*
X014819Y024604D01*
X015313Y024604D01*
X015313Y024444D01*
X015473Y024444D01*
X015473Y023950D01*
X015810Y023950D01*
X015856Y023962D01*
X015897Y023986D01*
X015930Y024019D01*
X015954Y024061D01*
X015966Y024106D01*
X015966Y024444D01*
X015966Y024390D02*
X016180Y024390D01*
X016180Y024232D02*
X015966Y024232D01*
X015957Y024073D02*
X016180Y024073D01*
X016180Y023915D02*
X014680Y023915D01*
X014680Y024073D02*
X014828Y024073D01*
X014831Y024061D02*
X014855Y024019D01*
X014888Y023986D01*
X014929Y023962D01*
X014975Y023950D01*
X015313Y023950D01*
X015313Y024444D01*
X014819Y024444D01*
X014819Y024106D01*
X014831Y024061D01*
X014819Y024232D02*
X014680Y024232D01*
X014680Y024390D02*
X014819Y024390D01*
X014680Y024549D02*
X015313Y024549D01*
X015313Y024707D02*
X015473Y024707D01*
X015473Y024549D02*
X016180Y024549D01*
X016887Y024390D02*
X017047Y024390D01*
X017047Y024232D02*
X016887Y024232D01*
X016887Y024073D02*
X017047Y024073D01*
X017532Y024073D02*
X017680Y024073D01*
X017680Y024232D02*
X017541Y024232D01*
X017541Y024390D02*
X017680Y024390D01*
X017930Y024390D02*
X018583Y024390D01*
X018583Y024427D02*
X018583Y023792D01*
X018941Y023792D01*
X018941Y023755D01*
X018978Y023755D01*
X018978Y022964D01*
X019180Y022964D01*
X019226Y022976D01*
X019267Y023000D01*
X019300Y023033D01*
X019324Y023074D01*
X019336Y023120D01*
X019336Y023755D01*
X018978Y023755D01*
X018978Y023792D01*
X019336Y023792D01*
X019336Y024427D01*
X019324Y024473D01*
X019300Y024514D01*
X019267Y024548D01*
X019226Y024571D01*
X019180Y024584D01*
X018978Y024584D01*
X018978Y023792D01*
X018941Y023792D01*
X018941Y024584D01*
X018739Y024584D01*
X018693Y024571D01*
X018652Y024548D01*
X018619Y024514D01*
X018595Y024473D01*
X018583Y024427D01*
X018654Y024549D02*
X017930Y024549D01*
X017930Y024707D02*
X019930Y024707D01*
X019930Y024549D02*
X019265Y024549D01*
X019336Y024390D02*
X019930Y024390D01*
X019930Y024232D02*
X019336Y024232D01*
X019336Y024073D02*
X019930Y024073D01*
X019930Y023915D02*
X019336Y023915D01*
X019336Y023598D02*
X019930Y023598D01*
X019930Y023756D02*
X018978Y023756D01*
X018941Y023756D02*
X017930Y023756D01*
X017930Y023598D02*
X018583Y023598D01*
X018583Y023755D02*
X018583Y023120D01*
X018595Y023074D01*
X018619Y023033D01*
X018652Y023000D01*
X018693Y022976D01*
X018739Y022964D01*
X018941Y022964D01*
X018941Y023755D01*
X018583Y023755D01*
X018583Y023915D02*
X017930Y023915D01*
X017930Y024073D02*
X018583Y024073D01*
X018583Y024232D02*
X017930Y024232D01*
X017571Y023915D02*
X016539Y023915D01*
X016180Y023756D02*
X014680Y023756D01*
X014680Y023598D02*
X016180Y023598D01*
X016180Y023439D02*
X014680Y023439D01*
X014680Y023281D02*
X016180Y023281D01*
X016180Y023122D02*
X014680Y023122D01*
X014680Y022964D02*
X016180Y022964D01*
X016180Y022805D02*
X014680Y022805D01*
X014807Y022647D02*
X016053Y022647D01*
X015473Y024073D02*
X015313Y024073D01*
X015313Y024232D02*
X015473Y024232D01*
X015473Y024390D02*
X015313Y024390D01*
X015313Y024866D02*
X015473Y024866D01*
X015473Y025024D02*
X015313Y025024D01*
X014853Y025024D02*
X014681Y025024D01*
X014680Y024866D02*
X014819Y024866D01*
X014819Y024707D02*
X014680Y024707D01*
X014839Y025183D02*
X016021Y025183D01*
X016065Y025658D02*
X014795Y025658D01*
X014889Y025830D02*
X014931Y025806D01*
X014976Y025794D01*
X015298Y025794D01*
X015298Y026444D01*
X015457Y026444D01*
X015457Y025794D01*
X015779Y025794D01*
X015824Y025806D01*
X015866Y025830D01*
X015899Y025863D01*
X015923Y025904D01*
X015935Y025950D01*
X015935Y026444D01*
X015458Y026444D01*
X015458Y026604D01*
X015935Y026604D01*
X015935Y027097D01*
X015923Y027143D01*
X015899Y027184D01*
X015866Y027218D01*
X015824Y027241D01*
X015779Y027254D01*
X015457Y027254D01*
X015457Y026604D01*
X015298Y026604D01*
X015298Y027254D01*
X014976Y027254D01*
X014931Y027241D01*
X014889Y027218D01*
X014856Y027184D01*
X014832Y027143D01*
X014820Y027097D01*
X014820Y026604D01*
X015297Y026604D01*
X015297Y026444D01*
X014820Y026444D01*
X014820Y025950D01*
X014832Y025904D01*
X014856Y025863D01*
X014889Y025830D01*
X014912Y025817D02*
X014680Y025817D01*
X014680Y025975D02*
X014820Y025975D01*
X014820Y026134D02*
X014680Y026134D01*
X014680Y026292D02*
X014820Y026292D01*
X014680Y026451D02*
X015297Y026451D01*
X015298Y026609D02*
X015457Y026609D01*
X015458Y026451D02*
X016180Y026451D01*
X016180Y026609D02*
X015935Y026609D01*
X015935Y026768D02*
X016180Y026768D01*
X016180Y026926D02*
X015935Y026926D01*
X015935Y027085D02*
X016180Y027085D01*
X016180Y027243D02*
X015818Y027243D01*
X015457Y027243D02*
X015298Y027243D01*
X015298Y027085D02*
X015457Y027085D01*
X015457Y026926D02*
X015298Y026926D01*
X015298Y026768D02*
X015457Y026768D01*
X015457Y026292D02*
X015298Y026292D01*
X015298Y026134D02*
X015457Y026134D01*
X015457Y025975D02*
X015298Y025975D01*
X015298Y025817D02*
X015457Y025817D01*
X015843Y025817D02*
X016180Y025817D01*
X016180Y025975D02*
X015935Y025975D01*
X015935Y026134D02*
X016180Y026134D01*
X016180Y026292D02*
X015935Y026292D01*
X016430Y025817D02*
X016517Y025817D01*
X016903Y025817D02*
X017062Y025817D01*
X017062Y025975D02*
X016903Y025975D01*
X016903Y026134D02*
X017062Y026134D01*
X017062Y026292D02*
X016903Y026292D01*
X017930Y026024D02*
X018430Y026524D01*
X019757Y026524D01*
X019737Y026489D01*
X019724Y026443D01*
X019724Y025887D01*
X020122Y025887D01*
X020122Y025771D01*
X019724Y025771D01*
X019724Y025215D01*
X019737Y025169D01*
X019760Y025128D01*
X019794Y025094D01*
X019835Y025071D01*
X019881Y025058D01*
X020122Y025058D01*
X020122Y025771D01*
X020238Y025771D01*
X020238Y025887D01*
X020636Y025887D01*
X020636Y026443D01*
X020623Y026489D01*
X020603Y026524D01*
X021680Y026524D01*
X022930Y027774D01*
X049700Y027774D01*
X049700Y024274D01*
X048430Y024274D01*
X047680Y025024D01*
X043930Y025024D01*
X043930Y022774D01*
X042430Y022774D01*
X041930Y023274D01*
X041930Y024524D01*
X041912Y024542D01*
X041958Y024588D01*
X042008Y024708D01*
X042008Y024839D01*
X041958Y024960D01*
X041866Y025052D01*
X041745Y025102D01*
X041615Y025102D01*
X041494Y025052D01*
X041448Y025006D01*
X041430Y025024D01*
X035930Y025024D01*
X035930Y022774D01*
X034430Y022774D01*
X033930Y023274D01*
X033930Y024274D01*
X033180Y025024D01*
X027930Y025024D01*
X027930Y022774D01*
X026430Y022774D01*
X025930Y023274D01*
X025930Y024524D01*
X025912Y024542D01*
X025958Y024588D01*
X026008Y024708D01*
X026008Y024839D01*
X025958Y024960D01*
X025866Y025052D01*
X025745Y025102D01*
X025615Y025102D01*
X025494Y025052D01*
X025448Y025006D01*
X025430Y025024D01*
X019930Y025024D01*
X019930Y022774D01*
X018430Y022774D01*
X017930Y023274D01*
X017930Y026024D01*
X017930Y025975D02*
X019724Y025975D01*
X019724Y026134D02*
X018040Y026134D01*
X018199Y026292D02*
X019724Y026292D01*
X019726Y026451D02*
X018357Y026451D01*
X017930Y025817D02*
X020122Y025817D01*
X020238Y025817D02*
X049700Y025817D01*
X049700Y025975D02*
X020636Y025975D01*
X020636Y026134D02*
X049700Y026134D01*
X049700Y026292D02*
X020636Y026292D01*
X020634Y026451D02*
X049700Y026451D01*
X049700Y026609D02*
X021766Y026609D01*
X021924Y026768D02*
X049700Y026768D01*
X049700Y026926D02*
X022083Y026926D01*
X022241Y027085D02*
X049700Y027085D01*
X049700Y027243D02*
X022400Y027243D01*
X022558Y027402D02*
X049700Y027402D01*
X049700Y027560D02*
X022717Y027560D01*
X022875Y027719D02*
X049700Y027719D01*
X049700Y025658D02*
X020636Y025658D01*
X020636Y025771D02*
X020636Y025215D01*
X020623Y025169D01*
X020600Y025128D01*
X020566Y025094D01*
X020525Y025071D01*
X020479Y025058D01*
X020238Y025058D01*
X020238Y025771D01*
X020636Y025771D01*
X020636Y025500D02*
X049700Y025500D01*
X049700Y025341D02*
X020636Y025341D01*
X020627Y025183D02*
X049700Y025183D01*
X049700Y025024D02*
X041893Y025024D01*
X041997Y024866D02*
X043930Y024866D01*
X043930Y024707D02*
X042008Y024707D01*
X041919Y024549D02*
X042654Y024549D01*
X042652Y024548D02*
X042619Y024514D01*
X042595Y024473D01*
X042583Y024427D01*
X042583Y023792D01*
X042941Y023792D01*
X042941Y023755D01*
X042978Y023755D01*
X042978Y022964D01*
X043180Y022964D01*
X043226Y022976D01*
X043267Y023000D01*
X043300Y023033D01*
X043324Y023074D01*
X043336Y023120D01*
X043336Y023755D01*
X042978Y023755D01*
X042978Y023792D01*
X043336Y023792D01*
X043336Y024427D01*
X043324Y024473D01*
X043300Y024514D01*
X043267Y024548D01*
X043226Y024571D01*
X043180Y024584D01*
X042978Y024584D01*
X042978Y023792D01*
X042941Y023792D01*
X042941Y024584D01*
X042739Y024584D01*
X042693Y024571D01*
X042652Y024548D01*
X042583Y024390D02*
X041930Y024390D01*
X041930Y024232D02*
X042583Y024232D01*
X042583Y024073D02*
X041930Y024073D01*
X041930Y023915D02*
X042583Y023915D01*
X042583Y023755D02*
X042583Y023120D01*
X042595Y023074D01*
X042619Y023033D01*
X042652Y023000D01*
X042693Y022976D01*
X042739Y022964D01*
X042941Y022964D01*
X042941Y023755D01*
X042583Y023755D01*
X042583Y023598D02*
X041930Y023598D01*
X041930Y023756D02*
X042941Y023756D01*
X042978Y023756D02*
X043930Y023756D01*
X043930Y023598D02*
X043336Y023598D01*
X043336Y023439D02*
X043930Y023439D01*
X043930Y023281D02*
X043336Y023281D01*
X043336Y023122D02*
X043930Y023122D01*
X043930Y022964D02*
X042240Y022964D01*
X042081Y023122D02*
X042583Y023122D01*
X042583Y023281D02*
X041930Y023281D01*
X041930Y023439D02*
X042583Y023439D01*
X042941Y023439D02*
X042978Y023439D01*
X042978Y023281D02*
X042941Y023281D01*
X042941Y023122D02*
X042978Y023122D01*
X042978Y023598D02*
X042941Y023598D01*
X042941Y023915D02*
X042978Y023915D01*
X042978Y024073D02*
X042941Y024073D01*
X042941Y024232D02*
X042978Y024232D01*
X042978Y024390D02*
X042941Y024390D01*
X042941Y024549D02*
X042978Y024549D01*
X043265Y024549D02*
X043930Y024549D01*
X043930Y024390D02*
X043336Y024390D01*
X043336Y024232D02*
X043930Y024232D01*
X043930Y024073D02*
X043336Y024073D01*
X043336Y023915D02*
X043930Y023915D01*
X043930Y022805D02*
X042398Y022805D01*
X041467Y025024D02*
X025893Y025024D01*
X025997Y024866D02*
X027930Y024866D01*
X027930Y024707D02*
X026008Y024707D01*
X025919Y024549D02*
X026654Y024549D01*
X026652Y024548D02*
X026619Y024514D01*
X026595Y024473D01*
X026583Y024427D01*
X026583Y023792D01*
X026941Y023792D01*
X026941Y023755D01*
X026978Y023755D01*
X026978Y022964D01*
X027180Y022964D01*
X027226Y022976D01*
X027267Y023000D01*
X027300Y023033D01*
X027324Y023074D01*
X027336Y023120D01*
X027336Y023755D01*
X026978Y023755D01*
X026978Y023792D01*
X027336Y023792D01*
X027336Y024427D01*
X027324Y024473D01*
X027300Y024514D01*
X027267Y024548D01*
X027226Y024571D01*
X027180Y024584D01*
X026978Y024584D01*
X026978Y023792D01*
X026941Y023792D01*
X026941Y024584D01*
X026739Y024584D01*
X026693Y024571D01*
X026652Y024548D01*
X026583Y024390D02*
X025930Y024390D01*
X025930Y024232D02*
X026583Y024232D01*
X026583Y024073D02*
X025930Y024073D01*
X025930Y023915D02*
X026583Y023915D01*
X026583Y023755D02*
X026583Y023120D01*
X026595Y023074D01*
X026619Y023033D01*
X026652Y023000D01*
X026693Y022976D01*
X026739Y022964D01*
X026941Y022964D01*
X026941Y023755D01*
X026583Y023755D01*
X026583Y023598D02*
X025930Y023598D01*
X025930Y023756D02*
X026941Y023756D01*
X026978Y023756D02*
X027930Y023756D01*
X027930Y023598D02*
X027336Y023598D01*
X027336Y023439D02*
X027930Y023439D01*
X027930Y023281D02*
X027336Y023281D01*
X027336Y023122D02*
X027930Y023122D01*
X027930Y022964D02*
X026240Y022964D01*
X026081Y023122D02*
X026583Y023122D01*
X026583Y023281D02*
X025930Y023281D01*
X025930Y023439D02*
X026583Y023439D01*
X026941Y023439D02*
X026978Y023439D01*
X026978Y023281D02*
X026941Y023281D01*
X026941Y023122D02*
X026978Y023122D01*
X026978Y023598D02*
X026941Y023598D01*
X026941Y023915D02*
X026978Y023915D01*
X026978Y024073D02*
X026941Y024073D01*
X026941Y024232D02*
X026978Y024232D01*
X026978Y024390D02*
X026941Y024390D01*
X026941Y024549D02*
X026978Y024549D01*
X027265Y024549D02*
X027930Y024549D01*
X027930Y024390D02*
X027336Y024390D01*
X027336Y024232D02*
X027930Y024232D01*
X027930Y024073D02*
X027336Y024073D01*
X027336Y023915D02*
X027930Y023915D01*
X027930Y022805D02*
X026398Y022805D01*
X025467Y025024D02*
X017930Y025024D01*
X017930Y024866D02*
X019930Y024866D01*
X020122Y025183D02*
X020238Y025183D01*
X020238Y025341D02*
X020122Y025341D01*
X020122Y025500D02*
X020238Y025500D01*
X020238Y025658D02*
X020122Y025658D01*
X019724Y025658D02*
X017930Y025658D01*
X017930Y025500D02*
X019724Y025500D01*
X019724Y025341D02*
X017930Y025341D01*
X017930Y025183D02*
X019733Y025183D01*
X018978Y024549D02*
X018941Y024549D01*
X018941Y024390D02*
X018978Y024390D01*
X018978Y024232D02*
X018941Y024232D01*
X018941Y024073D02*
X018978Y024073D01*
X018978Y023915D02*
X018941Y023915D01*
X018941Y023598D02*
X018978Y023598D01*
X018978Y023439D02*
X018941Y023439D01*
X018941Y023281D02*
X018978Y023281D01*
X018978Y023122D02*
X018941Y023122D01*
X018583Y023122D02*
X018081Y023122D01*
X017930Y023281D02*
X018583Y023281D01*
X018583Y023439D02*
X017930Y023439D01*
X018240Y022964D02*
X019930Y022964D01*
X019930Y023122D02*
X019336Y023122D01*
X019336Y023281D02*
X019930Y023281D01*
X019930Y023439D02*
X019336Y023439D01*
X019930Y022805D02*
X018398Y022805D01*
X014820Y026609D02*
X014680Y026609D01*
X014680Y026768D02*
X014820Y026768D01*
X014820Y026926D02*
X014680Y026926D01*
X014680Y027085D02*
X014820Y027085D01*
X014937Y027243D02*
X014680Y027243D01*
X014680Y027402D02*
X016180Y027402D01*
X016180Y027560D02*
X014680Y027560D01*
X014680Y027719D02*
X016180Y027719D01*
X016180Y027877D02*
X014680Y027877D01*
X014680Y028036D02*
X014845Y028036D01*
X014855Y028019D02*
X014888Y027986D01*
X014929Y027962D01*
X014975Y027950D01*
X015313Y027950D01*
X015313Y028444D01*
X014819Y028444D01*
X014819Y028106D01*
X014831Y028061D01*
X014855Y028019D01*
X014819Y028194D02*
X014680Y028194D01*
X014680Y028353D02*
X014819Y028353D01*
X014680Y028511D02*
X015313Y028511D01*
X015313Y028353D02*
X015473Y028353D01*
X015473Y028194D02*
X015313Y028194D01*
X015313Y028036D02*
X015473Y028036D01*
X015940Y028036D02*
X016180Y028036D01*
X016180Y028194D02*
X015966Y028194D01*
X014819Y028670D02*
X014680Y028670D01*
X014735Y028828D02*
X014819Y028828D01*
X010987Y031158D02*
X010564Y031158D01*
X010052Y030646D01*
X009373Y030646D01*
X008682Y030646D01*
X008180Y031148D01*
X007554Y031774D01*
X006680Y031774D01*
X006064Y031158D01*
X005987Y031158D01*
X005564Y031158D01*
X005052Y030646D01*
X004373Y030646D01*
X003682Y030646D01*
X003180Y031148D01*
X009373Y030902D02*
X009808Y030902D01*
X011400Y032494D01*
X011400Y032774D01*
X033338Y024866D02*
X035930Y024866D01*
X035930Y024707D02*
X033496Y024707D01*
X033655Y024549D02*
X034654Y024549D01*
X034652Y024548D02*
X034619Y024514D01*
X034595Y024473D01*
X034583Y024427D01*
X034583Y023792D01*
X034941Y023792D01*
X034941Y023755D01*
X034978Y023755D01*
X034978Y022964D01*
X035180Y022964D01*
X035226Y022976D01*
X035267Y023000D01*
X035300Y023033D01*
X035324Y023074D01*
X035336Y023120D01*
X035336Y023755D01*
X034978Y023755D01*
X034978Y023792D01*
X035336Y023792D01*
X035336Y024427D01*
X035324Y024473D01*
X035300Y024514D01*
X035267Y024548D01*
X035226Y024571D01*
X035180Y024584D01*
X034978Y024584D01*
X034978Y023792D01*
X034941Y023792D01*
X034941Y024584D01*
X034739Y024584D01*
X034693Y024571D01*
X034652Y024548D01*
X034583Y024390D02*
X033813Y024390D01*
X033930Y024232D02*
X034583Y024232D01*
X034583Y024073D02*
X033930Y024073D01*
X033930Y023915D02*
X034583Y023915D01*
X034583Y023755D02*
X034583Y023120D01*
X034595Y023074D01*
X034619Y023033D01*
X034652Y023000D01*
X034693Y022976D01*
X034739Y022964D01*
X034941Y022964D01*
X034941Y023755D01*
X034583Y023755D01*
X034583Y023598D02*
X033930Y023598D01*
X033930Y023756D02*
X034941Y023756D01*
X034978Y023756D02*
X035930Y023756D01*
X035930Y023598D02*
X035336Y023598D01*
X035336Y023439D02*
X035930Y023439D01*
X035930Y023281D02*
X035336Y023281D01*
X035336Y023122D02*
X035930Y023122D01*
X035930Y022964D02*
X034240Y022964D01*
X034081Y023122D02*
X034583Y023122D01*
X034583Y023281D02*
X033930Y023281D01*
X033930Y023439D02*
X034583Y023439D01*
X034941Y023439D02*
X034978Y023439D01*
X034978Y023281D02*
X034941Y023281D01*
X034941Y023122D02*
X034978Y023122D01*
X034978Y023598D02*
X034941Y023598D01*
X034941Y023915D02*
X034978Y023915D01*
X034978Y024073D02*
X034941Y024073D01*
X034941Y024232D02*
X034978Y024232D01*
X034978Y024390D02*
X034941Y024390D01*
X034941Y024549D02*
X034978Y024549D01*
X035265Y024549D02*
X035930Y024549D01*
X035930Y024390D02*
X035336Y024390D01*
X035336Y024232D02*
X035930Y024232D01*
X035930Y024073D02*
X035336Y024073D01*
X035336Y023915D02*
X035930Y023915D01*
X035930Y022805D02*
X034398Y022805D01*
X047838Y024866D02*
X049700Y024866D01*
X049700Y024707D02*
X047996Y024707D01*
X048155Y024549D02*
X049700Y024549D01*
X049700Y024390D02*
X048313Y024390D01*
X040806Y011774D02*
X040806Y011400D01*
X040430Y011024D01*
X040806Y011774D02*
X041332Y011248D01*
X041332Y010622D01*
X041332Y010024D01*
X046430Y010024D01*
X046528Y010122D01*
X046528Y010622D01*
X047631Y009520D01*
X047631Y007394D01*
X041332Y009675D02*
X040900Y009244D01*
X040900Y007119D01*
X040585Y006803D01*
X040229Y006803D01*
X039680Y005524D02*
X039430Y005274D01*
X039070Y005274D01*
X038680Y005274D01*
X039680Y005524D02*
X039680Y009524D01*
X040229Y009244D02*
X040900Y009244D01*
X041332Y009675D02*
X041332Y010024D01*
X039070Y009774D02*
X038554Y009774D01*
X037554Y010774D01*
X036806Y010774D02*
X036556Y011024D01*
X036180Y011024D01*
X036806Y010774D02*
X035806Y009774D01*
X035930Y009650D01*
X035930Y005524D01*
X035680Y005274D01*
X035290Y005274D01*
X033680Y001524D02*
X032930Y001524D01*
X035300Y009774D02*
X035806Y009774D01*
X020180Y007650D02*
X019554Y007650D01*
X019430Y007774D01*
X017680Y007564D02*
X017680Y008524D01*
X016930Y009274D01*
X015930Y009274D01*
X015180Y009274D01*
X015180Y009984D01*
X015180Y009274D02*
X014556Y008650D01*
X013680Y008400D01*
X014180Y007524D02*
X014180Y007024D01*
X015180Y006024D01*
X017430Y006024D01*
X017930Y005524D01*
X017930Y004648D01*
X015930Y009274D02*
X016180Y009524D01*
X016180Y009984D01*
D64*
X017180Y010774D03*
X019555Y011149D03*
X016930Y012774D03*
X016430Y012774D03*
X016430Y013774D03*
X016930Y013774D03*
X018930Y014524D03*
X019930Y016274D03*
X021430Y015274D03*
X021930Y015524D03*
X020180Y017774D03*
X021430Y018774D03*
X022430Y019524D03*
X024180Y020774D03*
X024680Y022524D03*
X025680Y024774D03*
X031680Y022524D03*
X032680Y022524D03*
X032180Y020774D03*
X030430Y019524D03*
X029430Y018774D03*
X028180Y017774D03*
X027930Y016524D03*
X029430Y015274D03*
X029930Y015524D03*
X032680Y012274D03*
X034180Y014024D03*
X035930Y016524D03*
X036180Y017774D03*
X037430Y018774D03*
X038430Y019524D03*
X040180Y020774D03*
X040680Y022524D03*
X041680Y024774D03*
X047680Y022524D03*
X048680Y022524D03*
X048180Y020774D03*
X046430Y019524D03*
X045430Y018774D03*
X044180Y017774D03*
X043930Y016524D03*
X045430Y016274D03*
X045930Y016274D03*
X049430Y016274D03*
X042180Y011774D03*
X040430Y011024D03*
X038180Y009524D03*
X037180Y009524D03*
X036430Y009524D03*
X036680Y008274D03*
X036680Y007774D03*
X037430Y007774D03*
X037430Y007024D03*
X037680Y008524D03*
X036180Y011024D03*
X037430Y015524D03*
X037930Y015524D03*
X030180Y009524D03*
X029430Y008524D03*
X029430Y008024D03*
X029430Y007024D03*
X026930Y006024D03*
X026430Y006024D03*
X026430Y005524D03*
X024430Y006274D03*
X023930Y006524D03*
X022430Y004524D03*
X023180Y003774D03*
X023930Y003774D03*
X026180Y001524D03*
X028180Y001774D03*
X028430Y002274D03*
X028680Y002774D03*
X028930Y003274D03*
X029180Y003774D03*
X029430Y004274D03*
X033680Y001524D03*
X026430Y009774D03*
X026555Y011524D03*
X024180Y009774D03*
X029680Y011774D03*
X021180Y001774D03*
X020430Y001774D03*
X017180Y005524D03*
X016680Y005524D03*
X016680Y008524D03*
X016180Y008524D03*
X015680Y008524D03*
X015180Y008524D03*
X012555Y017399D03*
X014430Y029024D03*
X014930Y030024D03*
X015930Y030774D03*
X016430Y030774D03*
X015680Y033524D03*
X014430Y034024D03*
D65*
X032430Y010274D03*
D66*
X015430Y023274D03*
X018430Y025274D03*
X015430Y027524D03*
X012430Y032774D03*
X005180Y025274D03*
D67*
X029930Y007667D02*
X030450Y007667D01*
X030450Y007668D02*
X030487Y007670D01*
X030524Y007676D01*
X030560Y007685D01*
X030595Y007699D01*
X030628Y007716D01*
X030659Y007736D01*
X030688Y007759D01*
X030715Y007786D01*
X030738Y007815D01*
X030758Y007846D01*
X030775Y007879D01*
X030789Y007914D01*
X030798Y007950D01*
X030804Y007987D01*
X030806Y008024D01*
D68*
X027930Y011274D03*
X028430Y011524D03*
X031430Y012774D03*
X031930Y013274D03*
X038180Y011524D03*
X039180Y013524D03*
X039180Y014024D03*
D69*
X021180Y031719D02*
X020393Y032506D01*
X020393Y033774D01*
X012430Y032774D02*
X011400Y032774D01*
M02*
