G75*
G70*
%OFA0B0*%
%FSLAX24Y24*%
%IPPOS*%
%LPD*%
%AMOC8*
5,1,8,0,0,1.08239X$1,22.5*
%
%ADD10R,0.0600X0.0600*%
%ADD11OC8,0.0600*%
%ADD12C,0.0594*%
%ADD13C,0.1000*%
%ADD14C,0.2362*%
%ADD15C,0.0476*%
%ADD16C,0.0600*%
%ADD17C,0.0560*%
%ADD18C,0.2150*%
%ADD19C,0.0160*%
%ADD20C,0.0650*%
%ADD21C,0.0436*%
%ADD22C,0.0357*%
%ADD23C,0.0396*%
%ADD24C,0.0591*%
%ADD25C,0.0768*%
%ADD26C,0.0100*%
%ADD27C,0.0120*%
%ADD28C,0.0240*%
%ADD29C,0.0320*%
%ADD30C,0.0500*%
%ADD31C,0.0310*%
%ADD32C,0.1000*%
D10*
X037680Y003274D03*
D11*
X036680Y003274D03*
X035680Y003274D03*
X035680Y002274D03*
X036680Y002274D03*
X037680Y002274D03*
D12*
X013680Y022727D02*
X013680Y023321D01*
X012680Y023321D02*
X012680Y022727D01*
X012680Y026477D02*
X012680Y027071D01*
X013680Y027071D02*
X013680Y026477D01*
X011727Y003774D02*
X011133Y003774D01*
X011133Y002774D02*
X011727Y002774D01*
X011727Y001774D02*
X011133Y001774D01*
X008977Y001774D02*
X008383Y001774D01*
X008383Y002774D02*
X008977Y002774D01*
X008977Y003774D02*
X008383Y003774D01*
D13*
X035180Y029829D03*
X034393Y031246D03*
X035967Y031246D03*
X044393Y031246D03*
X045967Y031246D03*
X045180Y029829D03*
X026204Y030774D03*
X024156Y030774D03*
D14*
X024180Y037774D03*
X021180Y037774D03*
X028180Y037774D03*
X031180Y037774D03*
X034180Y037774D03*
X038180Y037774D03*
X041180Y037774D03*
X044180Y037774D03*
D15*
X014180Y037660D03*
X014180Y037069D03*
X014180Y036478D03*
X014180Y035888D03*
X010180Y035888D03*
X010180Y036478D03*
X010180Y037069D03*
X010180Y037660D03*
D16*
X020765Y021493D03*
X021595Y021493D03*
X021180Y020774D03*
X020350Y020774D03*
X020765Y020055D03*
X021595Y020055D03*
X022010Y020774D03*
X028350Y020774D03*
X029180Y020774D03*
X028765Y021493D03*
X029595Y021493D03*
X030010Y020774D03*
X029595Y020055D03*
X028765Y020055D03*
X036350Y020774D03*
X036765Y021493D03*
X037595Y021493D03*
X037180Y020774D03*
X038010Y020774D03*
X037595Y020055D03*
X036765Y020055D03*
X044350Y020774D03*
X044765Y021493D03*
X045595Y021493D03*
X045180Y020774D03*
X046010Y020774D03*
X045595Y020055D03*
X044765Y020055D03*
D17*
X014460Y003774D02*
X013900Y003774D01*
X013900Y002774D02*
X014460Y002774D01*
X014460Y001774D02*
X013900Y001774D01*
D18*
X002380Y013699D02*
X002380Y015849D01*
X005180Y016149D02*
X005180Y013999D01*
X002380Y018699D02*
X002380Y020849D01*
X005180Y021149D02*
X005180Y018999D01*
X006105Y035574D02*
X008255Y035574D01*
X007955Y037774D02*
X005805Y037774D01*
X015805Y037774D02*
X017955Y037774D01*
X018255Y035574D02*
X016105Y035574D01*
D19*
X000660Y040294D02*
X000660Y001254D01*
X025986Y001254D01*
X025902Y001338D01*
X025852Y001458D01*
X025852Y001589D01*
X025902Y001710D01*
X025990Y001798D01*
X025990Y001945D01*
X024351Y003584D01*
X024204Y003584D01*
X024116Y003496D01*
X023995Y003446D01*
X023865Y003446D01*
X023744Y003496D01*
X023652Y003588D01*
X023602Y003708D01*
X023602Y003839D01*
X023652Y003960D01*
X023744Y004052D01*
X023821Y004084D01*
X023509Y004084D01*
X023421Y003996D01*
X023458Y003960D01*
X023508Y003839D01*
X023508Y003708D01*
X023458Y003588D01*
X023366Y003496D01*
X023245Y003446D01*
X023115Y003446D01*
X022994Y003496D01*
X022902Y003588D01*
X022852Y003708D01*
X022852Y003839D01*
X022902Y003960D01*
X022990Y004048D01*
X022990Y004102D01*
X021620Y004102D01*
X021620Y003944D02*
X022895Y003944D01*
X022852Y003785D02*
X021620Y003785D01*
X021620Y003627D02*
X022886Y003627D01*
X023060Y003468D02*
X021620Y003468D01*
X021620Y003310D02*
X024625Y003310D01*
X024467Y003468D02*
X024050Y003468D01*
X023810Y003468D02*
X023300Y003468D01*
X023474Y003627D02*
X023636Y003627D01*
X023602Y003785D02*
X023508Y003785D01*
X023465Y003944D02*
X023645Y003944D01*
X023221Y004334D02*
X022990Y004102D01*
X023148Y004261D02*
X022631Y004261D01*
X022616Y004246D02*
X022704Y004334D01*
X023221Y004334D01*
X023221Y004714D02*
X022704Y004714D01*
X022616Y004802D01*
X022495Y004852D01*
X022365Y004852D01*
X022244Y004802D01*
X022152Y004710D01*
X022102Y004589D01*
X022102Y004458D01*
X022152Y004338D01*
X022244Y004246D01*
X022365Y004196D01*
X022495Y004196D01*
X022616Y004246D01*
X022229Y004261D02*
X021620Y004261D01*
X021620Y004419D02*
X022118Y004419D01*
X022102Y004578D02*
X021620Y004578D01*
X021620Y004736D02*
X022178Y004736D01*
X022682Y004736D02*
X023199Y004736D01*
X023221Y004714D02*
X022970Y004965D01*
X022869Y004965D01*
X022755Y005012D01*
X022669Y005099D01*
X022622Y005212D01*
X021887Y005212D01*
X022009Y005334D02*
X022120Y005445D01*
X022120Y006602D01*
X021738Y006984D01*
X021738Y007085D01*
X021691Y007198D01*
X021605Y007285D01*
X021491Y007332D01*
X021425Y007332D01*
X021441Y007349D01*
X021488Y007462D01*
X021488Y007585D01*
X021441Y007698D01*
X021355Y007785D01*
X021241Y007832D01*
X021119Y007832D01*
X021005Y007785D01*
X020919Y007698D01*
X020872Y007585D01*
X020872Y007470D01*
X020750Y007348D01*
X020750Y006949D01*
X020855Y006844D01*
X020990Y006709D01*
X020990Y006695D01*
X021490Y006195D01*
X021490Y005602D01*
X021101Y005214D01*
X020990Y005102D01*
X020990Y002602D01*
X020489Y002102D01*
X020365Y002102D01*
X020244Y002052D01*
X020152Y001960D01*
X020102Y001839D01*
X020102Y001708D01*
X020152Y001588D01*
X020244Y001496D01*
X020365Y001446D01*
X020495Y001446D01*
X020616Y001496D01*
X020708Y001588D01*
X020758Y001708D01*
X020758Y001833D01*
X021240Y002315D01*
X021240Y002102D01*
X021239Y002102D01*
X021115Y002102D01*
X020994Y002052D01*
X020902Y001960D01*
X020852Y001839D01*
X020852Y001708D01*
X020902Y001588D01*
X020994Y001496D01*
X021115Y001446D01*
X021245Y001446D01*
X021366Y001496D01*
X021458Y001588D01*
X021508Y001708D01*
X021508Y001833D01*
X021620Y001945D01*
X021620Y004945D01*
X022009Y005334D01*
X022045Y005370D02*
X022636Y005370D01*
X022622Y005335D02*
X022622Y005212D01*
X022622Y005335D02*
X022669Y005448D01*
X022744Y005524D01*
X022669Y005599D01*
X022622Y005712D01*
X022622Y005835D01*
X022669Y005948D01*
X022755Y006035D01*
X022869Y006082D01*
X022991Y006082D01*
X023105Y006035D01*
X023191Y005948D01*
X023238Y005835D01*
X023238Y005734D01*
X023759Y005214D01*
X024259Y005214D01*
X024370Y005102D01*
X026509Y002964D01*
X028101Y002964D01*
X028490Y003352D01*
X028601Y003464D01*
X028656Y003464D01*
X028744Y003552D01*
X028865Y003602D01*
X028896Y003602D01*
X028852Y003708D01*
X028852Y003833D01*
X028601Y004084D01*
X026601Y004084D01*
X024653Y006032D01*
X024616Y005996D01*
X024495Y005946D01*
X024365Y005946D01*
X024244Y005996D01*
X024152Y006088D01*
X024102Y006208D01*
X024102Y006240D01*
X023995Y006196D01*
X023865Y006196D01*
X023744Y006246D01*
X023652Y006338D01*
X023602Y006458D01*
X023602Y006589D01*
X023652Y006710D01*
X023744Y006802D01*
X023865Y006852D01*
X023989Y006852D01*
X023990Y006852D01*
X023990Y006852D01*
X024101Y006964D01*
X024509Y006964D01*
X026759Y004714D01*
X029259Y004714D01*
X029371Y004602D01*
X029495Y004602D01*
X029616Y004552D01*
X029708Y004460D01*
X029758Y004339D01*
X029758Y004208D01*
X029708Y004088D01*
X029616Y003996D01*
X029495Y003946D01*
X029464Y003946D01*
X029508Y003839D01*
X029508Y003708D01*
X029458Y003588D01*
X029366Y003496D01*
X029245Y003446D01*
X029214Y003446D01*
X029258Y003339D01*
X029258Y003208D01*
X029208Y003088D01*
X029116Y002996D01*
X028995Y002946D01*
X028964Y002946D01*
X029008Y002839D01*
X029008Y002708D01*
X028958Y002588D01*
X028866Y002496D01*
X028745Y002446D01*
X028714Y002446D01*
X028758Y002339D01*
X028758Y002208D01*
X028708Y002088D01*
X028616Y001996D01*
X028495Y001946D01*
X028464Y001946D01*
X028508Y001839D01*
X028508Y001708D01*
X028458Y001588D01*
X028366Y001496D01*
X028245Y001446D01*
X028115Y001446D01*
X027994Y001496D01*
X027902Y001588D01*
X027852Y001708D01*
X027852Y001833D01*
X027851Y001834D01*
X026370Y001834D01*
X026370Y001798D01*
X026458Y001710D01*
X026508Y001589D01*
X026508Y001458D01*
X026458Y001338D01*
X026374Y001254D01*
X049700Y001254D01*
X049700Y016080D01*
X049616Y015996D01*
X049495Y015946D01*
X049365Y015946D01*
X049244Y015996D01*
X049152Y016088D01*
X049133Y016134D01*
X047333Y017484D01*
X044337Y017484D01*
X044245Y017446D01*
X044115Y017446D01*
X044023Y017484D01*
X043504Y017484D01*
X043560Y017349D01*
X043560Y017198D01*
X043502Y017058D01*
X043395Y016952D01*
X043256Y016894D01*
X013337Y016894D01*
X010560Y014116D01*
X010560Y010287D01*
X010566Y010281D01*
X010635Y010114D01*
X010635Y009933D01*
X010566Y009766D01*
X010438Y009638D01*
X010270Y009569D01*
X010090Y009569D01*
X010013Y009600D01*
X010050Y009564D01*
X010810Y009564D01*
X011225Y009979D01*
X011225Y010114D01*
X011294Y010281D01*
X011422Y010409D01*
X011590Y010479D01*
X011770Y010479D01*
X011938Y010409D01*
X012066Y010281D01*
X012085Y010234D01*
X013517Y010234D01*
X013640Y010111D01*
X014767Y008984D01*
X014890Y008861D01*
X014890Y008681D01*
X014902Y008710D01*
X014994Y008802D01*
X015115Y008852D01*
X015239Y008852D01*
X015240Y008852D01*
X015240Y010852D01*
X016842Y012455D01*
X016744Y012496D01*
X016680Y012560D01*
X016616Y012496D01*
X016495Y012446D01*
X016365Y012446D01*
X016244Y012496D01*
X016152Y012588D01*
X016102Y012708D01*
X016102Y012839D01*
X016152Y012960D01*
X016240Y013048D01*
X016240Y013500D01*
X016152Y013588D01*
X016102Y013708D01*
X016102Y013839D01*
X016152Y013960D01*
X016244Y014052D01*
X016365Y014102D01*
X016495Y014102D01*
X016616Y014052D01*
X016680Y013988D01*
X016744Y014052D01*
X016865Y014102D01*
X016995Y014102D01*
X017116Y014052D01*
X017208Y013960D01*
X017258Y013839D01*
X017258Y013708D01*
X017208Y013588D01*
X017120Y013500D01*
X017120Y013048D01*
X017208Y012960D01*
X017249Y012861D01*
X018689Y014301D01*
X018652Y014338D01*
X018602Y014458D01*
X018602Y014589D01*
X018652Y014710D01*
X018744Y014802D01*
X018865Y014852D01*
X018995Y014852D01*
X019116Y014802D01*
X019208Y014710D01*
X019249Y014611D01*
X019740Y015102D01*
X019740Y016000D01*
X019652Y016088D01*
X019602Y016208D01*
X019602Y016339D01*
X019652Y016460D01*
X019744Y016552D01*
X019865Y016602D01*
X019995Y016602D01*
X020116Y016552D01*
X020208Y016460D01*
X020258Y016339D01*
X020258Y016208D01*
X020208Y016088D01*
X020120Y016000D01*
X020120Y015232D01*
X021490Y016602D01*
X021601Y016714D01*
X027656Y016714D01*
X027744Y016802D01*
X027865Y016852D01*
X027995Y016852D01*
X028116Y016802D01*
X028208Y016710D01*
X028249Y016611D01*
X028351Y016714D01*
X035656Y016714D01*
X035744Y016802D01*
X035865Y016852D01*
X035995Y016852D01*
X036116Y016802D01*
X036208Y016710D01*
X036258Y016589D01*
X036258Y016458D01*
X036208Y016338D01*
X036116Y016246D01*
X036039Y016214D01*
X036101Y016214D01*
X036601Y016714D01*
X043656Y016714D01*
X043744Y016802D01*
X043865Y016852D01*
X043995Y016852D01*
X044116Y016802D01*
X044208Y016710D01*
X044258Y016589D01*
X044258Y016458D01*
X044208Y016338D01*
X044116Y016246D01*
X043995Y016196D01*
X043865Y016196D01*
X043744Y016246D01*
X043656Y016334D01*
X036759Y016334D01*
X036259Y015834D01*
X035601Y015834D01*
X035490Y015945D01*
X035351Y016084D01*
X028509Y016084D01*
X028009Y015584D01*
X027601Y015584D01*
X027490Y015695D01*
X027351Y015834D01*
X022039Y015834D01*
X022116Y015802D01*
X022208Y015710D01*
X022258Y015589D01*
X022258Y015458D01*
X022208Y015338D01*
X022120Y015250D01*
X022120Y014945D01*
X022009Y014834D01*
X021870Y014695D01*
X021870Y011352D01*
X021890Y011332D01*
X021991Y011332D01*
X022105Y011285D01*
X022191Y011198D01*
X022238Y011085D01*
X022238Y010962D01*
X022191Y010849D01*
X022105Y010762D01*
X021991Y010715D01*
X021869Y010715D01*
X021755Y010762D01*
X021680Y010838D01*
X021605Y010762D01*
X021491Y010715D01*
X021369Y010715D01*
X021255Y010762D01*
X021169Y010849D01*
X021122Y010962D01*
X021122Y011085D01*
X021169Y011198D01*
X021240Y011270D01*
X021240Y015000D01*
X021152Y015088D01*
X021111Y015186D01*
X017370Y011445D01*
X017370Y011048D01*
X017458Y010960D01*
X017508Y010839D01*
X017508Y010708D01*
X017458Y010588D01*
X017366Y010496D01*
X017245Y010446D01*
X017115Y010446D01*
X016994Y010496D01*
X016902Y010588D01*
X016852Y010708D01*
X016852Y010839D01*
X016902Y010960D01*
X016990Y011048D01*
X016990Y011315D01*
X016370Y010695D01*
X016370Y009102D01*
X016621Y008852D01*
X016745Y008852D01*
X016866Y008802D01*
X016958Y008710D01*
X017008Y008589D01*
X017008Y008458D01*
X016958Y008338D01*
X016866Y008246D01*
X016745Y008196D01*
X016615Y008196D01*
X016494Y008246D01*
X016430Y008310D01*
X016366Y008246D01*
X016245Y008196D01*
X016115Y008196D01*
X015994Y008246D01*
X015930Y008310D01*
X015866Y008246D01*
X015745Y008196D01*
X015615Y008196D01*
X015494Y008246D01*
X015430Y008310D01*
X015366Y008246D01*
X015245Y008196D01*
X015115Y008196D01*
X015013Y008238D01*
X015267Y007984D01*
X019204Y007984D01*
X019255Y008035D01*
X019369Y008082D01*
X019491Y008082D01*
X019605Y008035D01*
X019691Y007948D01*
X019738Y007835D01*
X019738Y007712D01*
X019691Y007599D01*
X019605Y007512D01*
X019491Y007465D01*
X019369Y007465D01*
X019255Y007512D01*
X019204Y007564D01*
X015267Y007564D01*
X015017Y007314D01*
X014406Y007314D01*
X014355Y007262D01*
X014241Y007215D01*
X014119Y007215D01*
X014005Y007262D01*
X013919Y007349D01*
X013872Y007462D01*
X013872Y007585D01*
X013919Y007698D01*
X014005Y007785D01*
X014119Y007832D01*
X014241Y007832D01*
X014355Y007785D01*
X014406Y007734D01*
X014843Y007734D01*
X014883Y007774D01*
X014470Y008187D01*
X014470Y008687D01*
X013343Y009814D01*
X012085Y009814D01*
X012066Y009766D01*
X011938Y009638D01*
X011770Y009569D01*
X011635Y009569D01*
X011176Y009109D01*
X011094Y009028D01*
X010988Y008984D01*
X009872Y008984D01*
X009766Y009028D01*
X009391Y009403D01*
X009309Y009484D01*
X009265Y009591D01*
X009265Y014456D01*
X009309Y014563D01*
X012239Y017493D01*
X012277Y017585D01*
X012369Y017677D01*
X012461Y017715D01*
X012684Y017938D01*
X012766Y018020D01*
X012872Y018064D01*
X020023Y018064D01*
X020115Y018102D01*
X020245Y018102D01*
X020337Y018064D01*
X023560Y018064D01*
X023890Y018394D01*
X023890Y020616D01*
X023852Y020708D01*
X023852Y020839D01*
X023902Y020960D01*
X023994Y021052D01*
X024115Y021102D01*
X024245Y021102D01*
X024366Y021052D01*
X024458Y020960D01*
X024508Y020839D01*
X024508Y020708D01*
X024470Y020616D01*
X024470Y018216D01*
X024426Y018109D01*
X024380Y018064D01*
X028023Y018064D01*
X028115Y018102D01*
X028245Y018102D01*
X028337Y018064D01*
X031560Y018064D01*
X031890Y018394D01*
X031890Y020616D01*
X031852Y020708D01*
X031852Y020839D01*
X031902Y020960D01*
X031994Y021052D01*
X032115Y021102D01*
X032245Y021102D01*
X032366Y021052D01*
X032458Y020960D01*
X032508Y020839D01*
X032508Y020708D01*
X032470Y020616D01*
X032470Y018216D01*
X032426Y018109D01*
X032380Y018064D01*
X036023Y018064D01*
X036115Y018102D01*
X036245Y018102D01*
X036337Y018064D01*
X039560Y018064D01*
X039890Y018394D01*
X039890Y020616D01*
X039852Y020708D01*
X039852Y020839D01*
X039902Y020960D01*
X039994Y021052D01*
X040115Y021102D01*
X040245Y021102D01*
X040366Y021052D01*
X040458Y020960D01*
X040508Y020839D01*
X040508Y020708D01*
X040470Y020616D01*
X040470Y018216D01*
X040426Y018109D01*
X040380Y018064D01*
X044023Y018064D01*
X044115Y018102D01*
X044245Y018102D01*
X044337Y018064D01*
X047310Y018064D01*
X047890Y018644D01*
X047890Y020616D01*
X047852Y020708D01*
X047852Y020839D01*
X047902Y020960D01*
X047994Y021052D01*
X048115Y021102D01*
X048245Y021102D01*
X048366Y021052D01*
X048458Y020960D01*
X048508Y020839D01*
X048508Y020708D01*
X048470Y020616D01*
X048470Y018466D01*
X048426Y018359D01*
X048344Y018278D01*
X048344Y018278D01*
X047871Y017805D01*
X049476Y016602D01*
X049495Y016602D01*
X049616Y016552D01*
X049700Y016468D01*
X049700Y040294D01*
X000660Y040294D01*
X000660Y040240D02*
X049700Y040240D01*
X049700Y040082D02*
X000660Y040082D01*
X000660Y039923D02*
X049700Y039923D01*
X049700Y039765D02*
X000660Y039765D01*
X000660Y039606D02*
X049700Y039606D01*
X049700Y039448D02*
X048051Y039448D01*
X048155Y039420D02*
X047842Y039504D01*
X047518Y039504D01*
X047205Y039420D01*
X046925Y039258D01*
X046696Y039029D01*
X046534Y038748D01*
X046450Y038436D01*
X046450Y038112D01*
X046534Y037799D01*
X046696Y037518D01*
X046925Y037289D01*
X047205Y037128D01*
X047518Y037044D01*
X047842Y037044D01*
X048155Y037128D01*
X048435Y037289D01*
X048664Y037518D01*
X048826Y037799D01*
X048910Y038112D01*
X048910Y038436D01*
X048826Y038748D01*
X048664Y039029D01*
X048435Y039258D01*
X048155Y039420D01*
X048381Y039289D02*
X049700Y039289D01*
X049700Y039131D02*
X048562Y039131D01*
X048697Y038972D02*
X049700Y038972D01*
X049700Y038814D02*
X048788Y038814D01*
X048851Y038655D02*
X049700Y038655D01*
X049700Y038497D02*
X048894Y038497D01*
X048910Y038338D02*
X049700Y038338D01*
X049700Y038180D02*
X048910Y038180D01*
X048886Y038021D02*
X049700Y038021D01*
X049700Y037863D02*
X048843Y037863D01*
X048772Y037704D02*
X049700Y037704D01*
X049700Y037546D02*
X048680Y037546D01*
X048533Y037387D02*
X049700Y037387D01*
X049700Y037229D02*
X048330Y037229D01*
X047941Y037070D02*
X049700Y037070D01*
X049700Y036912D02*
X045172Y036912D01*
X045229Y036969D02*
X045402Y037268D01*
X045491Y037601D01*
X045491Y037946D01*
X045402Y038280D01*
X045229Y038579D01*
X044985Y038823D01*
X044686Y038995D01*
X044353Y039085D01*
X044007Y039085D01*
X043674Y038995D01*
X043375Y038823D01*
X043131Y038579D01*
X042958Y038280D01*
X042869Y037946D01*
X042869Y037601D01*
X042958Y037268D01*
X043131Y036969D01*
X043375Y036725D01*
X043674Y036552D01*
X044007Y036463D01*
X044353Y036463D01*
X044686Y036552D01*
X044985Y036725D01*
X045229Y036969D01*
X045288Y037070D02*
X047419Y037070D01*
X047030Y037229D02*
X045379Y037229D01*
X045434Y037387D02*
X046827Y037387D01*
X046680Y037546D02*
X045476Y037546D01*
X045491Y037704D02*
X046588Y037704D01*
X046517Y037863D02*
X045491Y037863D01*
X045471Y038021D02*
X046474Y038021D01*
X046450Y038180D02*
X045429Y038180D01*
X045368Y038338D02*
X046450Y038338D01*
X046466Y038497D02*
X045276Y038497D01*
X045153Y038655D02*
X046509Y038655D01*
X046572Y038814D02*
X044994Y038814D01*
X044726Y038972D02*
X046663Y038972D01*
X046798Y039131D02*
X024288Y039131D01*
X024260Y039131D02*
X024100Y039131D01*
X024100Y039134D02*
X023980Y039122D01*
X023849Y039096D01*
X023721Y039057D01*
X023597Y039006D01*
X023479Y038943D01*
X023368Y038868D01*
X023265Y038783D01*
X023170Y038689D01*
X023085Y038585D01*
X023011Y038474D01*
X022948Y038356D01*
X022897Y038233D01*
X022858Y038105D01*
X022832Y037974D01*
X022820Y037854D01*
X024100Y037854D01*
X024100Y039134D01*
X024072Y039131D02*
X003562Y039131D01*
X003664Y039029D02*
X003435Y039258D01*
X003155Y039420D01*
X002842Y039504D01*
X002518Y039504D01*
X002205Y039420D01*
X001925Y039258D01*
X001696Y039029D01*
X001534Y038748D01*
X001450Y038436D01*
X001450Y038112D01*
X001534Y037799D01*
X001696Y037518D01*
X001925Y037289D01*
X002205Y037128D01*
X002518Y037044D01*
X002842Y037044D01*
X003155Y037128D01*
X003435Y037289D01*
X003664Y037518D01*
X003826Y037799D01*
X003910Y038112D01*
X003910Y038436D01*
X003826Y038748D01*
X003664Y039029D01*
X003697Y038972D02*
X005433Y038972D01*
X005382Y038957D02*
X005268Y038910D01*
X005159Y038851D01*
X005056Y038783D01*
X004961Y038705D01*
X004874Y038618D01*
X004796Y038522D01*
X004727Y038420D01*
X004669Y038311D01*
X004622Y038197D01*
X004586Y038079D01*
X004562Y037958D01*
X004552Y037854D01*
X006800Y037854D01*
X006800Y039029D01*
X005743Y039029D01*
X005621Y039017D01*
X005500Y038993D01*
X005382Y038957D01*
X005103Y038814D02*
X003788Y038814D01*
X003851Y038655D02*
X004912Y038655D01*
X004779Y038497D02*
X003894Y038497D01*
X003910Y038338D02*
X004684Y038338D01*
X004617Y038180D02*
X003910Y038180D01*
X003886Y038021D02*
X004575Y038021D01*
X004553Y037863D02*
X003843Y037863D01*
X003772Y037704D02*
X006800Y037704D01*
X006800Y037694D02*
X004552Y037694D01*
X004562Y037589D01*
X004586Y037468D01*
X004622Y037350D01*
X004669Y037236D01*
X004727Y037128D01*
X004796Y037025D01*
X004874Y036930D01*
X004961Y036843D01*
X005056Y036764D01*
X005159Y036696D01*
X005268Y036638D01*
X005382Y036591D01*
X005431Y036576D01*
X005365Y036538D01*
X005141Y036314D01*
X004982Y036039D01*
X004900Y035732D01*
X004900Y035415D01*
X004982Y035109D01*
X005141Y034834D01*
X005365Y034609D01*
X005640Y034451D01*
X005946Y034369D01*
X008414Y034369D01*
X008720Y034451D01*
X008995Y034609D01*
X009219Y034834D01*
X009378Y035109D01*
X009460Y035415D01*
X009460Y035732D01*
X009378Y036039D01*
X009219Y036314D01*
X008995Y036538D01*
X008720Y036697D01*
X008636Y036719D01*
X008704Y036764D01*
X008799Y036843D01*
X008886Y036930D01*
X008964Y037025D01*
X009033Y037128D01*
X009091Y037236D01*
X009138Y037350D01*
X009174Y037468D01*
X009198Y037589D01*
X009208Y037694D01*
X006960Y037694D01*
X006960Y037854D01*
X006800Y037854D01*
X006800Y037694D01*
X006960Y037704D02*
X009764Y037704D01*
X009762Y037692D02*
X009762Y037660D01*
X010180Y037660D01*
X010180Y038077D01*
X010180Y037660D01*
X010180Y037660D01*
X010180Y037660D01*
X010598Y037660D01*
X010598Y037692D01*
X010588Y037757D01*
X010567Y037820D01*
X010537Y037878D01*
X010499Y037932D01*
X010452Y037978D01*
X010399Y038017D01*
X010340Y038047D01*
X010278Y038067D01*
X010213Y038077D01*
X010180Y038077D01*
X010147Y038077D01*
X010082Y038067D01*
X010020Y038047D01*
X009961Y038017D01*
X009908Y037978D01*
X009861Y037932D01*
X009823Y037878D01*
X009793Y037820D01*
X009772Y037757D01*
X009762Y037692D01*
X009762Y037660D02*
X009762Y037627D01*
X009772Y037562D01*
X009793Y037499D01*
X009823Y037441D01*
X009861Y037387D01*
X009908Y037341D01*
X009922Y037331D01*
X009868Y037277D01*
X009812Y037142D01*
X009812Y036996D01*
X009868Y036861D01*
X009955Y036774D01*
X009868Y036687D01*
X009812Y036552D01*
X009812Y036405D01*
X009868Y036270D01*
X009955Y036183D01*
X009868Y036096D01*
X009812Y035961D01*
X009812Y035815D01*
X009868Y035680D01*
X009972Y035576D01*
X010107Y035520D01*
X010253Y035520D01*
X010388Y035576D01*
X010492Y035680D01*
X010548Y035815D01*
X010548Y035961D01*
X010492Y036096D01*
X010405Y036183D01*
X010492Y036270D01*
X010548Y036405D01*
X010548Y036552D01*
X010492Y036687D01*
X010405Y036774D01*
X010492Y036861D01*
X010548Y036996D01*
X010548Y037142D01*
X010492Y037277D01*
X010438Y037331D01*
X010452Y037341D01*
X010499Y037387D01*
X010537Y037441D01*
X010567Y037499D01*
X010588Y037562D01*
X010598Y037627D01*
X010598Y037660D01*
X010180Y037660D01*
X010180Y037660D01*
X009762Y037660D01*
X009778Y037546D02*
X009189Y037546D01*
X009149Y037387D02*
X009861Y037387D01*
X009848Y037229D02*
X009087Y037229D01*
X008994Y037070D02*
X009812Y037070D01*
X009847Y036912D02*
X008868Y036912D01*
X008687Y036753D02*
X009935Y036753D01*
X009830Y036595D02*
X008896Y036595D01*
X009097Y036436D02*
X009812Y036436D01*
X009865Y036278D02*
X009240Y036278D01*
X009331Y036119D02*
X009891Y036119D01*
X009812Y035961D02*
X009399Y035961D01*
X009441Y035802D02*
X009817Y035802D01*
X009904Y035644D02*
X009460Y035644D01*
X009460Y035485D02*
X014900Y035485D01*
X014900Y035415D02*
X014982Y035109D01*
X015141Y034834D01*
X015365Y034609D01*
X015640Y034451D01*
X015946Y034369D01*
X018414Y034369D01*
X018720Y034451D01*
X018995Y034609D01*
X019219Y034834D01*
X019378Y035109D01*
X019460Y035415D01*
X019460Y035732D01*
X019378Y036039D01*
X019219Y036314D01*
X018995Y036538D01*
X018720Y036697D01*
X018636Y036719D01*
X018704Y036764D01*
X018799Y036843D01*
X018886Y036930D01*
X018964Y037025D01*
X019033Y037128D01*
X019091Y037236D01*
X019138Y037350D01*
X019174Y037468D01*
X019198Y037589D01*
X019208Y037694D01*
X016960Y037694D01*
X016960Y037854D01*
X016800Y037854D01*
X016800Y039029D01*
X015743Y039029D01*
X015621Y039017D01*
X015500Y038993D01*
X015382Y038957D01*
X015268Y038910D01*
X015159Y038851D01*
X015056Y038783D01*
X014961Y038705D01*
X014874Y038618D01*
X014796Y038522D01*
X014727Y038420D01*
X014669Y038311D01*
X014622Y038197D01*
X014586Y038079D01*
X014562Y037958D01*
X014552Y037854D01*
X016800Y037854D01*
X016800Y037694D01*
X014598Y037694D01*
X014588Y037757D01*
X014567Y037820D01*
X014537Y037878D01*
X014499Y037932D01*
X014452Y037978D01*
X014399Y038017D01*
X014340Y038047D01*
X014278Y038067D01*
X014213Y038077D01*
X014180Y038077D01*
X014180Y037660D01*
X014180Y038077D01*
X014147Y038077D01*
X014082Y038067D01*
X014020Y038047D01*
X013961Y038017D01*
X013908Y037978D01*
X013861Y037932D01*
X013823Y037878D01*
X013793Y037820D01*
X013772Y037757D01*
X013762Y037692D01*
X013762Y037660D01*
X014180Y037660D01*
X014180Y037660D01*
X014180Y037660D01*
X013762Y037660D01*
X013762Y037627D01*
X013772Y037562D01*
X013793Y037499D01*
X013823Y037441D01*
X013861Y037387D01*
X013908Y037341D01*
X013922Y037331D01*
X013868Y037277D01*
X013812Y037142D01*
X013812Y036996D01*
X013868Y036861D01*
X013955Y036774D01*
X013868Y036687D01*
X013812Y036552D01*
X013812Y036405D01*
X013868Y036270D01*
X013955Y036183D01*
X013868Y036096D01*
X013812Y035961D01*
X013812Y035815D01*
X013868Y035680D01*
X013972Y035576D01*
X014107Y035520D01*
X014253Y035520D01*
X014388Y035576D01*
X014492Y035680D01*
X014548Y035815D01*
X014548Y035961D01*
X014492Y036096D01*
X014405Y036183D01*
X014492Y036270D01*
X014548Y036405D01*
X014548Y036552D01*
X014492Y036687D01*
X014405Y036774D01*
X014492Y036861D01*
X014548Y036996D01*
X014548Y037142D01*
X014492Y037277D01*
X014438Y037331D01*
X014452Y037341D01*
X014499Y037387D01*
X014537Y037441D01*
X014567Y037499D01*
X014575Y037524D01*
X014586Y037468D01*
X014622Y037350D01*
X014669Y037236D01*
X014727Y037128D01*
X014796Y037025D01*
X014874Y036930D01*
X014961Y036843D01*
X015056Y036764D01*
X015159Y036696D01*
X015268Y036638D01*
X015382Y036591D01*
X015431Y036576D01*
X015365Y036538D01*
X015141Y036314D01*
X014982Y036039D01*
X014900Y035732D01*
X014900Y035415D01*
X014924Y035327D02*
X009436Y035327D01*
X009394Y035168D02*
X014966Y035168D01*
X015039Y035010D02*
X009321Y035010D01*
X009229Y034851D02*
X015131Y034851D01*
X015282Y034693D02*
X009078Y034693D01*
X008865Y034534D02*
X015495Y034534D01*
X015920Y034376D02*
X008440Y034376D01*
X010456Y035644D02*
X013904Y035644D01*
X013817Y035802D02*
X010543Y035802D01*
X010548Y035961D02*
X013812Y035961D01*
X013891Y036119D02*
X010469Y036119D01*
X010495Y036278D02*
X013865Y036278D01*
X013812Y036436D02*
X010548Y036436D01*
X010530Y036595D02*
X013830Y036595D01*
X013935Y036753D02*
X010425Y036753D01*
X010513Y036912D02*
X013847Y036912D01*
X013812Y037070D02*
X010548Y037070D01*
X010512Y037229D02*
X013848Y037229D01*
X013861Y037387D02*
X010499Y037387D01*
X010582Y037546D02*
X013778Y037546D01*
X013764Y037704D02*
X010596Y037704D01*
X010545Y037863D02*
X013815Y037863D01*
X013970Y038021D02*
X010390Y038021D01*
X010180Y038021D02*
X010180Y038021D01*
X010180Y037863D02*
X010180Y037863D01*
X010180Y037704D02*
X010180Y037704D01*
X009970Y038021D02*
X009185Y038021D01*
X009174Y038079D02*
X009138Y038197D01*
X009091Y038311D01*
X009033Y038420D01*
X008964Y038522D01*
X008886Y038618D01*
X008799Y038705D01*
X008704Y038783D01*
X008601Y038851D01*
X008492Y038910D01*
X008378Y038957D01*
X008260Y038993D01*
X008139Y039017D01*
X008017Y039029D01*
X006960Y039029D01*
X006960Y037854D01*
X009208Y037854D01*
X009198Y037958D01*
X009174Y038079D01*
X009143Y038180D02*
X014617Y038180D01*
X014575Y038021D02*
X014390Y038021D01*
X014180Y038021D02*
X014180Y038021D01*
X014180Y037863D02*
X014180Y037863D01*
X014180Y037704D02*
X014180Y037704D01*
X014545Y037863D02*
X014553Y037863D01*
X014596Y037704D02*
X016800Y037704D01*
X016800Y037863D02*
X016960Y037863D01*
X016960Y037854D02*
X016960Y039029D01*
X018017Y039029D01*
X018139Y039017D01*
X018260Y038993D01*
X018378Y038957D01*
X018492Y038910D01*
X018601Y038851D01*
X018704Y038783D01*
X018799Y038705D01*
X018886Y038618D01*
X018964Y038522D01*
X019033Y038420D01*
X019091Y038311D01*
X019138Y038197D01*
X019174Y038079D01*
X019198Y037958D01*
X019208Y037854D01*
X016960Y037854D01*
X016960Y037704D02*
X019869Y037704D01*
X019869Y037601D02*
X019869Y037946D01*
X019958Y038280D01*
X020131Y038579D01*
X020375Y038823D01*
X020674Y038995D01*
X021007Y039085D01*
X021353Y039085D01*
X021686Y038995D01*
X021985Y038823D01*
X022229Y038579D01*
X022402Y038280D01*
X022491Y037946D01*
X022491Y037601D01*
X022402Y037268D01*
X022229Y036969D01*
X021985Y036725D01*
X021686Y036552D01*
X021353Y036463D01*
X021007Y036463D01*
X020674Y036552D01*
X020375Y036725D01*
X020131Y036969D01*
X019958Y037268D01*
X019869Y037601D01*
X019884Y037546D02*
X019189Y037546D01*
X019149Y037387D02*
X019926Y037387D01*
X019981Y037229D02*
X019087Y037229D01*
X018994Y037070D02*
X020072Y037070D01*
X020188Y036912D02*
X018868Y036912D01*
X018687Y036753D02*
X020346Y036753D01*
X020600Y036595D02*
X018896Y036595D01*
X019097Y036436D02*
X023927Y036436D01*
X023980Y036426D02*
X024100Y036414D01*
X024100Y037694D01*
X022820Y037694D01*
X022832Y037574D01*
X022858Y037443D01*
X022897Y037315D01*
X022948Y037191D01*
X023011Y037073D01*
X023085Y036962D01*
X023170Y036859D01*
X023265Y036764D01*
X023368Y036679D01*
X023479Y036605D01*
X023597Y036542D01*
X023721Y036491D01*
X023849Y036452D01*
X023980Y036426D01*
X024100Y036436D02*
X024260Y036436D01*
X024260Y036414D02*
X024380Y036426D01*
X024511Y036452D01*
X024639Y036491D01*
X024763Y036542D01*
X024881Y036605D01*
X024992Y036679D01*
X025095Y036764D01*
X025190Y036859D01*
X025275Y036962D01*
X025349Y037073D01*
X025412Y037191D01*
X025463Y037315D01*
X025502Y037443D01*
X025528Y037574D01*
X025540Y037694D01*
X024260Y037694D01*
X024260Y037854D01*
X024100Y037854D01*
X024100Y037694D01*
X024260Y037694D01*
X024260Y036414D01*
X024433Y036436D02*
X049700Y036436D01*
X049700Y036278D02*
X019240Y036278D01*
X019331Y036119D02*
X049700Y036119D01*
X049700Y035961D02*
X019399Y035961D01*
X019441Y035802D02*
X049700Y035802D01*
X049700Y035644D02*
X019460Y035644D01*
X019460Y035485D02*
X049700Y035485D01*
X049700Y035327D02*
X019436Y035327D01*
X019394Y035168D02*
X049700Y035168D01*
X049700Y035010D02*
X019321Y035010D01*
X019229Y034851D02*
X049700Y034851D01*
X049700Y034693D02*
X019078Y034693D01*
X018865Y034534D02*
X049700Y034534D01*
X049700Y034376D02*
X018440Y034376D01*
X016008Y033589D02*
X016008Y033458D01*
X015958Y033338D01*
X015866Y033246D01*
X015745Y033196D01*
X015621Y033196D01*
X015120Y032695D01*
X015120Y030298D01*
X015208Y030210D01*
X015258Y030089D01*
X015258Y029958D01*
X015208Y029838D01*
X015116Y029746D01*
X014995Y029696D01*
X014865Y029696D01*
X014744Y029746D01*
X014652Y029838D01*
X014620Y029915D01*
X014620Y029298D01*
X014708Y029210D01*
X014758Y029089D01*
X014758Y028958D01*
X014708Y028838D01*
X014616Y028746D01*
X014495Y028696D01*
X014399Y028696D01*
X014941Y028154D01*
X015555Y028154D01*
X015787Y028058D01*
X015964Y027881D01*
X016060Y027649D01*
X016060Y027398D01*
X015964Y027167D01*
X015787Y026990D01*
X015555Y026894D01*
X014555Y026894D01*
X014323Y026990D01*
X014146Y027167D01*
X014146Y027167D01*
X014071Y027242D01*
X014107Y027155D01*
X014107Y026392D01*
X014042Y026235D01*
X013922Y026115D01*
X013765Y026050D01*
X013595Y026050D01*
X013438Y026115D01*
X013318Y026235D01*
X013253Y026392D01*
X013253Y027155D01*
X013318Y027312D01*
X013438Y027432D01*
X013595Y027497D01*
X013765Y027497D01*
X013851Y027462D01*
X011896Y029417D01*
X011800Y029648D01*
X011800Y032899D01*
X011896Y033131D01*
X012073Y033308D01*
X012305Y033404D01*
X012555Y033404D01*
X012787Y033308D01*
X012964Y033131D01*
X013060Y032899D01*
X013060Y030035D01*
X014102Y028993D01*
X014102Y029089D01*
X014152Y029210D01*
X014240Y029298D01*
X014240Y033750D01*
X014152Y033838D01*
X014102Y033958D01*
X014102Y034089D01*
X014152Y034210D01*
X014244Y034302D01*
X014365Y034352D01*
X014495Y034352D01*
X014616Y034302D01*
X014708Y034210D01*
X014758Y034089D01*
X014758Y033958D01*
X014708Y033838D01*
X014620Y033750D01*
X014620Y030133D01*
X014652Y030210D01*
X014740Y030298D01*
X014740Y032852D01*
X015352Y033464D01*
X015352Y033589D01*
X015402Y033710D01*
X015494Y033802D01*
X015615Y033852D01*
X015745Y033852D01*
X015866Y033802D01*
X015958Y033710D01*
X016008Y033589D01*
X016008Y033583D02*
X049700Y033583D01*
X049700Y033425D02*
X015994Y033425D01*
X015887Y033266D02*
X049700Y033266D01*
X049700Y033108D02*
X015533Y033108D01*
X015374Y032949D02*
X049700Y032949D01*
X049700Y032791D02*
X015216Y032791D01*
X015120Y032632D02*
X049700Y032632D01*
X049700Y032474D02*
X015120Y032474D01*
X015120Y032315D02*
X049700Y032315D01*
X049700Y032157D02*
X015120Y032157D01*
X015120Y031998D02*
X049700Y031998D01*
X049700Y031840D02*
X046181Y031840D01*
X046093Y031876D02*
X045842Y031876D01*
X045611Y031780D01*
X045433Y031603D01*
X045337Y031371D01*
X045337Y031121D01*
X045433Y030889D01*
X045611Y030712D01*
X045842Y030616D01*
X046093Y030616D01*
X046324Y030712D01*
X046501Y030889D01*
X049700Y030889D01*
X049700Y031047D02*
X046567Y031047D01*
X046597Y031121D02*
X046501Y030889D01*
X046342Y030730D02*
X049700Y030730D01*
X049700Y030572D02*
X026853Y030572D01*
X026849Y030555D02*
X026872Y030641D01*
X026883Y030724D01*
X026254Y030724D01*
X026254Y030824D01*
X026883Y030824D01*
X026872Y030907D01*
X026849Y030993D01*
X026815Y031075D01*
X026770Y031152D01*
X026716Y031223D01*
X026653Y031286D01*
X026582Y031340D01*
X026505Y031385D01*
X026423Y031419D01*
X026337Y031442D01*
X026254Y031453D01*
X026254Y030824D01*
X026154Y030824D01*
X026154Y031453D01*
X026071Y031442D01*
X025985Y031419D01*
X025902Y031385D01*
X025825Y031340D01*
X025754Y031286D01*
X025691Y031223D01*
X025637Y031152D01*
X025592Y031075D01*
X025558Y030993D01*
X025535Y030907D01*
X025524Y030824D01*
X026154Y030824D01*
X026154Y030724D01*
X026254Y030724D01*
X026254Y030094D01*
X026337Y030105D01*
X026423Y030128D01*
X026505Y030163D01*
X026582Y030207D01*
X026653Y030261D01*
X026716Y030324D01*
X026770Y030395D01*
X026815Y030472D01*
X026849Y030555D01*
X026781Y030413D02*
X034945Y030413D01*
X035055Y030459D02*
X034823Y030363D01*
X034646Y030186D01*
X034550Y029954D01*
X034550Y029704D01*
X034646Y029472D01*
X034823Y029295D01*
X035055Y029199D01*
X035305Y029199D01*
X035537Y029295D01*
X035714Y029472D01*
X035810Y029704D01*
X035810Y029954D01*
X035714Y030186D01*
X035537Y030363D01*
X035305Y030459D01*
X035055Y030459D01*
X035415Y030413D02*
X044945Y030413D01*
X045055Y030459D02*
X044823Y030363D01*
X044646Y030186D01*
X044550Y029954D01*
X044550Y029704D01*
X044646Y029472D01*
X044823Y029295D01*
X045055Y029199D01*
X045305Y029199D01*
X045537Y029295D01*
X045714Y029472D01*
X045810Y029704D01*
X045810Y029954D01*
X045714Y030186D01*
X045537Y030363D01*
X045305Y030459D01*
X045055Y030459D01*
X045415Y030413D02*
X049700Y030413D01*
X049700Y030255D02*
X045645Y030255D01*
X045751Y030096D02*
X049700Y030096D01*
X049700Y029938D02*
X045810Y029938D01*
X045810Y029779D02*
X049700Y029779D01*
X049700Y029621D02*
X045776Y029621D01*
X045704Y029462D02*
X049700Y029462D01*
X049700Y029304D02*
X045546Y029304D01*
X044814Y029304D02*
X035546Y029304D01*
X035704Y029462D02*
X044656Y029462D01*
X044584Y029621D02*
X035776Y029621D01*
X035810Y029779D02*
X044550Y029779D01*
X044550Y029938D02*
X035810Y029938D01*
X035751Y030096D02*
X044609Y030096D01*
X044715Y030255D02*
X035645Y030255D01*
X035842Y030616D02*
X036093Y030616D01*
X036324Y030712D01*
X036501Y030889D01*
X043859Y030889D01*
X044036Y030712D01*
X044267Y030616D01*
X044518Y030616D01*
X044749Y030712D01*
X044927Y030889D01*
X045023Y031121D01*
X045023Y031371D01*
X044927Y031603D01*
X044749Y031780D01*
X044518Y031876D01*
X044267Y031876D01*
X044036Y031780D01*
X043859Y031603D01*
X043763Y031371D01*
X043763Y031121D01*
X043859Y030889D01*
X043793Y031047D02*
X036567Y031047D01*
X036597Y031121D02*
X036501Y030889D01*
X036342Y030730D02*
X044018Y030730D01*
X043763Y031206D02*
X036597Y031206D01*
X036597Y031121D02*
X036597Y031371D01*
X036501Y031603D01*
X036324Y031780D01*
X036093Y031876D01*
X035842Y031876D01*
X035611Y031780D01*
X035433Y031603D01*
X035337Y031371D01*
X035337Y031121D01*
X035433Y030889D01*
X035611Y030712D01*
X035842Y030616D01*
X035592Y030730D02*
X034768Y030730D01*
X034749Y030712D02*
X034927Y030889D01*
X035023Y031121D01*
X035023Y031371D01*
X034927Y031603D01*
X034749Y031780D01*
X034518Y031876D01*
X034267Y031876D01*
X034036Y031780D01*
X033859Y031603D01*
X033763Y031371D01*
X033763Y031121D01*
X033859Y030889D01*
X026874Y030889D01*
X026826Y031047D02*
X033793Y031047D01*
X033763Y031206D02*
X026729Y031206D01*
X026541Y031364D02*
X033763Y031364D01*
X033825Y031523D02*
X015120Y031523D01*
X015120Y031681D02*
X033937Y031681D01*
X034179Y031840D02*
X015120Y031840D01*
X014740Y031840D02*
X014620Y031840D01*
X014620Y031998D02*
X014740Y031998D01*
X014740Y032157D02*
X014620Y032157D01*
X014620Y032315D02*
X014740Y032315D01*
X014740Y032474D02*
X014620Y032474D01*
X014620Y032632D02*
X014740Y032632D01*
X014740Y032791D02*
X014620Y032791D01*
X014620Y032949D02*
X014837Y032949D01*
X014995Y033108D02*
X014620Y033108D01*
X014620Y033266D02*
X015154Y033266D01*
X015312Y033425D02*
X014620Y033425D01*
X014620Y033583D02*
X015352Y033583D01*
X015434Y033742D02*
X014620Y033742D01*
X014734Y033900D02*
X049700Y033900D01*
X049700Y033742D02*
X015926Y033742D01*
X014758Y034059D02*
X049700Y034059D01*
X049700Y034217D02*
X014700Y034217D01*
X014160Y034217D02*
X000660Y034217D01*
X000660Y034059D02*
X014102Y034059D01*
X014126Y033900D02*
X000660Y033900D01*
X000660Y033742D02*
X014240Y033742D01*
X014240Y033583D02*
X000660Y033583D01*
X000660Y033425D02*
X014240Y033425D01*
X014240Y033266D02*
X012828Y033266D01*
X012974Y033108D02*
X014240Y033108D01*
X014240Y032949D02*
X013039Y032949D01*
X013060Y032791D02*
X014240Y032791D01*
X014240Y032632D02*
X013060Y032632D01*
X013060Y032474D02*
X014240Y032474D01*
X014240Y032315D02*
X013060Y032315D01*
X013060Y032157D02*
X014240Y032157D01*
X014240Y031998D02*
X013060Y031998D01*
X013060Y031840D02*
X014240Y031840D01*
X014240Y031681D02*
X013060Y031681D01*
X013060Y031523D02*
X014240Y031523D01*
X014240Y031364D02*
X013060Y031364D01*
X013060Y031206D02*
X014240Y031206D01*
X014240Y031047D02*
X013060Y031047D01*
X013060Y030889D02*
X014240Y030889D01*
X014240Y030730D02*
X013060Y030730D01*
X013060Y030572D02*
X014240Y030572D01*
X014240Y030413D02*
X013060Y030413D01*
X013060Y030255D02*
X014240Y030255D01*
X014240Y030096D02*
X013060Y030096D01*
X013157Y029938D02*
X014240Y029938D01*
X014240Y029779D02*
X013315Y029779D01*
X013474Y029621D02*
X014240Y029621D01*
X014240Y029462D02*
X013632Y029462D01*
X013791Y029304D02*
X014240Y029304D01*
X014125Y029145D02*
X013949Y029145D01*
X014425Y028670D02*
X049700Y028670D01*
X049700Y028828D02*
X014699Y028828D01*
X014758Y028987D02*
X049700Y028987D01*
X049700Y029145D02*
X014735Y029145D01*
X014620Y029304D02*
X034814Y029304D01*
X034656Y029462D02*
X014620Y029462D01*
X014620Y029621D02*
X034584Y029621D01*
X034550Y029779D02*
X015150Y029779D01*
X015250Y029938D02*
X034550Y029938D01*
X034609Y030096D02*
X026268Y030096D01*
X026254Y030096D02*
X026154Y030096D01*
X026154Y030094D02*
X026154Y030724D01*
X025524Y030724D01*
X025535Y030641D01*
X025558Y030555D01*
X025592Y030472D01*
X025637Y030395D01*
X025691Y030324D01*
X025754Y030261D01*
X025825Y030207D01*
X025902Y030163D01*
X025985Y030128D01*
X026071Y030105D01*
X026154Y030094D01*
X026140Y030096D02*
X015255Y030096D01*
X015163Y030255D02*
X023784Y030255D01*
X023800Y030240D02*
X024031Y030144D01*
X024282Y030144D01*
X024513Y030240D01*
X024690Y030417D01*
X024786Y030648D01*
X024786Y030899D01*
X024690Y031131D01*
X024513Y031308D01*
X024282Y031404D01*
X024031Y031404D01*
X023800Y031308D01*
X023622Y031131D01*
X023526Y030899D01*
X023526Y030648D01*
X023622Y030417D01*
X023800Y030240D01*
X023626Y030413D02*
X015120Y030413D01*
X015120Y030572D02*
X023558Y030572D01*
X023526Y030730D02*
X015120Y030730D01*
X015120Y030889D02*
X023526Y030889D01*
X023588Y031047D02*
X015120Y031047D01*
X015120Y031206D02*
X023697Y031206D01*
X023936Y031364D02*
X015120Y031364D01*
X014740Y031364D02*
X014620Y031364D01*
X014620Y031206D02*
X014740Y031206D01*
X014740Y031047D02*
X014620Y031047D01*
X014620Y030889D02*
X014740Y030889D01*
X014740Y030730D02*
X014620Y030730D01*
X014620Y030572D02*
X014740Y030572D01*
X014740Y030413D02*
X014620Y030413D01*
X014620Y030255D02*
X014697Y030255D01*
X014710Y029779D02*
X014620Y029779D01*
X014583Y028511D02*
X049700Y028511D01*
X049700Y028353D02*
X014742Y028353D01*
X014900Y028194D02*
X049700Y028194D01*
X049700Y028036D02*
X015809Y028036D01*
X015965Y027877D02*
X049700Y027877D01*
X049700Y027719D02*
X016031Y027719D01*
X016060Y027560D02*
X049700Y027560D01*
X049700Y027402D02*
X016060Y027402D01*
X015996Y027243D02*
X049700Y027243D01*
X049700Y027085D02*
X015882Y027085D01*
X015634Y026926D02*
X049700Y026926D01*
X049700Y026768D02*
X014107Y026768D01*
X014107Y026926D02*
X014476Y026926D01*
X014228Y027085D02*
X014107Y027085D01*
X013753Y027560D02*
X000660Y027560D01*
X000660Y027402D02*
X012337Y027402D01*
X012316Y027381D02*
X012272Y027320D01*
X012238Y027254D01*
X012215Y027182D01*
X012203Y027108D01*
X012203Y026792D01*
X012662Y026792D01*
X012662Y027547D01*
X012642Y027547D01*
X012568Y027536D01*
X012497Y027512D01*
X012430Y027478D01*
X012369Y027434D01*
X012316Y027381D01*
X012235Y027243D02*
X000660Y027243D01*
X000660Y027085D02*
X012203Y027085D01*
X012203Y026926D02*
X000660Y026926D01*
X000660Y026768D02*
X012662Y026768D01*
X012662Y026755D02*
X012203Y026755D01*
X012203Y026439D01*
X012215Y026365D01*
X012238Y026294D01*
X012272Y026227D01*
X012316Y026166D01*
X012369Y026113D01*
X012430Y026069D01*
X012497Y026035D01*
X012568Y026012D01*
X012642Y026000D01*
X012662Y026000D01*
X012662Y026755D01*
X012698Y026755D01*
X012698Y026000D01*
X012718Y026000D01*
X012792Y026012D01*
X012863Y026035D01*
X012930Y026069D01*
X012991Y026113D01*
X013044Y026166D01*
X013088Y026227D01*
X013122Y026294D01*
X013145Y026365D01*
X013157Y026439D01*
X013157Y026755D01*
X012698Y026755D01*
X012698Y026792D01*
X012662Y026792D01*
X012662Y026755D01*
X012698Y026768D02*
X013253Y026768D01*
X013157Y026792D02*
X013157Y027108D01*
X013145Y027182D01*
X013122Y027254D01*
X013088Y027320D01*
X013044Y027381D01*
X012991Y027434D01*
X012930Y027478D01*
X012863Y027512D01*
X012792Y027536D01*
X012718Y027547D01*
X012698Y027547D01*
X012698Y026792D01*
X013157Y026792D01*
X013157Y026926D02*
X013253Y026926D01*
X013253Y027085D02*
X013157Y027085D01*
X013125Y027243D02*
X013290Y027243D01*
X013408Y027402D02*
X013023Y027402D01*
X012698Y027402D02*
X012662Y027402D01*
X012662Y027243D02*
X012698Y027243D01*
X012698Y027085D02*
X012662Y027085D01*
X012662Y026926D02*
X012698Y026926D01*
X012698Y026609D02*
X012662Y026609D01*
X012662Y026451D02*
X012698Y026451D01*
X012698Y026292D02*
X012662Y026292D01*
X012662Y026134D02*
X012698Y026134D01*
X013011Y026134D02*
X013419Y026134D01*
X013294Y026292D02*
X013121Y026292D01*
X013157Y026451D02*
X013253Y026451D01*
X013253Y026609D02*
X013157Y026609D01*
X013941Y026134D02*
X049700Y026134D01*
X049700Y026292D02*
X014066Y026292D01*
X014107Y026451D02*
X049700Y026451D01*
X049700Y026609D02*
X014107Y026609D01*
X013594Y027719D02*
X000660Y027719D01*
X000660Y027877D02*
X013436Y027877D01*
X013277Y028036D02*
X000660Y028036D01*
X000660Y028194D02*
X013119Y028194D01*
X012960Y028353D02*
X000660Y028353D01*
X000660Y028511D02*
X012802Y028511D01*
X012643Y028670D02*
X000660Y028670D01*
X000660Y028828D02*
X012485Y028828D01*
X012326Y028987D02*
X000660Y028987D01*
X000660Y029145D02*
X012168Y029145D01*
X012009Y029304D02*
X000660Y029304D01*
X000660Y029462D02*
X011877Y029462D01*
X011811Y029621D02*
X000660Y029621D01*
X000660Y029779D02*
X011800Y029779D01*
X011800Y029938D02*
X000660Y029938D01*
X000660Y030096D02*
X011800Y030096D01*
X011800Y030255D02*
X000660Y030255D01*
X000660Y030413D02*
X011800Y030413D01*
X011800Y030572D02*
X000660Y030572D01*
X000660Y030730D02*
X011800Y030730D01*
X011800Y030889D02*
X000660Y030889D01*
X000660Y031047D02*
X011800Y031047D01*
X011800Y031206D02*
X000660Y031206D01*
X000660Y031364D02*
X011800Y031364D01*
X011800Y031523D02*
X000660Y031523D01*
X000660Y031681D02*
X011800Y031681D01*
X011800Y031840D02*
X000660Y031840D01*
X000660Y031998D02*
X011800Y031998D01*
X011800Y032157D02*
X000660Y032157D01*
X000660Y032315D02*
X011800Y032315D01*
X011800Y032474D02*
X000660Y032474D01*
X000660Y032632D02*
X011800Y032632D01*
X011800Y032791D02*
X000660Y032791D01*
X000660Y032949D02*
X011821Y032949D01*
X011886Y033108D02*
X000660Y033108D01*
X000660Y033266D02*
X012032Y033266D01*
X014620Y031681D02*
X014740Y031681D01*
X014740Y031523D02*
X014620Y031523D01*
X014456Y035644D02*
X014900Y035644D01*
X014919Y035802D02*
X014543Y035802D01*
X014548Y035961D02*
X014961Y035961D01*
X015029Y036119D02*
X014469Y036119D01*
X014495Y036278D02*
X015120Y036278D01*
X015263Y036436D02*
X014548Y036436D01*
X014530Y036595D02*
X015372Y036595D01*
X015073Y036753D02*
X014425Y036753D01*
X014513Y036912D02*
X014892Y036912D01*
X014766Y037070D02*
X014548Y037070D01*
X014512Y037229D02*
X014673Y037229D01*
X014611Y037387D02*
X014499Y037387D01*
X014684Y038338D02*
X009076Y038338D01*
X008981Y038497D02*
X014779Y038497D01*
X014912Y038655D02*
X008848Y038655D01*
X008657Y038814D02*
X015103Y038814D01*
X015433Y038972D02*
X008327Y038972D01*
X006960Y038972D02*
X006800Y038972D01*
X006800Y038814D02*
X006960Y038814D01*
X006960Y038655D02*
X006800Y038655D01*
X006800Y038497D02*
X006960Y038497D01*
X006960Y038338D02*
X006800Y038338D01*
X006800Y038180D02*
X006960Y038180D01*
X006960Y038021D02*
X006800Y038021D01*
X006800Y037863D02*
X006960Y037863D01*
X005372Y036595D02*
X000660Y036595D01*
X000660Y036753D02*
X005073Y036753D01*
X004892Y036912D02*
X000660Y036912D01*
X000660Y037070D02*
X002419Y037070D01*
X002030Y037229D02*
X000660Y037229D01*
X000660Y037387D02*
X001827Y037387D01*
X001680Y037546D02*
X000660Y037546D01*
X000660Y037704D02*
X001588Y037704D01*
X001517Y037863D02*
X000660Y037863D01*
X000660Y038021D02*
X001474Y038021D01*
X001450Y038180D02*
X000660Y038180D01*
X000660Y038338D02*
X001450Y038338D01*
X001466Y038497D02*
X000660Y038497D01*
X000660Y038655D02*
X001509Y038655D01*
X001572Y038814D02*
X000660Y038814D01*
X000660Y038972D02*
X001663Y038972D01*
X001798Y039131D02*
X000660Y039131D01*
X000660Y039289D02*
X001979Y039289D01*
X002309Y039448D02*
X000660Y039448D01*
X003051Y039448D02*
X047309Y039448D01*
X046979Y039289D02*
X003381Y039289D01*
X003680Y037546D02*
X004571Y037546D01*
X004611Y037387D02*
X003533Y037387D01*
X003330Y037229D02*
X004673Y037229D01*
X004766Y037070D02*
X002941Y037070D01*
X005029Y036119D02*
X000660Y036119D01*
X000660Y035961D02*
X004961Y035961D01*
X004919Y035802D02*
X000660Y035802D01*
X000660Y035644D02*
X004900Y035644D01*
X004900Y035485D02*
X000660Y035485D01*
X000660Y035327D02*
X004924Y035327D01*
X004966Y035168D02*
X000660Y035168D01*
X000660Y035010D02*
X005039Y035010D01*
X005131Y034851D02*
X000660Y034851D01*
X000660Y034693D02*
X005282Y034693D01*
X005495Y034534D02*
X000660Y034534D01*
X000660Y034376D02*
X005920Y034376D01*
X005120Y036278D02*
X000660Y036278D01*
X000660Y036436D02*
X005263Y036436D01*
X009207Y037863D02*
X009815Y037863D01*
X016800Y038021D02*
X016960Y038021D01*
X016960Y038180D02*
X016800Y038180D01*
X016800Y038338D02*
X016960Y038338D01*
X016960Y038497D02*
X016800Y038497D01*
X016800Y038655D02*
X016960Y038655D01*
X016960Y038814D02*
X016800Y038814D01*
X016800Y038972D02*
X016960Y038972D01*
X018327Y038972D02*
X020634Y038972D01*
X020366Y038814D02*
X018657Y038814D01*
X018848Y038655D02*
X020207Y038655D01*
X020084Y038497D02*
X018981Y038497D01*
X019076Y038338D02*
X019992Y038338D01*
X019931Y038180D02*
X019143Y038180D01*
X019185Y038021D02*
X019889Y038021D01*
X019869Y037863D02*
X019207Y037863D01*
X021726Y038972D02*
X023535Y038972D01*
X023302Y038814D02*
X021994Y038814D01*
X022153Y038655D02*
X023143Y038655D01*
X023026Y038497D02*
X022276Y038497D01*
X022368Y038338D02*
X022941Y038338D01*
X022881Y038180D02*
X022429Y038180D01*
X022471Y038021D02*
X022841Y038021D01*
X022821Y037863D02*
X022491Y037863D01*
X022491Y037704D02*
X024100Y037704D01*
X024100Y037546D02*
X024260Y037546D01*
X024260Y037704D02*
X026869Y037704D01*
X026869Y037601D02*
X026869Y037946D01*
X026958Y038280D01*
X027131Y038579D01*
X027375Y038823D01*
X027674Y038995D01*
X028007Y039085D01*
X028353Y039085D01*
X028686Y038995D01*
X028985Y038823D01*
X029229Y038579D01*
X029402Y038280D01*
X029491Y037946D01*
X029491Y037601D01*
X029402Y037268D01*
X029229Y036969D01*
X028985Y036725D01*
X028686Y036552D01*
X028353Y036463D01*
X028007Y036463D01*
X027674Y036552D01*
X027375Y036725D01*
X027131Y036969D01*
X026958Y037268D01*
X026869Y037601D01*
X026884Y037546D02*
X025522Y037546D01*
X025485Y037387D02*
X026926Y037387D01*
X026981Y037229D02*
X025428Y037229D01*
X025347Y037070D02*
X027072Y037070D01*
X027188Y036912D02*
X025233Y036912D01*
X025082Y036753D02*
X027346Y036753D01*
X027600Y036595D02*
X024862Y036595D01*
X024260Y036595D02*
X024100Y036595D01*
X024100Y036753D02*
X024260Y036753D01*
X024260Y036912D02*
X024100Y036912D01*
X024100Y037070D02*
X024260Y037070D01*
X024260Y037229D02*
X024100Y037229D01*
X024100Y037387D02*
X024260Y037387D01*
X024260Y037854D02*
X025540Y037854D01*
X025528Y037974D01*
X025502Y038105D01*
X025463Y038233D01*
X025412Y038356D01*
X025349Y038474D01*
X025275Y038585D01*
X025190Y038689D01*
X025095Y038783D01*
X024992Y038868D01*
X024881Y038943D01*
X024763Y039006D01*
X024639Y039057D01*
X024511Y039096D01*
X024380Y039122D01*
X024260Y039134D01*
X024260Y037854D01*
X024260Y037863D02*
X024100Y037863D01*
X024100Y038021D02*
X024260Y038021D01*
X024260Y038180D02*
X024100Y038180D01*
X024100Y038338D02*
X024260Y038338D01*
X024260Y038497D02*
X024100Y038497D01*
X024100Y038655D02*
X024260Y038655D01*
X024260Y038814D02*
X024100Y038814D01*
X024100Y038972D02*
X024260Y038972D01*
X024825Y038972D02*
X027634Y038972D01*
X027366Y038814D02*
X025058Y038814D01*
X025217Y038655D02*
X027207Y038655D01*
X027084Y038497D02*
X025334Y038497D01*
X025419Y038338D02*
X026992Y038338D01*
X026931Y038180D02*
X025479Y038180D01*
X025519Y038021D02*
X026889Y038021D01*
X026869Y037863D02*
X025539Y037863D01*
X023498Y036595D02*
X021760Y036595D01*
X022014Y036753D02*
X023278Y036753D01*
X023127Y036912D02*
X022172Y036912D01*
X022288Y037070D02*
X023013Y037070D01*
X022932Y037229D02*
X022379Y037229D01*
X022434Y037387D02*
X022875Y037387D01*
X022838Y037546D02*
X022476Y037546D01*
X028760Y036595D02*
X030600Y036595D01*
X030674Y036552D02*
X031007Y036463D01*
X031353Y036463D01*
X031686Y036552D01*
X031985Y036725D01*
X032229Y036969D01*
X032402Y037268D01*
X032491Y037601D01*
X032491Y037946D01*
X032402Y038280D01*
X032229Y038579D01*
X031985Y038823D01*
X031686Y038995D01*
X031353Y039085D01*
X031007Y039085D01*
X030674Y038995D01*
X030375Y038823D01*
X030131Y038579D01*
X029958Y038280D01*
X029869Y037946D01*
X029869Y037601D01*
X029958Y037268D01*
X030131Y036969D01*
X030375Y036725D01*
X030674Y036552D01*
X030346Y036753D02*
X029014Y036753D01*
X029172Y036912D02*
X030188Y036912D01*
X030072Y037070D02*
X029288Y037070D01*
X029379Y037229D02*
X029981Y037229D01*
X029926Y037387D02*
X029434Y037387D01*
X029476Y037546D02*
X029884Y037546D01*
X029869Y037704D02*
X029491Y037704D01*
X029491Y037863D02*
X029869Y037863D01*
X029889Y038021D02*
X029471Y038021D01*
X029429Y038180D02*
X029931Y038180D01*
X029992Y038338D02*
X029368Y038338D01*
X029276Y038497D02*
X030084Y038497D01*
X030207Y038655D02*
X029153Y038655D01*
X028994Y038814D02*
X030366Y038814D01*
X030634Y038972D02*
X028726Y038972D01*
X031726Y038972D02*
X033634Y038972D01*
X033674Y038995D02*
X033375Y038823D01*
X033131Y038579D01*
X032958Y038280D01*
X032869Y037946D01*
X032869Y037601D01*
X032958Y037268D01*
X033131Y036969D01*
X033375Y036725D01*
X033674Y036552D01*
X034007Y036463D01*
X034353Y036463D01*
X034686Y036552D01*
X034985Y036725D01*
X035229Y036969D01*
X035402Y037268D01*
X035491Y037601D01*
X035491Y037946D01*
X035402Y038280D01*
X035229Y038579D01*
X034985Y038823D01*
X034686Y038995D01*
X034353Y039085D01*
X034007Y039085D01*
X033674Y038995D01*
X033366Y038814D02*
X031994Y038814D01*
X032153Y038655D02*
X033207Y038655D01*
X033084Y038497D02*
X032276Y038497D01*
X032368Y038338D02*
X032992Y038338D01*
X032931Y038180D02*
X032429Y038180D01*
X032471Y038021D02*
X032889Y038021D01*
X032869Y037863D02*
X032491Y037863D01*
X032491Y037704D02*
X032869Y037704D01*
X032884Y037546D02*
X032476Y037546D01*
X032434Y037387D02*
X032926Y037387D01*
X032981Y037229D02*
X032379Y037229D01*
X032288Y037070D02*
X033072Y037070D01*
X033188Y036912D02*
X032172Y036912D01*
X032014Y036753D02*
X033346Y036753D01*
X033600Y036595D02*
X031760Y036595D01*
X034760Y036595D02*
X037600Y036595D01*
X037674Y036552D02*
X038007Y036463D01*
X038353Y036463D01*
X038686Y036552D01*
X038985Y036725D01*
X039229Y036969D01*
X039402Y037268D01*
X039491Y037601D01*
X039491Y037946D01*
X039402Y038280D01*
X039229Y038579D01*
X038985Y038823D01*
X038686Y038995D01*
X038353Y039085D01*
X038007Y039085D01*
X037674Y038995D01*
X037375Y038823D01*
X037131Y038579D01*
X036958Y038280D01*
X036869Y037946D01*
X036869Y037601D01*
X036958Y037268D01*
X037131Y036969D01*
X037375Y036725D01*
X037674Y036552D01*
X037346Y036753D02*
X035014Y036753D01*
X035172Y036912D02*
X037188Y036912D01*
X037072Y037070D02*
X035288Y037070D01*
X035379Y037229D02*
X036981Y037229D01*
X036926Y037387D02*
X035434Y037387D01*
X035476Y037546D02*
X036884Y037546D01*
X036869Y037704D02*
X035491Y037704D01*
X035491Y037863D02*
X036869Y037863D01*
X036889Y038021D02*
X035471Y038021D01*
X035429Y038180D02*
X036931Y038180D01*
X036992Y038338D02*
X035368Y038338D01*
X035276Y038497D02*
X037084Y038497D01*
X037207Y038655D02*
X035153Y038655D01*
X034994Y038814D02*
X037366Y038814D01*
X037634Y038972D02*
X034726Y038972D01*
X038726Y038972D02*
X040634Y038972D01*
X040674Y038995D02*
X040375Y038823D01*
X040131Y038579D01*
X039958Y038280D01*
X039869Y037946D01*
X039869Y037601D01*
X039958Y037268D01*
X040131Y036969D01*
X040375Y036725D01*
X040674Y036552D01*
X041007Y036463D01*
X041353Y036463D01*
X041686Y036552D01*
X041985Y036725D01*
X042229Y036969D01*
X042402Y037268D01*
X042491Y037601D01*
X042491Y037946D01*
X042402Y038280D01*
X042229Y038579D01*
X041985Y038823D01*
X041686Y038995D01*
X041353Y039085D01*
X041007Y039085D01*
X040674Y038995D01*
X040366Y038814D02*
X038994Y038814D01*
X039153Y038655D02*
X040207Y038655D01*
X040084Y038497D02*
X039276Y038497D01*
X039368Y038338D02*
X039992Y038338D01*
X039931Y038180D02*
X039429Y038180D01*
X039471Y038021D02*
X039889Y038021D01*
X039869Y037863D02*
X039491Y037863D01*
X039491Y037704D02*
X039869Y037704D01*
X039884Y037546D02*
X039476Y037546D01*
X039434Y037387D02*
X039926Y037387D01*
X039981Y037229D02*
X039379Y037229D01*
X039288Y037070D02*
X040072Y037070D01*
X040188Y036912D02*
X039172Y036912D01*
X039014Y036753D02*
X040346Y036753D01*
X040600Y036595D02*
X038760Y036595D01*
X041760Y036595D02*
X043600Y036595D01*
X043346Y036753D02*
X042014Y036753D01*
X042172Y036912D02*
X043188Y036912D01*
X043072Y037070D02*
X042288Y037070D01*
X042379Y037229D02*
X042981Y037229D01*
X042926Y037387D02*
X042434Y037387D01*
X042476Y037546D02*
X042884Y037546D01*
X042869Y037704D02*
X042491Y037704D01*
X042491Y037863D02*
X042869Y037863D01*
X042889Y038021D02*
X042471Y038021D01*
X042429Y038180D02*
X042931Y038180D01*
X042992Y038338D02*
X042368Y038338D01*
X042276Y038497D02*
X043084Y038497D01*
X043207Y038655D02*
X042153Y038655D01*
X041994Y038814D02*
X043366Y038814D01*
X043634Y038972D02*
X041726Y038972D01*
X044760Y036595D02*
X049700Y036595D01*
X049700Y036753D02*
X045014Y036753D01*
X044606Y031840D02*
X045754Y031840D01*
X045512Y031681D02*
X044848Y031681D01*
X044960Y031523D02*
X045400Y031523D01*
X045337Y031364D02*
X045023Y031364D01*
X045023Y031206D02*
X045337Y031206D01*
X045368Y031047D02*
X044992Y031047D01*
X044926Y030889D02*
X045434Y030889D01*
X045592Y030730D02*
X044768Y030730D01*
X043763Y031364D02*
X036597Y031364D01*
X036535Y031523D02*
X043825Y031523D01*
X043937Y031681D02*
X036423Y031681D01*
X036181Y031840D02*
X044179Y031840D01*
X046093Y031876D02*
X046324Y031780D01*
X046501Y031603D01*
X046597Y031371D01*
X046597Y031121D01*
X046597Y031206D02*
X049700Y031206D01*
X049700Y031364D02*
X046597Y031364D01*
X046535Y031523D02*
X049700Y031523D01*
X049700Y031681D02*
X046423Y031681D01*
X049700Y025975D02*
X000660Y025975D01*
X000660Y025817D02*
X049700Y025817D01*
X049700Y025658D02*
X018772Y025658D01*
X018721Y025709D02*
X018532Y025788D01*
X018328Y025788D01*
X018139Y025709D01*
X018083Y025654D01*
X005527Y025654D01*
X005471Y025709D01*
X005282Y025788D01*
X005078Y025788D01*
X004889Y025709D01*
X004744Y025565D01*
X004666Y025376D01*
X004666Y025171D01*
X004744Y024983D01*
X004889Y024838D01*
X005078Y024760D01*
X005282Y024760D01*
X005471Y024838D01*
X005527Y024894D01*
X018083Y024894D01*
X018139Y024838D01*
X018328Y024760D01*
X018532Y024760D01*
X018721Y024838D01*
X018866Y024983D01*
X018944Y025171D01*
X018944Y025376D01*
X018866Y025565D01*
X018721Y025709D01*
X018893Y025500D02*
X049700Y025500D01*
X049700Y025341D02*
X018944Y025341D01*
X018944Y025183D02*
X049700Y025183D01*
X049700Y025024D02*
X041893Y025024D01*
X041866Y025052D02*
X041745Y025102D01*
X041615Y025102D01*
X041494Y025052D01*
X041402Y024960D01*
X041352Y024839D01*
X041352Y024708D01*
X041402Y024588D01*
X041494Y024496D01*
X041615Y024446D01*
X041739Y024446D01*
X041740Y024445D01*
X041740Y023195D01*
X041851Y023084D01*
X042601Y022334D01*
X047406Y022334D01*
X047494Y022246D01*
X047615Y022196D01*
X047745Y022196D01*
X047866Y022246D01*
X047958Y022338D01*
X048008Y022458D01*
X048008Y022589D01*
X047958Y022710D01*
X047866Y022802D01*
X047745Y022852D01*
X047615Y022852D01*
X047494Y022802D01*
X047406Y022714D01*
X042759Y022714D01*
X042120Y023352D01*
X042120Y024602D01*
X042008Y024714D01*
X042008Y024839D01*
X041958Y024960D01*
X041866Y025052D01*
X041997Y024866D02*
X049700Y024866D01*
X049700Y024707D02*
X042015Y024707D01*
X042120Y024549D02*
X049700Y024549D01*
X049700Y024390D02*
X042120Y024390D01*
X042120Y024232D02*
X049700Y024232D01*
X049700Y024073D02*
X042120Y024073D01*
X042120Y023915D02*
X049700Y023915D01*
X049700Y023756D02*
X042120Y023756D01*
X042120Y023598D02*
X049700Y023598D01*
X049700Y023439D02*
X042120Y023439D01*
X042192Y023281D02*
X049700Y023281D01*
X049700Y023122D02*
X042350Y023122D01*
X042509Y022964D02*
X049700Y022964D01*
X049700Y022805D02*
X048858Y022805D01*
X048866Y022802D02*
X048745Y022852D01*
X048615Y022852D01*
X048494Y022802D01*
X048402Y022710D01*
X048352Y022589D01*
X048352Y022464D01*
X046851Y020964D01*
X046397Y020964D01*
X046375Y021017D01*
X046254Y021138D01*
X046096Y021204D01*
X045924Y021204D01*
X045907Y021196D01*
X045960Y021249D01*
X046025Y021407D01*
X046025Y021578D01*
X045960Y021736D01*
X045839Y021857D01*
X045681Y021923D01*
X045509Y021923D01*
X045351Y021857D01*
X045230Y021736D01*
X045180Y021614D01*
X045130Y021736D01*
X045009Y021857D01*
X044851Y021923D01*
X044679Y021923D01*
X044521Y021857D01*
X044400Y021736D01*
X044335Y021578D01*
X044335Y021407D01*
X044400Y021249D01*
X044453Y021196D01*
X044436Y021204D01*
X044264Y021204D01*
X044106Y021138D01*
X043985Y021017D01*
X043920Y020859D01*
X043920Y020688D01*
X043985Y020530D01*
X044106Y020409D01*
X044264Y020344D01*
X044436Y020344D01*
X044453Y020351D01*
X044400Y020298D01*
X044335Y020140D01*
X044335Y019969D01*
X044400Y019811D01*
X044521Y019690D01*
X044679Y019625D01*
X044851Y019625D01*
X045009Y019690D01*
X045130Y019811D01*
X045180Y019933D01*
X045230Y019811D01*
X045351Y019690D01*
X045509Y019625D01*
X045681Y019625D01*
X045839Y019690D01*
X045960Y019811D01*
X046025Y019969D01*
X046025Y020140D01*
X045960Y020298D01*
X045907Y020351D01*
X045924Y020344D01*
X046096Y020344D01*
X046254Y020409D01*
X046375Y020530D01*
X046397Y020584D01*
X047009Y020584D01*
X047120Y020695D01*
X048621Y022196D01*
X048745Y022196D01*
X048866Y022246D01*
X048958Y022338D01*
X049008Y022458D01*
X049008Y022589D01*
X048958Y022710D01*
X048866Y022802D01*
X048984Y022647D02*
X049700Y022647D01*
X049700Y022488D02*
X049008Y022488D01*
X048950Y022330D02*
X049700Y022330D01*
X049700Y022171D02*
X048596Y022171D01*
X048438Y022013D02*
X049700Y022013D01*
X049700Y021854D02*
X048279Y021854D01*
X048121Y021696D02*
X049700Y021696D01*
X049700Y021537D02*
X047962Y021537D01*
X047804Y021379D02*
X049700Y021379D01*
X049700Y021220D02*
X047645Y021220D01*
X047487Y021062D02*
X048018Y021062D01*
X047879Y020903D02*
X047328Y020903D01*
X047170Y020745D02*
X047852Y020745D01*
X047890Y020586D02*
X047011Y020586D01*
X046949Y021062D02*
X046330Y021062D01*
X045931Y021220D02*
X047108Y021220D01*
X047266Y021379D02*
X046013Y021379D01*
X046025Y021537D02*
X047425Y021537D01*
X047583Y021696D02*
X045976Y021696D01*
X045842Y021854D02*
X047742Y021854D01*
X047900Y022013D02*
X040438Y022013D01*
X040596Y022171D02*
X048059Y022171D01*
X047950Y022330D02*
X048217Y022330D01*
X048352Y022488D02*
X048008Y022488D01*
X047984Y022647D02*
X048376Y022647D01*
X048502Y022805D02*
X047858Y022805D01*
X047502Y022805D02*
X042667Y022805D01*
X042447Y022488D02*
X041008Y022488D01*
X041008Y022458D02*
X041008Y022589D01*
X040958Y022710D01*
X040866Y022802D01*
X040745Y022852D01*
X040615Y022852D01*
X040494Y022802D01*
X040402Y022710D01*
X040352Y022589D01*
X040352Y022464D01*
X038851Y020964D01*
X038397Y020964D01*
X038375Y021017D01*
X038254Y021138D01*
X038096Y021204D01*
X037924Y021204D01*
X037907Y021196D01*
X037960Y021249D01*
X038025Y021407D01*
X038025Y021578D01*
X037960Y021736D01*
X037839Y021857D01*
X037681Y021923D01*
X037509Y021923D01*
X037351Y021857D01*
X037230Y021736D01*
X037180Y021614D01*
X037130Y021736D01*
X037009Y021857D01*
X036851Y021923D01*
X036679Y021923D01*
X036521Y021857D01*
X036400Y021736D01*
X036335Y021578D01*
X036335Y021407D01*
X036400Y021249D01*
X036453Y021196D01*
X036436Y021204D01*
X036264Y021204D01*
X036106Y021138D01*
X035985Y021017D01*
X035920Y020859D01*
X035920Y020688D01*
X035985Y020530D01*
X036106Y020409D01*
X036264Y020344D01*
X036436Y020344D01*
X036453Y020351D01*
X036400Y020298D01*
X036335Y020140D01*
X036335Y019969D01*
X036400Y019811D01*
X036521Y019690D01*
X036679Y019625D01*
X036851Y019625D01*
X037009Y019690D01*
X037130Y019811D01*
X037180Y019933D01*
X037230Y019811D01*
X037351Y019690D01*
X037509Y019625D01*
X037681Y019625D01*
X037839Y019690D01*
X037960Y019811D01*
X038025Y019969D01*
X038025Y020140D01*
X037960Y020298D01*
X037907Y020351D01*
X037924Y020344D01*
X038096Y020344D01*
X038254Y020409D01*
X038375Y020530D01*
X038397Y020584D01*
X039009Y020584D01*
X039120Y020695D01*
X040621Y022196D01*
X040745Y022196D01*
X040866Y022246D01*
X040958Y022338D01*
X041008Y022458D01*
X040950Y022330D02*
X047410Y022330D01*
X048342Y021062D02*
X049700Y021062D01*
X049700Y020903D02*
X048481Y020903D01*
X048508Y020745D02*
X049700Y020745D01*
X049700Y020586D02*
X048470Y020586D01*
X048470Y020428D02*
X049700Y020428D01*
X049700Y020269D02*
X048470Y020269D01*
X048470Y020111D02*
X049700Y020111D01*
X049700Y019952D02*
X048470Y019952D01*
X048470Y019794D02*
X049700Y019794D01*
X049700Y019635D02*
X048470Y019635D01*
X048470Y019477D02*
X049700Y019477D01*
X049700Y019318D02*
X048470Y019318D01*
X048470Y019160D02*
X049700Y019160D01*
X049700Y019001D02*
X048470Y019001D01*
X048470Y018843D02*
X049700Y018843D01*
X049700Y018684D02*
X048470Y018684D01*
X048470Y018526D02*
X049700Y018526D01*
X049700Y018367D02*
X048429Y018367D01*
X048275Y018209D02*
X049700Y018209D01*
X049700Y018050D02*
X048117Y018050D01*
X047958Y017892D02*
X049700Y017892D01*
X049700Y017733D02*
X047967Y017733D01*
X048179Y017575D02*
X049700Y017575D01*
X049700Y017416D02*
X048390Y017416D01*
X048601Y017258D02*
X049700Y017258D01*
X049700Y017099D02*
X048813Y017099D01*
X049024Y016941D02*
X049700Y016941D01*
X049700Y016782D02*
X049235Y016782D01*
X049447Y016624D02*
X049700Y016624D01*
X049700Y015990D02*
X049602Y015990D01*
X049700Y015831D02*
X045756Y015831D01*
X045871Y015946D02*
X045995Y015946D01*
X046116Y015996D01*
X046208Y016088D01*
X046258Y016208D01*
X046258Y016339D01*
X046208Y016460D01*
X046116Y016552D01*
X045995Y016602D01*
X045865Y016602D01*
X045744Y016552D01*
X045680Y016488D01*
X045616Y016552D01*
X045495Y016602D01*
X045365Y016602D01*
X045244Y016552D01*
X045152Y016460D01*
X045102Y016339D01*
X045102Y016214D01*
X043851Y014964D01*
X037639Y014964D01*
X037871Y015196D01*
X037995Y015196D01*
X038116Y015246D01*
X038208Y015338D01*
X038258Y015458D01*
X038258Y015589D01*
X038208Y015710D01*
X038116Y015802D01*
X037995Y015852D01*
X037865Y015852D01*
X037744Y015802D01*
X037680Y015738D01*
X037616Y015802D01*
X037495Y015852D01*
X037365Y015852D01*
X037244Y015802D01*
X037152Y015710D01*
X037102Y015589D01*
X037102Y015464D01*
X037101Y015464D01*
X032351Y015464D01*
X032240Y015352D01*
X030601Y013714D01*
X029639Y013714D01*
X030120Y014195D01*
X030120Y015250D01*
X030208Y015338D01*
X030258Y015458D01*
X030258Y015589D01*
X030208Y015710D01*
X030116Y015802D01*
X029995Y015852D01*
X029865Y015852D01*
X029744Y015802D01*
X029652Y015710D01*
X029602Y015589D01*
X029602Y015558D01*
X029495Y015602D01*
X029365Y015602D01*
X029244Y015552D01*
X029152Y015460D01*
X029102Y015339D01*
X029102Y015208D01*
X029152Y015088D01*
X029244Y014996D01*
X029365Y014946D01*
X029489Y014946D01*
X029490Y014945D01*
X029490Y014352D01*
X029351Y014214D01*
X024851Y014214D01*
X022240Y011602D01*
X022240Y010602D01*
X020870Y009232D01*
X020870Y010102D01*
X019883Y011089D01*
X019883Y011214D01*
X019833Y011335D01*
X019741Y011427D01*
X019620Y011477D01*
X019490Y011477D01*
X019369Y011427D01*
X019277Y011335D01*
X019227Y011214D01*
X019227Y011083D01*
X019277Y010963D01*
X019369Y010871D01*
X019490Y010821D01*
X019614Y010821D01*
X020490Y009945D01*
X020490Y008695D01*
X020601Y008584D01*
X021226Y007959D01*
X021634Y007959D01*
X021745Y008070D01*
X021995Y008320D01*
X021995Y009320D01*
X022759Y010084D01*
X023601Y010084D01*
X023852Y009833D01*
X023852Y009708D01*
X023902Y009588D01*
X023994Y009496D01*
X024115Y009446D01*
X024245Y009446D01*
X024366Y009496D01*
X024458Y009588D01*
X024508Y009708D01*
X024508Y009839D01*
X024458Y009960D01*
X024366Y010052D01*
X024245Y010102D01*
X024121Y010102D01*
X023870Y010352D01*
X023759Y010464D01*
X022870Y010464D01*
X022870Y011445D01*
X022990Y011565D01*
X022990Y011520D01*
X022919Y011448D01*
X022872Y011335D01*
X022872Y011212D01*
X022919Y011099D01*
X023005Y011012D01*
X023119Y010965D01*
X023241Y010965D01*
X023355Y011012D01*
X023430Y011088D01*
X023505Y011012D01*
X023619Y010965D01*
X023741Y010965D01*
X023855Y011012D01*
X023930Y011088D01*
X024005Y011012D01*
X024119Y010965D01*
X024241Y010965D01*
X024355Y011012D01*
X024430Y011088D01*
X024505Y011012D01*
X024619Y010965D01*
X024741Y010965D01*
X024855Y011012D01*
X024941Y011099D01*
X024988Y011212D01*
X024988Y011335D01*
X024941Y011448D01*
X024870Y011520D01*
X024870Y012445D01*
X025009Y012584D01*
X025971Y012584D01*
X025351Y011964D01*
X025240Y011852D01*
X025240Y006445D01*
X026102Y005583D01*
X026102Y005458D01*
X026152Y005338D01*
X026244Y005246D01*
X026365Y005196D01*
X026495Y005196D01*
X026616Y005246D01*
X026708Y005338D01*
X026758Y005458D01*
X026758Y005589D01*
X026708Y005710D01*
X026644Y005774D01*
X026680Y005810D01*
X026744Y005746D01*
X026865Y005696D01*
X026995Y005696D01*
X027116Y005746D01*
X027208Y005838D01*
X027258Y005958D01*
X027258Y006089D01*
X027208Y006210D01*
X027116Y006302D01*
X026995Y006352D01*
X026871Y006352D01*
X026120Y007102D01*
X026120Y009665D01*
X026152Y009588D01*
X026244Y009496D01*
X026365Y009446D01*
X026495Y009446D01*
X026616Y009496D01*
X026704Y009584D01*
X029851Y009584D01*
X029852Y009583D01*
X029852Y009458D01*
X029902Y009338D01*
X029994Y009246D01*
X030115Y009196D01*
X030245Y009196D01*
X030366Y009246D01*
X030458Y009338D01*
X030508Y009458D01*
X030508Y009589D01*
X030458Y009710D01*
X030366Y009802D01*
X030245Y009852D01*
X030121Y009852D01*
X030009Y009964D01*
X026704Y009964D01*
X026616Y010052D01*
X026495Y010102D01*
X026365Y010102D01*
X026244Y010052D01*
X026152Y009960D01*
X026120Y009883D01*
X026120Y011695D01*
X026259Y011834D01*
X026446Y011834D01*
X026369Y011802D01*
X026277Y011710D01*
X026227Y011589D01*
X026227Y011458D01*
X026277Y011338D01*
X026369Y011246D01*
X026490Y011196D01*
X026620Y011196D01*
X026741Y011246D01*
X026833Y011338D01*
X026883Y011458D01*
X026883Y011459D01*
X026976Y011459D01*
X027740Y010695D01*
X027851Y010584D01*
X029759Y010584D01*
X030259Y011084D01*
X033351Y011084D01*
X035740Y008695D01*
X035740Y007945D01*
X036740Y006945D01*
X036851Y006834D01*
X037156Y006834D01*
X037244Y006746D01*
X037365Y006696D01*
X037495Y006696D01*
X037616Y006746D01*
X037708Y006838D01*
X037758Y006958D01*
X037758Y007089D01*
X037708Y007210D01*
X037616Y007302D01*
X037495Y007352D01*
X037365Y007352D01*
X037244Y007302D01*
X037156Y007214D01*
X037009Y007214D01*
X036768Y007455D01*
X036866Y007496D01*
X036958Y007588D01*
X037008Y007708D01*
X037008Y007839D01*
X036958Y007960D01*
X036894Y008024D01*
X036958Y008088D01*
X036999Y008186D01*
X037189Y007996D01*
X037152Y007960D01*
X037102Y007839D01*
X037102Y007708D01*
X037152Y007588D01*
X037244Y007496D01*
X037365Y007446D01*
X037495Y007446D01*
X037616Y007496D01*
X037708Y007588D01*
X037758Y007708D01*
X037758Y007839D01*
X037708Y007960D01*
X037620Y008048D01*
X037620Y008102D01*
X037509Y008214D01*
X036518Y009205D01*
X036616Y009246D01*
X036708Y009338D01*
X036758Y009458D01*
X036758Y009589D01*
X036708Y009710D01*
X036616Y009802D01*
X036495Y009852D01*
X036365Y009852D01*
X036244Y009802D01*
X036207Y009765D01*
X032509Y013464D01*
X032143Y013464D01*
X032091Y013515D01*
X031987Y013559D01*
X031984Y013559D01*
X032509Y014084D01*
X033851Y014084D01*
X033852Y014083D01*
X033852Y013958D01*
X033902Y013838D01*
X033994Y013746D01*
X034115Y013696D01*
X034245Y013696D01*
X034366Y013746D01*
X034458Y013838D01*
X034508Y013958D01*
X034508Y014089D01*
X034458Y014210D01*
X034366Y014302D01*
X034289Y014334D01*
X044259Y014334D01*
X044370Y014445D01*
X045871Y015946D01*
X046102Y015990D02*
X049258Y015990D01*
X049114Y016148D02*
X046233Y016148D01*
X046258Y016307D02*
X048903Y016307D01*
X048691Y016465D02*
X046202Y016465D01*
X045598Y015673D02*
X049700Y015673D01*
X049700Y015514D02*
X045439Y015514D01*
X045281Y015356D02*
X049700Y015356D01*
X049700Y015197D02*
X045122Y015197D01*
X044964Y015039D02*
X049700Y015039D01*
X049700Y014880D02*
X044805Y014880D01*
X044647Y014722D02*
X049700Y014722D01*
X049700Y014563D02*
X044488Y014563D01*
X044370Y014445D02*
X044370Y014445D01*
X044330Y014405D02*
X049700Y014405D01*
X049700Y014246D02*
X039361Y014246D01*
X039341Y014265D02*
X039237Y014309D01*
X039123Y014309D01*
X039019Y014265D01*
X038938Y014185D01*
X038895Y014080D01*
X038895Y014007D01*
X038601Y013714D01*
X038490Y013602D01*
X038490Y011482D01*
X038465Y011507D01*
X038465Y011580D01*
X038422Y011685D01*
X038341Y011765D01*
X038237Y011809D01*
X038123Y011809D01*
X038019Y011765D01*
X037938Y011685D01*
X037895Y011580D01*
X037895Y011467D01*
X037938Y011362D01*
X038019Y011282D01*
X038123Y011239D01*
X038196Y011239D01*
X038240Y011195D01*
X038240Y011102D01*
X037351Y010214D01*
X037240Y010102D01*
X037240Y009852D01*
X037239Y009852D01*
X037115Y009852D01*
X036994Y009802D01*
X036902Y009710D01*
X036852Y009589D01*
X036852Y009458D01*
X036902Y009338D01*
X036994Y009246D01*
X037115Y009196D01*
X037245Y009196D01*
X037366Y009246D01*
X037458Y009338D01*
X037490Y009415D01*
X037490Y008798D01*
X037402Y008710D01*
X037352Y008589D01*
X037352Y008458D01*
X037402Y008338D01*
X037494Y008246D01*
X037615Y008196D01*
X037745Y008196D01*
X037866Y008246D01*
X037958Y008338D01*
X038008Y008458D01*
X038008Y008589D01*
X037958Y008710D01*
X037870Y008798D01*
X037870Y009415D01*
X037902Y009338D01*
X037994Y009246D01*
X038115Y009196D01*
X038245Y009196D01*
X038366Y009246D01*
X038458Y009338D01*
X038508Y009458D01*
X038508Y009589D01*
X038458Y009710D01*
X038366Y009802D01*
X038245Y009852D01*
X038121Y009852D01*
X038120Y009852D01*
X038120Y009945D01*
X039120Y010945D01*
X039120Y013195D01*
X039164Y013239D01*
X039237Y013239D01*
X039341Y013282D01*
X039422Y013362D01*
X039465Y013467D01*
X039465Y013580D01*
X039422Y013685D01*
X039341Y013765D01*
X039321Y013774D01*
X039341Y013782D01*
X039422Y013862D01*
X039465Y013967D01*
X039465Y014080D01*
X039422Y014185D01*
X039341Y014265D01*
X039462Y014088D02*
X049700Y014088D01*
X049700Y013929D02*
X039449Y013929D01*
X039328Y013771D02*
X049700Y013771D01*
X049700Y013612D02*
X039452Y013612D01*
X039459Y013454D02*
X049700Y013454D01*
X049700Y013295D02*
X039355Y013295D01*
X039120Y013137D02*
X049700Y013137D01*
X049700Y012978D02*
X039120Y012978D01*
X039120Y012820D02*
X049700Y012820D01*
X049700Y012661D02*
X039120Y012661D01*
X039120Y012503D02*
X049700Y012503D01*
X049700Y012344D02*
X039120Y012344D01*
X039120Y012186D02*
X049700Y012186D01*
X049700Y012027D02*
X042390Y012027D01*
X042366Y012052D02*
X042245Y012102D01*
X042115Y012102D01*
X042023Y012064D01*
X040372Y012064D01*
X040266Y012020D01*
X039766Y011520D01*
X039684Y011438D01*
X039640Y011331D01*
X039640Y004885D01*
X038110Y003185D01*
X038110Y003628D01*
X038034Y003704D01*
X037519Y003704D01*
X037370Y003852D01*
X037259Y003964D01*
X036259Y003964D01*
X036120Y004102D01*
X038936Y004102D01*
X039078Y004261D02*
X036120Y004261D01*
X036120Y004419D02*
X039221Y004419D01*
X039363Y004578D02*
X036120Y004578D01*
X036120Y004736D02*
X039506Y004736D01*
X039640Y004895D02*
X036078Y004895D01*
X036120Y004852D02*
X033259Y007714D01*
X030009Y007714D01*
X029758Y007964D01*
X029758Y008089D01*
X029708Y008210D01*
X029644Y008274D01*
X029708Y008338D01*
X029758Y008458D01*
X029758Y008589D01*
X029708Y008710D01*
X029616Y008802D01*
X029495Y008852D01*
X029365Y008852D01*
X029244Y008802D01*
X029156Y008714D01*
X029101Y008714D01*
X028990Y008602D01*
X028740Y008352D01*
X028740Y007945D01*
X028851Y007834D01*
X028851Y007834D01*
X029342Y007343D01*
X029244Y007302D01*
X029152Y007210D01*
X029102Y007089D01*
X029102Y006958D01*
X029152Y006838D01*
X029244Y006746D01*
X029365Y006696D01*
X029405Y006696D01*
X029432Y006668D01*
X029524Y006630D01*
X032970Y006630D01*
X034930Y004670D01*
X034930Y002974D01*
X034968Y002882D01*
X035038Y002812D01*
X035288Y002562D01*
X035289Y002562D01*
X035200Y002473D01*
X035200Y002294D01*
X035660Y002294D01*
X035660Y002254D01*
X035200Y002254D01*
X035200Y002075D01*
X035481Y001794D01*
X035660Y001794D01*
X035660Y002254D01*
X035700Y002254D01*
X035700Y002294D01*
X036160Y002294D01*
X036160Y002473D01*
X036109Y002524D01*
X036322Y002524D01*
X036250Y002452D01*
X036250Y002096D01*
X036502Y001844D01*
X036858Y001844D01*
X037110Y002096D01*
X037110Y002452D01*
X037038Y002524D01*
X037076Y002524D01*
X037250Y002350D01*
X037250Y002096D01*
X037502Y001844D01*
X037858Y001844D01*
X038110Y002096D01*
X038110Y002318D01*
X040140Y004574D01*
X040176Y004609D01*
X040179Y004617D01*
X040184Y004623D01*
X040201Y004670D01*
X040220Y004716D01*
X040220Y004724D01*
X040223Y004731D01*
X040220Y004781D01*
X040220Y011154D01*
X040550Y011484D01*
X042023Y011484D01*
X042115Y011446D01*
X042245Y011446D01*
X042366Y011496D01*
X042458Y011588D01*
X042508Y011708D01*
X042508Y011839D01*
X042458Y011960D01*
X042366Y012052D01*
X042496Y011869D02*
X049700Y011869D01*
X049700Y011710D02*
X042508Y011710D01*
X042422Y011552D02*
X049700Y011552D01*
X049700Y011393D02*
X040460Y011393D01*
X040301Y011235D02*
X049700Y011235D01*
X049700Y011076D02*
X040220Y011076D01*
X040220Y010918D02*
X049700Y010918D01*
X049700Y010759D02*
X040220Y010759D01*
X040220Y010601D02*
X049700Y010601D01*
X049700Y010442D02*
X040220Y010442D01*
X040220Y010284D02*
X049700Y010284D01*
X049700Y010125D02*
X040220Y010125D01*
X040220Y009967D02*
X049700Y009967D01*
X049700Y009808D02*
X040220Y009808D01*
X040220Y009650D02*
X049700Y009650D01*
X049700Y009491D02*
X040220Y009491D01*
X040220Y009333D02*
X049700Y009333D01*
X049700Y009174D02*
X040220Y009174D01*
X040220Y009016D02*
X049700Y009016D01*
X049700Y008857D02*
X040220Y008857D01*
X040220Y008699D02*
X049700Y008699D01*
X049700Y008540D02*
X040220Y008540D01*
X040220Y008382D02*
X049700Y008382D01*
X049700Y008223D02*
X040220Y008223D01*
X040220Y008065D02*
X049700Y008065D01*
X049700Y007906D02*
X040220Y007906D01*
X040220Y007748D02*
X049700Y007748D01*
X049700Y007589D02*
X040220Y007589D01*
X040220Y007431D02*
X049700Y007431D01*
X049700Y007272D02*
X040220Y007272D01*
X040220Y007114D02*
X049700Y007114D01*
X049700Y006955D02*
X040220Y006955D01*
X040220Y006797D02*
X049700Y006797D01*
X049700Y006638D02*
X040220Y006638D01*
X040220Y006480D02*
X049700Y006480D01*
X049700Y006321D02*
X040220Y006321D01*
X040220Y006163D02*
X049700Y006163D01*
X049700Y006004D02*
X040220Y006004D01*
X040220Y005846D02*
X049700Y005846D01*
X049700Y005687D02*
X040220Y005687D01*
X040220Y005529D02*
X049700Y005529D01*
X049700Y005370D02*
X040220Y005370D01*
X040220Y005212D02*
X049700Y005212D01*
X049700Y005053D02*
X040220Y005053D01*
X040220Y004895D02*
X049700Y004895D01*
X049700Y004736D02*
X040222Y004736D01*
X040144Y004578D02*
X049700Y004578D01*
X049700Y004419D02*
X048156Y004419D01*
X048155Y004420D02*
X047842Y004504D01*
X047518Y004504D01*
X047205Y004420D01*
X046925Y004258D01*
X046696Y004029D01*
X046534Y003748D01*
X046450Y003436D01*
X046450Y003112D01*
X046534Y002799D01*
X046696Y002518D01*
X046925Y002289D01*
X047205Y002128D01*
X047518Y002044D01*
X047842Y002044D01*
X048155Y002128D01*
X048435Y002289D01*
X048664Y002518D01*
X048826Y002799D01*
X048910Y003112D01*
X048910Y003436D01*
X048826Y003748D01*
X048664Y004029D01*
X048435Y004258D01*
X048155Y004420D01*
X048430Y004261D02*
X049700Y004261D01*
X049700Y004102D02*
X048591Y004102D01*
X048713Y003944D02*
X049700Y003944D01*
X049700Y003785D02*
X048805Y003785D01*
X048859Y003627D02*
X049700Y003627D01*
X049700Y003468D02*
X048901Y003468D01*
X048910Y003310D02*
X049700Y003310D01*
X049700Y003151D02*
X048910Y003151D01*
X048878Y002993D02*
X049700Y002993D01*
X049700Y002834D02*
X048836Y002834D01*
X048755Y002676D02*
X049700Y002676D01*
X049700Y002517D02*
X048663Y002517D01*
X048504Y002359D02*
X049700Y002359D01*
X049700Y002200D02*
X048281Y002200D01*
X047079Y002200D02*
X038110Y002200D01*
X038147Y002359D02*
X046856Y002359D01*
X046697Y002517D02*
X038289Y002517D01*
X038432Y002676D02*
X046605Y002676D01*
X046524Y002834D02*
X038575Y002834D01*
X038717Y002993D02*
X046482Y002993D01*
X046450Y003151D02*
X038860Y003151D01*
X039003Y003310D02*
X046450Y003310D01*
X046459Y003468D02*
X039145Y003468D01*
X039288Y003627D02*
X046501Y003627D01*
X046555Y003785D02*
X039431Y003785D01*
X039573Y003944D02*
X046647Y003944D01*
X046769Y004102D02*
X039716Y004102D01*
X039858Y004261D02*
X046930Y004261D01*
X047204Y004419D02*
X040001Y004419D01*
X039640Y005053D02*
X035919Y005053D01*
X035761Y005212D02*
X039640Y005212D01*
X039640Y005370D02*
X035602Y005370D01*
X035444Y005529D02*
X039640Y005529D01*
X039640Y005687D02*
X035285Y005687D01*
X035127Y005846D02*
X039640Y005846D01*
X039640Y006004D02*
X034968Y006004D01*
X034810Y006163D02*
X039640Y006163D01*
X039640Y006321D02*
X034651Y006321D01*
X034493Y006480D02*
X039640Y006480D01*
X039640Y006638D02*
X034334Y006638D01*
X034176Y006797D02*
X037193Y006797D01*
X037667Y006797D02*
X039640Y006797D01*
X039640Y006955D02*
X037757Y006955D01*
X037748Y007114D02*
X039640Y007114D01*
X039640Y007272D02*
X037646Y007272D01*
X037709Y007589D02*
X039640Y007589D01*
X039640Y007431D02*
X036792Y007431D01*
X036950Y007272D02*
X037214Y007272D01*
X037151Y007589D02*
X036959Y007589D01*
X037008Y007748D02*
X037102Y007748D01*
X037130Y007906D02*
X036980Y007906D01*
X036935Y008065D02*
X037120Y008065D01*
X037341Y008382D02*
X037384Y008382D01*
X037352Y008540D02*
X037182Y008540D01*
X037024Y008699D02*
X037397Y008699D01*
X037490Y008857D02*
X036865Y008857D01*
X036707Y009016D02*
X037490Y009016D01*
X037490Y009174D02*
X036548Y009174D01*
X036703Y009333D02*
X036907Y009333D01*
X036852Y009491D02*
X036758Y009491D01*
X036733Y009650D02*
X036877Y009650D01*
X037009Y009808D02*
X036601Y009808D01*
X036259Y009808D02*
X036164Y009808D01*
X036006Y009967D02*
X037240Y009967D01*
X037263Y010125D02*
X035847Y010125D01*
X035689Y010284D02*
X037421Y010284D01*
X037580Y010442D02*
X035530Y010442D01*
X035372Y010601D02*
X037738Y010601D01*
X037897Y010759D02*
X035213Y010759D01*
X035055Y010918D02*
X038055Y010918D01*
X038214Y011076D02*
X034896Y011076D01*
X034738Y011235D02*
X038200Y011235D01*
X037926Y011393D02*
X034579Y011393D01*
X034421Y011552D02*
X037895Y011552D01*
X037963Y011710D02*
X034262Y011710D01*
X034104Y011869D02*
X038490Y011869D01*
X038490Y012027D02*
X033945Y012027D01*
X033787Y012186D02*
X038490Y012186D01*
X038490Y012344D02*
X033628Y012344D01*
X033470Y012503D02*
X038490Y012503D01*
X038490Y012661D02*
X033311Y012661D01*
X033153Y012820D02*
X038490Y012820D01*
X038490Y012978D02*
X032994Y012978D01*
X032836Y013137D02*
X038490Y013137D01*
X038490Y013295D02*
X032677Y013295D01*
X032519Y013454D02*
X038490Y013454D01*
X038500Y013612D02*
X032037Y013612D01*
X032196Y013771D02*
X033969Y013771D01*
X033864Y013929D02*
X032354Y013929D01*
X031609Y014722D02*
X030120Y014722D01*
X030120Y014880D02*
X031768Y014880D01*
X031926Y015039D02*
X030120Y015039D01*
X030120Y015197D02*
X032085Y015197D01*
X032243Y015356D02*
X030216Y015356D01*
X030258Y015514D02*
X037102Y015514D01*
X037137Y015673D02*
X030223Y015673D01*
X030045Y015831D02*
X037315Y015831D01*
X037545Y015831D02*
X037815Y015831D01*
X038045Y015831D02*
X044719Y015831D01*
X044560Y015673D02*
X038223Y015673D01*
X038258Y015514D02*
X044402Y015514D01*
X044243Y015356D02*
X038216Y015356D01*
X037999Y015197D02*
X044085Y015197D01*
X043926Y015039D02*
X037714Y015039D01*
X038898Y014088D02*
X034508Y014088D01*
X034496Y013929D02*
X038817Y013929D01*
X038658Y013771D02*
X034391Y013771D01*
X034421Y014246D02*
X038999Y014246D01*
X039120Y012027D02*
X040284Y012027D01*
X040115Y011869D02*
X039120Y011869D01*
X039120Y011710D02*
X039956Y011710D01*
X039798Y011552D02*
X039120Y011552D01*
X039120Y011393D02*
X039666Y011393D01*
X039640Y011235D02*
X039120Y011235D01*
X039120Y011076D02*
X039640Y011076D01*
X039640Y010918D02*
X039093Y010918D01*
X038934Y010759D02*
X039640Y010759D01*
X039640Y010601D02*
X038776Y010601D01*
X038617Y010442D02*
X039640Y010442D01*
X039640Y010284D02*
X038459Y010284D01*
X038300Y010125D02*
X039640Y010125D01*
X039640Y009967D02*
X038142Y009967D01*
X038351Y009808D02*
X039640Y009808D01*
X039640Y009650D02*
X038483Y009650D01*
X038508Y009491D02*
X039640Y009491D01*
X039640Y009333D02*
X038453Y009333D01*
X037907Y009333D02*
X037870Y009333D01*
X037870Y009174D02*
X039640Y009174D01*
X039640Y009016D02*
X037870Y009016D01*
X037870Y008857D02*
X039640Y008857D01*
X039640Y008699D02*
X037963Y008699D01*
X038008Y008540D02*
X039640Y008540D01*
X039640Y008382D02*
X037976Y008382D01*
X037812Y008223D02*
X039640Y008223D01*
X039640Y008065D02*
X037620Y008065D01*
X037548Y008223D02*
X037499Y008223D01*
X037730Y007906D02*
X039640Y007906D01*
X039640Y007748D02*
X037758Y007748D01*
X036730Y006955D02*
X034017Y006955D01*
X033859Y007114D02*
X036571Y007114D01*
X036413Y007272D02*
X033700Y007272D01*
X033542Y007431D02*
X036254Y007431D01*
X036096Y007589D02*
X033383Y007589D01*
X033120Y006480D02*
X026743Y006480D01*
X026584Y006638D02*
X029504Y006638D01*
X029193Y006797D02*
X026426Y006797D01*
X026267Y006955D02*
X029103Y006955D01*
X029112Y007114D02*
X026120Y007114D01*
X026120Y007272D02*
X029214Y007272D01*
X029254Y007431D02*
X026120Y007431D01*
X026120Y007589D02*
X029096Y007589D01*
X028937Y007748D02*
X026120Y007748D01*
X026120Y007906D02*
X028779Y007906D01*
X028740Y008065D02*
X026120Y008065D01*
X026120Y008223D02*
X028740Y008223D01*
X028769Y008382D02*
X026120Y008382D01*
X026120Y008540D02*
X028928Y008540D01*
X029086Y008699D02*
X026120Y008699D01*
X026120Y008857D02*
X035578Y008857D01*
X035736Y008699D02*
X029713Y008699D01*
X029758Y008540D02*
X035740Y008540D01*
X035740Y008382D02*
X029726Y008382D01*
X029695Y008223D02*
X035740Y008223D01*
X035740Y008065D02*
X029758Y008065D01*
X029816Y007906D02*
X035779Y007906D01*
X035937Y007748D02*
X029975Y007748D01*
X029907Y009333D02*
X026120Y009333D01*
X026120Y009491D02*
X026255Y009491D01*
X026126Y009650D02*
X026120Y009650D01*
X026120Y009967D02*
X026159Y009967D01*
X026120Y010125D02*
X034310Y010125D01*
X034468Y009967D02*
X026701Y009967D01*
X026605Y009491D02*
X029852Y009491D01*
X030351Y009808D02*
X034627Y009808D01*
X034785Y009650D02*
X030483Y009650D01*
X030508Y009491D02*
X034944Y009491D01*
X035102Y009333D02*
X030453Y009333D01*
X029776Y010601D02*
X033834Y010601D01*
X033676Y010759D02*
X029934Y010759D01*
X030093Y010918D02*
X033517Y010918D01*
X033359Y011076D02*
X030251Y011076D01*
X027834Y010601D02*
X026120Y010601D01*
X026120Y010759D02*
X027676Y010759D01*
X027517Y010918D02*
X026120Y010918D01*
X026120Y011076D02*
X027359Y011076D01*
X027200Y011235D02*
X026715Y011235D01*
X026856Y011393D02*
X027042Y011393D01*
X026395Y011235D02*
X026120Y011235D01*
X026120Y011393D02*
X026254Y011393D01*
X026227Y011552D02*
X026120Y011552D01*
X026135Y011710D02*
X026278Y011710D01*
X025732Y012344D02*
X024870Y012344D01*
X024870Y012186D02*
X025573Y012186D01*
X025415Y012027D02*
X024870Y012027D01*
X024870Y011869D02*
X025256Y011869D01*
X025351Y011964D02*
X025351Y011964D01*
X025240Y011710D02*
X024870Y011710D01*
X024870Y011552D02*
X025240Y011552D01*
X025240Y011393D02*
X024964Y011393D01*
X024988Y011235D02*
X025240Y011235D01*
X025240Y011076D02*
X024919Y011076D01*
X025240Y010918D02*
X022870Y010918D01*
X022870Y011076D02*
X022941Y011076D01*
X022872Y011235D02*
X022870Y011235D01*
X022870Y011393D02*
X022896Y011393D01*
X022977Y011552D02*
X022990Y011552D01*
X022665Y012027D02*
X021870Y012027D01*
X021870Y011869D02*
X022506Y011869D01*
X022348Y011710D02*
X021870Y011710D01*
X021870Y011552D02*
X022240Y011552D01*
X022240Y011393D02*
X021870Y011393D01*
X022155Y011235D02*
X022240Y011235D01*
X022238Y011076D02*
X022240Y011076D01*
X022240Y010918D02*
X022220Y010918D01*
X022240Y010759D02*
X022097Y010759D01*
X022238Y010601D02*
X020372Y010601D01*
X020530Y010442D02*
X022080Y010442D01*
X021921Y010284D02*
X020689Y010284D01*
X020847Y010125D02*
X021763Y010125D01*
X021604Y009967D02*
X020870Y009967D01*
X020870Y009808D02*
X021446Y009808D01*
X021287Y009650D02*
X020870Y009650D01*
X020870Y009491D02*
X021129Y009491D01*
X020970Y009333D02*
X020870Y009333D01*
X020490Y009333D02*
X016370Y009333D01*
X016370Y009491D02*
X020490Y009491D01*
X020490Y009650D02*
X016370Y009650D01*
X016370Y009808D02*
X020490Y009808D01*
X020468Y009967D02*
X016370Y009967D01*
X016370Y010125D02*
X020310Y010125D01*
X020151Y010284D02*
X016370Y010284D01*
X016370Y010442D02*
X019993Y010442D01*
X019834Y010601D02*
X017463Y010601D01*
X017508Y010759D02*
X019676Y010759D01*
X019896Y011076D02*
X021122Y011076D01*
X021140Y010918D02*
X020055Y010918D01*
X020213Y010759D02*
X021263Y010759D01*
X021597Y010759D02*
X021763Y010759D01*
X021240Y011393D02*
X019774Y011393D01*
X019875Y011235D02*
X021205Y011235D01*
X021240Y011552D02*
X017477Y011552D01*
X017370Y011393D02*
X019335Y011393D01*
X019235Y011235D02*
X017370Y011235D01*
X017370Y011076D02*
X019230Y011076D01*
X019322Y010918D02*
X017475Y010918D01*
X016990Y011076D02*
X016751Y011076D01*
X016885Y010918D02*
X016593Y010918D01*
X016434Y010759D02*
X016852Y010759D01*
X016897Y010601D02*
X016370Y010601D01*
X016910Y011235D02*
X016990Y011235D01*
X017635Y011710D02*
X021240Y011710D01*
X021240Y011869D02*
X017794Y011869D01*
X017952Y012027D02*
X021240Y012027D01*
X021240Y012186D02*
X018111Y012186D01*
X018269Y012344D02*
X021240Y012344D01*
X021240Y012503D02*
X018428Y012503D01*
X018586Y012661D02*
X021240Y012661D01*
X021240Y012820D02*
X018745Y012820D01*
X018903Y012978D02*
X021240Y012978D01*
X021240Y013137D02*
X019062Y013137D01*
X019220Y013295D02*
X021240Y013295D01*
X021240Y013454D02*
X019379Y013454D01*
X019537Y013612D02*
X021240Y013612D01*
X021240Y013771D02*
X019696Y013771D01*
X019854Y013929D02*
X021240Y013929D01*
X021240Y014088D02*
X020013Y014088D01*
X020171Y014246D02*
X021240Y014246D01*
X021240Y014405D02*
X020330Y014405D01*
X020488Y014563D02*
X021240Y014563D01*
X021240Y014722D02*
X020647Y014722D01*
X020805Y014880D02*
X021240Y014880D01*
X021201Y015039D02*
X020964Y015039D01*
X020402Y015514D02*
X020120Y015514D01*
X020120Y015356D02*
X020243Y015356D01*
X020120Y015673D02*
X020560Y015673D01*
X020719Y015831D02*
X020120Y015831D01*
X020120Y015990D02*
X020877Y015990D01*
X021036Y016148D02*
X020233Y016148D01*
X020258Y016307D02*
X021194Y016307D01*
X021353Y016465D02*
X020202Y016465D01*
X019658Y016465D02*
X012909Y016465D01*
X012750Y016307D02*
X019602Y016307D01*
X019627Y016148D02*
X012592Y016148D01*
X012433Y015990D02*
X019740Y015990D01*
X019740Y015831D02*
X012275Y015831D01*
X012116Y015673D02*
X019740Y015673D01*
X019740Y015514D02*
X011958Y015514D01*
X011799Y015356D02*
X019740Y015356D01*
X019740Y015197D02*
X011641Y015197D01*
X011482Y015039D02*
X019676Y015039D01*
X019518Y014880D02*
X011324Y014880D01*
X011165Y014722D02*
X018664Y014722D01*
X018602Y014563D02*
X011007Y014563D01*
X010848Y014405D02*
X018624Y014405D01*
X018634Y014246D02*
X010690Y014246D01*
X010560Y014088D02*
X016331Y014088D01*
X016529Y014088D02*
X016831Y014088D01*
X017029Y014088D02*
X018475Y014088D01*
X018317Y013929D02*
X017221Y013929D01*
X017258Y013771D02*
X018158Y013771D01*
X018000Y013612D02*
X017218Y013612D01*
X017120Y013454D02*
X017841Y013454D01*
X017683Y013295D02*
X017120Y013295D01*
X017120Y013137D02*
X017524Y013137D01*
X017366Y012978D02*
X017189Y012978D01*
X016737Y012503D02*
X016623Y012503D01*
X016732Y012344D02*
X010560Y012344D01*
X010560Y012186D02*
X016573Y012186D01*
X016415Y012027D02*
X010560Y012027D01*
X010560Y011869D02*
X016256Y011869D01*
X016098Y011710D02*
X010560Y011710D01*
X010560Y011552D02*
X015939Y011552D01*
X015781Y011393D02*
X010560Y011393D01*
X010560Y011235D02*
X015622Y011235D01*
X015464Y011076D02*
X010560Y011076D01*
X010560Y010918D02*
X015305Y010918D01*
X015240Y010759D02*
X010560Y010759D01*
X010560Y010601D02*
X015240Y010601D01*
X015240Y010442D02*
X011858Y010442D01*
X012063Y010284D02*
X015240Y010284D01*
X015240Y010125D02*
X013625Y010125D01*
X013430Y010024D02*
X011680Y010024D01*
X011620Y010024D01*
X011230Y010125D02*
X010630Y010125D01*
X010635Y009967D02*
X011213Y009967D01*
X011054Y009808D02*
X010583Y009808D01*
X010449Y009650D02*
X010896Y009650D01*
X011241Y009174D02*
X013983Y009174D01*
X014141Y009016D02*
X011065Y009016D01*
X011399Y009333D02*
X013824Y009333D01*
X013666Y009491D02*
X011558Y009491D01*
X011949Y009650D02*
X013507Y009650D01*
X013349Y009808D02*
X012083Y009808D01*
X011502Y010442D02*
X010560Y010442D01*
X010563Y010284D02*
X011297Y010284D01*
X009795Y009016D02*
X000660Y009016D01*
X000660Y009174D02*
X009619Y009174D01*
X009461Y009333D02*
X000660Y009333D01*
X000660Y009491D02*
X009306Y009491D01*
X009265Y009650D02*
X000660Y009650D01*
X000660Y009808D02*
X009265Y009808D01*
X009265Y009967D02*
X000660Y009967D01*
X000660Y010125D02*
X009265Y010125D01*
X009265Y010284D02*
X000660Y010284D01*
X000660Y010442D02*
X004498Y010442D01*
X004534Y010428D02*
X004905Y010428D01*
X005248Y010570D01*
X005510Y010832D01*
X005652Y011175D01*
X005652Y011546D01*
X005510Y011889D01*
X005248Y012151D01*
X004905Y012293D01*
X004534Y012293D01*
X004191Y012151D01*
X003929Y011889D01*
X003787Y011546D01*
X003787Y011175D01*
X003929Y010832D01*
X004191Y010570D01*
X004534Y010428D01*
X004940Y010442D02*
X009265Y010442D01*
X009265Y010601D02*
X005279Y010601D01*
X005437Y010759D02*
X009265Y010759D01*
X009265Y010918D02*
X005546Y010918D01*
X005611Y011076D02*
X009265Y011076D01*
X009265Y011235D02*
X005652Y011235D01*
X005652Y011393D02*
X009265Y011393D01*
X009265Y011552D02*
X005650Y011552D01*
X005584Y011710D02*
X009265Y011710D01*
X009265Y011869D02*
X005518Y011869D01*
X005372Y012027D02*
X009265Y012027D01*
X009265Y012186D02*
X005164Y012186D01*
X005100Y012746D02*
X004996Y012756D01*
X004875Y012780D01*
X004757Y012816D01*
X004643Y012863D01*
X004534Y012921D01*
X004431Y012989D01*
X004336Y013068D01*
X004249Y013155D01*
X004171Y013250D01*
X004102Y013353D01*
X004044Y013461D01*
X003997Y013575D01*
X003961Y013693D01*
X003937Y013814D01*
X003925Y013937D01*
X003925Y014994D01*
X005100Y014994D01*
X005100Y015154D01*
X005100Y017402D01*
X004996Y017392D01*
X004875Y017368D01*
X004757Y017332D01*
X004643Y017285D01*
X004534Y017226D01*
X004431Y017158D01*
X004336Y017080D01*
X004249Y016993D01*
X004171Y016897D01*
X004102Y016795D01*
X004044Y016686D01*
X003997Y016572D01*
X003961Y016454D01*
X003937Y016333D01*
X003925Y016210D01*
X003925Y015154D01*
X005100Y015154D01*
X005260Y015154D01*
X005260Y017402D01*
X005364Y017392D01*
X005485Y017368D01*
X005603Y017332D01*
X005717Y017285D01*
X005826Y017226D01*
X005929Y017158D01*
X006024Y017080D01*
X006111Y016993D01*
X006189Y016897D01*
X006258Y016795D01*
X006316Y016686D01*
X006363Y016572D01*
X006399Y016454D01*
X006423Y016333D01*
X006435Y016210D01*
X006435Y015154D01*
X005260Y015154D01*
X005260Y014994D01*
X006435Y014994D01*
X006435Y013937D01*
X006423Y013814D01*
X006399Y013693D01*
X006363Y013575D01*
X006316Y013461D01*
X006258Y013353D01*
X006189Y013250D01*
X006111Y013155D01*
X006024Y013068D01*
X005929Y012989D01*
X005826Y012921D01*
X005717Y012863D01*
X005603Y012816D01*
X005485Y012780D01*
X005364Y012756D01*
X005260Y012746D01*
X005260Y014994D01*
X005100Y014994D01*
X005100Y012746D01*
X005100Y012820D02*
X005260Y012820D01*
X005260Y012978D02*
X005100Y012978D01*
X005100Y013137D02*
X005260Y013137D01*
X005260Y013295D02*
X005100Y013295D01*
X005100Y013454D02*
X005260Y013454D01*
X005260Y013612D02*
X005100Y013612D01*
X005100Y013771D02*
X005260Y013771D01*
X005260Y013929D02*
X005100Y013929D01*
X005100Y014088D02*
X005260Y014088D01*
X005260Y014246D02*
X005100Y014246D01*
X005100Y014405D02*
X005260Y014405D01*
X005260Y014563D02*
X005100Y014563D01*
X005100Y014722D02*
X005260Y014722D01*
X005260Y014880D02*
X005100Y014880D01*
X005100Y015039D02*
X003585Y015039D01*
X003585Y015197D02*
X003925Y015197D01*
X003925Y015356D02*
X003585Y015356D01*
X003585Y015514D02*
X003925Y015514D01*
X003925Y015673D02*
X003585Y015673D01*
X003585Y015831D02*
X003925Y015831D01*
X003925Y015990D02*
X003585Y015990D01*
X003585Y016007D02*
X003503Y016314D01*
X003344Y016589D01*
X003120Y016813D01*
X002845Y016972D01*
X002539Y017054D01*
X002221Y017054D01*
X001915Y016972D01*
X001640Y016813D01*
X001416Y016589D01*
X001257Y016314D01*
X001175Y016007D01*
X001175Y013540D01*
X001257Y013234D01*
X001416Y012959D01*
X001640Y012734D01*
X001915Y012576D01*
X002221Y012494D01*
X002539Y012494D01*
X002845Y012576D01*
X003120Y012734D01*
X003344Y012959D01*
X003503Y013234D01*
X003585Y013540D01*
X003585Y016007D01*
X003547Y016148D02*
X003925Y016148D01*
X003934Y016307D02*
X003505Y016307D01*
X003415Y016465D02*
X003965Y016465D01*
X004018Y016624D02*
X003309Y016624D01*
X003151Y016782D02*
X004096Y016782D01*
X004206Y016941D02*
X002899Y016941D01*
X002841Y017575D02*
X012273Y017575D01*
X012162Y017416D02*
X000660Y017416D01*
X000660Y017258D02*
X004593Y017258D01*
X004360Y017099D02*
X000660Y017099D01*
X000660Y016941D02*
X001861Y016941D01*
X001609Y016782D02*
X000660Y016782D01*
X000660Y016624D02*
X001451Y016624D01*
X001345Y016465D02*
X000660Y016465D01*
X000660Y016307D02*
X001255Y016307D01*
X001213Y016148D02*
X000660Y016148D01*
X000660Y015990D02*
X001175Y015990D01*
X001175Y015831D02*
X000660Y015831D01*
X000660Y015673D02*
X001175Y015673D01*
X001175Y015514D02*
X000660Y015514D01*
X000660Y015356D02*
X001175Y015356D01*
X001175Y015197D02*
X000660Y015197D01*
X000660Y015039D02*
X001175Y015039D01*
X001175Y014880D02*
X000660Y014880D01*
X000660Y014722D02*
X001175Y014722D01*
X001175Y014563D02*
X000660Y014563D01*
X000660Y014405D02*
X001175Y014405D01*
X001175Y014246D02*
X000660Y014246D01*
X000660Y014088D02*
X001175Y014088D01*
X001175Y013929D02*
X000660Y013929D01*
X000660Y013771D02*
X001175Y013771D01*
X001175Y013612D02*
X000660Y013612D01*
X000660Y013454D02*
X001198Y013454D01*
X001241Y013295D02*
X000660Y013295D01*
X000660Y013137D02*
X001313Y013137D01*
X001405Y012978D02*
X000660Y012978D01*
X000660Y012820D02*
X001555Y012820D01*
X001767Y012661D02*
X000660Y012661D01*
X000660Y012503D02*
X002188Y012503D01*
X002572Y012503D02*
X009265Y012503D01*
X009265Y012661D02*
X002993Y012661D01*
X003205Y012820D02*
X004747Y012820D01*
X004448Y012978D02*
X003355Y012978D01*
X003447Y013137D02*
X004267Y013137D01*
X004141Y013295D02*
X003519Y013295D01*
X003562Y013454D02*
X004048Y013454D01*
X003986Y013612D02*
X003585Y013612D01*
X003585Y013771D02*
X003946Y013771D01*
X003926Y013929D02*
X003585Y013929D01*
X003585Y014088D02*
X003925Y014088D01*
X003925Y014246D02*
X003585Y014246D01*
X003585Y014405D02*
X003925Y014405D01*
X003925Y014563D02*
X003585Y014563D01*
X003585Y014722D02*
X003925Y014722D01*
X003925Y014880D02*
X003585Y014880D01*
X005100Y015197D02*
X005260Y015197D01*
X005260Y015039D02*
X009785Y015039D01*
X009943Y015197D02*
X006435Y015197D01*
X006435Y015356D02*
X010102Y015356D01*
X010260Y015514D02*
X006435Y015514D01*
X006435Y015673D02*
X010419Y015673D01*
X010577Y015831D02*
X006435Y015831D01*
X006435Y015990D02*
X010736Y015990D01*
X010894Y016148D02*
X006435Y016148D01*
X006426Y016307D02*
X011053Y016307D01*
X011211Y016465D02*
X006395Y016465D01*
X006342Y016624D02*
X011370Y016624D01*
X011528Y016782D02*
X006264Y016782D01*
X006154Y016941D02*
X011687Y016941D01*
X011845Y017099D02*
X006000Y017099D01*
X005767Y017258D02*
X012004Y017258D01*
X012479Y017733D02*
X003118Y017733D01*
X003120Y017734D02*
X003344Y017959D01*
X003503Y018234D01*
X003585Y018540D01*
X003585Y021007D01*
X003503Y021314D01*
X003344Y021589D01*
X003120Y021813D01*
X002845Y021972D01*
X002539Y022054D01*
X002221Y022054D01*
X001915Y021972D01*
X001640Y021813D01*
X001416Y021589D01*
X001257Y021314D01*
X001175Y021007D01*
X001175Y018540D01*
X001257Y018234D01*
X001416Y017959D01*
X001640Y017734D01*
X001915Y017576D01*
X002221Y017494D01*
X002539Y017494D01*
X002845Y017576D01*
X003120Y017734D01*
X003277Y017892D02*
X004589Y017892D01*
X004643Y017863D02*
X004757Y017816D01*
X004875Y017780D01*
X004996Y017756D01*
X005100Y017746D01*
X005100Y019994D01*
X003925Y019994D01*
X003925Y018937D01*
X003937Y018814D01*
X003961Y018693D01*
X003997Y018575D01*
X004044Y018461D01*
X004102Y018353D01*
X004171Y018250D01*
X004249Y018155D01*
X004336Y018068D01*
X004431Y017989D01*
X004534Y017921D01*
X004643Y017863D01*
X004357Y018050D02*
X003397Y018050D01*
X003489Y018209D02*
X004205Y018209D01*
X004094Y018367D02*
X003539Y018367D01*
X003581Y018526D02*
X004018Y018526D01*
X003964Y018684D02*
X003585Y018684D01*
X003585Y018843D02*
X003934Y018843D01*
X003925Y019001D02*
X003585Y019001D01*
X003585Y019160D02*
X003925Y019160D01*
X003925Y019318D02*
X003585Y019318D01*
X003585Y019477D02*
X003925Y019477D01*
X003925Y019635D02*
X003585Y019635D01*
X003585Y019794D02*
X003925Y019794D01*
X003925Y019952D02*
X003585Y019952D01*
X003585Y020111D02*
X005100Y020111D01*
X005100Y020154D02*
X005100Y019994D01*
X005260Y019994D01*
X005260Y020154D01*
X005100Y020154D01*
X005100Y022402D01*
X004996Y022392D01*
X004875Y022368D01*
X004757Y022332D01*
X004643Y022285D01*
X004534Y022226D01*
X004431Y022158D01*
X004336Y022080D01*
X004249Y021993D01*
X004171Y021897D01*
X004102Y021795D01*
X004044Y021686D01*
X003997Y021572D01*
X003961Y021454D01*
X003937Y021333D01*
X003925Y021210D01*
X003925Y020154D01*
X005100Y020154D01*
X005100Y020269D02*
X005260Y020269D01*
X005260Y020154D02*
X005260Y022402D01*
X005364Y022392D01*
X005485Y022368D01*
X005603Y022332D01*
X005717Y022285D01*
X005826Y022226D01*
X005929Y022158D01*
X006024Y022080D01*
X006111Y021993D01*
X006189Y021897D01*
X006258Y021795D01*
X006316Y021686D01*
X006363Y021572D01*
X006399Y021454D01*
X006423Y021333D01*
X006435Y021210D01*
X006435Y020154D01*
X005260Y020154D01*
X005260Y020111D02*
X020335Y020111D01*
X020335Y020140D02*
X020335Y019969D01*
X020400Y019811D01*
X020521Y019690D01*
X020679Y019625D01*
X020851Y019625D01*
X021009Y019690D01*
X021130Y019811D01*
X021180Y019933D01*
X021230Y019811D01*
X021351Y019690D01*
X021509Y019625D01*
X021681Y019625D01*
X021839Y019690D01*
X021960Y019811D01*
X022025Y019969D01*
X022025Y020140D01*
X021960Y020298D01*
X021907Y020351D01*
X021924Y020344D01*
X022096Y020344D01*
X022254Y020409D01*
X022375Y020530D01*
X022397Y020584D01*
X023009Y020584D01*
X023120Y020695D01*
X024621Y022196D01*
X024745Y022196D01*
X024866Y022246D01*
X024958Y022338D01*
X025008Y022458D01*
X025008Y022589D01*
X024958Y022710D01*
X024866Y022802D01*
X024745Y022852D01*
X024615Y022852D01*
X024494Y022802D01*
X024402Y022710D01*
X024352Y022589D01*
X024352Y022464D01*
X022851Y020964D01*
X022397Y020964D01*
X022375Y021017D01*
X022254Y021138D01*
X022096Y021204D01*
X021924Y021204D01*
X021907Y021196D01*
X021960Y021249D01*
X022025Y021407D01*
X022025Y021578D01*
X021960Y021736D01*
X021839Y021857D01*
X021681Y021923D01*
X021509Y021923D01*
X021351Y021857D01*
X021230Y021736D01*
X021180Y021614D01*
X021130Y021736D01*
X021009Y021857D01*
X020851Y021923D01*
X020679Y021923D01*
X020521Y021857D01*
X020400Y021736D01*
X020335Y021578D01*
X020335Y021407D01*
X020400Y021249D01*
X020453Y021196D01*
X020436Y021204D01*
X020264Y021204D01*
X020106Y021138D01*
X019985Y021017D01*
X019920Y020859D01*
X019920Y020688D01*
X019985Y020530D01*
X020106Y020409D01*
X020264Y020344D01*
X020436Y020344D01*
X020453Y020351D01*
X020400Y020298D01*
X020335Y020140D01*
X020388Y020269D02*
X006435Y020269D01*
X006435Y020428D02*
X020088Y020428D01*
X019962Y020586D02*
X006435Y020586D01*
X006435Y020745D02*
X019920Y020745D01*
X019938Y020903D02*
X006435Y020903D01*
X006435Y021062D02*
X020030Y021062D01*
X020429Y021220D02*
X006434Y021220D01*
X006414Y021379D02*
X020347Y021379D01*
X020335Y021537D02*
X006374Y021537D01*
X006311Y021696D02*
X020384Y021696D01*
X020518Y021854D02*
X006218Y021854D01*
X006091Y022013D02*
X023900Y022013D01*
X023742Y021854D02*
X021842Y021854D01*
X021976Y021696D02*
X023583Y021696D01*
X023425Y021537D02*
X022025Y021537D01*
X022013Y021379D02*
X023266Y021379D01*
X023108Y021220D02*
X021931Y021220D01*
X022330Y021062D02*
X022949Y021062D01*
X023170Y020745D02*
X023852Y020745D01*
X023879Y020903D02*
X023328Y020903D01*
X023487Y021062D02*
X024018Y021062D01*
X024342Y021062D02*
X028030Y021062D01*
X027985Y021017D02*
X027920Y020859D01*
X027920Y020688D01*
X027985Y020530D01*
X028106Y020409D01*
X028264Y020344D01*
X028436Y020344D01*
X028453Y020351D01*
X028400Y020298D01*
X028335Y020140D01*
X028335Y019969D01*
X028400Y019811D01*
X028521Y019690D01*
X028679Y019625D01*
X028851Y019625D01*
X029009Y019690D01*
X029130Y019811D01*
X029180Y019933D01*
X029230Y019811D01*
X029351Y019690D01*
X029509Y019625D01*
X029681Y019625D01*
X029839Y019690D01*
X029960Y019811D01*
X030025Y019969D01*
X030025Y020140D01*
X029960Y020298D01*
X029907Y020351D01*
X029924Y020344D01*
X030096Y020344D01*
X030254Y020409D01*
X030375Y020530D01*
X030397Y020584D01*
X031009Y020584D01*
X031120Y020695D01*
X032621Y022196D01*
X032745Y022196D01*
X032866Y022246D01*
X032958Y022338D01*
X033008Y022458D01*
X033008Y022589D01*
X032958Y022710D01*
X032866Y022802D01*
X032745Y022852D01*
X032615Y022852D01*
X032494Y022802D01*
X032402Y022710D01*
X032352Y022589D01*
X032352Y022464D01*
X030851Y020964D01*
X030397Y020964D01*
X030375Y021017D01*
X030254Y021138D01*
X030096Y021204D01*
X029924Y021204D01*
X029907Y021196D01*
X029960Y021249D01*
X030025Y021407D01*
X030025Y021578D01*
X029960Y021736D01*
X029839Y021857D01*
X029681Y021923D01*
X029509Y021923D01*
X029351Y021857D01*
X029230Y021736D01*
X029180Y021614D01*
X029130Y021736D01*
X029009Y021857D01*
X028851Y021923D01*
X028679Y021923D01*
X028521Y021857D01*
X028400Y021736D01*
X028335Y021578D01*
X028335Y021407D01*
X028400Y021249D01*
X028453Y021196D01*
X028436Y021204D01*
X028264Y021204D01*
X028106Y021138D01*
X027985Y021017D01*
X027938Y020903D02*
X024481Y020903D01*
X024508Y020745D02*
X027920Y020745D01*
X027962Y020586D02*
X024470Y020586D01*
X024470Y020428D02*
X028088Y020428D01*
X028388Y020269D02*
X024470Y020269D01*
X024470Y020111D02*
X028335Y020111D01*
X028342Y019952D02*
X024470Y019952D01*
X024470Y019794D02*
X028418Y019794D01*
X028654Y019635D02*
X024470Y019635D01*
X024470Y019477D02*
X030102Y019477D01*
X030102Y019464D02*
X029653Y019015D01*
X029616Y019052D01*
X029495Y019102D01*
X029365Y019102D01*
X029244Y019052D01*
X029152Y018960D01*
X029102Y018839D01*
X029102Y018708D01*
X029152Y018588D01*
X029244Y018496D01*
X029365Y018446D01*
X029495Y018446D01*
X029616Y018496D01*
X029704Y018584D01*
X029759Y018584D01*
X030371Y019196D01*
X030495Y019196D01*
X030616Y019246D01*
X030708Y019338D01*
X030758Y019458D01*
X030758Y019589D01*
X030708Y019710D01*
X030616Y019802D01*
X030495Y019852D01*
X030365Y019852D01*
X030244Y019802D01*
X030152Y019710D01*
X030102Y019589D01*
X030102Y019464D01*
X030121Y019635D02*
X029706Y019635D01*
X029484Y019635D02*
X028876Y019635D01*
X029112Y019794D02*
X029248Y019794D01*
X029180Y020176D02*
X029131Y020296D01*
X029142Y020294D01*
X029160Y020294D01*
X029160Y020754D01*
X029200Y020754D01*
X029200Y020294D01*
X029218Y020294D01*
X029229Y020296D01*
X029180Y020176D01*
X029142Y020269D02*
X029218Y020269D01*
X029200Y020428D02*
X029160Y020428D01*
X029160Y020586D02*
X029200Y020586D01*
X029200Y020745D02*
X029160Y020745D01*
X029160Y020794D02*
X029160Y021254D01*
X029142Y021254D01*
X029131Y021252D01*
X029180Y021371D01*
X029229Y021252D01*
X029218Y021254D01*
X029200Y021254D01*
X029200Y020794D01*
X029160Y020794D01*
X029160Y020903D02*
X029200Y020903D01*
X029200Y021062D02*
X029160Y021062D01*
X029160Y021220D02*
X029200Y021220D01*
X029214Y021696D02*
X029146Y021696D01*
X029012Y021854D02*
X029348Y021854D01*
X029842Y021854D02*
X031742Y021854D01*
X031583Y021696D02*
X029976Y021696D01*
X030025Y021537D02*
X031425Y021537D01*
X031266Y021379D02*
X030013Y021379D01*
X029931Y021220D02*
X031108Y021220D01*
X030949Y021062D02*
X030330Y021062D01*
X031011Y020586D02*
X031890Y020586D01*
X031890Y020428D02*
X030272Y020428D01*
X029972Y020269D02*
X031890Y020269D01*
X031890Y020111D02*
X030025Y020111D01*
X030018Y019952D02*
X031890Y019952D01*
X031890Y019794D02*
X030624Y019794D01*
X030739Y019635D02*
X031890Y019635D01*
X031890Y019477D02*
X030758Y019477D01*
X030689Y019318D02*
X031890Y019318D01*
X031890Y019160D02*
X030335Y019160D01*
X030176Y019001D02*
X031890Y019001D01*
X031890Y018843D02*
X030018Y018843D01*
X029859Y018684D02*
X031890Y018684D01*
X031890Y018526D02*
X029646Y018526D01*
X029214Y018526D02*
X024470Y018526D01*
X024470Y018684D02*
X029112Y018684D01*
X029103Y018843D02*
X024470Y018843D01*
X024470Y019001D02*
X029194Y019001D01*
X029797Y019160D02*
X024470Y019160D01*
X024470Y019318D02*
X029956Y019318D01*
X029942Y019794D02*
X030236Y019794D01*
X031170Y020745D02*
X031852Y020745D01*
X031879Y020903D02*
X031328Y020903D01*
X031487Y021062D02*
X032018Y021062D01*
X032342Y021062D02*
X036030Y021062D01*
X035938Y020903D02*
X032481Y020903D01*
X032508Y020745D02*
X035920Y020745D01*
X035962Y020586D02*
X032470Y020586D01*
X032470Y020428D02*
X036088Y020428D01*
X036388Y020269D02*
X032470Y020269D01*
X032470Y020111D02*
X036335Y020111D01*
X036342Y019952D02*
X032470Y019952D01*
X032470Y019794D02*
X036418Y019794D01*
X036654Y019635D02*
X032470Y019635D01*
X032470Y019477D02*
X038102Y019477D01*
X038102Y019464D02*
X037653Y019015D01*
X037616Y019052D01*
X037495Y019102D01*
X037365Y019102D01*
X037244Y019052D01*
X037152Y018960D01*
X037102Y018839D01*
X037102Y018708D01*
X037152Y018588D01*
X037244Y018496D01*
X037365Y018446D01*
X037495Y018446D01*
X037616Y018496D01*
X037704Y018584D01*
X037759Y018584D01*
X037870Y018695D01*
X038371Y019196D01*
X038495Y019196D01*
X038616Y019246D01*
X038708Y019338D01*
X038758Y019458D01*
X038758Y019589D01*
X038708Y019710D01*
X038616Y019802D01*
X038495Y019852D01*
X038365Y019852D01*
X038244Y019802D01*
X038152Y019710D01*
X038102Y019589D01*
X038102Y019464D01*
X038121Y019635D02*
X037706Y019635D01*
X037484Y019635D02*
X036876Y019635D01*
X037112Y019794D02*
X037248Y019794D01*
X037180Y020176D02*
X037131Y020296D01*
X037142Y020294D01*
X037160Y020294D01*
X037160Y020754D01*
X037200Y020754D01*
X037200Y020294D01*
X037218Y020294D01*
X037229Y020296D01*
X037180Y020176D01*
X037142Y020269D02*
X037218Y020269D01*
X037200Y020428D02*
X037160Y020428D01*
X037160Y020586D02*
X037200Y020586D01*
X037200Y020745D02*
X037160Y020745D01*
X037160Y020794D02*
X037160Y021254D01*
X037142Y021254D01*
X037131Y021252D01*
X037180Y021371D01*
X037229Y021252D01*
X037218Y021254D01*
X037200Y021254D01*
X037200Y020794D01*
X037160Y020794D01*
X037160Y020903D02*
X037200Y020903D01*
X037200Y021062D02*
X037160Y021062D01*
X037160Y021220D02*
X037200Y021220D01*
X037214Y021696D02*
X037146Y021696D01*
X037012Y021854D02*
X037348Y021854D01*
X037842Y021854D02*
X039742Y021854D01*
X039583Y021696D02*
X037976Y021696D01*
X038025Y021537D02*
X039425Y021537D01*
X039266Y021379D02*
X038013Y021379D01*
X037931Y021220D02*
X039108Y021220D01*
X038949Y021062D02*
X038330Y021062D01*
X038272Y020428D02*
X039890Y020428D01*
X039890Y020586D02*
X039011Y020586D01*
X039170Y020745D02*
X039852Y020745D01*
X039879Y020903D02*
X039328Y020903D01*
X039487Y021062D02*
X040018Y021062D01*
X040342Y021062D02*
X044030Y021062D01*
X043938Y020903D02*
X040481Y020903D01*
X040508Y020745D02*
X043920Y020745D01*
X043962Y020586D02*
X040470Y020586D01*
X040470Y020428D02*
X044088Y020428D01*
X044388Y020269D02*
X040470Y020269D01*
X040470Y020111D02*
X044335Y020111D01*
X044342Y019952D02*
X040470Y019952D01*
X040470Y019794D02*
X044418Y019794D01*
X044654Y019635D02*
X040470Y019635D01*
X040470Y019477D02*
X046102Y019477D01*
X046102Y019464D02*
X045653Y019015D01*
X045616Y019052D01*
X045495Y019102D01*
X045365Y019102D01*
X045244Y019052D01*
X045152Y018960D01*
X045102Y018839D01*
X045102Y018708D01*
X045152Y018588D01*
X045244Y018496D01*
X045365Y018446D01*
X045495Y018446D01*
X045616Y018496D01*
X045704Y018584D01*
X045759Y018584D01*
X046371Y019196D01*
X046495Y019196D01*
X046616Y019246D01*
X046708Y019338D01*
X046758Y019458D01*
X046758Y019589D01*
X046708Y019710D01*
X046616Y019802D01*
X046495Y019852D01*
X046365Y019852D01*
X046244Y019802D01*
X046152Y019710D01*
X046102Y019589D01*
X046102Y019464D01*
X046121Y019635D02*
X045706Y019635D01*
X045484Y019635D02*
X044876Y019635D01*
X045112Y019794D02*
X045248Y019794D01*
X045180Y020176D02*
X045131Y020296D01*
X045142Y020294D01*
X045160Y020294D01*
X045160Y020754D01*
X045200Y020754D01*
X045200Y020294D01*
X045218Y020294D01*
X045229Y020296D01*
X045180Y020176D01*
X045142Y020269D02*
X045218Y020269D01*
X045200Y020428D02*
X045160Y020428D01*
X045160Y020586D02*
X045200Y020586D01*
X045200Y020745D02*
X045160Y020745D01*
X045160Y020794D02*
X045160Y021254D01*
X045142Y021254D01*
X045131Y021252D01*
X045180Y021371D01*
X045229Y021252D01*
X045218Y021254D01*
X045200Y021254D01*
X045200Y020794D01*
X045160Y020794D01*
X045160Y020903D02*
X045200Y020903D01*
X045200Y021062D02*
X045160Y021062D01*
X045160Y021220D02*
X045200Y021220D01*
X045214Y021696D02*
X045146Y021696D01*
X045012Y021854D02*
X045348Y021854D01*
X044518Y021854D02*
X040279Y021854D01*
X040121Y021696D02*
X044384Y021696D01*
X044335Y021537D02*
X039962Y021537D01*
X039804Y021379D02*
X044347Y021379D01*
X044429Y021220D02*
X039645Y021220D01*
X039900Y022013D02*
X032438Y022013D01*
X032596Y022171D02*
X040059Y022171D01*
X040217Y022330D02*
X032950Y022330D01*
X033008Y022488D02*
X040352Y022488D01*
X040376Y022647D02*
X032984Y022647D01*
X032858Y022805D02*
X040502Y022805D01*
X040858Y022805D02*
X042130Y022805D01*
X042288Y022647D02*
X040984Y022647D01*
X041813Y023122D02*
X026350Y023122D01*
X026509Y022964D02*
X041971Y022964D01*
X041740Y023281D02*
X026192Y023281D01*
X026120Y023352D02*
X026120Y024602D01*
X026008Y024714D01*
X026008Y024839D01*
X025958Y024960D01*
X025866Y025052D01*
X025745Y025102D01*
X025615Y025102D01*
X025494Y025052D01*
X025402Y024960D01*
X025352Y024839D01*
X025352Y024708D01*
X025402Y024588D01*
X025494Y024496D01*
X025615Y024446D01*
X025739Y024446D01*
X025740Y024445D01*
X025740Y023195D01*
X025851Y023084D01*
X026601Y022334D01*
X031406Y022334D01*
X031494Y022246D01*
X031615Y022196D01*
X031745Y022196D01*
X031866Y022246D01*
X031958Y022338D01*
X032008Y022458D01*
X032008Y022589D01*
X031958Y022710D01*
X031866Y022802D01*
X031745Y022852D01*
X031615Y022852D01*
X031494Y022802D01*
X031406Y022714D01*
X026759Y022714D01*
X026120Y023352D01*
X026120Y023439D02*
X041740Y023439D01*
X041740Y023598D02*
X026120Y023598D01*
X026120Y023756D02*
X041740Y023756D01*
X041740Y023915D02*
X026120Y023915D01*
X026120Y024073D02*
X041740Y024073D01*
X041740Y024232D02*
X026120Y024232D01*
X026120Y024390D02*
X041740Y024390D01*
X041441Y024549D02*
X026120Y024549D01*
X026015Y024707D02*
X041352Y024707D01*
X041363Y024866D02*
X025997Y024866D01*
X025893Y025024D02*
X041467Y025024D01*
X036518Y021854D02*
X032279Y021854D01*
X032121Y021696D02*
X036384Y021696D01*
X036335Y021537D02*
X031962Y021537D01*
X031804Y021379D02*
X036347Y021379D01*
X036429Y021220D02*
X031645Y021220D01*
X031900Y022013D02*
X024438Y022013D01*
X024596Y022171D02*
X032059Y022171D01*
X031950Y022330D02*
X032217Y022330D01*
X032352Y022488D02*
X032008Y022488D01*
X031984Y022647D02*
X032376Y022647D01*
X032502Y022805D02*
X031858Y022805D01*
X031502Y022805D02*
X026667Y022805D01*
X026447Y022488D02*
X025008Y022488D01*
X024984Y022647D02*
X026288Y022647D01*
X026130Y022805D02*
X024858Y022805D01*
X024502Y022805D02*
X014107Y022805D01*
X014107Y022647D02*
X024376Y022647D01*
X024352Y022488D02*
X014043Y022488D01*
X014042Y022485D02*
X014107Y022642D01*
X014107Y023405D01*
X014042Y023562D01*
X013922Y023682D01*
X013765Y023747D01*
X013595Y023747D01*
X013438Y023682D01*
X013318Y023562D01*
X013253Y023405D01*
X013253Y022642D01*
X013318Y022485D01*
X013438Y022365D01*
X013595Y022300D01*
X013765Y022300D01*
X013922Y022365D01*
X014042Y022485D01*
X013837Y022330D02*
X024217Y022330D01*
X024059Y022171D02*
X005909Y022171D01*
X005608Y022330D02*
X012415Y022330D01*
X012430Y022319D02*
X012497Y022285D01*
X012568Y022262D01*
X012642Y022250D01*
X012662Y022250D01*
X012662Y023005D01*
X012698Y023005D01*
X012698Y022250D01*
X012718Y022250D01*
X012792Y022262D01*
X012863Y022285D01*
X012930Y022319D01*
X012991Y022363D01*
X013044Y022416D01*
X013088Y022477D01*
X013122Y022544D01*
X013145Y022615D01*
X013157Y022689D01*
X013157Y023005D01*
X012698Y023005D01*
X012698Y023042D01*
X012662Y023042D01*
X012662Y023797D01*
X012642Y023797D01*
X012568Y023786D01*
X012497Y023762D01*
X012430Y023728D01*
X012369Y023684D01*
X012316Y023631D01*
X012272Y023570D01*
X012238Y023504D01*
X012215Y023432D01*
X012203Y023358D01*
X012203Y023042D01*
X012662Y023042D01*
X012662Y023005D01*
X012203Y023005D01*
X012203Y022689D01*
X012215Y022615D01*
X012238Y022544D01*
X012272Y022477D01*
X012316Y022416D01*
X012369Y022363D01*
X012430Y022319D01*
X012662Y022330D02*
X012698Y022330D01*
X012698Y022488D02*
X012662Y022488D01*
X012662Y022647D02*
X012698Y022647D01*
X012698Y022805D02*
X012662Y022805D01*
X012662Y022964D02*
X012698Y022964D01*
X012698Y023042D02*
X013157Y023042D01*
X013157Y023358D01*
X013145Y023432D01*
X013122Y023504D01*
X013088Y023570D01*
X013044Y023631D01*
X012991Y023684D01*
X012930Y023728D01*
X012863Y023762D01*
X012792Y023786D01*
X012718Y023797D01*
X012698Y023797D01*
X012698Y023042D01*
X012698Y023122D02*
X012662Y023122D01*
X012662Y023281D02*
X012698Y023281D01*
X012698Y023439D02*
X012662Y023439D01*
X012662Y023598D02*
X012698Y023598D01*
X012698Y023756D02*
X012662Y023756D01*
X012485Y023756D02*
X000660Y023756D01*
X000660Y023598D02*
X012292Y023598D01*
X012217Y023439D02*
X000660Y023439D01*
X000660Y023281D02*
X012203Y023281D01*
X012203Y023122D02*
X000660Y023122D01*
X000660Y022964D02*
X012203Y022964D01*
X012203Y022805D02*
X000660Y022805D01*
X000660Y022647D02*
X012210Y022647D01*
X012266Y022488D02*
X000660Y022488D01*
X000660Y022330D02*
X004752Y022330D01*
X004451Y022171D02*
X000660Y022171D01*
X000660Y022013D02*
X002068Y022013D01*
X001712Y021854D02*
X000660Y021854D01*
X000660Y021696D02*
X001523Y021696D01*
X001386Y021537D02*
X000660Y021537D01*
X000660Y021379D02*
X001295Y021379D01*
X001232Y021220D02*
X000660Y021220D01*
X000660Y021062D02*
X001190Y021062D01*
X001175Y020903D02*
X000660Y020903D01*
X000660Y020745D02*
X001175Y020745D01*
X001175Y020586D02*
X000660Y020586D01*
X000660Y020428D02*
X001175Y020428D01*
X001175Y020269D02*
X000660Y020269D01*
X000660Y020111D02*
X001175Y020111D01*
X001175Y019952D02*
X000660Y019952D01*
X000660Y019794D02*
X001175Y019794D01*
X001175Y019635D02*
X000660Y019635D01*
X000660Y019477D02*
X001175Y019477D01*
X001175Y019318D02*
X000660Y019318D01*
X000660Y019160D02*
X001175Y019160D01*
X001175Y019001D02*
X000660Y019001D01*
X000660Y018843D02*
X001175Y018843D01*
X001175Y018684D02*
X000660Y018684D01*
X000660Y018526D02*
X001179Y018526D01*
X001221Y018367D02*
X000660Y018367D01*
X000660Y018209D02*
X001271Y018209D01*
X001363Y018050D02*
X000660Y018050D01*
X000660Y017892D02*
X001483Y017892D01*
X001642Y017733D02*
X000660Y017733D01*
X000660Y017575D02*
X001919Y017575D01*
X003585Y020269D02*
X003925Y020269D01*
X003925Y020428D02*
X003585Y020428D01*
X003585Y020586D02*
X003925Y020586D01*
X003925Y020745D02*
X003585Y020745D01*
X003585Y020903D02*
X003925Y020903D01*
X003925Y021062D02*
X003570Y021062D01*
X003528Y021220D02*
X003926Y021220D01*
X003946Y021379D02*
X003465Y021379D01*
X003374Y021537D02*
X003986Y021537D01*
X004049Y021696D02*
X003237Y021696D01*
X003048Y021854D02*
X004142Y021854D01*
X004269Y022013D02*
X002692Y022013D01*
X005100Y022013D02*
X005260Y022013D01*
X005260Y022171D02*
X005100Y022171D01*
X005100Y022330D02*
X005260Y022330D01*
X005260Y021854D02*
X005100Y021854D01*
X005100Y021696D02*
X005260Y021696D01*
X005260Y021537D02*
X005100Y021537D01*
X005100Y021379D02*
X005260Y021379D01*
X005260Y021220D02*
X005100Y021220D01*
X005100Y021062D02*
X005260Y021062D01*
X005260Y020903D02*
X005100Y020903D01*
X005100Y020745D02*
X005260Y020745D01*
X005260Y020586D02*
X005100Y020586D01*
X005100Y020428D02*
X005260Y020428D01*
X005260Y019994D02*
X006435Y019994D01*
X006435Y018937D01*
X006423Y018814D01*
X006399Y018693D01*
X006363Y018575D01*
X006316Y018461D01*
X006258Y018353D01*
X006189Y018250D01*
X006111Y018155D01*
X006024Y018068D01*
X005929Y017989D01*
X005826Y017921D01*
X005717Y017863D01*
X005603Y017816D01*
X005485Y017780D01*
X005364Y017756D01*
X005260Y017746D01*
X005260Y019994D01*
X005260Y019952D02*
X005100Y019952D01*
X005100Y019794D02*
X005260Y019794D01*
X005260Y019635D02*
X005100Y019635D01*
X005100Y019477D02*
X005260Y019477D01*
X005260Y019318D02*
X005100Y019318D01*
X005100Y019160D02*
X005260Y019160D01*
X005260Y019001D02*
X005100Y019001D01*
X005100Y018843D02*
X005260Y018843D01*
X005260Y018684D02*
X005100Y018684D01*
X005100Y018526D02*
X005260Y018526D01*
X005260Y018367D02*
X005100Y018367D01*
X005100Y018209D02*
X005260Y018209D01*
X005260Y018050D02*
X005100Y018050D01*
X005100Y017892D02*
X005260Y017892D01*
X005771Y017892D02*
X012638Y017892D01*
X012840Y018050D02*
X006003Y018050D01*
X006155Y018209D02*
X023705Y018209D01*
X023863Y018367D02*
X006265Y018367D01*
X006342Y018526D02*
X021214Y018526D01*
X021244Y018496D02*
X021152Y018588D01*
X021102Y018708D01*
X021102Y018839D01*
X021152Y018960D01*
X021244Y019052D01*
X021365Y019102D01*
X021495Y019102D01*
X021616Y019052D01*
X021653Y019015D01*
X022102Y019464D01*
X022102Y019589D01*
X022152Y019710D01*
X022244Y019802D01*
X022365Y019852D01*
X022495Y019852D01*
X022616Y019802D01*
X022708Y019710D01*
X022758Y019589D01*
X022758Y019458D01*
X022708Y019338D01*
X022616Y019246D01*
X022495Y019196D01*
X022371Y019196D01*
X021870Y018695D01*
X021870Y018695D01*
X021759Y018584D01*
X021704Y018584D01*
X021616Y018496D01*
X021495Y018446D01*
X021365Y018446D01*
X021244Y018496D01*
X021112Y018684D02*
X006396Y018684D01*
X006426Y018843D02*
X021103Y018843D01*
X021194Y019001D02*
X006435Y019001D01*
X006435Y019160D02*
X021797Y019160D01*
X021956Y019318D02*
X006435Y019318D01*
X006435Y019477D02*
X022102Y019477D01*
X022121Y019635D02*
X021706Y019635D01*
X021484Y019635D02*
X020876Y019635D01*
X020654Y019635D02*
X006435Y019635D01*
X006435Y019794D02*
X020418Y019794D01*
X020342Y019952D02*
X006435Y019952D01*
X005260Y017258D02*
X005100Y017258D01*
X005100Y017099D02*
X005260Y017099D01*
X005260Y016941D02*
X005100Y016941D01*
X005100Y016782D02*
X005260Y016782D01*
X005260Y016624D02*
X005100Y016624D01*
X005100Y016465D02*
X005260Y016465D01*
X005260Y016307D02*
X005100Y016307D01*
X005100Y016148D02*
X005260Y016148D01*
X005260Y015990D02*
X005100Y015990D01*
X005100Y015831D02*
X005260Y015831D01*
X005260Y015673D02*
X005100Y015673D01*
X005100Y015514D02*
X005260Y015514D01*
X005260Y015356D02*
X005100Y015356D01*
X006435Y014880D02*
X009626Y014880D01*
X009468Y014722D02*
X006435Y014722D01*
X006435Y014563D02*
X009309Y014563D01*
X009265Y014405D02*
X006435Y014405D01*
X006435Y014246D02*
X009265Y014246D01*
X009265Y014088D02*
X006435Y014088D01*
X006434Y013929D02*
X009265Y013929D01*
X009265Y013771D02*
X006414Y013771D01*
X006374Y013612D02*
X009265Y013612D01*
X009265Y013454D02*
X006312Y013454D01*
X006219Y013295D02*
X009265Y013295D01*
X009265Y013137D02*
X006093Y013137D01*
X005912Y012978D02*
X009265Y012978D01*
X009265Y012820D02*
X005613Y012820D01*
X004275Y012186D02*
X000660Y012186D01*
X000660Y012344D02*
X009265Y012344D01*
X010560Y012503D02*
X016237Y012503D01*
X016121Y012661D02*
X010560Y012661D01*
X010560Y012820D02*
X016102Y012820D01*
X016171Y012978D02*
X010560Y012978D01*
X010560Y013137D02*
X016240Y013137D01*
X016240Y013295D02*
X010560Y013295D01*
X010560Y013454D02*
X016240Y013454D01*
X016142Y013612D02*
X010560Y013612D01*
X010560Y013771D02*
X016102Y013771D01*
X016139Y013929D02*
X010560Y013929D01*
X013067Y016624D02*
X021511Y016624D01*
X022045Y015831D02*
X027354Y015831D01*
X027512Y015673D02*
X022223Y015673D01*
X022258Y015514D02*
X029207Y015514D01*
X029109Y015356D02*
X022216Y015356D01*
X022120Y015197D02*
X029107Y015197D01*
X029201Y015039D02*
X022120Y015039D01*
X022055Y014880D02*
X029490Y014880D01*
X029490Y014722D02*
X021897Y014722D01*
X021870Y014563D02*
X029490Y014563D01*
X029490Y014405D02*
X021870Y014405D01*
X021870Y014246D02*
X029384Y014246D01*
X029854Y013929D02*
X030817Y013929D01*
X030658Y013771D02*
X029696Y013771D01*
X030013Y014088D02*
X030975Y014088D01*
X031134Y014246D02*
X030120Y014246D01*
X030120Y014405D02*
X031292Y014405D01*
X031451Y014563D02*
X030120Y014563D01*
X029637Y015673D02*
X028098Y015673D01*
X028256Y015831D02*
X029815Y015831D01*
X028415Y015990D02*
X035445Y015990D01*
X036177Y016307D02*
X036194Y016307D01*
X036258Y016465D02*
X036353Y016465D01*
X036244Y016624D02*
X036511Y016624D01*
X036732Y016307D02*
X043683Y016307D01*
X043725Y016782D02*
X036135Y016782D01*
X035725Y016782D02*
X028135Y016782D01*
X028244Y016624D02*
X028261Y016624D01*
X027725Y016782D02*
X013226Y016782D01*
X019196Y014722D02*
X019359Y014722D01*
X021870Y014088D02*
X024725Y014088D01*
X024567Y013929D02*
X021870Y013929D01*
X021870Y013771D02*
X024408Y013771D01*
X024250Y013612D02*
X021870Y013612D01*
X021870Y013454D02*
X024091Y013454D01*
X023933Y013295D02*
X021870Y013295D01*
X021870Y013137D02*
X023774Y013137D01*
X023616Y012978D02*
X021870Y012978D01*
X021870Y012820D02*
X023457Y012820D01*
X023299Y012661D02*
X021870Y012661D01*
X021870Y012503D02*
X023140Y012503D01*
X022982Y012344D02*
X021870Y012344D01*
X021870Y012186D02*
X022823Y012186D01*
X023419Y011076D02*
X023441Y011076D01*
X023919Y011076D02*
X023941Y011076D01*
X024419Y011076D02*
X024441Y011076D01*
X025240Y010759D02*
X022870Y010759D01*
X022870Y010601D02*
X025240Y010601D01*
X025240Y010442D02*
X023780Y010442D01*
X023939Y010284D02*
X025240Y010284D01*
X025240Y010125D02*
X024097Y010125D01*
X024451Y009967D02*
X025240Y009967D01*
X025240Y009808D02*
X024508Y009808D01*
X024484Y009650D02*
X025240Y009650D01*
X025240Y009491D02*
X024355Y009491D01*
X024005Y009491D02*
X022166Y009491D01*
X022008Y009333D02*
X025240Y009333D01*
X025240Y009174D02*
X021995Y009174D01*
X021995Y009016D02*
X025240Y009016D01*
X025240Y008857D02*
X021995Y008857D01*
X021995Y008699D02*
X025240Y008699D01*
X025240Y008540D02*
X021995Y008540D01*
X021995Y008382D02*
X025240Y008382D01*
X025240Y008223D02*
X021898Y008223D01*
X021740Y008065D02*
X025240Y008065D01*
X025240Y007906D02*
X019709Y007906D01*
X019738Y007748D02*
X020968Y007748D01*
X020873Y007589D02*
X019682Y007589D01*
X019430Y007774D02*
X015180Y007774D01*
X014930Y007524D01*
X014180Y007524D01*
X014392Y007748D02*
X014857Y007748D01*
X014751Y007906D02*
X000660Y007906D01*
X000660Y007748D02*
X013968Y007748D01*
X013873Y007589D02*
X010402Y007589D01*
X010395Y007596D02*
X010256Y007654D01*
X009193Y007654D01*
X009188Y007659D01*
X009020Y007729D01*
X008840Y007729D01*
X008672Y007659D01*
X008544Y007531D01*
X008475Y007364D01*
X008475Y007183D01*
X008544Y007016D01*
X008672Y006888D01*
X008840Y006819D01*
X009020Y006819D01*
X009188Y006888D01*
X009193Y006894D01*
X010023Y006894D01*
X012800Y004116D01*
X012800Y003448D01*
X012858Y003308D01*
X012965Y003202D01*
X013501Y002665D01*
X013552Y002541D01*
X013668Y002426D01*
X013818Y002364D01*
X014542Y002364D01*
X014692Y002426D01*
X014808Y002541D01*
X014870Y002692D01*
X014870Y002855D01*
X014808Y003006D01*
X014692Y003121D01*
X014542Y003184D01*
X014057Y003184D01*
X013877Y003364D01*
X014542Y003364D01*
X014692Y003426D01*
X014808Y003541D01*
X014870Y003692D01*
X014870Y003855D01*
X014808Y004006D01*
X014692Y004121D01*
X014542Y004184D01*
X013818Y004184D01*
X013668Y004121D01*
X013560Y004014D01*
X013560Y004349D01*
X013502Y004489D01*
X010502Y007489D01*
X010395Y007596D01*
X010560Y007431D02*
X013885Y007431D01*
X013995Y007272D02*
X010719Y007272D01*
X010877Y007114D02*
X020750Y007114D01*
X020750Y007272D02*
X014365Y007272D01*
X015134Y007431D02*
X020832Y007431D01*
X021475Y007431D02*
X025240Y007431D01*
X025240Y007589D02*
X021487Y007589D01*
X021392Y007748D02*
X025240Y007748D01*
X025240Y007272D02*
X021618Y007272D01*
X021727Y007114D02*
X025240Y007114D01*
X025240Y006955D02*
X024517Y006955D01*
X024676Y006797D02*
X025240Y006797D01*
X025240Y006638D02*
X024834Y006638D01*
X024993Y006480D02*
X025240Y006480D01*
X025151Y006321D02*
X025364Y006321D01*
X025310Y006163D02*
X025522Y006163D01*
X025468Y006004D02*
X025681Y006004D01*
X025627Y005846D02*
X025839Y005846D01*
X025785Y005687D02*
X025998Y005687D01*
X025944Y005529D02*
X026102Y005529D01*
X026102Y005370D02*
X026138Y005370D01*
X026261Y005212D02*
X026326Y005212D01*
X026419Y005053D02*
X034547Y005053D01*
X034705Y004895D02*
X026578Y004895D01*
X026736Y004736D02*
X034864Y004736D01*
X034930Y004578D02*
X029553Y004578D01*
X029725Y004419D02*
X034930Y004419D01*
X034930Y004261D02*
X029758Y004261D01*
X029714Y004102D02*
X034930Y004102D01*
X034930Y003944D02*
X029465Y003944D01*
X029508Y003785D02*
X034930Y003785D01*
X034930Y003627D02*
X029474Y003627D01*
X029300Y003468D02*
X034930Y003468D01*
X034930Y003310D02*
X029258Y003310D01*
X029234Y003151D02*
X034930Y003151D01*
X034930Y002993D02*
X029109Y002993D01*
X029008Y002834D02*
X035016Y002834D01*
X035174Y002676D02*
X028995Y002676D01*
X028888Y002517D02*
X035245Y002517D01*
X035200Y002359D02*
X028750Y002359D01*
X028755Y002200D02*
X035200Y002200D01*
X035233Y002042D02*
X028662Y002042D01*
X028490Y001883D02*
X035392Y001883D01*
X035660Y001883D02*
X035700Y001883D01*
X035700Y001794D02*
X035879Y001794D01*
X036160Y002075D01*
X036160Y002254D01*
X035700Y002254D01*
X035700Y001794D01*
X035700Y002042D02*
X035660Y002042D01*
X035660Y002200D02*
X035700Y002200D01*
X035968Y001883D02*
X036462Y001883D01*
X036304Y002042D02*
X036127Y002042D01*
X036160Y002200D02*
X036250Y002200D01*
X036250Y002359D02*
X036160Y002359D01*
X036115Y002517D02*
X036315Y002517D01*
X037045Y002517D02*
X037083Y002517D01*
X037110Y002359D02*
X037241Y002359D01*
X037250Y002200D02*
X037110Y002200D01*
X037056Y002042D02*
X037304Y002042D01*
X037462Y001883D02*
X036898Y001883D01*
X037898Y001883D02*
X049700Y001883D01*
X049700Y001725D02*
X028508Y001725D01*
X028437Y001566D02*
X049700Y001566D01*
X049700Y001408D02*
X026487Y001408D01*
X026508Y001566D02*
X027923Y001566D01*
X027852Y001725D02*
X026443Y001725D01*
X025990Y001883D02*
X021558Y001883D01*
X021508Y001725D02*
X025917Y001725D01*
X025852Y001566D02*
X021437Y001566D01*
X021620Y002042D02*
X025893Y002042D01*
X025735Y002200D02*
X021620Y002200D01*
X021620Y002359D02*
X025576Y002359D01*
X025418Y002517D02*
X021620Y002517D01*
X021620Y002676D02*
X025259Y002676D01*
X025101Y002834D02*
X021620Y002834D01*
X021620Y002993D02*
X024942Y002993D01*
X024784Y003151D02*
X021620Y003151D01*
X020990Y003151D02*
X014620Y003151D01*
X014813Y002993D02*
X020990Y002993D01*
X020990Y002834D02*
X014870Y002834D01*
X014863Y002676D02*
X020990Y002676D01*
X020905Y002517D02*
X014783Y002517D01*
X014692Y002121D02*
X014542Y002184D01*
X013818Y002184D01*
X013668Y002121D01*
X013552Y002006D01*
X013490Y001855D01*
X013490Y001692D01*
X013552Y001541D01*
X013668Y001426D01*
X013818Y001364D01*
X014542Y001364D01*
X014692Y001426D01*
X014808Y001541D01*
X014870Y001692D01*
X014870Y001855D01*
X014808Y002006D01*
X014692Y002121D01*
X014772Y002042D02*
X020234Y002042D01*
X020120Y001883D02*
X014858Y001883D01*
X014870Y001725D02*
X020102Y001725D01*
X020173Y001566D02*
X014818Y001566D01*
X014648Y001408D02*
X025873Y001408D01*
X026480Y002993D02*
X028130Y002993D01*
X028289Y003151D02*
X026321Y003151D01*
X026163Y003310D02*
X028447Y003310D01*
X028660Y003468D02*
X026004Y003468D01*
X025846Y003627D02*
X028886Y003627D01*
X028852Y003785D02*
X025687Y003785D01*
X025529Y003944D02*
X028741Y003944D01*
X026583Y004102D02*
X025370Y004102D01*
X025212Y004261D02*
X026424Y004261D01*
X026266Y004419D02*
X025053Y004419D01*
X024895Y004578D02*
X026107Y004578D01*
X025949Y004736D02*
X024736Y004736D01*
X024578Y004895D02*
X025790Y004895D01*
X025632Y005053D02*
X024419Y005053D01*
X024261Y005212D02*
X025473Y005212D01*
X025315Y005370D02*
X023602Y005370D01*
X023444Y005529D02*
X025156Y005529D01*
X024998Y005687D02*
X023285Y005687D01*
X023234Y005846D02*
X024839Y005846D01*
X024681Y006004D02*
X024625Y006004D01*
X024235Y006004D02*
X023136Y006004D01*
X022724Y006004D02*
X022120Y006004D01*
X022120Y005846D02*
X022626Y005846D01*
X022632Y005687D02*
X022120Y005687D01*
X022120Y005529D02*
X022739Y005529D01*
X022714Y005053D02*
X021728Y005053D01*
X021620Y004895D02*
X023040Y004895D01*
X021490Y005687D02*
X021478Y005687D01*
X021488Y005712D02*
X021441Y005599D01*
X021355Y005512D01*
X021241Y005465D01*
X021119Y005465D01*
X021005Y005512D01*
X020934Y005584D01*
X017509Y005584D01*
X017508Y005583D01*
X017508Y005458D01*
X017458Y005338D01*
X017366Y005246D01*
X017245Y005196D01*
X017115Y005196D01*
X016994Y005246D01*
X016930Y005310D01*
X016866Y005246D01*
X016745Y005196D01*
X016615Y005196D01*
X016494Y005246D01*
X016402Y005338D01*
X016352Y005458D01*
X016352Y005589D01*
X016402Y005710D01*
X016494Y005802D01*
X016615Y005852D01*
X016739Y005852D01*
X017101Y006214D01*
X020601Y006214D01*
X020622Y006234D01*
X020622Y006335D01*
X020669Y006448D01*
X020755Y006535D01*
X020869Y006582D01*
X020991Y006582D01*
X021105Y006535D01*
X021191Y006448D01*
X021238Y006335D01*
X021238Y006212D01*
X021191Y006099D01*
X021175Y006082D01*
X021241Y006082D01*
X021355Y006035D01*
X021441Y005948D01*
X021488Y005835D01*
X021488Y005712D01*
X021484Y005846D02*
X021490Y005846D01*
X021490Y006004D02*
X021386Y006004D01*
X021490Y006163D02*
X021218Y006163D01*
X021238Y006321D02*
X021364Y006321D01*
X021205Y006480D02*
X021160Y006480D01*
X021047Y006638D02*
X011353Y006638D01*
X011511Y006480D02*
X020700Y006480D01*
X020622Y006321D02*
X011670Y006321D01*
X011828Y006163D02*
X017050Y006163D01*
X016892Y006004D02*
X011987Y006004D01*
X012145Y005846D02*
X016600Y005846D01*
X016393Y005687D02*
X012304Y005687D01*
X012462Y005529D02*
X016352Y005529D01*
X016388Y005370D02*
X012621Y005370D01*
X012779Y005212D02*
X016576Y005212D01*
X016784Y005212D02*
X017076Y005212D01*
X017284Y005212D02*
X021099Y005212D01*
X020990Y005053D02*
X012938Y005053D01*
X013096Y004895D02*
X020990Y004895D01*
X020990Y004736D02*
X013255Y004736D01*
X013413Y004578D02*
X020990Y004578D01*
X020990Y004419D02*
X013531Y004419D01*
X013560Y004261D02*
X020990Y004261D01*
X020990Y004102D02*
X014711Y004102D01*
X014833Y003944D02*
X020990Y003944D01*
X020990Y003785D02*
X014870Y003785D01*
X014843Y003627D02*
X020990Y003627D01*
X020990Y003468D02*
X014734Y003468D01*
X013931Y003310D02*
X020990Y003310D01*
X020746Y002359D02*
X011840Y002359D01*
X011812Y002347D02*
X011969Y002412D01*
X012089Y002532D01*
X012154Y002689D01*
X012154Y002859D01*
X012089Y003015D01*
X011969Y003136D01*
X011812Y003201D01*
X011048Y003201D01*
X010891Y003136D01*
X010771Y003015D01*
X010706Y002859D01*
X010706Y002689D01*
X010771Y002532D01*
X010891Y002412D01*
X011048Y002347D01*
X011812Y002347D01*
X011764Y002251D02*
X011448Y002251D01*
X011448Y001792D01*
X011412Y001792D01*
X011412Y002251D01*
X011096Y002251D01*
X011021Y002239D01*
X010950Y002216D01*
X010883Y002182D01*
X010823Y002137D01*
X010769Y002084D01*
X010725Y002024D01*
X010691Y001957D01*
X010668Y001885D01*
X010656Y001811D01*
X010656Y001792D01*
X011412Y001792D01*
X011412Y001755D01*
X011448Y001755D01*
X011448Y001297D01*
X011764Y001297D01*
X011839Y001309D01*
X011910Y001332D01*
X011977Y001366D01*
X012037Y001410D01*
X012091Y001463D01*
X012135Y001524D01*
X012169Y001591D01*
X012192Y001662D01*
X012204Y001736D01*
X012204Y001755D01*
X011448Y001755D01*
X011448Y001792D01*
X012204Y001792D01*
X012204Y001811D01*
X012192Y001885D01*
X012169Y001957D01*
X012135Y002024D01*
X012091Y002084D01*
X012037Y002137D01*
X011977Y002182D01*
X011910Y002216D01*
X011839Y002239D01*
X011764Y002251D01*
X011940Y002200D02*
X020588Y002200D01*
X020808Y001883D02*
X020870Y001883D01*
X020852Y001725D02*
X020758Y001725D01*
X020687Y001566D02*
X020923Y001566D01*
X020967Y002042D02*
X020984Y002042D01*
X021125Y002200D02*
X021240Y002200D01*
X021258Y005370D02*
X017472Y005370D01*
X017508Y005529D02*
X020989Y005529D01*
X021371Y005529D02*
X021416Y005529D01*
X022120Y006163D02*
X024121Y006163D01*
X023668Y006321D02*
X022120Y006321D01*
X022120Y006480D02*
X023602Y006480D01*
X023622Y006638D02*
X022084Y006638D01*
X021926Y006797D02*
X023739Y006797D01*
X024093Y006955D02*
X021767Y006955D01*
X020902Y006797D02*
X011194Y006797D01*
X011036Y006955D02*
X020750Y006955D01*
X021120Y008065D02*
X019533Y008065D01*
X019327Y008065D02*
X015186Y008065D01*
X015312Y008223D02*
X015548Y008223D01*
X015812Y008223D02*
X016048Y008223D01*
X016312Y008223D02*
X016548Y008223D01*
X016812Y008223D02*
X020962Y008223D01*
X020803Y008382D02*
X016976Y008382D01*
X017008Y008540D02*
X020645Y008540D01*
X020490Y008699D02*
X016963Y008699D01*
X016615Y008857D02*
X020490Y008857D01*
X020490Y009016D02*
X016457Y009016D01*
X016370Y009174D02*
X020490Y009174D01*
X022325Y009650D02*
X023876Y009650D01*
X023852Y009808D02*
X022483Y009808D01*
X022642Y009967D02*
X023718Y009967D01*
X026120Y010284D02*
X034151Y010284D01*
X033993Y010442D02*
X026120Y010442D01*
X026120Y009174D02*
X035261Y009174D01*
X035419Y009016D02*
X026120Y009016D01*
X027069Y006321D02*
X033279Y006321D01*
X033437Y006163D02*
X027228Y006163D01*
X027258Y006004D02*
X033596Y006004D01*
X033754Y005846D02*
X027211Y005846D01*
X026717Y005687D02*
X033913Y005687D01*
X034071Y005529D02*
X026758Y005529D01*
X026722Y005370D02*
X034230Y005370D01*
X034388Y005212D02*
X026534Y005212D01*
X025890Y012503D02*
X024928Y012503D01*
X024467Y018209D02*
X031705Y018209D01*
X031863Y018367D02*
X024470Y018367D01*
X023890Y018526D02*
X021646Y018526D01*
X021859Y018684D02*
X023890Y018684D01*
X023890Y018843D02*
X022018Y018843D01*
X022176Y019001D02*
X023890Y019001D01*
X023890Y019160D02*
X022335Y019160D01*
X022689Y019318D02*
X023890Y019318D01*
X023890Y019477D02*
X022758Y019477D01*
X022739Y019635D02*
X023890Y019635D01*
X023890Y019794D02*
X022624Y019794D01*
X022236Y019794D02*
X021942Y019794D01*
X022018Y019952D02*
X023890Y019952D01*
X023890Y020111D02*
X022025Y020111D01*
X021972Y020269D02*
X023890Y020269D01*
X023890Y020428D02*
X022272Y020428D01*
X023011Y020586D02*
X023890Y020586D01*
X023645Y021220D02*
X028429Y021220D01*
X028347Y021379D02*
X023804Y021379D01*
X023962Y021537D02*
X028335Y021537D01*
X028384Y021696D02*
X024121Y021696D01*
X024279Y021854D02*
X028518Y021854D01*
X025971Y022964D02*
X014107Y022964D01*
X014107Y023122D02*
X025813Y023122D01*
X025740Y023281D02*
X014107Y023281D01*
X014093Y023439D02*
X025740Y023439D01*
X025740Y023598D02*
X014006Y023598D01*
X013354Y023598D02*
X013068Y023598D01*
X013143Y023439D02*
X013267Y023439D01*
X013253Y023281D02*
X013157Y023281D01*
X013157Y023122D02*
X013253Y023122D01*
X013253Y022964D02*
X013157Y022964D01*
X013157Y022805D02*
X013253Y022805D01*
X013253Y022647D02*
X013150Y022647D01*
X013094Y022488D02*
X013317Y022488D01*
X013523Y022330D02*
X012945Y022330D01*
X012875Y023756D02*
X025740Y023756D01*
X025740Y023915D02*
X000660Y023915D01*
X000660Y024073D02*
X025740Y024073D01*
X025740Y024232D02*
X000660Y024232D01*
X000660Y024390D02*
X025740Y024390D01*
X025441Y024549D02*
X000660Y024549D01*
X000660Y024707D02*
X025352Y024707D01*
X025363Y024866D02*
X018749Y024866D01*
X018883Y025024D02*
X025467Y025024D01*
X024950Y022330D02*
X031410Y022330D01*
X032470Y019318D02*
X037956Y019318D01*
X037797Y019160D02*
X032470Y019160D01*
X032470Y019001D02*
X037194Y019001D01*
X037103Y018843D02*
X032470Y018843D01*
X032470Y018684D02*
X037112Y018684D01*
X037214Y018526D02*
X032470Y018526D01*
X032470Y018367D02*
X039863Y018367D01*
X039890Y018526D02*
X037646Y018526D01*
X037859Y018684D02*
X039890Y018684D01*
X039890Y018843D02*
X038018Y018843D01*
X038176Y019001D02*
X039890Y019001D01*
X039890Y019160D02*
X038335Y019160D01*
X038689Y019318D02*
X039890Y019318D01*
X039890Y019477D02*
X038758Y019477D01*
X038739Y019635D02*
X039890Y019635D01*
X039890Y019794D02*
X038624Y019794D01*
X038236Y019794D02*
X037942Y019794D01*
X038018Y019952D02*
X039890Y019952D01*
X039890Y020111D02*
X038025Y020111D01*
X037972Y020269D02*
X039890Y020269D01*
X040470Y019318D02*
X045956Y019318D01*
X045797Y019160D02*
X040470Y019160D01*
X040470Y019001D02*
X045194Y019001D01*
X045103Y018843D02*
X040470Y018843D01*
X040470Y018684D02*
X045112Y018684D01*
X045214Y018526D02*
X040470Y018526D01*
X040470Y018367D02*
X047613Y018367D01*
X047455Y018209D02*
X040467Y018209D01*
X039705Y018209D02*
X032467Y018209D01*
X036415Y015990D02*
X044877Y015990D01*
X045036Y016148D02*
X036573Y016148D01*
X038397Y011710D02*
X038490Y011710D01*
X038490Y011552D02*
X038465Y011552D01*
X037490Y009333D02*
X037453Y009333D01*
X036120Y004852D02*
X036120Y004102D01*
X037279Y003944D02*
X038793Y003944D01*
X038650Y003785D02*
X037437Y003785D01*
X038110Y003627D02*
X038508Y003627D01*
X038365Y003468D02*
X038110Y003468D01*
X038110Y003310D02*
X038222Y003310D01*
X038056Y002042D02*
X049700Y002042D01*
X045102Y016307D02*
X044177Y016307D01*
X044258Y016465D02*
X045158Y016465D01*
X044244Y016624D02*
X048480Y016624D01*
X048269Y016782D02*
X044135Y016782D01*
X043519Y017099D02*
X047846Y017099D01*
X048057Y016941D02*
X043369Y016941D01*
X043560Y017258D02*
X047635Y017258D01*
X047423Y017416D02*
X043532Y017416D01*
X045646Y018526D02*
X047772Y018526D01*
X047890Y018684D02*
X045859Y018684D01*
X046018Y018843D02*
X047890Y018843D01*
X047890Y019001D02*
X046176Y019001D01*
X046335Y019160D02*
X047890Y019160D01*
X047890Y019318D02*
X046689Y019318D01*
X046758Y019477D02*
X047890Y019477D01*
X047890Y019635D02*
X046739Y019635D01*
X046624Y019794D02*
X047890Y019794D01*
X047890Y019952D02*
X046018Y019952D01*
X046025Y020111D02*
X047890Y020111D01*
X047890Y020269D02*
X045972Y020269D01*
X046272Y020428D02*
X047890Y020428D01*
X046236Y019794D02*
X045942Y019794D01*
X034715Y030255D02*
X026644Y030255D01*
X026254Y030255D02*
X026154Y030255D01*
X026154Y030413D02*
X026254Y030413D01*
X026254Y030572D02*
X026154Y030572D01*
X026154Y030730D02*
X024786Y030730D01*
X024786Y030889D02*
X025533Y030889D01*
X025581Y031047D02*
X024725Y031047D01*
X024615Y031206D02*
X025678Y031206D01*
X025866Y031364D02*
X024377Y031364D01*
X024755Y030572D02*
X025554Y030572D01*
X025627Y030413D02*
X024687Y030413D01*
X024528Y030255D02*
X025763Y030255D01*
X026254Y030730D02*
X034018Y030730D01*
X034036Y030712D02*
X033859Y030889D01*
X034036Y030712D02*
X034267Y030616D01*
X034518Y030616D01*
X034749Y030712D01*
X034926Y030889D02*
X035434Y030889D01*
X035368Y031047D02*
X034992Y031047D01*
X035023Y031206D02*
X035337Y031206D01*
X035337Y031364D02*
X035023Y031364D01*
X034960Y031523D02*
X035400Y031523D01*
X035512Y031681D02*
X034848Y031681D01*
X034606Y031840D02*
X035754Y031840D01*
X026254Y031364D02*
X026154Y031364D01*
X026154Y031206D02*
X026254Y031206D01*
X026254Y031047D02*
X026154Y031047D01*
X026154Y030889D02*
X026254Y030889D01*
X018088Y025658D02*
X005522Y025658D01*
X004838Y025658D02*
X000660Y025658D01*
X000660Y025500D02*
X004717Y025500D01*
X004666Y025341D02*
X000660Y025341D01*
X000660Y025183D02*
X004666Y025183D01*
X004727Y025024D02*
X000660Y025024D01*
X000660Y024866D02*
X004861Y024866D01*
X005499Y024866D02*
X018111Y024866D01*
X021012Y021854D02*
X021348Y021854D01*
X021214Y021696D02*
X021146Y021696D01*
X021180Y021371D02*
X021229Y021252D01*
X021218Y021254D01*
X021200Y021254D01*
X021200Y020794D01*
X021160Y020794D01*
X021160Y021254D01*
X021142Y021254D01*
X021131Y021252D01*
X021180Y021371D01*
X021160Y021220D02*
X021200Y021220D01*
X021200Y021062D02*
X021160Y021062D01*
X021160Y020903D02*
X021200Y020903D01*
X021200Y020754D02*
X021200Y020294D01*
X021218Y020294D01*
X021229Y020296D01*
X021180Y020176D01*
X021131Y020296D01*
X021142Y020294D01*
X021160Y020294D01*
X021160Y020754D01*
X021200Y020754D01*
X021200Y020745D02*
X021160Y020745D01*
X021160Y020586D02*
X021200Y020586D01*
X021200Y020428D02*
X021160Y020428D01*
X021142Y020269D02*
X021218Y020269D01*
X021248Y019794D02*
X021112Y019794D01*
X012349Y026134D02*
X000660Y026134D01*
X000660Y026292D02*
X012239Y026292D01*
X012203Y026451D02*
X000660Y026451D01*
X000660Y026609D02*
X012203Y026609D01*
X004067Y012027D02*
X000660Y012027D01*
X000660Y011869D02*
X003920Y011869D01*
X003855Y011710D02*
X000660Y011710D01*
X000660Y011552D02*
X003789Y011552D01*
X003787Y011393D02*
X000660Y011393D01*
X000660Y011235D02*
X003787Y011235D01*
X003827Y011076D02*
X000660Y011076D01*
X000660Y010918D02*
X003893Y010918D01*
X004001Y010759D02*
X000660Y010759D01*
X000660Y010601D02*
X004160Y010601D01*
X000660Y008857D02*
X014300Y008857D01*
X014458Y008699D02*
X000660Y008699D01*
X000660Y008540D02*
X014470Y008540D01*
X014470Y008382D02*
X000660Y008382D01*
X000660Y008223D02*
X014470Y008223D01*
X014592Y008065D02*
X000660Y008065D01*
X000660Y007589D02*
X008602Y007589D01*
X008503Y007431D02*
X000660Y007431D01*
X000660Y007272D02*
X008475Y007272D01*
X008504Y007114D02*
X004920Y007114D01*
X004905Y007120D02*
X004534Y007120D01*
X004191Y006978D01*
X003929Y006715D01*
X003787Y006373D01*
X003787Y006002D01*
X003929Y005659D01*
X004191Y005396D01*
X004534Y005254D01*
X004905Y005254D01*
X005248Y005396D01*
X005510Y005659D01*
X005652Y006002D01*
X005652Y006373D01*
X005510Y006715D01*
X005248Y006978D01*
X004905Y007120D01*
X004519Y007114D02*
X000660Y007114D01*
X000660Y006955D02*
X004168Y006955D01*
X004010Y006797D02*
X000660Y006797D01*
X000660Y006638D02*
X003897Y006638D01*
X003831Y006480D02*
X000660Y006480D01*
X000660Y006321D02*
X003787Y006321D01*
X003787Y006163D02*
X000660Y006163D01*
X000660Y006004D02*
X003787Y006004D01*
X003851Y005846D02*
X000660Y005846D01*
X000660Y005687D02*
X003917Y005687D01*
X004059Y005529D02*
X000660Y005529D01*
X000660Y005370D02*
X004254Y005370D01*
X005185Y005370D02*
X011546Y005370D01*
X011705Y005212D02*
X000660Y005212D01*
X000660Y005053D02*
X011863Y005053D01*
X012022Y004895D02*
X000660Y004895D01*
X000660Y004736D02*
X012180Y004736D01*
X012339Y004578D02*
X000660Y004578D01*
X000660Y004419D02*
X002204Y004419D01*
X002205Y004420D02*
X001925Y004258D01*
X001696Y004029D01*
X001534Y003748D01*
X001450Y003436D01*
X001450Y003112D01*
X001534Y002799D01*
X001696Y002518D01*
X001925Y002289D01*
X002205Y002128D01*
X002518Y002044D01*
X002842Y002044D01*
X003155Y002128D01*
X003435Y002289D01*
X003664Y002518D01*
X003826Y002799D01*
X003910Y003112D01*
X003910Y003436D01*
X003826Y003748D01*
X003664Y004029D01*
X003435Y004258D01*
X003155Y004420D01*
X002842Y004504D01*
X002518Y004504D01*
X002205Y004420D01*
X001930Y004261D02*
X000660Y004261D01*
X000660Y004102D02*
X001769Y004102D01*
X001647Y003944D02*
X000660Y003944D01*
X000660Y003785D02*
X001555Y003785D01*
X001501Y003627D02*
X000660Y003627D01*
X000660Y003468D02*
X001459Y003468D01*
X001450Y003310D02*
X000660Y003310D01*
X000660Y003151D02*
X001450Y003151D01*
X001482Y002993D02*
X000660Y002993D01*
X000660Y002834D02*
X001524Y002834D01*
X001605Y002676D02*
X000660Y002676D01*
X000660Y002517D02*
X001697Y002517D01*
X001856Y002359D02*
X000660Y002359D01*
X000660Y002200D02*
X002079Y002200D01*
X003281Y002200D02*
X008170Y002200D01*
X008200Y002216D02*
X008133Y002182D01*
X008073Y002137D01*
X008019Y002084D01*
X007975Y002024D01*
X007941Y001957D01*
X007918Y001885D01*
X007906Y001811D01*
X007906Y001792D01*
X008662Y001792D01*
X008662Y002251D01*
X008346Y002251D01*
X008271Y002239D01*
X008200Y002216D01*
X008270Y002359D02*
X003504Y002359D01*
X003663Y002517D02*
X008036Y002517D01*
X008021Y002532D02*
X008141Y002412D01*
X008298Y002347D01*
X009062Y002347D01*
X009219Y002412D01*
X009339Y002532D01*
X009404Y002689D01*
X009404Y002859D01*
X009339Y003015D01*
X009219Y003136D01*
X009062Y003201D01*
X008298Y003201D01*
X008141Y003136D01*
X008021Y003015D01*
X007956Y002859D01*
X007956Y002689D01*
X008021Y002532D01*
X007962Y002676D02*
X003755Y002676D01*
X003836Y002834D02*
X007956Y002834D01*
X008012Y002993D02*
X003878Y002993D01*
X003910Y003151D02*
X008179Y003151D01*
X008298Y003347D02*
X009062Y003347D01*
X009219Y003412D01*
X009339Y003532D01*
X009404Y003689D01*
X009404Y003859D01*
X009339Y004015D01*
X009219Y004136D01*
X009062Y004201D01*
X008298Y004201D01*
X008141Y004136D01*
X008021Y004015D01*
X007956Y003859D01*
X007956Y003689D01*
X008021Y003532D01*
X008141Y003412D01*
X008298Y003347D01*
X008085Y003468D02*
X003901Y003468D01*
X003910Y003310D02*
X012857Y003310D01*
X012800Y003468D02*
X012025Y003468D01*
X011969Y003412D02*
X012089Y003532D01*
X012154Y003689D01*
X012154Y003859D01*
X012089Y004015D01*
X011969Y004136D01*
X011812Y004201D01*
X011048Y004201D01*
X010891Y004136D01*
X010771Y004015D01*
X010706Y003859D01*
X010706Y003689D01*
X010771Y003532D01*
X010891Y003412D01*
X011048Y003347D01*
X011812Y003347D01*
X011969Y003412D01*
X011931Y003151D02*
X013015Y003151D01*
X013174Y002993D02*
X012098Y002993D01*
X012154Y002834D02*
X013332Y002834D01*
X013491Y002676D02*
X012148Y002676D01*
X012074Y002517D02*
X013577Y002517D01*
X013588Y002042D02*
X012122Y002042D01*
X012192Y001883D02*
X013502Y001883D01*
X013490Y001725D02*
X012202Y001725D01*
X012156Y001566D02*
X013542Y001566D01*
X013712Y001408D02*
X012034Y001408D01*
X011448Y001408D02*
X011412Y001408D01*
X011412Y001297D02*
X011412Y001755D01*
X010656Y001755D01*
X010656Y001736D01*
X010668Y001662D01*
X010691Y001591D01*
X010725Y001524D01*
X010769Y001463D01*
X010823Y001410D01*
X010883Y001366D01*
X010950Y001332D01*
X011021Y001309D01*
X011096Y001297D01*
X011412Y001297D01*
X011412Y001566D02*
X011448Y001566D01*
X011448Y001725D02*
X011412Y001725D01*
X011412Y001883D02*
X011448Y001883D01*
X011448Y002042D02*
X011412Y002042D01*
X011412Y002200D02*
X011448Y002200D01*
X011020Y002359D02*
X009090Y002359D01*
X009089Y002239D02*
X009014Y002251D01*
X008698Y002251D01*
X008698Y001792D01*
X008662Y001792D01*
X008662Y001755D01*
X008698Y001755D01*
X008698Y001297D01*
X009014Y001297D01*
X009089Y001309D01*
X009160Y001332D01*
X009227Y001366D01*
X009287Y001410D01*
X009341Y001463D01*
X009385Y001524D01*
X009419Y001591D01*
X009442Y001662D01*
X009454Y001736D01*
X009454Y001755D01*
X008698Y001755D01*
X008698Y001792D01*
X009454Y001792D01*
X009454Y001811D01*
X009442Y001885D01*
X009419Y001957D01*
X009385Y002024D01*
X009341Y002084D01*
X009287Y002137D01*
X009227Y002182D01*
X009160Y002216D01*
X009089Y002239D01*
X009190Y002200D02*
X010920Y002200D01*
X010738Y002042D02*
X009372Y002042D01*
X009442Y001883D02*
X010668Y001883D01*
X010658Y001725D02*
X009452Y001725D01*
X009406Y001566D02*
X010704Y001566D01*
X010826Y001408D02*
X009284Y001408D01*
X008698Y001408D02*
X008662Y001408D01*
X008662Y001297D02*
X008662Y001755D01*
X007906Y001755D01*
X007906Y001736D01*
X007918Y001662D01*
X007941Y001591D01*
X007975Y001524D01*
X008019Y001463D01*
X008073Y001410D01*
X008133Y001366D01*
X008200Y001332D01*
X008271Y001309D01*
X008346Y001297D01*
X008662Y001297D01*
X008662Y001566D02*
X008698Y001566D01*
X008698Y001725D02*
X008662Y001725D01*
X008662Y001883D02*
X008698Y001883D01*
X008698Y002042D02*
X008662Y002042D01*
X008662Y002200D02*
X008698Y002200D01*
X009324Y002517D02*
X010786Y002517D01*
X010712Y002676D02*
X009398Y002676D01*
X009404Y002834D02*
X010706Y002834D01*
X010762Y002993D02*
X009348Y002993D01*
X009181Y003151D02*
X010929Y003151D01*
X010835Y003468D02*
X009275Y003468D01*
X009378Y003627D02*
X010732Y003627D01*
X010706Y003785D02*
X009404Y003785D01*
X009368Y003944D02*
X010742Y003944D01*
X010858Y004102D02*
X009252Y004102D01*
X008108Y004102D02*
X003591Y004102D01*
X003713Y003944D02*
X007992Y003944D01*
X007956Y003785D02*
X003805Y003785D01*
X003859Y003627D02*
X007982Y003627D01*
X007988Y002042D02*
X000660Y002042D01*
X000660Y001883D02*
X007918Y001883D01*
X007908Y001725D02*
X000660Y001725D01*
X000660Y001566D02*
X007954Y001566D01*
X008076Y001408D02*
X000660Y001408D01*
X003156Y004419D02*
X012497Y004419D01*
X012656Y004261D02*
X003430Y004261D01*
X005380Y005529D02*
X011388Y005529D01*
X011229Y005687D02*
X005522Y005687D01*
X005588Y005846D02*
X011071Y005846D01*
X010912Y006004D02*
X005652Y006004D01*
X005652Y006163D02*
X010754Y006163D01*
X010595Y006321D02*
X005652Y006321D01*
X005608Y006480D02*
X010437Y006480D01*
X010278Y006638D02*
X005542Y006638D01*
X005429Y006797D02*
X010120Y006797D01*
X008605Y006955D02*
X005270Y006955D01*
X012002Y004102D02*
X012800Y004102D01*
X012800Y003944D02*
X012118Y003944D01*
X012154Y003785D02*
X012800Y003785D01*
X012800Y003627D02*
X012128Y003627D01*
X013560Y004102D02*
X013649Y004102D01*
X015180Y007774D02*
X014680Y008274D01*
X014680Y008774D01*
X013430Y010024D01*
X013784Y009967D02*
X015240Y009967D01*
X015240Y009808D02*
X013942Y009808D01*
X014101Y009650D02*
X015240Y009650D01*
X015240Y009491D02*
X014259Y009491D01*
X014418Y009333D02*
X015240Y009333D01*
X015240Y009174D02*
X014576Y009174D01*
X014735Y009016D02*
X015240Y009016D01*
X015240Y008857D02*
X014890Y008857D01*
X014890Y008699D02*
X014897Y008699D01*
X015027Y008223D02*
X015048Y008223D01*
D20*
X011680Y007524D03*
X011680Y010024D03*
X010180Y010024D03*
X008930Y007274D03*
X016930Y002774D03*
X018930Y029274D03*
X019680Y029274D03*
X019680Y030024D03*
X018930Y030024D03*
D21*
X011430Y031524D03*
X008930Y027774D03*
X007430Y024274D03*
X003930Y027774D03*
X009430Y019274D03*
X016430Y019024D03*
X019180Y017274D03*
X018180Y016274D03*
X024180Y015524D03*
X026180Y015274D03*
X027180Y017274D03*
X031930Y015774D03*
X034180Y015774D03*
X035180Y017274D03*
X039930Y015774D03*
X042180Y015774D03*
X043180Y017274D03*
X046430Y016274D03*
D22*
X046430Y020024D03*
X046430Y021524D03*
X043930Y021524D03*
X043930Y020024D03*
X041180Y022774D03*
X038430Y021524D03*
X038430Y020024D03*
X035930Y020024D03*
X035930Y021524D03*
X030430Y021524D03*
X030430Y020024D03*
X027930Y020024D03*
X027930Y021524D03*
X025180Y022774D03*
X022430Y021524D03*
X022430Y020024D03*
X019930Y020024D03*
X019930Y021524D03*
X023180Y011274D03*
X023680Y011274D03*
X024180Y011274D03*
X024680Y011274D03*
X024930Y009524D03*
X023680Y009774D03*
X022930Y008524D03*
X021430Y008524D03*
X021430Y009024D03*
X021180Y007524D03*
X021430Y007024D03*
X020930Y006274D03*
X021180Y005774D03*
X022930Y005774D03*
X023430Y006274D03*
X023930Y005524D03*
X022930Y005274D03*
X024930Y005274D03*
X027180Y005274D03*
X027430Y007024D03*
X027430Y008024D03*
X026930Y011274D03*
X021930Y011024D03*
X021430Y011024D03*
X019430Y007774D03*
X018680Y005274D03*
X014180Y007524D03*
X013930Y033274D03*
D23*
X014430Y034024D03*
X015680Y033524D03*
X015930Y030774D03*
X016430Y030774D03*
X014930Y030024D03*
X014430Y029024D03*
X024680Y022524D03*
X024180Y020774D03*
X022430Y019524D03*
X021430Y018774D03*
X020180Y017774D03*
X019930Y016274D03*
X021430Y015274D03*
X021930Y015524D03*
X018930Y014524D03*
X016930Y013774D03*
X016430Y013774D03*
X016430Y012774D03*
X016930Y012774D03*
X017180Y010774D03*
X019555Y011149D03*
X016680Y008524D03*
X016180Y008524D03*
X015680Y008524D03*
X015180Y008524D03*
X016680Y005524D03*
X017180Y005524D03*
X020430Y001774D03*
X021180Y001774D03*
X023180Y003774D03*
X023930Y003774D03*
X022430Y004524D03*
X023930Y006524D03*
X024430Y006274D03*
X026430Y006024D03*
X026930Y006024D03*
X026430Y005524D03*
X029180Y003774D03*
X029430Y004274D03*
X028930Y003274D03*
X028680Y002774D03*
X028430Y002274D03*
X028180Y001774D03*
X026180Y001524D03*
X029430Y007024D03*
X029430Y008024D03*
X029430Y008524D03*
X030180Y009524D03*
X029680Y011774D03*
X032680Y012274D03*
X034180Y014024D03*
X035930Y016524D03*
X036180Y017774D03*
X037430Y018774D03*
X038430Y019524D03*
X040180Y020774D03*
X040680Y022524D03*
X041680Y024774D03*
X047680Y022524D03*
X048680Y022524D03*
X048180Y020774D03*
X046430Y019524D03*
X045430Y018774D03*
X044180Y017774D03*
X043930Y016524D03*
X045430Y016274D03*
X045930Y016274D03*
X049430Y016274D03*
X042180Y011774D03*
X040430Y011024D03*
X038180Y009524D03*
X037180Y009524D03*
X036430Y009524D03*
X036680Y008274D03*
X036680Y007774D03*
X037430Y007774D03*
X037430Y007024D03*
X037680Y008524D03*
X036180Y011024D03*
X037430Y015524D03*
X037930Y015524D03*
X032180Y020774D03*
X030430Y019524D03*
X029430Y018774D03*
X028180Y017774D03*
X027930Y016524D03*
X029430Y015274D03*
X029930Y015524D03*
X026555Y011524D03*
X026430Y009774D03*
X024180Y009774D03*
X033680Y001524D03*
X012555Y017399D03*
X025680Y024774D03*
X031680Y022524D03*
X032680Y022524D03*
D24*
X032430Y010274D03*
D25*
X015430Y023274D03*
X018430Y025274D03*
X015430Y027524D03*
X012430Y032774D03*
X005180Y025274D03*
D26*
X005514Y025624D02*
X005454Y025684D01*
X005276Y025758D01*
X005084Y025758D01*
X004906Y025684D01*
X004770Y025548D01*
X004696Y025370D01*
X004696Y025177D01*
X004770Y025000D01*
X004906Y024864D01*
X005084Y024790D01*
X005276Y024790D01*
X005454Y024864D01*
X005514Y024924D01*
X006592Y024924D01*
X006430Y012274D01*
X000680Y012274D01*
X000680Y040274D01*
X027180Y040274D01*
X027180Y038585D01*
X027155Y038560D01*
X026986Y038268D01*
X026899Y037942D01*
X026899Y037605D01*
X026986Y037279D01*
X027155Y036987D01*
X027180Y036962D01*
X027180Y028024D01*
X022930Y028024D01*
X022930Y035274D01*
X019930Y035274D01*
X018930Y034024D01*
X015680Y034024D01*
X014680Y034774D01*
X014680Y038524D01*
X009680Y038524D01*
X009680Y034524D01*
X006680Y031774D01*
X006601Y025624D01*
X005514Y025624D01*
X005429Y025694D02*
X006602Y025694D01*
X006603Y025793D02*
X000680Y025793D01*
X000680Y025891D02*
X006605Y025891D01*
X006606Y025990D02*
X000680Y025990D01*
X000680Y026088D02*
X006607Y026088D01*
X006608Y026187D02*
X000680Y026187D01*
X000680Y026285D02*
X006610Y026285D01*
X006611Y026384D02*
X000680Y026384D01*
X000680Y026482D02*
X006612Y026482D01*
X006613Y026581D02*
X000680Y026581D01*
X000680Y026679D02*
X006615Y026679D01*
X006616Y026778D02*
X000680Y026778D01*
X000680Y026876D02*
X006617Y026876D01*
X006618Y026975D02*
X000680Y026975D01*
X000680Y027073D02*
X006620Y027073D01*
X006621Y027172D02*
X000680Y027172D01*
X000680Y027270D02*
X006622Y027270D01*
X006624Y027369D02*
X000680Y027369D01*
X000680Y027467D02*
X006625Y027467D01*
X006626Y027566D02*
X000680Y027566D01*
X000680Y027664D02*
X006627Y027664D01*
X006629Y027763D02*
X000680Y027763D01*
X000680Y027861D02*
X006630Y027861D01*
X006631Y027960D02*
X000680Y027960D01*
X000680Y028058D02*
X006632Y028058D01*
X006634Y028157D02*
X000680Y028157D01*
X000680Y028255D02*
X006635Y028255D01*
X006636Y028354D02*
X000680Y028354D01*
X000680Y028452D02*
X006637Y028452D01*
X006639Y028551D02*
X000680Y028551D01*
X000680Y028649D02*
X006640Y028649D01*
X006641Y028748D02*
X000680Y028748D01*
X000680Y028846D02*
X006642Y028846D01*
X006644Y028945D02*
X000680Y028945D01*
X000680Y029043D02*
X006645Y029043D01*
X006646Y029142D02*
X000680Y029142D01*
X000680Y029240D02*
X006648Y029240D01*
X006649Y029339D02*
X000680Y029339D01*
X000680Y029437D02*
X006650Y029437D01*
X006651Y029536D02*
X000680Y029536D01*
X000680Y029634D02*
X006653Y029634D01*
X006654Y029733D02*
X000680Y029733D01*
X000680Y029831D02*
X006655Y029831D01*
X006656Y029930D02*
X000680Y029930D01*
X000680Y030028D02*
X006658Y030028D01*
X006659Y030127D02*
X000680Y030127D01*
X000680Y030225D02*
X006660Y030225D01*
X006661Y030324D02*
X000680Y030324D01*
X000680Y030422D02*
X006663Y030422D01*
X006664Y030521D02*
X000680Y030521D01*
X000680Y030619D02*
X006665Y030619D01*
X006666Y030718D02*
X000680Y030718D01*
X000680Y030816D02*
X006668Y030816D01*
X006669Y030915D02*
X000680Y030915D01*
X000680Y031013D02*
X006670Y031013D01*
X006672Y031112D02*
X000680Y031112D01*
X000680Y031210D02*
X006673Y031210D01*
X006674Y031309D02*
X000680Y031309D01*
X000680Y031407D02*
X006675Y031407D01*
X006677Y031506D02*
X000680Y031506D01*
X000680Y031604D02*
X006678Y031604D01*
X006679Y031703D02*
X000680Y031703D01*
X000680Y031801D02*
X006710Y031801D01*
X006818Y031900D02*
X000680Y031900D01*
X000680Y031998D02*
X006925Y031998D01*
X007032Y032097D02*
X000680Y032097D01*
X000680Y032195D02*
X007140Y032195D01*
X007247Y032294D02*
X000680Y032294D01*
X000680Y032392D02*
X007355Y032392D01*
X007462Y032491D02*
X000680Y032491D01*
X000680Y032589D02*
X007570Y032589D01*
X007677Y032688D02*
X000680Y032688D01*
X000680Y032786D02*
X007785Y032786D01*
X007892Y032885D02*
X000680Y032885D01*
X000680Y032983D02*
X008000Y032983D01*
X008107Y033082D02*
X000680Y033082D01*
X000680Y033180D02*
X008214Y033180D01*
X008322Y033279D02*
X000680Y033279D01*
X000680Y033377D02*
X008429Y033377D01*
X008537Y033476D02*
X000680Y033476D01*
X000680Y033574D02*
X008644Y033574D01*
X008752Y033673D02*
X000680Y033673D01*
X000680Y033771D02*
X008859Y033771D01*
X008967Y033870D02*
X000680Y033870D01*
X000680Y033968D02*
X009074Y033968D01*
X009182Y034067D02*
X000680Y034067D01*
X000680Y034165D02*
X009289Y034165D01*
X009396Y034264D02*
X000680Y034264D01*
X000680Y034362D02*
X009504Y034362D01*
X009611Y034461D02*
X008641Y034461D01*
X008709Y034479D02*
X008976Y034633D01*
X009195Y034852D01*
X009350Y035120D01*
X009430Y035419D01*
X009430Y035728D01*
X009350Y036027D01*
X009195Y036295D01*
X008976Y036514D01*
X008709Y036669D01*
X008410Y036749D01*
X005950Y036749D01*
X005651Y036669D01*
X005384Y036514D01*
X005165Y036295D01*
X005010Y036027D01*
X004930Y035728D01*
X004930Y035419D01*
X005010Y035120D01*
X005165Y034852D01*
X005384Y034633D01*
X005651Y034479D01*
X005950Y034399D01*
X008410Y034399D01*
X008709Y034479D01*
X008848Y034559D02*
X009680Y034559D01*
X009680Y034658D02*
X009001Y034658D01*
X009099Y034756D02*
X009680Y034756D01*
X009680Y034855D02*
X009197Y034855D01*
X009254Y034953D02*
X009680Y034953D01*
X009680Y035052D02*
X009310Y035052D01*
X009358Y035150D02*
X009680Y035150D01*
X009680Y035249D02*
X009384Y035249D01*
X009411Y035347D02*
X009680Y035347D01*
X009680Y035446D02*
X009430Y035446D01*
X009430Y035544D02*
X009680Y035544D01*
X009680Y035643D02*
X009430Y035643D01*
X009427Y035741D02*
X009680Y035741D01*
X009680Y035840D02*
X009400Y035840D01*
X009374Y035938D02*
X009680Y035938D01*
X009680Y036037D02*
X009344Y036037D01*
X009288Y036135D02*
X009680Y036135D01*
X009680Y036234D02*
X009231Y036234D01*
X009158Y036332D02*
X009680Y036332D01*
X009680Y036431D02*
X009060Y036431D01*
X008950Y036529D02*
X009680Y036529D01*
X009680Y036628D02*
X008779Y036628D01*
X008493Y036726D02*
X009680Y036726D01*
X009680Y036825D02*
X000680Y036825D01*
X000680Y036923D02*
X009680Y036923D01*
X009680Y037022D02*
X000680Y037022D01*
X000680Y037120D02*
X002348Y037120D01*
X002217Y037155D02*
X002522Y037074D01*
X002838Y037074D01*
X003143Y037155D01*
X003417Y037313D01*
X003640Y037537D01*
X003798Y037811D01*
X003880Y038116D01*
X003880Y038432D01*
X003798Y038737D01*
X003640Y039011D01*
X003417Y039234D01*
X003143Y039392D01*
X002838Y039474D01*
X002522Y039474D01*
X002217Y039392D01*
X001943Y039234D01*
X001720Y039011D01*
X001562Y038737D01*
X001480Y038432D01*
X001480Y038116D01*
X001562Y037811D01*
X001720Y037537D01*
X001943Y037313D01*
X002217Y037155D01*
X002107Y037219D02*
X000680Y037219D01*
X000680Y037317D02*
X001939Y037317D01*
X001841Y037416D02*
X000680Y037416D01*
X000680Y037514D02*
X001742Y037514D01*
X001676Y037613D02*
X000680Y037613D01*
X000680Y037711D02*
X001619Y037711D01*
X001562Y037810D02*
X000680Y037810D01*
X000680Y037908D02*
X001536Y037908D01*
X001509Y038007D02*
X000680Y038007D01*
X000680Y038105D02*
X001483Y038105D01*
X001480Y038204D02*
X000680Y038204D01*
X000680Y038302D02*
X001480Y038302D01*
X001480Y038401D02*
X000680Y038401D01*
X000680Y038499D02*
X001498Y038499D01*
X001525Y038598D02*
X000680Y038598D01*
X000680Y038696D02*
X001551Y038696D01*
X001595Y038795D02*
X000680Y038795D01*
X000680Y038893D02*
X001652Y038893D01*
X001709Y038992D02*
X000680Y038992D01*
X000680Y039090D02*
X001800Y039090D01*
X001898Y039189D02*
X000680Y039189D01*
X000680Y039287D02*
X002036Y039287D01*
X002206Y039386D02*
X000680Y039386D01*
X000680Y039484D02*
X027180Y039484D01*
X027180Y039386D02*
X003154Y039386D01*
X003324Y039287D02*
X027180Y039287D01*
X027180Y039189D02*
X003462Y039189D01*
X003560Y039090D02*
X027180Y039090D01*
X027180Y038992D02*
X021584Y038992D01*
X021674Y038967D02*
X021349Y039055D01*
X021011Y039055D01*
X020686Y038967D01*
X020393Y038799D01*
X020155Y038560D01*
X019986Y038268D01*
X019899Y037942D01*
X019899Y037605D01*
X019986Y037279D01*
X020155Y036987D01*
X020393Y036749D01*
X020686Y036580D01*
X021011Y036493D01*
X021349Y036493D01*
X021674Y036580D01*
X021967Y036749D01*
X022205Y036987D01*
X022374Y037279D01*
X022461Y037605D01*
X022461Y037942D01*
X022374Y038268D01*
X022205Y038560D01*
X021967Y038799D01*
X021674Y038967D01*
X021803Y038893D02*
X027180Y038893D01*
X027180Y038795D02*
X021971Y038795D01*
X022069Y038696D02*
X027180Y038696D01*
X027180Y038598D02*
X022168Y038598D01*
X022240Y038499D02*
X027120Y038499D01*
X027063Y038401D02*
X022297Y038401D01*
X022354Y038302D02*
X027006Y038302D01*
X026969Y038204D02*
X022391Y038204D01*
X022417Y038105D02*
X026943Y038105D01*
X026916Y038007D02*
X022444Y038007D01*
X022461Y037908D02*
X026899Y037908D01*
X026899Y037810D02*
X022461Y037810D01*
X022461Y037711D02*
X026899Y037711D01*
X026899Y037613D02*
X022461Y037613D01*
X022437Y037514D02*
X026923Y037514D01*
X026950Y037416D02*
X022410Y037416D01*
X022384Y037317D02*
X026976Y037317D01*
X027021Y037219D02*
X022339Y037219D01*
X022282Y037120D02*
X027078Y037120D01*
X027135Y037022D02*
X022225Y037022D01*
X022141Y036923D02*
X027180Y036923D01*
X027180Y036825D02*
X022043Y036825D01*
X021928Y036726D02*
X027180Y036726D01*
X027180Y036628D02*
X021757Y036628D01*
X021486Y036529D02*
X027180Y036529D01*
X027180Y036431D02*
X019060Y036431D01*
X018976Y036514D02*
X019195Y036295D01*
X019350Y036027D01*
X019430Y035728D01*
X019430Y035419D01*
X019350Y035120D01*
X019195Y034852D01*
X018976Y034633D01*
X018709Y034479D01*
X018410Y034399D01*
X015950Y034399D01*
X015651Y034479D01*
X015384Y034633D01*
X015165Y034852D01*
X015010Y035120D01*
X014930Y035419D01*
X014930Y035728D01*
X015010Y036027D01*
X015165Y036295D01*
X015384Y036514D01*
X015651Y036669D01*
X015950Y036749D01*
X018410Y036749D01*
X018709Y036669D01*
X018976Y036514D01*
X018950Y036529D02*
X020874Y036529D01*
X020603Y036628D02*
X018779Y036628D01*
X018493Y036726D02*
X020432Y036726D01*
X020317Y036825D02*
X014680Y036825D01*
X014680Y036923D02*
X020219Y036923D01*
X020135Y037022D02*
X014680Y037022D01*
X014680Y037120D02*
X020078Y037120D01*
X020021Y037219D02*
X014680Y037219D01*
X014680Y037317D02*
X019976Y037317D01*
X019950Y037416D02*
X014680Y037416D01*
X014680Y037514D02*
X019923Y037514D01*
X019899Y037613D02*
X014680Y037613D01*
X014680Y037711D02*
X019899Y037711D01*
X019899Y037810D02*
X014680Y037810D01*
X014680Y037908D02*
X019899Y037908D01*
X019916Y038007D02*
X014680Y038007D01*
X014680Y038105D02*
X019943Y038105D01*
X019969Y038204D02*
X014680Y038204D01*
X014680Y038302D02*
X020006Y038302D01*
X020063Y038401D02*
X014680Y038401D01*
X014680Y038499D02*
X020120Y038499D01*
X020192Y038598D02*
X003835Y038598D01*
X003809Y038696D02*
X020291Y038696D01*
X020389Y038795D02*
X003765Y038795D01*
X003708Y038893D02*
X020557Y038893D01*
X020776Y038992D02*
X003651Y038992D01*
X003862Y038499D02*
X009680Y038499D01*
X009680Y038401D02*
X003880Y038401D01*
X003880Y038302D02*
X009680Y038302D01*
X009680Y038204D02*
X003880Y038204D01*
X003877Y038105D02*
X009680Y038105D01*
X009680Y038007D02*
X003851Y038007D01*
X003824Y037908D02*
X009680Y037908D01*
X009680Y037810D02*
X003798Y037810D01*
X003741Y037711D02*
X009680Y037711D01*
X009680Y037613D02*
X003684Y037613D01*
X003618Y037514D02*
X009680Y037514D01*
X009680Y037416D02*
X003519Y037416D01*
X003421Y037317D02*
X009680Y037317D01*
X009680Y037219D02*
X003253Y037219D01*
X003012Y037120D02*
X009680Y037120D01*
X005867Y036726D02*
X000680Y036726D01*
X000680Y036628D02*
X005581Y036628D01*
X005410Y036529D02*
X000680Y036529D01*
X000680Y036431D02*
X005300Y036431D01*
X005202Y036332D02*
X000680Y036332D01*
X000680Y036234D02*
X005129Y036234D01*
X005072Y036135D02*
X000680Y036135D01*
X000680Y036037D02*
X005016Y036037D01*
X004986Y035938D02*
X000680Y035938D01*
X000680Y035840D02*
X004960Y035840D01*
X004933Y035741D02*
X000680Y035741D01*
X000680Y035643D02*
X004930Y035643D01*
X004930Y035544D02*
X000680Y035544D01*
X000680Y035446D02*
X004930Y035446D01*
X004949Y035347D02*
X000680Y035347D01*
X000680Y035249D02*
X004976Y035249D01*
X005002Y035150D02*
X000680Y035150D01*
X000680Y035052D02*
X005050Y035052D01*
X005106Y034953D02*
X000680Y034953D01*
X000680Y034855D02*
X005163Y034855D01*
X005261Y034756D02*
X000680Y034756D01*
X000680Y034658D02*
X005359Y034658D01*
X005512Y034559D02*
X000680Y034559D01*
X000680Y034461D02*
X005719Y034461D01*
X000680Y039583D02*
X027180Y039583D01*
X027180Y039681D02*
X000680Y039681D01*
X000680Y039780D02*
X027180Y039780D01*
X027180Y039878D02*
X000680Y039878D01*
X000680Y039977D02*
X027180Y039977D01*
X027180Y040075D02*
X000680Y040075D01*
X000680Y040174D02*
X027180Y040174D01*
X027180Y040272D02*
X000680Y040272D01*
X014680Y036726D02*
X015867Y036726D01*
X015581Y036628D02*
X014680Y036628D01*
X014680Y036529D02*
X015410Y036529D01*
X015300Y036431D02*
X014680Y036431D01*
X014680Y036332D02*
X015202Y036332D01*
X015129Y036234D02*
X014680Y036234D01*
X014680Y036135D02*
X015072Y036135D01*
X015016Y036037D02*
X014680Y036037D01*
X014680Y035938D02*
X014986Y035938D01*
X014960Y035840D02*
X014680Y035840D01*
X014680Y035741D02*
X014933Y035741D01*
X014930Y035643D02*
X014680Y035643D01*
X014680Y035544D02*
X014930Y035544D01*
X014930Y035446D02*
X014680Y035446D01*
X014680Y035347D02*
X014949Y035347D01*
X014976Y035249D02*
X014680Y035249D01*
X014680Y035150D02*
X015002Y035150D01*
X015050Y035052D02*
X014680Y035052D01*
X014680Y034953D02*
X015106Y034953D01*
X015163Y034855D02*
X014680Y034855D01*
X014703Y034756D02*
X015261Y034756D01*
X015359Y034658D02*
X014835Y034658D01*
X014966Y034559D02*
X015512Y034559D01*
X015719Y034461D02*
X015097Y034461D01*
X015229Y034362D02*
X019201Y034362D01*
X019122Y034264D02*
X015360Y034264D01*
X015491Y034165D02*
X019043Y034165D01*
X018964Y034067D02*
X015623Y034067D01*
X018641Y034461D02*
X019280Y034461D01*
X019358Y034559D02*
X018848Y034559D01*
X019001Y034658D02*
X019437Y034658D01*
X019516Y034756D02*
X019099Y034756D01*
X019197Y034855D02*
X019595Y034855D01*
X019674Y034953D02*
X019254Y034953D01*
X019310Y035052D02*
X019752Y035052D01*
X019831Y035150D02*
X019358Y035150D01*
X019384Y035249D02*
X019910Y035249D01*
X019411Y035347D02*
X027180Y035347D01*
X027180Y035249D02*
X022930Y035249D01*
X022930Y035150D02*
X027180Y035150D01*
X027180Y035052D02*
X022930Y035052D01*
X022930Y034953D02*
X027180Y034953D01*
X027180Y034855D02*
X022930Y034855D01*
X022930Y034756D02*
X027180Y034756D01*
X027180Y034658D02*
X022930Y034658D01*
X022930Y034559D02*
X027180Y034559D01*
X027180Y034461D02*
X022930Y034461D01*
X022930Y034362D02*
X027180Y034362D01*
X027180Y034264D02*
X022930Y034264D01*
X022930Y034165D02*
X027180Y034165D01*
X027180Y034067D02*
X022930Y034067D01*
X022930Y033968D02*
X027180Y033968D01*
X027180Y033870D02*
X022930Y033870D01*
X022930Y033771D02*
X027180Y033771D01*
X027180Y033673D02*
X022930Y033673D01*
X022930Y033574D02*
X027180Y033574D01*
X027180Y033476D02*
X022930Y033476D01*
X022930Y033377D02*
X027180Y033377D01*
X027180Y033279D02*
X022930Y033279D01*
X022930Y033180D02*
X027180Y033180D01*
X027180Y033082D02*
X022930Y033082D01*
X022930Y032983D02*
X027180Y032983D01*
X027180Y032885D02*
X022930Y032885D01*
X022930Y032786D02*
X027180Y032786D01*
X027180Y032688D02*
X022930Y032688D01*
X022930Y032589D02*
X027180Y032589D01*
X027180Y032491D02*
X022930Y032491D01*
X022930Y032392D02*
X027180Y032392D01*
X027180Y032294D02*
X022930Y032294D01*
X022930Y032195D02*
X027180Y032195D01*
X027180Y032097D02*
X022930Y032097D01*
X022930Y031998D02*
X027180Y031998D01*
X027180Y031900D02*
X022930Y031900D01*
X022930Y031801D02*
X027180Y031801D01*
X027180Y031703D02*
X022930Y031703D01*
X022930Y031604D02*
X027180Y031604D01*
X027180Y031506D02*
X022930Y031506D01*
X022930Y031407D02*
X027180Y031407D01*
X027180Y031309D02*
X024432Y031309D01*
X024496Y031282D02*
X024276Y031374D01*
X024037Y031374D01*
X023817Y031282D01*
X023648Y031114D01*
X023556Y030893D01*
X023556Y030654D01*
X023648Y030434D01*
X023817Y030265D01*
X024037Y030174D01*
X024276Y030174D01*
X024496Y030265D01*
X024665Y030434D01*
X024756Y030654D01*
X024756Y030893D01*
X024665Y031114D01*
X024496Y031282D01*
X024568Y031210D02*
X027180Y031210D01*
X027180Y031112D02*
X024666Y031112D01*
X024707Y031013D02*
X027180Y031013D01*
X027180Y030915D02*
X024747Y030915D01*
X024756Y030816D02*
X027180Y030816D01*
X027180Y030718D02*
X024756Y030718D01*
X024742Y030619D02*
X027180Y030619D01*
X027180Y030521D02*
X024701Y030521D01*
X024653Y030422D02*
X027180Y030422D01*
X027180Y030324D02*
X024555Y030324D01*
X024400Y030225D02*
X027180Y030225D01*
X027180Y030127D02*
X022930Y030127D01*
X022930Y030225D02*
X023913Y030225D01*
X023758Y030324D02*
X022930Y030324D01*
X022930Y030422D02*
X023659Y030422D01*
X023612Y030521D02*
X022930Y030521D01*
X022930Y030619D02*
X023571Y030619D01*
X023556Y030718D02*
X022930Y030718D01*
X022930Y030816D02*
X023556Y030816D01*
X023565Y030915D02*
X022930Y030915D01*
X022930Y031013D02*
X023606Y031013D01*
X023647Y031112D02*
X022930Y031112D01*
X022930Y031210D02*
X023744Y031210D01*
X023880Y031309D02*
X022930Y031309D01*
X022930Y030028D02*
X027180Y030028D01*
X027180Y029930D02*
X022930Y029930D01*
X022930Y029831D02*
X027180Y029831D01*
X027180Y029733D02*
X022930Y029733D01*
X022930Y029634D02*
X027180Y029634D01*
X027180Y029536D02*
X022930Y029536D01*
X022930Y029437D02*
X027180Y029437D01*
X027180Y029339D02*
X022930Y029339D01*
X022930Y029240D02*
X027180Y029240D01*
X027180Y029142D02*
X022930Y029142D01*
X022930Y029043D02*
X027180Y029043D01*
X027180Y028945D02*
X022930Y028945D01*
X022930Y028846D02*
X027180Y028846D01*
X027180Y028748D02*
X022930Y028748D01*
X022930Y028649D02*
X027180Y028649D01*
X027180Y028551D02*
X022930Y028551D01*
X022930Y028452D02*
X027180Y028452D01*
X027180Y028354D02*
X022930Y028354D01*
X022930Y028255D02*
X027180Y028255D01*
X027180Y028157D02*
X022930Y028157D01*
X022930Y028058D02*
X027180Y028058D01*
X027180Y035446D02*
X019430Y035446D01*
X019430Y035544D02*
X027180Y035544D01*
X027180Y035643D02*
X019430Y035643D01*
X019427Y035741D02*
X027180Y035741D01*
X027180Y035840D02*
X019400Y035840D01*
X019374Y035938D02*
X027180Y035938D01*
X027180Y036037D02*
X019344Y036037D01*
X019288Y036135D02*
X027180Y036135D01*
X027180Y036234D02*
X019231Y036234D01*
X019158Y036332D02*
X027180Y036332D01*
X006592Y024906D02*
X005497Y024906D01*
X005320Y024808D02*
X006591Y024808D01*
X006589Y024709D02*
X000680Y024709D01*
X000680Y024611D02*
X006588Y024611D01*
X006587Y024512D02*
X000680Y024512D01*
X000680Y024414D02*
X006586Y024414D01*
X006584Y024315D02*
X000680Y024315D01*
X000680Y024217D02*
X006583Y024217D01*
X006582Y024118D02*
X000680Y024118D01*
X000680Y024020D02*
X006581Y024020D01*
X006579Y023921D02*
X000680Y023921D01*
X000680Y023823D02*
X006578Y023823D01*
X006577Y023724D02*
X000680Y023724D01*
X000680Y023626D02*
X006576Y023626D01*
X006574Y023527D02*
X000680Y023527D01*
X000680Y023429D02*
X006573Y023429D01*
X006572Y023330D02*
X000680Y023330D01*
X000680Y023232D02*
X006570Y023232D01*
X006569Y023133D02*
X000680Y023133D01*
X000680Y023035D02*
X006568Y023035D01*
X006567Y022936D02*
X000680Y022936D01*
X000680Y022838D02*
X006565Y022838D01*
X006564Y022739D02*
X000680Y022739D01*
X000680Y022641D02*
X006563Y022641D01*
X006562Y022542D02*
X000680Y022542D01*
X000680Y022444D02*
X006560Y022444D01*
X006559Y022345D02*
X000680Y022345D01*
X000680Y022247D02*
X006558Y022247D01*
X006557Y022148D02*
X000680Y022148D01*
X000680Y022050D02*
X006555Y022050D01*
X006554Y021951D02*
X002805Y021951D01*
X002834Y021944D02*
X002535Y022024D01*
X002225Y022024D01*
X001926Y021944D01*
X001659Y021789D01*
X001440Y021570D01*
X001285Y021302D01*
X001205Y021003D01*
X001205Y018544D01*
X001285Y018245D01*
X001440Y017977D01*
X001659Y017758D01*
X001926Y017604D01*
X002225Y017524D01*
X002535Y017524D01*
X002834Y017604D01*
X003101Y017758D01*
X003320Y017977D01*
X003475Y018245D01*
X003555Y018544D01*
X003555Y021003D01*
X003475Y021302D01*
X003320Y021570D01*
X003101Y021789D01*
X002834Y021944D01*
X002991Y021853D02*
X006553Y021853D01*
X006552Y021754D02*
X003136Y021754D01*
X003235Y021656D02*
X006550Y021656D01*
X006549Y021557D02*
X003328Y021557D01*
X003385Y021459D02*
X006548Y021459D01*
X006546Y021360D02*
X003441Y021360D01*
X003486Y021262D02*
X006545Y021262D01*
X006544Y021163D02*
X003512Y021163D01*
X003539Y021065D02*
X006543Y021065D01*
X006541Y020966D02*
X003555Y020966D01*
X003555Y020868D02*
X006540Y020868D01*
X006539Y020769D02*
X003555Y020769D01*
X003555Y020671D02*
X006538Y020671D01*
X006536Y020572D02*
X003555Y020572D01*
X003555Y020474D02*
X006535Y020474D01*
X006534Y020375D02*
X003555Y020375D01*
X003555Y020277D02*
X006533Y020277D01*
X006531Y020178D02*
X003555Y020178D01*
X003555Y020080D02*
X006530Y020080D01*
X006529Y019981D02*
X003555Y019981D01*
X003555Y019883D02*
X006528Y019883D01*
X006526Y019784D02*
X003555Y019784D01*
X003555Y019686D02*
X006525Y019686D01*
X006524Y019587D02*
X003555Y019587D01*
X003555Y019489D02*
X006523Y019489D01*
X006521Y019390D02*
X003555Y019390D01*
X003555Y019292D02*
X006520Y019292D01*
X006519Y019193D02*
X003555Y019193D01*
X003555Y019095D02*
X006517Y019095D01*
X006516Y018996D02*
X003555Y018996D01*
X003555Y018898D02*
X006515Y018898D01*
X006514Y018799D02*
X003555Y018799D01*
X003555Y018701D02*
X006512Y018701D01*
X006511Y018602D02*
X003555Y018602D01*
X003544Y018504D02*
X006510Y018504D01*
X006509Y018405D02*
X003518Y018405D01*
X003491Y018307D02*
X006507Y018307D01*
X006506Y018208D02*
X003454Y018208D01*
X003397Y018110D02*
X006505Y018110D01*
X006504Y018011D02*
X003340Y018011D01*
X003256Y017913D02*
X006502Y017913D01*
X006501Y017814D02*
X003157Y017814D01*
X003027Y017716D02*
X006500Y017716D01*
X006499Y017617D02*
X002857Y017617D01*
X002834Y016944D02*
X002535Y017024D01*
X002225Y017024D01*
X001926Y016944D01*
X001659Y016789D01*
X001440Y016570D01*
X001285Y016302D01*
X001205Y016003D01*
X001205Y013544D01*
X001285Y013245D01*
X001440Y012977D01*
X001659Y012758D01*
X001926Y012604D01*
X002225Y012524D01*
X002535Y012524D01*
X002834Y012604D01*
X003101Y012758D01*
X003320Y012977D01*
X003475Y013245D01*
X003555Y013544D01*
X003555Y016003D01*
X003475Y016302D01*
X003320Y016570D01*
X003101Y016789D01*
X002834Y016944D01*
X002861Y016928D02*
X006490Y016928D01*
X006491Y017026D02*
X000680Y017026D01*
X000680Y016928D02*
X001899Y016928D01*
X001728Y016829D02*
X000680Y016829D01*
X000680Y016731D02*
X001600Y016731D01*
X001502Y016632D02*
X000680Y016632D01*
X000680Y016534D02*
X001419Y016534D01*
X001362Y016435D02*
X000680Y016435D01*
X000680Y016337D02*
X001305Y016337D01*
X001268Y016238D02*
X000680Y016238D01*
X000680Y016140D02*
X001242Y016140D01*
X001215Y016041D02*
X000680Y016041D01*
X000680Y015943D02*
X001205Y015943D01*
X001205Y015844D02*
X000680Y015844D01*
X000680Y015746D02*
X001205Y015746D01*
X001205Y015647D02*
X000680Y015647D01*
X000680Y015549D02*
X001205Y015549D01*
X001205Y015450D02*
X000680Y015450D01*
X000680Y015352D02*
X001205Y015352D01*
X001205Y015253D02*
X000680Y015253D01*
X000680Y015155D02*
X001205Y015155D01*
X001205Y015056D02*
X000680Y015056D01*
X000680Y014958D02*
X001205Y014958D01*
X001205Y014859D02*
X000680Y014859D01*
X000680Y014761D02*
X001205Y014761D01*
X001205Y014662D02*
X000680Y014662D01*
X000680Y014564D02*
X001205Y014564D01*
X001205Y014465D02*
X000680Y014465D01*
X000680Y014367D02*
X001205Y014367D01*
X001205Y014268D02*
X000680Y014268D01*
X000680Y014170D02*
X001205Y014170D01*
X001205Y014071D02*
X000680Y014071D01*
X000680Y013973D02*
X001205Y013973D01*
X001205Y013874D02*
X000680Y013874D01*
X000680Y013776D02*
X001205Y013776D01*
X001205Y013677D02*
X000680Y013677D01*
X000680Y013579D02*
X001205Y013579D01*
X001222Y013480D02*
X000680Y013480D01*
X000680Y013382D02*
X001248Y013382D01*
X001275Y013283D02*
X000680Y013283D01*
X000680Y013185D02*
X001320Y013185D01*
X001377Y013086D02*
X000680Y013086D01*
X000680Y012988D02*
X001434Y012988D01*
X001528Y012889D02*
X000680Y012889D01*
X000680Y012791D02*
X001626Y012791D01*
X001773Y012692D02*
X000680Y012692D01*
X000680Y012594D02*
X001964Y012594D01*
X002796Y012594D02*
X006434Y012594D01*
X006435Y012692D02*
X002987Y012692D01*
X003134Y012791D02*
X006437Y012791D01*
X006438Y012889D02*
X003232Y012889D01*
X003326Y012988D02*
X006439Y012988D01*
X006440Y013086D02*
X003383Y013086D01*
X003440Y013185D02*
X006442Y013185D01*
X006443Y013283D02*
X003485Y013283D01*
X003512Y013382D02*
X006444Y013382D01*
X006445Y013480D02*
X003538Y013480D01*
X003555Y013579D02*
X006447Y013579D01*
X006448Y013677D02*
X003555Y013677D01*
X003555Y013776D02*
X006449Y013776D01*
X006451Y013874D02*
X003555Y013874D01*
X003555Y013973D02*
X006452Y013973D01*
X006453Y014071D02*
X003555Y014071D01*
X003555Y014170D02*
X006454Y014170D01*
X006456Y014268D02*
X003555Y014268D01*
X003555Y014367D02*
X006457Y014367D01*
X006458Y014465D02*
X003555Y014465D01*
X003555Y014564D02*
X006459Y014564D01*
X006461Y014662D02*
X003555Y014662D01*
X003555Y014761D02*
X006462Y014761D01*
X006463Y014859D02*
X003555Y014859D01*
X003555Y014958D02*
X006464Y014958D01*
X006466Y015056D02*
X003555Y015056D01*
X003555Y015155D02*
X006467Y015155D01*
X006468Y015253D02*
X003555Y015253D01*
X003555Y015352D02*
X006469Y015352D01*
X006471Y015450D02*
X003555Y015450D01*
X003555Y015549D02*
X006472Y015549D01*
X006473Y015647D02*
X003555Y015647D01*
X003555Y015746D02*
X006475Y015746D01*
X006476Y015844D02*
X003555Y015844D01*
X003555Y015943D02*
X006477Y015943D01*
X006478Y016041D02*
X003545Y016041D01*
X003518Y016140D02*
X006480Y016140D01*
X006481Y016238D02*
X003492Y016238D01*
X003455Y016337D02*
X006482Y016337D01*
X006483Y016435D02*
X003398Y016435D01*
X003341Y016534D02*
X006485Y016534D01*
X006486Y016632D02*
X003258Y016632D01*
X003160Y016731D02*
X006487Y016731D01*
X006488Y016829D02*
X003032Y016829D01*
X001903Y017617D02*
X000680Y017617D01*
X000680Y017519D02*
X006497Y017519D01*
X006496Y017420D02*
X000680Y017420D01*
X000680Y017322D02*
X006495Y017322D01*
X006493Y017223D02*
X000680Y017223D01*
X000680Y017125D02*
X006492Y017125D01*
X001733Y017716D02*
X000680Y017716D01*
X000680Y017814D02*
X001603Y017814D01*
X001504Y017913D02*
X000680Y017913D01*
X000680Y018011D02*
X001420Y018011D01*
X001363Y018110D02*
X000680Y018110D01*
X000680Y018208D02*
X001306Y018208D01*
X001269Y018307D02*
X000680Y018307D01*
X000680Y018405D02*
X001242Y018405D01*
X001216Y018504D02*
X000680Y018504D01*
X000680Y018602D02*
X001205Y018602D01*
X001205Y018701D02*
X000680Y018701D01*
X000680Y018799D02*
X001205Y018799D01*
X001205Y018898D02*
X000680Y018898D01*
X000680Y018996D02*
X001205Y018996D01*
X001205Y019095D02*
X000680Y019095D01*
X000680Y019193D02*
X001205Y019193D01*
X001205Y019292D02*
X000680Y019292D01*
X000680Y019390D02*
X001205Y019390D01*
X001205Y019489D02*
X000680Y019489D01*
X000680Y019587D02*
X001205Y019587D01*
X001205Y019686D02*
X000680Y019686D01*
X000680Y019784D02*
X001205Y019784D01*
X001205Y019883D02*
X000680Y019883D01*
X000680Y019981D02*
X001205Y019981D01*
X001205Y020080D02*
X000680Y020080D01*
X000680Y020178D02*
X001205Y020178D01*
X001205Y020277D02*
X000680Y020277D01*
X000680Y020375D02*
X001205Y020375D01*
X001205Y020474D02*
X000680Y020474D01*
X000680Y020572D02*
X001205Y020572D01*
X001205Y020671D02*
X000680Y020671D01*
X000680Y020769D02*
X001205Y020769D01*
X001205Y020868D02*
X000680Y020868D01*
X000680Y020966D02*
X001205Y020966D01*
X001221Y021065D02*
X000680Y021065D01*
X000680Y021163D02*
X001248Y021163D01*
X001274Y021262D02*
X000680Y021262D01*
X000680Y021360D02*
X001319Y021360D01*
X001375Y021459D02*
X000680Y021459D01*
X000680Y021557D02*
X001432Y021557D01*
X001525Y021656D02*
X000680Y021656D01*
X000680Y021754D02*
X001624Y021754D01*
X001769Y021853D02*
X000680Y021853D01*
X000680Y021951D02*
X001955Y021951D01*
X000680Y024808D02*
X005040Y024808D01*
X004863Y024906D02*
X000680Y024906D01*
X000680Y025005D02*
X004768Y025005D01*
X004727Y025103D02*
X000680Y025103D01*
X000680Y025202D02*
X004696Y025202D01*
X004696Y025300D02*
X000680Y025300D01*
X000680Y025399D02*
X004708Y025399D01*
X004749Y025497D02*
X000680Y025497D01*
X000680Y025596D02*
X004818Y025596D01*
X004931Y025694D02*
X000680Y025694D01*
X000680Y012495D02*
X006433Y012495D01*
X006432Y012397D02*
X000680Y012397D01*
X000680Y012298D02*
X006430Y012298D01*
X020930Y007274D02*
X021180Y007524D01*
X020930Y007274D02*
X020930Y007024D01*
X021180Y006774D01*
D27*
X021680Y006274D01*
X021680Y005524D01*
X021180Y005024D01*
X021180Y002524D01*
X020430Y001774D01*
X021180Y001774D02*
X021430Y002024D01*
X021430Y005024D01*
X021930Y005524D01*
X021930Y006524D01*
X021430Y007024D01*
X020930Y006274D02*
X020680Y006024D01*
X017180Y006024D01*
X016680Y005524D01*
X017180Y005524D02*
X017430Y005774D01*
X021180Y005774D01*
X022430Y004524D02*
X024180Y004524D01*
X026430Y002274D01*
X028430Y002274D01*
X028180Y002524D02*
X028430Y002774D01*
X028680Y002774D01*
X028680Y003274D02*
X028930Y003274D01*
X028680Y003274D02*
X028180Y002774D01*
X026430Y002774D01*
X024180Y005024D01*
X023680Y005024D01*
X022930Y005774D01*
X022930Y005274D02*
X023430Y004774D01*
X024180Y004774D01*
X026430Y002524D01*
X028180Y002524D01*
X027930Y002024D02*
X028180Y001774D01*
X027930Y002024D02*
X026430Y002024D01*
X024180Y004274D01*
X023430Y004274D01*
X023180Y004024D01*
X023180Y003774D01*
X023930Y003774D02*
X024430Y003774D01*
X026180Y002024D01*
X026180Y001524D01*
X028680Y004274D02*
X029180Y003774D01*
X029430Y004274D02*
X029180Y004524D01*
X026680Y004524D01*
X024430Y006774D01*
X024180Y006774D01*
X023930Y006524D01*
X024430Y006274D02*
X024680Y006274D01*
X026680Y004274D01*
X028680Y004274D01*
X026930Y006024D02*
X025930Y007024D01*
X025930Y011774D01*
X026180Y012024D01*
X029430Y012024D01*
X029680Y011774D01*
X029680Y011274D02*
X030180Y011774D01*
X033430Y011774D01*
X036680Y008524D01*
X036680Y008274D01*
X036180Y008274D02*
X036180Y008774D01*
X033430Y011524D01*
X030180Y011524D01*
X029680Y011024D01*
X028180Y011024D01*
X027930Y011274D01*
X027930Y010774D02*
X029680Y010774D01*
X030180Y011274D01*
X033430Y011274D01*
X035930Y008774D01*
X035930Y008024D01*
X036930Y007024D01*
X037430Y007024D01*
X037430Y007774D02*
X037430Y008024D01*
X032680Y012774D01*
X031430Y012774D01*
X031930Y013274D02*
X032430Y013274D01*
X036180Y009524D01*
X036430Y009524D01*
X037180Y009524D02*
X037430Y009774D01*
X037430Y010024D01*
X038430Y011024D01*
X038430Y011274D01*
X038180Y011524D01*
X038680Y011024D02*
X037680Y010024D01*
X037680Y008524D01*
X036680Y007774D02*
X036180Y008274D01*
X037930Y009774D02*
X037930Y010024D01*
X038930Y011024D01*
X038930Y013274D01*
X039180Y013524D01*
X039180Y014024D02*
X038680Y013524D01*
X038680Y011024D01*
X037930Y009774D02*
X038180Y009524D01*
X035930Y004774D02*
X033180Y007524D01*
X029930Y007524D01*
X029430Y008024D01*
X029430Y008524D02*
X029180Y008524D01*
X028930Y008274D01*
X028930Y008024D01*
X029680Y007274D01*
X033180Y007274D01*
X035680Y004774D01*
X035680Y003274D01*
X036180Y003774D02*
X035930Y004024D01*
X035930Y004774D01*
X036180Y003774D02*
X037180Y003774D01*
X037680Y003274D01*
X030180Y009524D02*
X029930Y009774D01*
X026430Y009774D01*
X027930Y010774D02*
X027055Y011649D01*
X026680Y011649D01*
X026555Y011524D01*
X026180Y012274D02*
X032680Y012274D01*
X032430Y014274D02*
X030680Y012524D01*
X026180Y012524D01*
X025430Y011774D01*
X025430Y006524D01*
X026430Y005524D01*
X026430Y006024D02*
X025680Y006774D01*
X025680Y011774D01*
X026180Y012274D01*
X024930Y012774D02*
X024680Y012524D01*
X024680Y011274D01*
X024180Y011274D02*
X024180Y012274D01*
X024930Y013024D01*
X030680Y013024D01*
X032430Y014774D01*
X043930Y014774D01*
X045430Y016274D01*
X045930Y016274D02*
X044180Y014524D01*
X032430Y014524D01*
X030680Y012774D01*
X024930Y012774D01*
X024930Y013274D02*
X023680Y012024D01*
X023680Y011274D01*
X023180Y011274D02*
X023180Y011774D01*
X024930Y013524D01*
X030680Y013524D01*
X032430Y015274D01*
X037180Y015274D01*
X037430Y015524D01*
X037430Y015024D02*
X037930Y015524D01*
X037430Y015024D02*
X032430Y015024D01*
X030680Y013274D01*
X024930Y013274D01*
X024930Y013774D02*
X029430Y013774D01*
X029930Y014274D01*
X029930Y015524D01*
X029680Y015024D02*
X029430Y015274D01*
X029680Y015024D02*
X029680Y014274D01*
X029430Y014024D01*
X024930Y014024D01*
X022430Y011524D01*
X022430Y010524D01*
X021055Y009149D01*
X021055Y008899D01*
X021430Y008524D01*
X021805Y008399D02*
X021555Y008149D01*
X021305Y008149D01*
X020680Y008774D01*
X020680Y010024D01*
X019555Y011149D01*
X021430Y011024D02*
X021430Y015274D01*
X021930Y015024D02*
X021930Y015524D01*
X021930Y015024D02*
X021680Y014774D01*
X021680Y011274D01*
X021930Y011024D01*
X022680Y010524D02*
X022680Y011524D01*
X024930Y013774D01*
X027430Y016024D02*
X027680Y015774D01*
X027930Y015774D01*
X028430Y016274D01*
X035430Y016274D01*
X035680Y016024D01*
X036180Y016024D01*
X036680Y016524D01*
X043930Y016524D01*
X045430Y018774D02*
X045680Y018774D01*
X046430Y019524D01*
X046010Y020774D02*
X046930Y020774D01*
X048680Y022524D01*
X047680Y022524D02*
X042680Y022524D01*
X041930Y023274D01*
X041930Y024524D01*
X041680Y024774D01*
X040680Y022524D02*
X038930Y020774D01*
X038010Y020774D01*
X038430Y019524D02*
X037680Y018774D01*
X037430Y018774D01*
X035930Y016524D02*
X028430Y016524D01*
X027930Y016024D01*
X027680Y016024D01*
X027430Y016274D01*
X021680Y016274D01*
X016180Y010774D01*
X016180Y009024D01*
X016680Y008524D01*
X016180Y008524D02*
X015930Y008774D01*
X015930Y010774D01*
X021680Y016524D01*
X027930Y016524D01*
X027430Y016024D02*
X021680Y016024D01*
X017180Y011524D01*
X017180Y010774D01*
X015680Y010774D02*
X015680Y008524D01*
X015430Y008774D02*
X015430Y010774D01*
X018930Y014274D01*
X018930Y014524D01*
X019930Y015024D02*
X015680Y010774D01*
X015430Y008774D02*
X015180Y008524D01*
X016430Y012774D02*
X016430Y013774D01*
X016930Y013774D02*
X016930Y012774D01*
X019930Y015024D02*
X019930Y016274D01*
X021430Y018774D02*
X021680Y018774D01*
X022430Y019524D01*
X022010Y020774D02*
X022930Y020774D01*
X024680Y022524D01*
X025930Y023274D02*
X025930Y024524D01*
X025680Y024774D01*
X025930Y023274D02*
X026680Y022524D01*
X031680Y022524D01*
X032680Y022524D02*
X030930Y020774D01*
X030010Y020774D01*
X030430Y019524D02*
X029680Y018774D01*
X029430Y018774D01*
X032430Y014274D02*
X033930Y014274D01*
X034180Y014024D01*
X029680Y011274D02*
X028680Y011274D01*
X028430Y011524D01*
X024180Y009774D02*
X023680Y010274D01*
X022680Y010274D01*
X021805Y009399D01*
X021805Y008399D01*
X021430Y009024D02*
X021430Y009274D01*
X022680Y010524D01*
X014430Y029024D02*
X014430Y034024D01*
X014930Y032774D02*
X015680Y033524D01*
X014930Y032774D02*
X014930Y030024D01*
D28*
X029430Y007024D02*
X029574Y006880D01*
X033074Y006880D01*
X035180Y004774D01*
X035180Y003024D01*
X035430Y002774D01*
X037180Y002774D01*
X037680Y002274D01*
D29*
X039930Y004774D01*
X039930Y011274D01*
X040430Y011774D01*
X042180Y011774D01*
X047430Y017774D02*
X049430Y016274D01*
X047430Y017774D02*
X048180Y018524D01*
X048180Y020774D01*
X047430Y017774D02*
X044180Y017774D01*
X039680Y017774D01*
X040180Y018274D01*
X040180Y020774D01*
X039680Y017774D02*
X036180Y017774D01*
X031680Y017774D01*
X032180Y018274D01*
X032180Y020774D01*
X031680Y017774D02*
X028180Y017774D01*
X023680Y017774D01*
X024180Y018274D01*
X024180Y020774D01*
X023680Y017774D02*
X020180Y017774D01*
X012930Y017774D01*
X012555Y017399D01*
X009555Y014399D01*
X009555Y009649D01*
X009930Y009274D01*
X010930Y009274D01*
X011680Y010024D01*
D30*
X010180Y010024D02*
X010180Y014274D01*
X013180Y017274D01*
X019180Y017274D01*
X027180Y017274D01*
X035180Y017274D01*
X043180Y017274D01*
X018430Y025274D02*
X005180Y025274D01*
X008930Y007274D02*
X010180Y007274D01*
X013180Y004274D01*
X013180Y003524D01*
X013930Y002774D01*
X014180Y002774D01*
D31*
X027930Y011274D03*
X028430Y011524D03*
X031430Y012774D03*
X031930Y013274D03*
X038180Y011524D03*
X039180Y013524D03*
X039180Y014024D03*
D32*
X015430Y027524D02*
X014680Y027524D01*
X012430Y029774D01*
X012430Y032774D01*
M02*
